<?xml version="1.0" encoding="utf-8"?>
<!-- Generator: Adobe Illustrator 25.2.0, SVG Export Plug-In . SVG Version: 6.00 Build 0)  -->
<svg version="1.1" id="Capa_1" xmlns="http://www.w3.org/2000/svg" xmlns:xlink="http://www.w3.org/1999/xlink" x="0px" y="0px"
	 viewBox="0 0 153.7 29.1" style="enable-background:new 0 0 153.7 29.1;" xml:space="preserve">
<style type="text/css">
	.st0{fill:#FFFFFF;}
	.st1{fill:#80AE3C;}
	.st2{fill:#262A58;}
</style>
<g id="GLOBOS_PERSONAJES">
	<path class="st0" d="M14.5,0h124.7c8,0,14.5,6.5,14.5,14.5v0.1c0,8-6.5,14.5-14.5,14.5H14.5C6.5,29.1,0,22.6,0,14.6v-0.1
		C0,6.5,6.5,0,14.5,0z"/>
	<path class="st1" d="M16.1,22.3c-0.5,0-0.7-0.2-0.7-0.7v-2.3c0-0.5,0.2-0.7,0.7-0.7h5.3c0.3,0,0.5-0.2,0.5-0.5c0,0,0,0,0-0.1
		c0-0.5-0.2-0.6-0.5-0.7l-2.9-0.4c-1.8-0.3-3-1.1-3-3.2v-2c0-2.2,1.5-3.4,4-3.4h5.5c0.5,0,0.7,0.2,0.7,0.7v2.3
		c0,0.5-0.2,0.7-0.7,0.7h-4.5c-0.3,0-0.5,0.2-0.5,0.5c0,0,0,0,0,0.1c0,0.3,0.2,0.6,0.5,0.6l2.9,0.4c1.8,0.3,3,1.1,3,3.2v2
		c0,2.2-1.5,3.4-4,3.4L16.1,22.3z"/>
	<path class="st1" d="M28.1,21.5v-2.3c0-0.5,0.2-0.7,0.7-0.7h1.9V12h-1.9c-0.5,0-0.7-0.2-0.7-0.7V8.9c0-0.5,0.2-0.7,0.7-0.7h8.3
		c0.5,0,0.7,0.2,0.7,0.7v2.4c0,0.5-0.2,0.7-0.7,0.7h-1.9v6.6h1.9c0.5,0,0.7,0.2,0.7,0.7v2.3c0,0.5-0.2,0.7-0.7,0.7h-8.3
		C28.3,22.3,28.1,22,28.1,21.5z"/>
	<path class="st1" d="M44.8,22.3c-3.3,0-4.8-1.3-4.8-4v-6.1c0-2.7,1.5-4,4.8-4h4.9c0.5,0,0.7,0.2,0.7,0.7v2.4c0,0.5-0.2,0.7-0.7,0.7
		h-4c-0.8,0-1.2,0.3-1.2,1v4.7c0,0.7,0.3,1,0.9,1h1.9v-3c0-0.5,0.2-0.7,0.7-0.7h3c0.5,0,0.7,0.2,0.7,0.7v6c0,0.5-0.2,0.7-0.7,0.7
		L44.8,22.3z"/>
	<path class="st1" d="M60,22.5c-4.8,0-6-1.6-6-4V8.9c0-0.5,0.2-0.7,0.7-0.7h3c0.5,0,0.7,0.2,0.7,0.7v8.9c0,0.5,0.2,0.9,1.6,0.9
		s1.6-0.4,1.6-0.9V8.9c0-0.5,0.2-0.7,0.7-0.7h3c0.5,0,0.7,0.2,0.7,0.7v9.6C66,20.9,64.8,22.5,60,22.5z"/>
	<path class="st1" d="M68.3,21.5v-2.3c0-0.5,0.2-0.7,0.7-0.7h1.9V12H69c-0.5,0-0.7-0.2-0.7-0.7V8.9c0-0.5,0.2-0.7,0.7-0.7h8.3
		c0.5,0,0.7,0.2,0.7,0.7v2.4c0,0.5-0.2,0.7-0.7,0.7h-1.9v6.6h1.9c0.5,0,0.7,0.2,0.7,0.7v2.3c0,0.5-0.2,0.7-0.7,0.7H69
		C68.5,22.3,68.3,22,68.3,21.5z"/>
	<path class="st1" d="M81.1,22.3c-0.5,0-0.7-0.2-0.7-0.7V8.9c0-0.5,0.2-0.7,0.7-0.7h9c0.5,0,0.7,0.2,0.7,0.7v2.3
		c0,0.5-0.2,0.7-0.7,0.7h-5.3v1.5h3.8c0.5,0,0.7,0.2,0.7,0.7v2.1c0,0.5-0.2,0.7-0.7,0.7h-3.8v1.7h5.4c0.5,0,0.7,0.2,0.7,0.7v2.3
		c0,0.5-0.2,0.7-0.7,0.7H81.1z"/>
	<path class="st1" d="M93.8,22.3c-0.5,0-0.7-0.2-0.7-0.7V8.9c0-0.5,0.2-0.7,0.7-0.7h2c0.5,0,0.9,0.2,1.2,0.5l3.8,4.3V8.9
		c0-0.5,0.2-0.7,0.7-0.7h2.9c0.5,0,0.7,0.2,0.7,0.7v12.6c0,0.5-0.2,0.7-0.7,0.7h-2.9c-0.5,0-0.7-0.2-0.7-0.7v-2.4l-3.3-4v6.4
		c0,0.5-0.2,0.7-0.7,0.7L93.8,22.3z"/>
	<path class="st1" d="M111.3,22.3c-0.5,0-0.7-0.2-0.7-0.7V12h-2.9c-0.5,0-0.7-0.2-0.7-0.7V8.9c0-0.5,0.2-0.7,0.7-0.7H118
		c0.5,0,0.7,0.2,0.7,0.7v2.4c0,0.5-0.2,0.7-0.7,0.7h-2.9v9.6c0,0.5-0.2,0.7-0.7,0.7H111.3z"/>
	<path class="st1" d="M121.3,22.3c-0.5,0-0.7-0.2-0.7-0.7V8.9c0-0.5,0.2-0.7,0.7-0.7h9c0.5,0,0.7,0.2,0.7,0.7v2.3
		c0,0.5-0.2,0.7-0.7,0.7H125v1.5h3.8c0.5,0,0.7,0.2,0.7,0.7v2.1c0,0.5-0.2,0.7-0.7,0.7H125v1.7h5.4c0.5,0,0.7,0.2,0.7,0.7v2.3
		c0,0.5-0.2,0.7-0.7,0.7H121.3z"/>
	<polygon class="st2" points="138,9.5 138,21.4 145.3,15.5 	"/>
</g>
</svg>
