<svg xmlns="http://www.w3.org/2000/svg" viewBox="0 0 114.2 114.2"><defs><style>.cls-1{fill:#fff;}.cls-2{fill:#80ae3c;}</style></defs><g id="GLOBOS_PERSONAJES" data-name="GLOBOS PERSONAJES"><path class="cls-1" d="M114.2,57.06A57.1,57.1,0,1,0,57.14,114.2,57.28,57.28,0,0,0,114.2,57.06Z"/><path class="cls-2" d="M104.64,57.06a47.54,47.54,0,1,0-47.5,47.58A47.7,47.7,0,0,0,104.64,57.06Z"/><path class="cls-1" d="M55.08,90.08c-15.15,0-22.19-5.87-22.19-18.4V43.63c0-12.63,7-18.49,22.19-18.49h22c2.25,0,3.24,1,3.24,3.24V39.3c0,2.25-1,3.24-3.24,3.24H59c-3.79,0-5.51,1.45-5.51,4.51V68.52c0,3,1.72,4.33,5.51,4.33H77.09c2.25,0,3.24,1,3.24,3.25V86.83c0,2.25-1,3.25-3.24,3.25Z"/></g></svg>