<svg xmlns="http://www.w3.org/2000/svg" viewBox="0 0 114.2 114.2"><defs><style>.cls-1{fill:#fff;}.cls-2{fill:#262a58;}</style></defs><g id="GLOBOS_PERSONAJES" data-name="GLOBOS PERSONAJES"><path class="cls-1" d="M114.2,57.05a57.1,57.1,0,1,0-57,57.15A57.29,57.29,0,0,0,114.2,57.05Z"/><path class="cls-2" d="M104.64,57.06a47.54,47.54,0,1,0-47.5,47.58A47.7,47.7,0,0,0,104.64,57.06Z"/><path class="cls-1" d="M45.65,90.08H32.39c-2.26,0-3.25-1-3.25-3.25V63c0-3.61,1.08-8.12,3.52-14.43L40.5,28.11c.73-2.07,2.17-3,4.6-3H69.37c2.34,0,3.79.9,4.51,3l7.84,20.48C84.16,54.9,85.24,59.41,85.24,63V86.83c0,2.25-1,3.25-3.25,3.25H68.37c-2.43,0-3.51-1-3.51-3.25V74.2h-16V86.83C48.89,89.08,47.9,90.08,45.65,90.08Zm4.14-32.29H64L59.72,44.08c-.45-1.09-1-1.54-1.72-1.54H55.75c-.72,0-1.26.45-1.72,1.54Z"/></g></svg>