<svg xmlns="http://www.w3.org/2000/svg" xmlns:xlink="http://www.w3.org/1999/xlink" viewBox="0 0 153.84 117.83"><defs><style>.cls-1{fill:#1e8e30;}.cls-2{clip-path:url(#clip-path);}.cls-3{fill:#23d638;}.cls-4{fill:#18733d;}.cls-5{fill:#fff;}</style><clipPath id="clip-path"><path class="cls-1" d="M76.9,0a58.92,58.92,0,1,0,58.94,58.9A59.11,59.11,0,0,0,76.9,0Z"/></clipPath></defs><g id="TXT"><path class="cls-1" d="M76.9,0a58.92,58.92,0,1,0,58.94,58.9A59.11,59.11,0,0,0,76.9,0Z"/><g class="cls-2"><path class="cls-3" d="M27.58,100.92A104.94,104.94,0,0,1,22.44,61a28.78,28.78,0,0,1,.94-6.19,30.19,30.19,0,0,1,3.21-6.68A227,227,0,0,1,46,20.31a19.7,19.7,0,0,1,4.82-4.65,20.6,20.6,0,0,1,6.64-2.19q8.82-1.83,17.65-3.62L102.27,4.3c5.35-1.1,10.81-2.19,16.23-1.52,2.68.33,5.36,1.1,8,.86.17-4-4.13-6.61-7.84-8.2q-8.73-3.77-17.6-7.18c-8.92-3.43-18.35-6.63-27.84-5.48-7.65.93-14.72,4.66-21,9.19a123,123,0,0,0-20.6,19.62C19.48,25.78,8.88,41.77,3.48,59.7a13.54,13.54,0,0,0-.81,5.51c.28,2.32,1.64,4.35,3,6.27l5,7.34A35.91,35.91,0,0,0,15,84.36a25.23,25.23,0,0,1,3.18,3.44c1.42,2,2.45,4.32,3.84,6.38A45.2,45.2,0,0,0,27.58,100.92Z"/><path class="cls-4" d="M123.53,16.46c-2.58-1.53-5.48-3-8.44-2.54l5.5,15.27c3.51,9.77,7,19.56,9.66,29.61a14.72,14.72,0,0,1,.66,6.09,15.19,15.19,0,0,1-2.66,5.65c-5.87,9-11.75,18-18,26.77-2.65,3.66-5.45,7.34-9.16,9.92A37.19,37.19,0,0,1,91,111.72a139.44,139.44,0,0,1-19.2,4.64c-4.78.8-9.77,1.42-13.84,4,8,3.56,17.15,3.5,25.91,2.84,9.52-.73,19-2.12,28.1-5.16C118.2,116,124.31,113,129,108.4c4.18-4.09,7.1-9.29,9.63-14.56a141.91,141.91,0,0,0,11.41-34.58c.75-3.85,1.33-7.84.49-11.67a25.62,25.62,0,0,0-3.4-7.72c-1.49-2.46-3.15-4.81-4.5-7.36a16.33,16.33,0,0,0-3.06-4.78,71.19,71.19,0,0,0-6.92-5.3q-4-2.84-8.19-5.38Z"/></g><path class="cls-5" d="M101.84,92.41a10.59,10.59,0,0,1-1.38,0c-3.59-.53-6.17.46-8.45,3.68-2.65,3.75-7.05,5.24-11.56,5.77-6.44.75-12.5-.18-17.62-4.59A11.22,11.22,0,0,1,60,94a2.67,2.67,0,0,0-2.85-1.63c-3.62.08-7.24,0-10.86,0-2.74,0-3.81-1.33-3-4,3.9-13.31,12.87-21.51,26.21-24.37,13.87-3,25.64,1.39,34.88,12.16a28.73,28.73,0,0,1,6.22,12.36c.58,2.49-.39,3.79-2.91,3.83C105.74,92.44,103.79,92.41,101.84,92.41Zm-1.37-5.07h1.9c2.55,0,2.55,0,1.44-2.24A29.88,29.88,0,0,0,58.65,74.67,28.62,28.62,0,0,0,49.7,85.85c-.5,1.12-.35,1.55,1,1.5,1.78-.07,3.57-.07,5.35,0a1.52,1.52,0,0,0,1.81-1.54,6.78,6.78,0,0,1,2.33-4.3,14.36,14.36,0,0,1,15.08-2.89,4.54,4.54,0,0,0,3.47,0A14.21,14.21,0,0,1,91,79.51a9.09,9.09,0,0,1,4.81,5.17c.84,2.64.8,2.66,3.62,2.66Zm-23.64,9.6a19.7,19.7,0,0,0,8.5-2,10.44,10.44,0,0,0,5.5-7.12,2.45,2.45,0,0,0-.94-2.75,10.41,10.41,0,0,0-5.34-2.24,7,7,0,0,0-4.63,1c-1,.72-.3,2.15-.46,3.26,0,.23,0,.46,0,.69a2.52,2.52,0,0,1-5,0,10.49,10.49,0,0,1,0-2.24,1.76,1.76,0,0,0-1.39-2,9.07,9.07,0,0,0-8.8,1.35,2.62,2.62,0,0,0-1.19,3A10.81,10.81,0,0,0,67,93.93C69.91,96.17,73.33,96.7,76.83,96.94Z"/><path class="cls-5" d="M49.75,49.66a1.88,1.88,0,0,1-1.67-1.21A2.18,2.18,0,0,1,48.46,46a4.6,4.6,0,0,1,1.59-1l14.37-7.19.67-.32c1.55-.69,2.89-.36,3.46.82s0,2.48-1.46,3.25q-7,3.52-14,7A7.3,7.3,0,0,1,49.75,49.66Z"/><path class="cls-5" d="M87.65,37a4.56,4.56,0,0,1,1.45.54l15,7.52a3.56,3.56,0,0,1,1.3.94,2.2,2.2,0,0,1,.28,2.49,2.07,2.07,0,0,1-2.22,1.1,5.13,5.13,0,0,1-1.79-.65L87.2,41.72a4.32,4.32,0,0,1-1.57-1.06,2.18,2.18,0,0,1-.35-2.36C85.64,37.46,86.36,37.07,87.65,37Z"/><path class="cls-5" d="M49.75,28.84a1.87,1.87,0,0,0-1.67,1.21,2.19,2.19,0,0,0,.38,2.47,4.43,4.43,0,0,0,1.59,1l14.37,7.2.67.32c1.55.68,2.89.36,3.46-.83s0-2.48-1.46-3.24q-7-3.52-14-7A7.41,7.41,0,0,0,49.75,28.84Z"/><path class="cls-5" d="M87.65,41.46a4.4,4.4,0,0,0,1.45-.55l15-7.51a3.68,3.68,0,0,0,1.3-.94,2.2,2.2,0,0,0,.28-2.49,2,2,0,0,0-2.22-1.1,4.94,4.94,0,0,0-1.79.65L87.2,36.77a4.35,4.35,0,0,0-1.57,1.07,2.17,2.17,0,0,0-.35,2.35C85.64,41,86.36,41.43,87.65,41.46Z"/><path class="cls-4" d="M15.89,103a3.58,3.58,0,0,1-3-1.6,76.4,76.4,0,0,1,0-84.95,3.59,3.59,0,0,1,6,4,69.22,69.22,0,0,0,0,77,3.61,3.61,0,0,1-1,5A3.54,3.54,0,0,1,15.89,103Z"/><path class="cls-4" d="M138,103a3.59,3.59,0,0,1-3-5.59,69.22,69.22,0,0,0,0-77,3.6,3.6,0,0,1,6-4,76.43,76.43,0,0,1,0,85A3.58,3.58,0,0,1,138,103Z"/></g></svg>