<svg xmlns="http://www.w3.org/2000/svg" viewBox="0 0 114.2 114.2"><defs><style>.cls-1{fill:#fff;}.cls-2{fill:#80ae3c;}</style></defs><g id="GLOBOS_PERSONAJES" data-name="GLOBOS PERSONAJES"><path class="cls-1" d="M57.09,0A57.1,57.1,0,1,0,114.2,57.09,57.28,57.28,0,0,0,57.09,0Z"/><path class="cls-2" d="M104.64,57.06a47.54,47.54,0,1,0-47.5,47.58A47.7,47.7,0,0,0,104.64,57.06Z"/><path class="cls-1" d="M35.55,90.08c-2.25,0-3.25-1-3.25-3.25V28.38c0-2.25,1-3.24,3.25-3.24H64.32c11.82,0,17.32,4.33,17.32,13.8v4.33c0,5-1.71,8.2-5.32,9.74,7.75.72,11.36,5.14,11.36,14v8.29c0,10.11-5.5,14.8-17.5,14.8ZM52.6,50.21h7.66c2.35,0,3.43-1.17,3.43-3.61V44.08c0-2.44-1.08-3.61-3.43-3.61H52.6Zm0,24.53H64.32c2.35,0,3.43-1.17,3.43-3.6V67.62c0-2.44-1.08-3.52-3.43-3.52H52.6Z"/></g></svg>