<svg xmlns="http://www.w3.org/2000/svg" xmlns:xlink="http://www.w3.org/1999/xlink" viewBox="0 0 153.84 117.83"><defs><style>.cls-1{fill:#3bc7ed;}.cls-2{clip-path:url(#clip-path);}.cls-3{fill:#2fddfa;}.cls-4{fill:#3493bf;}.cls-5{fill:#fff;}</style><clipPath id="clip-path"><path class="cls-1" d="M135.84,58.86a58.92,58.92,0,1,0-58.87,59A59.11,59.11,0,0,0,135.84,58.86Z"/></clipPath></defs><g id="TXT"><path class="cls-1" d="M135.84,58.86a58.92,58.92,0,1,0-58.87,59A59.11,59.11,0,0,0,135.84,58.86Z"/><g class="cls-2"><path class="cls-3" d="M28.32,101.16a104.66,104.66,0,0,1-5.14-39.94A28,28,0,0,1,24.12,55a30.23,30.23,0,0,1,3.2-6.69A226.63,226.63,0,0,1,46.69,20.56,19.71,19.71,0,0,1,51.5,15.9a20.66,20.66,0,0,1,6.64-2.18Q67,11.89,75.8,10.1L103,4.54c5.35-1.09,10.81-2.19,16.23-1.52,2.69.34,5.36,1.11,8.06.87.17-4-4.14-6.61-7.84-8.21q-8.73-3.77-17.61-7.17C92.92-14.92,83.49-18.13,74-17c-7.66.93-14.72,4.67-21,9.19a123.85,123.85,0,0,0-20.6,19.63C20.21,26,9.61,42,4.21,60a13.69,13.69,0,0,0-.81,5.5c.29,2.32,1.65,4.35,3,6.28l5,7.33a36.68,36.68,0,0,0,4.29,5.55A25.81,25.81,0,0,1,18.87,88c1.42,2,2.44,4.32,3.84,6.38A43.63,43.63,0,0,0,28.32,101.16Z"/><path class="cls-4" d="M124.26,16.71c-2.58-1.54-5.48-3.05-8.44-2.54l5.5,15.27c3.52,9.77,7,19.56,9.66,29.61a14.69,14.69,0,0,1,.67,6.08A15.43,15.43,0,0,1,129,70.78c-5.88,9-11.75,18-18.06,26.77-2.65,3.67-5.44,7.34-9.16,9.92A37.25,37.25,0,0,1,91.7,112a142,142,0,0,1-19.2,4.64c-4.77.8-9.77,1.42-13.84,4,8,3.56,17.16,3.51,25.91,2.84,9.52-.73,19.06-2.12,28.11-5.16,6.26-2.1,12.36-5.07,17.08-9.68,4.19-4.09,7.11-9.29,9.64-14.57a142.26,142.26,0,0,0,11.41-34.57c.74-3.85,1.32-7.84.48-11.67a25.65,25.65,0,0,0-3.39-7.73c-1.5-2.45-3.16-4.81-4.5-7.35-.9-1.7-1.62-3.47-3.07-4.79a72.71,72.71,0,0,0-6.92-5.29q-4-2.85-8.18-5.39Z"/></g><path class="cls-5" d="M76.74,76.51c12.55.52,22.39,6.71,28.64,18.65.1.2.19.4.28.6.87,2,.53,3.55-.93,4.16s-2.85-.18-3.73-2.1A26.8,26.8,0,0,0,88,84.39,27.64,27.64,0,0,0,50.61,97.82a4,4,0,0,1-1.37,1.84,2.32,2.32,0,0,1-2.93-.12,2.54,2.54,0,0,1-.59-3.18,27.57,27.57,0,0,1,3.87-6.75C56.24,81.08,65,76.74,76.74,76.51Z"/><path class="cls-5" d="M100.11,74.77c-4,0-6.51-3.7-5.07-7.62a24.25,24.25,0,0,1,3.39-6.09,1.9,1.9,0,0,1,3.19-.19A19.93,19.93,0,0,1,105.41,68,5.31,5.31,0,0,1,100.11,74.77Zm1.53-5.5a6.42,6.42,0,0,0-1.2-2.9c-.22-.36-.48-.32-.69,0a6.18,6.18,0,0,0-1.16,2.83,1.32,1.32,0,0,0,1.47,1.55A1.37,1.37,0,0,0,101.64,69.27Z"/><path class="cls-5" d="M57.14,58.23A4.77,4.77,0,1,1,62,53.48,4.59,4.59,0,0,1,57.14,58.23Z"/><path class="cls-5" d="M99.18,53.45a4.77,4.77,0,1,1-4.82-4.75A4.59,4.59,0,0,1,99.18,53.45Z"/><path class="cls-5" d="M45.37,56.44a2.16,2.16,0,0,1-.61-4.23C49.25,50.89,55.85,45,57.33,39.66a2.16,2.16,0,1,1,4.16,1.15C59.6,47.65,51.74,54.66,46,56.35A2.08,2.08,0,0,1,45.37,56.44Z"/><path class="cls-5" d="M105,56.44a2.15,2.15,0,0,1-.61-.09c-5.76-1.69-13.62-8.7-15.52-15.54a2.16,2.16,0,1,1,4.16-1.15c1.48,5.34,8.09,11.23,12.57,12.55a2.16,2.16,0,0,1-.6,4.23Z"/><path class="cls-4" d="M15.89,103a3.58,3.58,0,0,1-3-1.6,76.4,76.4,0,0,1,0-84.95,3.59,3.59,0,0,1,6,4,69.22,69.22,0,0,0,0,77,3.61,3.61,0,0,1-1,5A3.54,3.54,0,0,1,15.89,103Z"/><path class="cls-4" d="M138,103a3.59,3.59,0,0,1-3-5.59,69.22,69.22,0,0,0,0-77,3.6,3.6,0,0,1,6-4,76.43,76.43,0,0,1,0,85A3.58,3.58,0,0,1,138,103Z"/></g></svg>