<svg xmlns="http://www.w3.org/2000/svg" xmlns:xlink="http://www.w3.org/1999/xlink" viewBox="0 0 153.84 117.83"><defs><style>.cls-1{fill:#e6333e;}.cls-2{clip-path:url(#clip-path);}.cls-3{fill:#ff968c;}.cls-4{fill:#b32830;}.cls-5{fill:#fff;}</style><clipPath id="clip-path"><path class="cls-1" d="M135.84,58.88a58.92,58.92,0,1,0-58.88,59A59.11,59.11,0,0,0,135.84,58.88Z"/></clipPath></defs><g id="TXT"><path class="cls-1" d="M135.84,58.88a58.92,58.92,0,1,0-58.88,59A59.11,59.11,0,0,0,135.84,58.88Z"/><g class="cls-2"><path class="cls-3" d="M26.36,99.2a104.66,104.66,0,0,1-5.14-39.94,28.08,28.08,0,0,1,.94-6.19,30.16,30.16,0,0,1,3.2-6.68A226,226,0,0,1,44.73,18.6,19.84,19.84,0,0,1,49.54,14a20.44,20.44,0,0,1,6.64-2.19Q65,9.93,73.84,8.14L101,2.58c5.35-1.09,10.82-2.19,16.23-1.51,2.69.33,5.36,1.1,8.06.86.17-4-4.13-6.61-7.84-8.21Q108.76-10,99.88-13.45C91-16.88,81.54-20.09,72.05-18.93c-7.66.93-14.72,4.66-21,9.19A123.38,123.38,0,0,0,30.48,9.88C18.25,24.07,7.66,40.05,2.25,58a13.53,13.53,0,0,0-.8,5.51c.28,2.32,1.64,4.34,3,6.27l5,7.33a36.19,36.19,0,0,0,4.29,5.55,25.28,25.28,0,0,1,3.18,3.44c1.42,2,2.45,4.32,3.84,6.38A44,44,0,0,0,26.36,99.2Z"/><path class="cls-4" d="M122.3,14.75c-2.58-1.54-5.47-3-8.43-2.54l5.49,15.27c3.52,9.77,7,19.56,9.66,29.61a14.72,14.72,0,0,1,.67,6.09A15.59,15.59,0,0,1,127,68.83c-5.87,9-11.75,18-18.06,26.76-2.65,3.67-5.44,7.35-9.16,9.92A37.25,37.25,0,0,1,89.74,110a142,142,0,0,1-19.2,4.64c-4.77.8-9.76,1.42-13.84,4,8,3.57,17.16,3.51,25.92,2.84,9.52-.72,19-2.11,28.1-5.16,6.26-2.1,12.36-5.07,17.09-9.68,4.18-4.09,7.1-9.29,9.63-14.57a142.26,142.26,0,0,0,11.41-34.57c.74-3.85,1.32-7.84.48-11.67a25.49,25.49,0,0,0-3.39-7.72c-1.49-2.46-3.15-4.82-4.5-7.36-.9-1.7-1.62-3.47-3.06-4.78a72.56,72.56,0,0,0-6.93-5.3q-4-2.84-8.18-5.39Z"/></g><path class="cls-5" d="M76.83,85.72c-7,0-14,0-21,0a8.64,8.64,0,0,1-2.1-.17,2.8,2.8,0,0,1-2.3-2.93,2.86,2.86,0,0,1,2.46-2.82,9.44,9.44,0,0,1,1.92-.11H98c.26,0,.51,0,.77,0,2.28.07,3.72,1.3,3.66,3.1S101,85.7,98.8,85.71C91.48,85.74,84.16,85.72,76.83,85.72Z"/><path class="cls-5" d="M58.25,55.82a4.77,4.77,0,1,1,4.83-4.75A4.61,4.61,0,0,1,58.25,55.82Z"/><path class="cls-5" d="M100.3,51a4.77,4.77,0,1,1-4.83-4.75A4.61,4.61,0,0,1,100.3,51Z"/><path class="cls-5" d="M65.32,52.69a2.84,2.84,0,0,1-2-.85L46.83,35.38a2.87,2.87,0,1,1,4.06-4.07L67.36,47.78a2.88,2.88,0,0,1-2,4.91Z"/><path class="cls-5" d="M88.52,52.69a2.84,2.84,0,0,0,2-.85L107,35.38A2.87,2.87,0,1,0,103,31.31L86.48,47.78a2.88,2.88,0,0,0,2,4.91Z"/><path class="cls-4" d="M15.89,103a3.58,3.58,0,0,1-3-1.6,76.4,76.4,0,0,1,0-84.95,3.59,3.59,0,0,1,6,4,69.22,69.22,0,0,0,0,77,3.61,3.61,0,0,1-1,5A3.54,3.54,0,0,1,15.89,103Z"/><path class="cls-4" d="M138,103a3.59,3.59,0,0,1-3-5.59,69.22,69.22,0,0,0,0-77,3.6,3.6,0,0,1,6-4,76.43,76.43,0,0,1,0,85A3.58,3.58,0,0,1,138,103Z"/></g></svg>