<svg xmlns="http://www.w3.org/2000/svg" xmlns:xlink="http://www.w3.org/1999/xlink" viewBox="0 0 153.84 117.83"><defs><style>.cls-1{fill:#ffce00;}.cls-2{clip-path:url(#clip-path);}.cls-3{fill:#ffef4f;}.cls-4{fill:#ffb300;}.cls-5{fill:#fff;}</style><clipPath id="clip-path"><path class="cls-1" d="M135.84,58.86a58.92,58.92,0,1,0-58.87,59A59.11,59.11,0,0,0,135.84,58.86Z"/></clipPath></defs><g id="TXT"><path class="cls-1" d="M135.84,58.86a58.92,58.92,0,1,0-58.87,59A59.11,59.11,0,0,0,135.84,58.86Z"/><g class="cls-2"><path class="cls-3" d="M25.28,100.43a104.66,104.66,0,0,1-5.13-39.94,28.07,28.07,0,0,1,.93-6.19,30.64,30.64,0,0,1,3.21-6.68A227,227,0,0,1,43.65,19.83a19.7,19.7,0,0,1,4.82-4.65A20.36,20.36,0,0,1,55.11,13q8.82-1.83,17.65-3.62L100,3.81c5.35-1.09,10.81-2.19,16.23-1.51,2.69.33,5.36,1.1,8.06.86.16-4-4.14-6.61-7.85-8.21q-8.73-3.75-17.6-7.17C89.89-15.65,80.46-18.86,71-17.7c-7.65.93-14.72,4.66-21,9.19a122.61,122.61,0,0,0-20.6,19.62C17.18,25.3,6.58,41.28,1.18,59.22a13.71,13.71,0,0,0-.81,5.51C.65,67.05,2,69.07,3.34,71l5,7.33a35.51,35.51,0,0,0,4.28,5.55,24.66,24.66,0,0,1,3.18,3.44c1.42,2,2.45,4.32,3.85,6.38A44.55,44.55,0,0,0,25.28,100.43Z"/><path class="cls-4" d="M121.23,16c-2.58-1.54-5.48-3-8.44-2.54l5.5,15.27c3.51,9.77,7,19.56,9.66,29.61a14.72,14.72,0,0,1,.66,6.09A15.19,15.19,0,0,1,126,70.06c-5.87,9-11.74,18-18,26.76-2.65,3.67-5.45,7.35-9.16,9.92a37.22,37.22,0,0,1-10.07,4.5,142,142,0,0,1-19.2,4.64c-4.78.8-9.77,1.42-13.84,4,8,3.57,17.15,3.51,25.91,2.84,9.52-.72,19-2.11,28.1-5.16,6.26-2.1,12.37-5.07,17.09-9.68,4.18-4.09,7.1-9.29,9.63-14.56a142.05,142.05,0,0,0,11.41-34.58c.75-3.85,1.33-7.84.49-11.67a25.62,25.62,0,0,0-3.4-7.72c-1.49-2.46-3.15-4.82-4.5-7.36a16.07,16.07,0,0,0-3.06-4.78,71.19,71.19,0,0,0-6.92-5.3q-4-2.84-8.19-5.39Z"/></g><path class="cls-5" d="M77,50.39h31.34c.6,0,1.21,0,1.81,0,2.25.21,3.16,1.15,3.1,3.42a34.85,34.85,0,0,1-4.91,17.41C102.44,81,93.9,87.17,82.58,88.91a35,35,0,0,1-29-8.13,35.67,35.67,0,0,1-12.5-22,36,36,0,0,1-.44-5.08c0-2.08.86-3,2.93-3.24a18.44,18.44,0,0,1,2,0Zm-.11,5.32c-9.67,0-19.34,0-29,0-1.21,0-2.08.13-1.82,1.7A32,32,0,0,0,56.23,76.31C57,77,57.4,76.93,58,76c4.93-7.84,11.89-11.78,21.28-10.9,7.27.68,12.61,4.5,16.41,10.53.9,1.42,1.34,1.26,2.37.28a31.63,31.63,0,0,0,9.63-18c.37-2.08.24-2.26-1.91-2.26Zm0,28.3a29.35,29.35,0,0,0,14-3.2c1.07-.52,1.22-1.09.58-2a21.27,21.27,0,0,0-3.22-4.15,16.74,16.74,0,0,0-25.9,4.07c-.62,1-.54,1.6.6,2.16A29.48,29.48,0,0,0,76.94,84Z"/><path class="cls-5" d="M67.44,29a2.58,2.58,0,0,1-2.09,2.44,12.51,12.51,0,0,1-3.61.2c-1.12,0-1.6.39-1.55,1.54.06,1.54,0,3.08,0,4.62,0,2.11-1,3.41-2.53,3.41s-2.6-1.38-2.62-3.36c0-1.43-.1-2.86,0-4.28.13-1.59-.55-2.05-2-1.94a12.87,12.87,0,0,1-2.63-.09A2.64,2.64,0,0,1,47.86,29a2.58,2.58,0,0,1,2.52-2.54,19.11,19.11,0,0,1,3.12-.11c1.12,0,1.6-.4,1.56-1.55-.06-1.64,0-3.29,0-4.94,0-1.87,1-3,2.53-3.08s2.57,1.12,2.61,3.13c0,1.6.06,3.19,0,4.78-.06,1.2.38,1.71,1.61,1.66a12.45,12.45,0,0,1,3.6.2A2.48,2.48,0,0,1,67.44,29Z"/><path class="cls-5" d="M106,28.92a2.82,2.82,0,0,1-2.17,2.5,13.67,13.67,0,0,1-3.61.19c-1,0-1.5.38-1.47,1.46,0,1.7,0,3.41,0,5.11a2.86,2.86,0,0,1-2.64,3c-1.4,0-2.44-1.22-2.49-2.94s-.1-3.2,0-4.78-.52-1.95-1.92-1.86a10.49,10.49,0,0,1-3.11-.15A2.48,2.48,0,0,1,86.44,29a2.31,2.31,0,0,1,2.19-2.45,13.88,13.88,0,0,1,3-.17c1.54.11,2.22-.38,2.09-2a39.38,39.38,0,0,1,0-4.61c0-1.8,1-2.89,2.46-2.94s2.61,1.12,2.66,2.94c0,1.59.1,3.19,0,4.78s.51,2,1.92,1.85a10.59,10.59,0,0,1,3.27.2A2.71,2.71,0,0,1,106,28.92Z"/><path class="cls-4" d="M15.89,103a3.58,3.58,0,0,1-3-1.6,76.4,76.4,0,0,1,0-84.95,3.59,3.59,0,0,1,6,4,69.22,69.22,0,0,0,0,77,3.61,3.61,0,0,1-1,5A3.54,3.54,0,0,1,15.89,103Z"/><path class="cls-4" d="M138,103a3.59,3.59,0,0,1-3-5.59,69.22,69.22,0,0,0,0-77,3.6,3.6,0,0,1,6-4,76.43,76.43,0,0,1,0,85A3.58,3.58,0,0,1,138,103Z"/></g></svg>