<svg xmlns="http://www.w3.org/2000/svg" xmlns:xlink="http://www.w3.org/1999/xlink" viewBox="0 0 354.23 383.3"><defs><style>.cls-1{fill:none;}.cls-2{clip-path:url(#clip-path);}.cls-3{fill:#bd4089;}.cls-4{fill:#c4906c;}.cls-5{fill:#ffdc80;}.cls-6{fill:#fedc81;}.cls-7{fill:#c5926c;}.cls-8{fill:#262a58;}.cls-9{fill:#fff;}.cls-10{fill:#fedb80;}.cls-11{fill:#f7d57f;}.cls-12{fill:#b26f40;}.cls-13{fill:#c13615;}.cls-14{fill:#fcfaf9;}.cls-15{fill:#ecc673;}.cls-16{fill:#e6bf6f;}.cls-17{fill:#dfb9a6;}.cls-18{fill:#d19579;}</style><clipPath id="clip-path"><rect class="cls-1" width="354.23" height="383.3"/></clipPath></defs><g id="ILUSTRACIONES_2"><g class="cls-2"><path class="cls-3" d="M334.52,429.64c-2.15.2-4.29.35-6.44.49-25.87,1.66-51.82,1.07-77.74.49l-59.77-1.34a16.22,16.22,0,0,1-7.32-1.59,5.67,5.67,0,0,1-2.39-2.26,12.32,12.32,0,0,1-.53-1.55,84,84,0,0,0-4.52-9.06c-3.88-7.48-7.73-15-13.25-21.48a3.35,3.35,0,0,1-.88-2c.92-3,3.29-5.05,5.31-7.21a14.19,14.19,0,0,0,3.75-11.86c-1.69-13.86-5.75-26.81-15.18-37.63a35.21,35.21,0,0,0-12.68-9.14c3-6.92,8.26-11.95,14.12-16.43a15.42,15.42,0,0,1,4.05-2,82.72,82.72,0,0,1,19.32-4.93,51.38,51.38,0,0,0,9.08-2.46,9.26,9.26,0,0,0,4.14-3.19c2.7-3.17,5.9-5.44,10.16-5.91-.88,4.34.76,7.36,4.52,9.65,19.67,12,40.39,15.93,62.66,8.47a25.75,25.75,0,0,0,6.21-3.15c1-.66,1.93-1.38,2.85-2.13l1.31-1.11a2.22,2.22,0,0,1,.49-.38,4.59,4.59,0,0,0,1.07-.95c.34-.35.65-.73,1-1.11.42-.54.82-1.11,1.22-1.67.2-.29.57-.77.43-1.15a1.61,1.61,0,0,1-.16-.38c0-.07,0-.65.13-.64l2.2.06a6.47,6.47,0,0,1,2.61,2.11c5.5,6.79,13,9.94,21.24,11.93,6.58,1.6,13.17,3.1,19,6.89,6.26,4.06,9.36,10.46,12.44,16.69a39.7,39.7,0,0,1,4.28,21.13c-2.29,3-4.7,5.83-8.72,6.5a14.63,14.63,0,0,1-5-7.81,177,177,0,0,0-6.44-18.15c-.47-1.08-.55-2.42-2.14-3.28a47.2,47.2,0,0,0,1.85,7.11c5.54,17.67,11,35.37,15.58,53.31a115.47,115.47,0,0,1,3.05,22l.45,7.61c.12,2,.68,3.78.85,5.76A104.28,104.28,0,0,1,334.52,429.64Z"/><path class="cls-4" d="M282.18,301.77a3,3,0,0,1-.5.39c-.85.57-1.7,1.12-2.57,1.65-1.69,1-3.41,2-5.18,2.87s-3.57,1.7-5.4,2.43-3.7,1.39-5.59,2-3.8,1.08-5.73,1.5c-1,.21-1.94.4-2.91.56a2.75,2.75,0,0,0-.56.16,1,1,0,0,1-.25.06,13.65,13.65,0,0,1-1.57.05c-2.75.06-5.51,0-8.27-.12-4.89-.16-9.63-1.54-14.37-2.7a60.89,60.89,0,0,1-19.35-8.14c-1.67-1.1-3.37-2.19-4.92-3.45-3.23-2.6-3.51-4.81-1.26-8.46,3-5.27,4-11.09,4.42-17a84,84,0,0,0-.8-18.47,33,33,0,0,0-4.2-12.07c-3.37-5.58-6.5-11.34-10.95-16.26-5-5.57-10.76-9.28-18.5-9.59a57.13,57.13,0,0,1-9.66-1.61c-4.93-1.07-8.65-4.22-11.55-8a46.85,46.85,0,0,1-9-19.79,20.82,20.82,0,0,1,1.52-12.92c1.39-3,2.67-3.64,6-3.25a27.25,27.25,0,0,1,4.69,1.36,6,6,0,0,0-1.29-3.34,71.83,71.83,0,0,1-9.76-35.65c-.07-7.58.07-15.22,2.39-22.46,3.82-12,9.08-23.3,18.22-32.24a75,75,0,0,1,25.18-16.34,98.37,98.37,0,0,1,34.14-7.25c8.17-.18,15.84,2.29,23.12,6.1,15.32,8,26,20.42,33.8,35.55a61.45,61.45,0,0,1,5.33,13.29c.19,7,3,13.46,4.43,20.22,2.28,10.85,3.77,21.79,2.83,32.93a49.78,49.78,0,0,0-.06,6.8c1,18.08-4.12,34.93-10.69,51.38a118.6,118.6,0,0,1-14.83,26.26,50.53,50.53,0,0,0-5.51,4c-.21,2.24.57,5.27-.3,7.42-1.41,3.45,0,7,.28,10.42a45.85,45.85,0,0,0,5.76,18.93,24.23,24.23,0,0,0,10.39,10l.34.16a8.69,8.69,0,0,1,2.13,1.13,2.79,2.79,0,0,1,.4.44,3,3,0,0,1,.35.52A.56.56,0,0,1,282.18,301.77Z"/><path class="cls-4" d="M62.14,429.79A359.64,359.64,0,0,1,20,428.12a32.61,32.61,0,0,1,3.54-4c1.63-1.3,3.55-2.4,5.24-3.67,3.26-2.45,6.43-5,9.56-7.63,8.22-6.87,16.18-14,24-21.29,13.9-12.82,28.18-25.21,42.54-37.5,10-8.55,20.29-16.59,31.71-23.13a30.28,30.28,0,0,0,6.26-5.41,8.77,8.77,0,0,1,6.32,2,47.71,47.71,0,0,1,9.76,9.85c7.17,9.34,10.55,20.13,12.26,31.58a31.91,31.91,0,0,1,.54,7.07c-.39,5.71-4.48,9-7.64,13-.63.78-1.35,1.48-2,2.22-.61,1.14-1.84,1.25-2.87,1.65-16.55,6.46-33,13.18-49,20.84l-.7.34c-4.47,2.15-8.9,4.42-13.28,6.77-4.86,2.61-9.35,5.69-14.76,7.12a71.57,71.57,0,0,1-16.25,1.87Z"/><path class="cls-5" d="M346.66,355a56.71,56.71,0,0,0-8.23-27.73c-4.75-8-11.56-12.21-20.13-14.39-3.27-.83-6.53-1.74-9.82-2.49a41.91,41.91,0,0,1-11.72-5,25.53,25.53,0,0,1-9.12-9.31,5.47,5.47,0,0,1,5.65,2.1c3.08,3.49,7,5.59,11.4,7.11,6.22,2.19,12.5,3.92,19.15,2.26,1.83-.46,3.09.84,4.62,1.28a23.05,23.05,0,0,1,15.33,12.85,63.46,63.46,0,0,1,6.15,24.26c.58,10.07.57,20.12.46,30.19A126,126,0,0,1,348,398.16a9.8,9.8,0,0,0-.17,4.07,20.31,20.31,0,0,1,.29,4.13c0,4.08,0,8.16,0,12.24a16.51,16.51,0,0,0,.31,5.07,4.9,4.9,0,0,1,.3,1.82c0,.43-.14,2.35-.57,2.56-1.18.59-3,.95-3.46-.29a2.36,2.36,0,0,1,0-1.09,16.34,16.34,0,0,0,.4-3.86c-.38-3.12-.65-6.29-.84-9.45-.25-4.34-1.1-8.69-1.64-13-1.62-13.07-6.56-25.21-9.9-37.8-2.55-9.6-5.77-19-8.55-28.5a11,11,0,0,0-.41-1.45c-.57-1.24-.3-2.48.81-2.93s1.6.9,2,1.75a138.37,138.37,0,0,1,7.64,20.87c.93,3.44,2.91,6.05,4.83,8.82a7,7,0,0,1,2.29,3.8c1.82,5.92,4.71,11.48,5.59,17.07a9.87,9.87,0,0,1-.49-3.45c-.24-7.27.26-14.55-.35-21.81A2.81,2.81,0,0,1,346.66,355Z"/><path class="cls-6" d="M268.54,248.11c1-3.59,3.49-6.4,5.24-9.57,5.06-9.14,10-18.35,12.87-28.45,1.91-6.63,3.84-13.28,5.27-20A55.26,55.26,0,0,0,293,180c.16-6.91-.26-13.82.51-20.75.41-3.68-.32-7.51-.67-11.25-.66-7.1-1.4-14.23-3.6-21.1-1.14-3.58-2.05-7.25-2.83-10.93-.38-1.77-.9-3.72.44-5.42,2.66,6,3.91,12.44,5.3,18.81,1.78,8.2,3.49,16.41,4,24.86.38,5.78.71,11.54.55,17.32A144.64,144.64,0,0,1,281.48,232a48.13,48.13,0,0,1-7.42,10.41C272.33,244.39,271,246.81,268.54,248.11Z"/><path class="cls-5" d="M282.42,301.35a4,4,0,0,1-.6,0,.69.69,0,0,1-.37-.16,9.35,9.35,0,0,0-1.85-.91,25.07,25.07,0,0,1-12.55-12.43,47.79,47.79,0,0,1-5.11-18.71c-.11-2.5-1-4.92-.73-7.47.09-.86-.22-1.9.4-2.55,1.67-1.75,1.64-4.09,2.4-6.15a99.25,99.25,0,0,0,3.26,22.68,30.52,30.52,0,0,0,5.33,12c3.3,4.19,7.19,7.7,12.84,8.37a4.27,4.27,0,0,0,1.08,1.3c.22.12.6.16.75.38s-.21.78-.4,1a8.71,8.71,0,0,1-2.11,1.91A5.06,5.06,0,0,1,282.42,301.35Z"/><path class="cls-7" d="M346.66,355c1.24,5.59.62,11.27.74,16.91a69.52,69.52,0,0,1-.58,11.88L339,361.09Z"/><path class="cls-8" d="M206.59,248.3c-1,.8-1.91,1.61-2.91,2.31-1.65,1.14-3.46,2.07-5,3.33-4.71,3.81-5.34,8.62-2,13.64a9.35,9.35,0,0,1,.62,1.22c-1.3,1.28-2.23.34-3.12-.26-5.57-3.82-7.07-9.33-6-15.61a39.47,39.47,0,0,1,2.67-7.82c.6-1.51,1.58-2.87,2.28-4.34,2.77-5.84,3.2-9.66-3.26-16l-1.57,1.95c-2.73,3.46-5.39,7-8.22,10.37-4.87,5.8-6.64,12.32-4.85,19.73,1,4.16,2.41,8.26,3,12.47.41,3-.11,6.25-.48,9.35-.2,1.73-.45,1.7-2.52,2.68-.19-.15-.55-.31-.54-.46.06-4.65-2.6-7.87-6-10.34-6.36-4.62-9.57-10.83-10.47-18.49-.39-3.36-1-6.69-1.51-10.1a3.81,3.81,0,0,0-1.22.25c-8.92,6-19.11,9-29.26,12a73.06,73.06,0,0,0-26.79,14.37c-11.34,9.56-15.8,22.24-14.31,36.86.74,7.32,6.23,12.52,13.73,14.1a11.27,11.27,0,0,1,1.91,1c-1.23.58-1.9,1.18-2.54,1.15-8.18-.41-15.25-3.28-20.36-9.92a34.88,34.88,0,0,1-7-21.58,67.66,67.66,0,0,1,14.74-43.18c5-6.32,10.75-12,16.08-18.08,1.74-2,3.23-4.19,4.84-6.29,3.31-4.33,2.52-8.72.06-13a19.44,19.44,0,0,0-7.35-6.9,84,84,0,0,1-10.33-7c-8.28-6.74-11.72-15.83-12-26.3-.32-12.31,1.65-24.12,7.71-35,1-1.77,1.88-3.57,2.79-5.37a48.3,48.3,0,0,1,13.36-16.22c3.06-2.42,6-5,8.85-7.67,4-3.85,5.67-8.59,4.36-14.11-.73-3.06-1.64-6.07-2.58-9.08-1.19-3.85-2.5-7.66-3.74-11.5a46.71,46.71,0,0,1-.38-26.86,62,62,0,0,1,19.06-31.17,39.46,39.46,0,0,1,20.46-9.15C166.6.13,184.51,4.94,200.47,17.06c2.1,1.6,4.22,3.18,6.32,4.8a50.51,50.51,0,0,1,13.41,15.2c3.18,5.58,7,10.83,8.74,17.12.41,1.46,1.47,1.81,2.81,2,13.41,2.41,24.43,9.43,33.81,18.82s17.1,20.38,21.33,33c1.59,4.74,3.74,9.56,3.74,15.29-10.34-5.63-14.18-14.87-17.61-24.8-1.77.83-3.24,1.45-4.64,2.2-10.58,5.66-21.43,10.64-33.11,13.62a94.06,94.06,0,0,1-31.88,2.39c-6.5-.58-13-1.36-19.79-2.08.15-.17-.13,0-.14.18-.2,6.39-2.3,12.33-4.1,18.37A124.76,124.76,0,0,0,176,146.82a29.47,29.47,0,0,0,2.55,18.8c1.75,3.49,3.66,6.9,5.38,10.41,2.78,5.65,5.79,11.22,8.09,17.06,3.54,9,4.27,18.36,1.14,27.77a4.19,4.19,0,0,0,.17,2.79,13.93,13.93,0,0,0,2.39,3.83c5.47,5.91,10.88,11.9,16.63,17.55a49.71,49.71,0,0,0,18.31,11.08c9.92,3.58,19.54,3.09,28.58-2.77,2.94-1.9,9.09-5.43,9.28-5.23l-4.64,4.2c.11,2.11-.15,4.35.43,6.34a4.45,4.45,0,0,1-1.78,5.27,82.66,82.66,0,0,1-9.1,6.68,16,16,0,0,1-9.89,1.82,41.47,41.47,0,0,1-26-12.46C213.74,256.09,210.12,252.07,206.59,248.3Zm-45.44-34.6a33.37,33.37,0,0,0,.95-3.36,52.93,52.93,0,0,0,.14-18c-1-5.86-2.33-11.56-5.35-16.79a5.61,5.61,0,0,0-4.41-3c-5.19-.72-8.21,1.71-8.57,7,0,.75,0,1.51,0,2.26.17,10.47,4.5,19.23,11.23,26.92C156.72,210.47,158.89,211.83,161.15,213.7Z"/><path class="cls-8" d="M296.6,175.32c.84,3.66,2.45,7.85,3.33,11.5a68.14,68.14,0,0,0,9.54,22c8.08,12.22,9,25.71,5.47,39.55-1.82,7.08-6.76,12.26-12.16,16.94a2.22,2.22,0,0,1-1,.29c-.1,0-.22-.1-.45-.21-.81-1.12.08-2,.6-3,3.81-6.76,2.82-14.3-2.73-19.66-2.08-2-4.58-3.61-6.5-5.75-2.24-2.5-4.07-5.38-6.07-8.1-.64-.88-1.27-1.76-2.17-3C290.89,210.2,295.35,195.83,296.6,175.32Z"/><path class="cls-9" d="M313,344.18a53.82,53.82,0,0,1,3.35,5.29,43.94,43.94,0,0,1,3.63,26.16,50.68,50.68,0,0,1-15,29,58.1,58.1,0,0,1-4.89,3.87c-6.59-9.59-9-19.55-7.27-30.45C294.73,366.11,301.69,355.46,313,344.18Z"/><path class="cls-8" d="M145.61,326.2l-.19-.13-.95-.64-.49-.32c-.08-.06-.33-.28-.42-.28,2-.12,3.82.92,5.47,2,.67.45,1.33.92,2,1.4a46.6,46.6,0,0,1,3.63,2.94,5.75,5.75,0,0,1,1.42,1.45,4.87,4.87,0,0,0,.79,1c1.13,1.24,2.21,2.5,3.25,3.81a58.92,58.92,0,0,1,9.54,16.69,50.48,50.48,0,0,1,2.86,19.26c-.29,6.5-2.4,12.06-7.32,16.43-.56.49-1.22.88-1.87,1.35,5.7,4.87,11.13,9.27,16.28,14s10.73,8.95,15.15,14.43c-3.77-1.35-6.17-4.46-9.11-6.84s-5.6-4.89-8.61-7.14c7.18,10.54,15.51,20.21,22.62,30.76l-.59.53a24,24,0,0,1-2.18-2.22c-6.35-8.16-12.6-16.39-19-24.5-3.59-4.55-7.33-9-11.17-13.32a68,68,0,0,0-5.84-5.31c1.28-1.16,2.6-2.31,3.88-3.49,4-3.72,5.83-8.42,6.18-13.79.79-11.95-2.7-22.64-9.38-32.42l-.22-.3c-1.38-1.89-2.74-3.8-4.23-5.61a16.29,16.29,0,0,0-1.2-1.15c-.54-.54-1.08-1.07-1.63-1.59q-1.65-1.58-3.4-3c-1.16-1-2.36-1.91-3.58-2.81C146.72,327,146.17,326.59,145.61,326.2Z"/><path class="cls-8" d="M199,292.13a13.21,13.21,0,0,1,1.79-.65c.72-.12,1.46-.14,2.73-.24-1.64,2.91.11,4.4,1.82,5.9a58.36,58.36,0,0,0,30.89,13.95c6.33.92,12.69,1.84,19.17.89,11.12-1.62,20.86-6.31,30.11-12.85l-1.58-2.48a5.48,5.48,0,0,1,1.29-.54c1.12-.05,2.24,0,3.53,0,0,1.87-1.22,2.7-2.23,3.49-12.84,10-26.95,15.83-43.73,14-10.41-1.16-20.33-3.41-29.46-8.68C207.84,301.69,202.89,297.9,199,292.13Z"/><path class="cls-8" d="M326,329.28q3.94,8.58,7.9,17.17l.59-.2q-.72-3.13-1.43-6.25c4.17,5.95,3.94,13.23,6.29,20.22,4.23-3.56,6.86-7.69,9.78-11.56l.73.36a10.11,10.11,0,0,1-1,2.73,103,103,0,0,1-6.76,8.11c-1.53,1.59-1.72,2.94-1.1,5,2.49,8.32,4.78,16.69,7,25.07a8.76,8.76,0,0,1-.23,4.89,7.94,7.94,0,0,1-.53-1.25,279.72,279.72,0,0,0-19.29-56.71c-1.09-2.34-1.87-4.82-2.8-7.24Z"/><path class="cls-8" d="M292.23,307.35c-1.46,3.56-4.12,6.15-7.06,8.48-8.1,6.42-17.47,9.86-27.5,11.72a53.64,53.64,0,0,1-35.53-5.37c-5.88-3.08-11.45-6.79-17.06-10.37a26.74,26.74,0,0,1-3.87-3.74l.59-.68c.86.59,1.78,1.11,2.58,1.78a92.14,92.14,0,0,0,21.61,13c12.59,5.62,25.51,6,38.71,2.2,10.28-3,19.2-8.08,26.45-16C291.48,308,291.86,307.69,292.23,307.35Z"/><path class="cls-10" d="M144.66,161.18a49.25,49.25,0,0,1-5.64-16.9,68.11,68.11,0,0,1-.37-17.93A76.22,76.22,0,0,1,150.8,92.69a80.52,80.52,0,0,1,5.35-7.28c1-1.15,2-2.26,3-3.38s2.09-2.17,3.2-3.19A83.71,83.71,0,0,1,176.7,68,84.64,84.64,0,0,1,193,60.45a81.94,81.94,0,0,1,17.36-3.9l.13.78A103.84,103.84,0,0,0,178.59,71a91.14,91.14,0,0,0-13.46,10.72c-1,1-2,2-3,3.07s-1.9,2.14-2.83,3.24a76.64,76.64,0,0,0-5.13,6.87L153,96.7l-1.09,1.85c-.75,1.22-1.41,2.49-2.07,3.76s-1.26,2.57-1.9,3.86-1.12,2.64-1.68,4A76.86,76.86,0,0,0,141,135.35c0,1.44,0,2.88,0,4.33s.12,2.88.25,4.32a53.58,53.58,0,0,0,4.11,16.82Z"/><path class="cls-8" d="M194.91,147.46a43,43,0,0,1,1.2-4.3A21.45,21.45,0,0,1,204.23,133c5.19-3.39,10.55-6.42,17-6.6,6-.17,8.94,3.57,7.55,9.5-.41,1.72-1.29,2.7-3.09,2.66s-3.78-.05-5.65-.26c-8.54-.95-15.81,1.9-22.28,7.27C197.12,146.08,196.39,146.47,194.91,147.46Z"/><path class="cls-8" d="M287.31,138.08c-3.6-4.62-8.3-4.66-13.09-3.82a78.06,78.06,0,0,0-7.94,2.32c-3.57,1-5.27,0-5.93-3.6-1.1-6,2.13-10.19,8.36-10.27,7.57-.1,13.24,3.49,17,10C286.53,134.15,288.1,135.61,287.31,138.08Z"/><path class="cls-8" d="M209.42,159.59a14.09,14.09,0,0,1,5.32-9.19c4.41-3.41,9.8-2.32,12.4,2.57.89,1.67,2,3.38,1.1,5.64-.57-1.3-1.12-2.62-1.72-3.91-2.73-5.91-8.2-6.85-12.57-1.95C212.15,154.77,210.91,157.29,209.42,159.59Z"/><path class="cls-8" d="M266.81,153.26c.68-3.72,2.83-5.89,6.34-6.07,3.34-.17,5.71,1.73,7.23,4.58a54,54,0,0,1,2.1,5l-.8.37c-.47-.79-.95-1.57-1.38-2.38a35,35,0,0,0-1.74-3.33c-2.9-4.18-7.05-4.28-10.25-.28C267.77,151.83,267.31,152.56,266.81,153.26Z"/><path class="cls-10" d="M269.59,186.61a13.55,13.55,0,0,1-2.74,7.81,2.12,2.12,0,0,1-.65.68.74.74,0,0,1-.87-.07,1.66,1.66,0,0,0-.27-.26,2.24,2.24,0,0,1-.38-.31,1.3,1.3,0,0,1-.05-1.43c.11-.26.24-.5.36-.75,2.22-4.61,1.52-8.86-1.12-13.17-3.3-5.37-5.5-11.29-7.81-17.13-1.85-4.67-3.5-9.42-5.23-14.14a20.05,20.05,0,0,1-.68-2.16,1.4,1.4,0,0,1,.74-1.58,1.62,1.62,0,0,1,2.06.25,4.54,4.54,0,0,1,.93,2c2.68,7,5.28,14.12,8.08,21.12.72,1.81,1.49,3.61,2.34,5.38.42.89.85,1.8,1.34,2.65a3.65,3.65,0,0,0,.24.31,5.63,5.63,0,0,1,.41,1c.14.34.29.67.44,1,.6,1.33,1.24,2.64,1.78,4a14.47,14.47,0,0,1,1.05,4.15c0,.14,0,.28,0,.43A1.48,1.48,0,0,1,269.59,186.61Z"/><path class="cls-11" d="M241.49,192.51a1.58,1.58,0,0,1-1.82,1.53,1.71,1.71,0,0,1-1.64-1.76c0-1.06.8-1.54,1.79-1.46A1.75,1.75,0,0,1,241.49,192.51Z"/><path class="cls-8" d="M238.34,190.23a49.29,49.29,0,0,0-1.4,6.29,4.37,4.37,0,0,0,2.6,4.26c1.76,1,3.05.77,4.35-.71.41-.47.69-1.06,1.06-1.56,2.2-2.92,4.22-2.76,5.89.52a10,10,0,0,1,.57,2.13c-.33.35-.53.7-.84.86a71.45,71.45,0,0,1-10.81.7,6.34,6.34,0,0,1-4.49-5.54c-.29-2.66-.16-5.31,2.44-7C237.86,190.07,238.17,190.21,238.34,190.23Z"/><path class="cls-8" d="M265.4,200.6c.79-2.21,2.43-3.5,4.85-4.34l2.14,3c2.52-1,2.22-3.76,3.68-6,.3.91.78,1.58.62,2a26.43,26.43,0,0,1-2.25,4.67c-.42.65-1.61,1.43-2.15,1.25-2.11-.69-4.1.46-6.13.07C266,201.19,265.79,200.94,265.4,200.6Z"/><path class="cls-8" d="M261.35,166a60.34,60.34,0,0,1-7.7-20.34A142,142,0,0,1,261.35,166Z"/><path class="cls-8" d="M267.5,179.72c5,3.67,4,11.33-2,16.11,1.22-2.78,3-5.27,3.29-7.92S268,182.45,267.5,179.72Z"/><path class="cls-8" d="M225.77,159.86c0,.47,0,.95-.07,1.43a16.92,16.92,0,0,1-.39,2.22,12.65,12.65,0,0,1-.65,2.09,6.23,6.23,0,0,1-8.58,2.86c-3-1.8-3.93-4.79-3.76-8.1s1-6.5,4.54-8c3.38-1.43,5.82-.78,7.63,2.41a11,11,0,0,1,1.13,3.09,7.78,7.78,0,0,1,.14,1.08C225.77,159.24,225.78,159.55,225.77,159.86Z"/><circle class="cls-10" cx="222.32" cy="156.33" r="1.58"/><path class="cls-8" d="M277.68,152.81c.14.18.27.37.39.56s.18.34.29.49.18.18.25.28a7.94,7.94,0,0,1,.54,1,12,12,0,0,1,.78,2,9.19,9.19,0,0,1,.31,3.83,7.64,7.64,0,0,1-1.37,3.36,7.92,7.92,0,0,1-.94,1.06,5.49,5.49,0,0,1-8.3-.3c-2.67-2.92-3.07-9-.81-12.36a5.65,5.65,0,0,1,3.16-2.59,4.91,4.91,0,0,1,3.8,1.06c.36.25.71.53,1,.81a1,1,0,0,0,.24.18,1.36,1.36,0,0,1,.35.33Z"/><circle class="cls-10" cx="275.42" cy="154.31" r="1.58"/><path class="cls-12" d="M259.75,228.1a21.72,21.72,0,0,1,2.71-1.3,1.2,1.2,0,0,1,1.37.14,2.84,2.84,0,0,1,.61,1.75,7.73,7.73,0,0,1-.66,2.95,13.51,13.51,0,0,1-7,7.5c-.45.21-.9.4-1.36.58a21.3,21.3,0,0,1-2.74.87,21.08,21.08,0,0,1-2.75.48,19.4,19.4,0,0,1-2.75.11,18.69,18.69,0,0,1-2.69-.25,17.8,17.8,0,0,1-2.62-.61,18.5,18.5,0,0,1-2.51-.95,19.39,19.39,0,0,1-2.37-1.29c-.38-.24-.74-.53-1.13-.76s-.91-.57-1.35-.87c-.71-.49-1.4-1-2.07-1.55s-1.31-1.12-1.92-1.72-1.21-1.23-1.77-1.88-1.1-1.32-1.61-2-1-1.41-1.43-2.15-.87-1.49-1.25-2.26-.74-1.55-1.05-2.35-.6-1.62-.85-2.44c-.12-.41-.23-.83-.34-1.25a3.38,3.38,0,0,1-.14-.63,1,1,0,0,1,0-.24c0-.25.25-1,.67-.88.23,0,.44.36.58.53a14.37,14.37,0,0,1,1,1.34c4.89,7.15,12.56,12.69,21.16,13.68a16.31,16.31,0,0,0,5.91-.29,16.83,16.83,0,0,0,3.78-1.56c1.22-.66,2.4-1.4,3.6-2.11Z"/><path class="cls-13" d="M233.21,226.87c-2.06-1.61-4.44-2.8-6.16-4.84-.66-.78-1.41-1.45-1.43-2.56A24.91,24.91,0,0,1,241,215.68a17.91,17.91,0,0,1,12.16,5.89,5.57,5.57,0,0,1,.74,1c.08.13.13.27.22.39a.62.62,0,0,1,.15.29,1.37,1.37,0,0,1-.23.94,2.39,2.39,0,0,1-.83.68c-3.13,1.85-6.77,2.6-10.34,3.26a25.92,25.92,0,0,1-4,.52,9.87,9.87,0,0,1-3.06-.35c-.25-.07-.48-.17-.73-.24a1.55,1.55,0,0,0-.23,0,1.53,1.53,0,0,1-.27-.11,5,5,0,0,1-1.12-.8A1.7,1.7,0,0,1,233.21,226.87Z"/><path class="cls-14" d="M259,228.64a18.9,18.9,0,0,1-8.91,3.52,27.34,27.34,0,0,1-9.62-.55l-.42-.09a8.28,8.28,0,0,1-2.36-.92,3.91,3.91,0,0,1-.94-.78,1.69,1.69,0,0,1-.35-.49.46.46,0,0,1,0-.2,2.69,2.69,0,0,1,0-.49.28.28,0,0,1,.28-.27.79.79,0,0,1,.4.1l.1,0a1.81,1.81,0,0,0,.52,0l1.56-.07c1-.06,2.07-.13,3.11-.23s2.06-.23,3.08-.4,2-.39,3-.65a25.68,25.68,0,0,0,2.85-.94,32,32,0,0,1,3.13-1.19,5.76,5.76,0,0,1,3.08-.15,2.38,2.38,0,0,1,.44.25,1.21,1.21,0,0,1,.3.2c.15.13.25.29.4.4a1.49,1.49,0,0,1,.2.15l.38.35a4.41,4.41,0,0,1,.47.58.78.78,0,0,1,.17.42,1.45,1.45,0,0,1-.52,1.14A2.69,2.69,0,0,1,259,228.64Z"/><path class="cls-15" d="M258.7,235.38a3.34,3.34,0,0,1-.36-3c.11-.58.42-1.21,1.23-1a1.07,1.07,0,0,1,.75,1.14A2.94,2.94,0,0,1,258.7,235.38Z"/><path class="cls-16" d="M254.23,236.58a.86.86,0,0,1-.46-1.16c.15-.33.45-.62.82-.46a.8.8,0,0,1,.46,1.14A.7.7,0,0,1,254.23,236.58Z"/><path class="cls-17" d="M237.08,228.49l-.7.71-1.6-.68c-.23-.18-.32-.37-.25-.57s.14-.3.21-.3A3.39,3.39,0,0,1,237.08,228.49Z"/><path class="cls-18" d="M234.74,227.65c0,.29,0,.58,0,.87a2.08,2.08,0,0,1-1.57-1.65C233.77,227,234.42,227,234.74,227.65Z"/><path class="cls-8" d="M266.94,215.68c-1.59.62-2.52,1.15-3,2.83-.83,2.82-1.91,5.4.39,8.16,1,1.22,1.16,3-.57,4.59-.33-1.38-.61-2.54-1-4.06A24.84,24.84,0,0,1,241,232.38c-7.9-1.73-13-7.25-17.72-13.26a30.3,30.3,0,0,0,11.21,16.59,24.49,24.49,0,0,0,9.08,4.32,22.4,22.4,0,0,0,5,.54,22.89,22.89,0,0,0,2.61-.18,18.32,18.32,0,0,0,2.66-.49c.24-.06.47,0,.71-.11a22.68,22.68,0,0,0,2.62-.93,7,7,0,0,1-1.84,1.1c-.28.12-.57.21-.86.31a2.93,2.93,0,0,0-.75.27,2.34,2.34,0,0,1-.47.3,8.7,8.7,0,0,1-.87.26,11.91,11.91,0,0,1-2,.38,23.74,23.74,0,0,1-17-5,31,31,0,0,1-10.63-14.41,5.87,5.87,0,0,0-1.13-2.19,5.1,5.1,0,0,0-.73-.57.37.37,0,0,0-.18-.08c-.48-.07-1-.08-1.46-.11a.34.34,0,0,1-.24-.09.35.35,0,0,1,0-.23,7.29,7.29,0,0,1,1.77-3.87,14.91,14.91,0,0,1,3.31-2.76,9.89,9.89,0,0,0-.36,1.32,3,3,0,0,0-.05.42.34.34,0,0,0,.12.3c.13.08.33,0,.47,0l.61-.1,2.46-.4c1.64-.25,3.28-.49,4.93-.71s3.29-.43,4.94-.63,3.3-.37,5-.53l1.12-.1c.33,0,.65-.1,1-.12a55.53,55.53,0,0,1,20.46,2.76A10.57,10.57,0,0,1,266.94,215.68Zm-13,8c-3.44-6.91-18.55-10-27.74-4.07C231.17,230.07,245.64,229.6,253.91,223.67Zm-16.32,5.74c5.9,3.64,15.85,3,21.12-1.27l-3-3.23C250.06,228.21,244.08,229.11,237.59,229.41Z"/></g></g></svg>