<svg xmlns="http://www.w3.org/2000/svg" xmlns:xlink="http://www.w3.org/1999/xlink" viewBox="0 0 117.83 117.83"><defs><style>.cls-1{fill:#3bc7ed;}.cls-2{clip-path:url(#clip-path);}.cls-3{fill:#2fddfa;}.cls-4{fill:#3493bf;}.cls-5{fill:#fff;}</style><clipPath id="clip-path"><path class="cls-1" d="M117.83,58.86a58.92,58.92,0,1,0-58.86,59A59.09,59.09,0,0,0,117.83,58.86Z"/></clipPath></defs><g id="TXT"><path class="cls-1" d="M117.83,58.86a58.92,58.92,0,1,0-58.86,59A59.09,59.09,0,0,0,117.83,58.86Z"/><g class="cls-2"><path class="cls-3" d="M10.31,101.16A104.66,104.66,0,0,1,5.18,61.22,28,28,0,0,1,6.11,55a30.72,30.72,0,0,1,3.21-6.69A226.63,226.63,0,0,1,28.69,20.56,19.71,19.71,0,0,1,33.5,15.9a20.58,20.58,0,0,1,6.64-2.18Q49,11.89,57.79,10.1L85,4.54C90.35,3.45,95.81,2.35,101.23,3c2.69.34,5.36,1.11,8.06.87.16-4-4.14-6.61-7.85-8.21q-8.73-3.77-17.6-7.17C74.92-14.92,65.49-18.13,56-17c-7.65.93-14.72,4.67-21,9.19a123.46,123.46,0,0,0-20.6,19.63C2.21,26-8.39,42-13.79,60a13.69,13.69,0,0,0-.81,5.5c.28,2.32,1.64,4.35,3,6.28l5,7.33a36,36,0,0,0,4.28,5.55A25.23,25.23,0,0,1,.87,88c1.41,2,2.44,4.32,3.84,6.38A44.14,44.14,0,0,0,10.31,101.16Z"/><path class="cls-4" d="M106.26,16.71c-2.58-1.54-5.48-3.05-8.44-2.54l5.5,15.27c3.51,9.77,7,19.56,9.66,29.61a14.69,14.69,0,0,1,.66,6.08A15.12,15.12,0,0,1,111,70.78c-5.87,9-11.74,18-18,26.77-2.65,3.67-5.45,7.34-9.16,9.92A37.53,37.53,0,0,1,73.7,112a142,142,0,0,1-19.2,4.64c-4.78.8-9.77,1.42-13.84,4,8,3.56,17.15,3.51,25.91,2.84,9.52-.73,19.05-2.12,28.1-5.16,6.26-2.1,12.37-5.07,17.09-9.68,4.19-4.09,7.1-9.29,9.63-14.57a142.29,142.29,0,0,0,11.42-34.57c.74-3.85,1.32-7.84.48-11.67a25.68,25.68,0,0,0-3.4-7.73c-1.49-2.45-3.15-4.81-4.5-7.35A16.25,16.25,0,0,0,122.33,28a72.71,72.71,0,0,0-6.92-5.29q-4-2.85-8.19-5.39Z"/></g><path class="cls-5" d="M58.74,76.51c12.54.52,22.39,6.71,28.64,18.65.1.2.19.4.28.6.87,2,.52,3.55-.93,4.16s-2.86-.18-3.73-2.1A26.77,26.77,0,0,0,70,84.39,27.64,27.64,0,0,0,32.6,97.82a4,4,0,0,1-1.37,1.84,2.31,2.31,0,0,1-2.92-.12,2.54,2.54,0,0,1-.59-3.18,27.25,27.25,0,0,1,3.87-6.75C38.23,81.08,47,76.74,58.74,76.51Z"/><path class="cls-5" d="M82.1,74.77c-4,0-6.5-3.7-5.06-7.62a24,24,0,0,1,3.39-6.09,1.9,1.9,0,0,1,3.19-.19A19.9,19.9,0,0,1,87.4,68,5.3,5.3,0,0,1,82.1,74.77Zm1.54-5.5a6.42,6.42,0,0,0-1.2-2.9c-.22-.36-.48-.32-.69,0a6.18,6.18,0,0,0-1.16,2.83,1.32,1.32,0,0,0,1.47,1.55A1.37,1.37,0,0,0,83.64,69.27Z"/><path class="cls-5" d="M39.14,58.23A4.77,4.77,0,1,1,44,53.48,4.59,4.59,0,0,1,39.14,58.23Z"/><path class="cls-5" d="M81.18,53.45a4.77,4.77,0,1,1-4.83-4.75A4.59,4.59,0,0,1,81.18,53.45Z"/><path class="cls-5" d="M27.36,56.44a2.16,2.16,0,0,1-.6-4.23C31.24,50.89,37.85,45,39.33,39.66a2.16,2.16,0,1,1,4.16,1.15C41.59,47.65,33.73,54.66,28,56.35A2.15,2.15,0,0,1,27.36,56.44Z"/><path class="cls-5" d="M87,56.44a2.08,2.08,0,0,1-.6-.09c-5.76-1.69-13.63-8.7-15.52-15.54a2.16,2.16,0,1,1,4.16-1.15C76.55,45,83.16,50.89,87.64,52.21A2.16,2.16,0,0,1,87,56.44Z"/></g></svg>