<?xml version="1.0" encoding="utf-8"?>
<!-- Generator: Adobe Illustrator 25.2.0, SVG Export Plug-In . SVG Version: 6.00 Build 0)  -->
<svg version="1.1" id="Capa_1" xmlns="http://www.w3.org/2000/svg" xmlns:xlink="http://www.w3.org/1999/xlink" x="0px" y="0px"
	 viewBox="0 0 1079.3 1193.1" style="enable-background:new 0 0 1079.3 1193.1;" xml:space="preserve">
<style type="text/css">
	.st0{clip-path:url(#SVGID_2_);}
	.st1{fill:#FFCE00;}
	.st2{fill:#1E8E30;}
	.st3{fill:#3BC7ED;}
	.st4{fill:#E6333E;}
	.st5{fill:#262A58;}
	.st6{fill:#FFFFFF;}
</style>
<g>
	<g id="TXT">
		<g>
			<defs>
				<rect id="SVGID_1_" width="1079.3" height="1193.1"/>
			</defs>
			<clipPath id="SVGID_2_">
				<use xlink:href="#SVGID_1_"  style="overflow:visible;"/>
			</clipPath>
			<g class="st0">
				<circle class="st1" cx="263.6" cy="937.7" r="145.7"/>
				<path class="st2" d="M918.5,171.5c35.4,0,64.2,28.7,64.2,64.2s-28.7,64.2-64.2,64.2c-35.4,0-64.2-28.7-64.2-64.2c0,0,0,0,0,0
					C854.4,200.2,883.1,171.5,918.5,171.5 M918.5,146.5c-49.2,0-89.2,39.9-89.2,89.2s39.9,89.2,89.2,89.2s89.2-39.9,89.2-89.2
					c0,0,0,0,0,0C1007.7,186.4,967.7,146.5,918.5,146.5C918.5,146.5,918.5,146.5,918.5,146.5z"/>
				<circle class="st3" cx="216.7" cy="145.2" r="174"/>
				<path class="st4" d="M744.8,873.6c151.4,0.2,273.9,123.1,273.7,274.5c-0.2,151.4-123.1,273.9-274.5,273.7
					c-151.4-0.2-273.9-123.1-273.7-274.5c0.2-110,66.1-209.3,167.4-252.1C671.6,880.8,708.1,873.5,744.8,873.6 M744.8,848.6
					c-165.7,0-300.1,134.4-300.1,300.1s134.4,300.1,300.1,300.1s300.1-134.4,300.1-300.1S910.6,848.6,744.8,848.6z"/>
				<path class="st5" d="M561.8,99.4c254.1,0.2,459.9,206.3,459.7,460.4c-0.1,184.7-110.7,351.4-280.7,423.3
					c-234,98.9-503.9-10.7-602.8-244.8s10.7-503.9,244.8-602.8l0,0C439.5,111.6,500.4,99.3,561.8,99.4 M561.8,95.4
					c-256.2,0-463.9,207.7-463.9,463.9s207.7,463.9,463.9,463.9s463.9-207.7,463.9-463.9S818.1,95.4,561.8,95.4z"/>
				<path class="st6" d="M561.8,95.4c256.2,0,463.9,207.7,463.9,463.9s-207.7,463.9-463.9,463.9S97.9,815.6,97.9,559.3
					S305.6,95.4,561.8,95.4 M561.8,91.4c-258.5,0-468,209.6-467.9,468.1c0,188,112.6,357.8,285.8,431
					c238.1,100.6,512.7-10.9,613.3-249s-10.9-512.7-249-613.3C686.4,103.8,624.4,91.3,561.8,91.4z"/>
			</g>
		</g>
	</g>
</g>
</svg>
