<svg xmlns="http://www.w3.org/2000/svg" viewBox="0 0 117.83 117.83"><defs><style>.cls-1{fill:#262a58;}.cls-2{fill:#fff;}</style></defs><g id="TXT"><path class="cls-1" d="M58.9,0a58.92,58.92,0,1,0,58.93,58.9A59.1,59.1,0,0,0,58.9,0Z"/><path class="cls-2" d="M83.83,92.41a10.44,10.44,0,0,1-1.37,0c-3.59-.53-6.17.46-8.45,3.68-2.66,3.75-7.05,5.24-11.57,5.77-6.43.75-12.49-.18-17.61-4.59A11.07,11.07,0,0,1,42,94a2.67,2.67,0,0,0-2.85-1.63c-3.62.08-7.24,0-10.86,0-2.75,0-3.81-1.33-3-4,3.89-13.31,12.86-21.51,26.21-24.37,13.86-3,25.64,1.39,34.88,12.16a28.85,28.85,0,0,1,6.22,12.36c.58,2.49-.39,3.79-2.92,3.83C87.74,92.44,85.79,92.41,83.83,92.41Zm-1.36-5.07h1.9c2.55,0,2.55,0,1.44-2.24A29.88,29.88,0,0,0,40.65,74.67,28.62,28.62,0,0,0,31.7,85.85c-.5,1.12-.35,1.55,1,1.5q2.67-.1,5.34,0a1.52,1.52,0,0,0,1.82-1.54,6.77,6.77,0,0,1,2.32-4.3,14.38,14.38,0,0,1,15.09-2.89,4.54,4.54,0,0,0,3.47,0,14.19,14.19,0,0,1,12.3.89,9.06,9.06,0,0,1,4.81,5.17c.84,2.64.8,2.66,3.63,2.66Zm-23.64,9.6a19.62,19.62,0,0,0,8.49-2,10.39,10.39,0,0,0,5.5-7.12,2.44,2.44,0,0,0-.94-2.75,10.38,10.38,0,0,0-5.33-2.24,7,7,0,0,0-4.63,1c-1,.72-.3,2.15-.46,3.26,0,.23,0,.46,0,.69a2.52,2.52,0,0,1-5,0,12,12,0,0,1,0-2.24,1.74,1.74,0,0,0-1.39-2,9.06,9.06,0,0,0-8.79,1.35,2.62,2.62,0,0,0-1.19,3A10.76,10.76,0,0,0,49,93.93C51.9,96.17,55.32,96.7,58.83,96.94Z"/><path class="cls-2" d="M31.74,49.66a1.88,1.88,0,0,1-1.66-1.21A2.18,2.18,0,0,1,30.45,46a4.69,4.69,0,0,1,1.59-1l14.38-7.19.66-.32c1.55-.69,2.9-.36,3.47.82s0,2.48-1.46,3.25q-7,3.52-14,7A7.34,7.34,0,0,1,31.74,49.66Z"/><path class="cls-2" d="M69.65,37a4.44,4.44,0,0,1,1.44.54l15,7.52a3.51,3.51,0,0,1,1.31.94,2.2,2.2,0,0,1,.27,2.49,2.06,2.06,0,0,1-2.22,1.1A5.13,5.13,0,0,1,83.7,49L69.2,41.72a4.36,4.36,0,0,1-1.58-1.06,2.2,2.2,0,0,1-.35-2.36C67.64,37.46,68.36,37.07,69.65,37Z"/><path class="cls-2" d="M31.74,28.84a1.86,1.86,0,0,0-1.66,1.21,2.18,2.18,0,0,0,.37,2.47,4.52,4.52,0,0,0,1.59,1l14.38,7.2.66.32c1.55.68,2.9.36,3.47-.83s0-2.48-1.46-3.24q-7-3.52-14-7A7.46,7.46,0,0,0,31.74,28.84Z"/><path class="cls-2" d="M69.65,41.46a4.29,4.29,0,0,0,1.44-.55l15-7.51a3.63,3.63,0,0,0,1.31-.94A2.2,2.2,0,0,0,87.71,30a2,2,0,0,0-2.22-1.1,4.94,4.94,0,0,0-1.79.65L69.2,36.77a4.38,4.38,0,0,0-1.58,1.07,2.19,2.19,0,0,0-.35,2.35C67.64,41,68.36,41.43,69.65,41.46Z"/></g></svg>