<svg xmlns="http://www.w3.org/2000/svg" xmlns:xlink="http://www.w3.org/1999/xlink" viewBox="0 0 117.83 117.83"><defs><style>.cls-1{fill:#e6333e;}.cls-2{clip-path:url(#clip-path);}.cls-3{fill:#ff968c;}.cls-4{fill:#b32830;}.cls-5{fill:#fff;}</style><clipPath id="clip-path"><path class="cls-1" d="M117.83,58.88a58.92,58.92,0,1,0-58.87,59A59.1,59.1,0,0,0,117.83,58.88Z"/></clipPath></defs><g id="TXT"><path class="cls-1" d="M117.83,58.88a58.92,58.92,0,1,0-58.87,59A59.1,59.1,0,0,0,117.83,58.88Z"/><g class="cls-2"><path class="cls-3" d="M8.35,99.2A104.66,104.66,0,0,1,3.22,59.26a28.08,28.08,0,0,1,.94-6.19,30.16,30.16,0,0,1,3.2-6.68A226,226,0,0,1,26.73,18.6,19.48,19.48,0,0,1,31.54,14a20.44,20.44,0,0,1,6.64-2.19Q47,9.93,55.83,8.14L83,2.58C88.39,1.49,93.85.39,99.27,1.07c2.69.33,5.36,1.1,8.06.86.16-4-4.14-6.61-7.85-8.21Q90.75-10,81.88-13.45C73-16.88,63.53-20.09,54.05-18.93c-7.66.93-14.73,4.66-21,9.19A123.38,123.38,0,0,0,12.48,9.88C.25,24.07-10.35,40.05-15.75,58a13.71,13.71,0,0,0-.81,5.51c.28,2.32,1.65,4.34,3,6.27l5,7.33a36.13,36.13,0,0,0,4.28,5.55,24.73,24.73,0,0,1,3.19,3.44c1.42,2,2.44,4.32,3.84,6.38A44.55,44.55,0,0,0,8.35,99.2Z"/><path class="cls-4" d="M104.3,14.75c-2.58-1.54-5.48-3-8.44-2.54l5.5,15.27c3.52,9.77,7,19.56,9.66,29.61a14.72,14.72,0,0,1,.67,6.09A15.45,15.45,0,0,1,109,68.83c-5.87,9-11.74,18-18,26.76-2.65,3.67-5.44,7.35-9.16,9.92A37.25,37.25,0,0,1,71.74,110a142,142,0,0,1-19.2,4.64c-4.78.8-9.77,1.42-13.84,4,8,3.57,17.16,3.51,25.91,2.84,9.52-.72,19-2.11,28.1-5.16,6.26-2.1,12.37-5.07,17.09-9.68,4.19-4.09,7.1-9.29,9.63-14.57a142.29,142.29,0,0,0,11.42-34.57c.74-3.85,1.32-7.84.48-11.67a25.74,25.74,0,0,0-3.39-7.72c-1.5-2.46-3.16-4.82-4.5-7.36-.9-1.7-1.63-3.47-3.07-4.78a71.19,71.19,0,0,0-6.92-5.3q-4-2.84-8.19-5.39Z"/></g><path class="cls-5" d="M58.83,85.72c-7,0-14,0-21,0a8.6,8.6,0,0,1-2.1-.17,2.78,2.78,0,0,1-2.3-2.93,2.85,2.85,0,0,1,2.46-2.82,9.3,9.3,0,0,1,1.91-.11H80c.25,0,.51,0,.77,0,2.27.07,3.72,1.3,3.66,3.1S83,85.7,80.8,85.71C73.47,85.74,66.15,85.72,58.83,85.72Z"/><path class="cls-5" d="M40.25,55.82a4.77,4.77,0,1,1,4.83-4.75A4.6,4.6,0,0,1,40.25,55.82Z"/><path class="cls-5" d="M82.29,51a4.77,4.77,0,1,1-4.82-4.75A4.59,4.59,0,0,1,82.29,51Z"/><path class="cls-5" d="M47.32,52.69a2.82,2.82,0,0,1-2-.85L28.82,35.38a2.88,2.88,0,1,1,4.07-4.07L49.35,47.78a2.85,2.85,0,0,1,0,4.06A2.82,2.82,0,0,1,47.32,52.69Z"/><path class="cls-5" d="M70.51,52.69a2.85,2.85,0,0,0,2-.85L89,35.38a2.88,2.88,0,0,0-4.07-4.07L68.48,47.78a2.87,2.87,0,0,0,0,4.06A2.84,2.84,0,0,0,70.51,52.69Z"/></g></svg>