<svg xmlns="http://www.w3.org/2000/svg" viewBox="0 0 117.83 117.83"><defs><style>.cls-1{fill:#262a58;}.cls-2{fill:#fff;}</style></defs><g id="TXT"><path class="cls-1" d="M117.83,58.88a58.92,58.92,0,1,0-58.87,59A59.1,59.1,0,0,0,117.83,58.88Z"/><path class="cls-2" d="M58.83,85.72c-7,0-14,0-21,0a8.6,8.6,0,0,1-2.1-.17,2.78,2.78,0,0,1-2.3-2.93,2.85,2.85,0,0,1,2.46-2.82,9.3,9.3,0,0,1,1.91-.11H80c.25,0,.51,0,.77,0,2.27.07,3.72,1.3,3.66,3.1S83,85.7,80.8,85.71C73.47,85.74,66.15,85.72,58.83,85.72Z"/><path class="cls-2" d="M40.25,55.82a4.77,4.77,0,1,1,4.83-4.75A4.6,4.6,0,0,1,40.25,55.82Z"/><path class="cls-2" d="M82.29,51a4.77,4.77,0,1,1-4.82-4.75A4.59,4.59,0,0,1,82.29,51Z"/><path class="cls-2" d="M47.32,52.69a2.82,2.82,0,0,1-2-.85L28.82,35.38a2.88,2.88,0,1,1,4.07-4.07L49.35,47.78a2.85,2.85,0,0,1,0,4.06A2.82,2.82,0,0,1,47.32,52.69Z"/><path class="cls-2" d="M70.51,52.69a2.85,2.85,0,0,0,2-.85L89,35.38a2.88,2.88,0,0,0-4.07-4.07L68.48,47.78a2.87,2.87,0,0,0,0,4.06A2.84,2.84,0,0,0,70.51,52.69Z"/></g></svg>