<svg xmlns="http://www.w3.org/2000/svg" viewBox="0 0 117.83 117.83"><defs><style>.cls-1{fill:#262a58;}.cls-2{fill:#fff;}</style></defs><g id="TXT"><path class="cls-1" d="M117.83,58.88a58.92,58.92,0,1,0-58.87,59A59.1,59.1,0,0,0,117.83,58.88Z"/><path class="cls-2" d="M40.79,50a4.77,4.77,0,1,1,5.31-4.19A4.61,4.61,0,0,1,40.79,50Z"/><path class="cls-2" d="M83.1,49.83a4.77,4.77,0,1,1-4.27-5.25A4.59,4.59,0,0,1,83.1,49.83Z"/><path class="cls-2" d="M33.46,52.61a1.08,1.08,0,0,1-.77-.31A9,9,0,0,1,31,41.61a1.08,1.08,0,1,1,1.87,1.07,6.83,6.83,0,0,0,1.37,8.1,1.07,1.07,0,0,1-.76,1.83Z"/><path class="cls-2" d="M35.27,36.39A23.2,23.2,0,0,1,27,34.81a2.16,2.16,0,1,1,1.54-4A18.24,18.24,0,0,0,37.07,32a13.28,13.28,0,0,0,7.49-3.34,2.16,2.16,0,1,1,2.95,3.15,17.49,17.49,0,0,1-9.93,4.47A19.62,19.62,0,0,1,35.27,36.39Z"/><path class="cls-2" d="M84.71,58.27a1.1,1.1,0,0,1-.91-.5,1.08,1.08,0,0,1,.33-1.49,6.8,6.8,0,0,0,3.1-7.61A1.08,1.08,0,1,1,89.3,48a9,9,0,0,1-4,10.06A1.12,1.12,0,0,1,84.71,58.27Z"/><path class="cls-2" d="M91.08,42.53A21.55,21.55,0,0,1,84,41.38a17.62,17.62,0,0,1-8.72-6.54,2.16,2.16,0,1,1,3.57-2.43,13.2,13.2,0,0,0,6.58,4.89A18.14,18.14,0,0,0,94,38a2.16,2.16,0,0,1,.62,4.27A25.16,25.16,0,0,1,91.08,42.53Z"/><path class="cls-2" d="M71.34,97.11a8.68,8.68,0,0,1-1-.06h0a9.31,9.31,0,0,1-6.85-4.25c-1.76-2.76-5.18-4.66-9.14-5.1s-7.74.68-10.06,3a9.3,9.3,0,0,1-6.59,2.71h0a9.35,9.35,0,0,1-6.56-16c6.39-6.34,15.61-9.36,25.29-8.29s18,6,22.83,13.6a9.35,9.35,0,0,1-7.88,14.39Zm-.54-4.35A5,5,0,0,0,74.06,92a5,5,0,0,0,1.53-7c-4.14-6.47-11.31-10.71-19.67-11.63S39.6,75.06,34.14,80.47a5,5,0,0,0,3.53,8.61h0a5,5,0,0,0,3.55-1.46c3.23-3.22,8.31-4.79,13.57-4.21s9.84,3.22,12.3,7.06a5,5,0,0,0,3.69,2.29Z"/></g></svg>