<svg xmlns="http://www.w3.org/2000/svg" viewBox="0 0 279.08 59.49"><defs><style>.cls-1{fill:#e4e6eb;}.cls-2{fill:#262a58;}.cls-3{fill:none;stroke:#fff;stroke-linecap:round;stroke-miterlimit:10;}</style></defs><g id="TXT"><circle class="cls-1" cx="29.75" cy="29.75" r="29.75"/><circle class="cls-1" cx="102.94" cy="29.75" r="29.75"/><circle class="cls-1" cx="176.13" cy="29.75" r="29.75"/><circle class="cls-1" cx="249.33" cy="29.75" r="29.75"/><path class="cls-2" d="M241.5,26.12l9,10.65a.58.58,0,0,0,.88,0l9-10.65a.57.57,0,0,0-.44-.94H241.93A.57.57,0,0,0,241.5,26.12Z"/><rect class="cls-2" x="28.21" y="18.92" width="3.07" height="21.85"/><rect class="cls-2" x="28.21" y="18.92" width="3.07" height="21.85" transform="translate(59.59 0.1) rotate(90)"/><path class="cls-2" d="M168.16,23c0,1.35-.09,7.54-.09,7.54a2.21,2.21,0,0,1-.68,1.6c-.82.8-2,2.33-1.53,4,.73,2.4,3.87,1.86,4,1.86s12.92-2.15,15.21-2.54a2.92,2.92,0,0,0,.75-.22c.95-.42,3.29-1.69,3-3.8A3.31,3.31,0,0,0,186,28.78a2.24,2.24,0,0,1-1.56-1.4L182,20.7c-.41-1.06-2.2-4.07-7.59-3.12S168.16,21.59,168.16,23Z"/><path class="cls-2" d="M171.15,38.89a2.81,2.81,0,1,0,5.57.5,2.78,2.78,0,0,0-.37-1.37Z"/><path class="cls-2" d="M103.94,17.22a12.29,12.29,0,0,0-9.12,20.54l-.1.06.34,5.87,3.55-3.09a12.3,12.3,0,1,0,5.33-23.38Zm2.18,17.37-4.7-4.3-5.77,4,5.53-8.42,5,3.92,5-4Z"/><circle class="cls-1" cx="29.75" cy="29.75" r="29.75"/><circle class="cls-1" cx="102.94" cy="29.75" r="29.75"/><circle class="cls-1" cx="176.13" cy="29.75" r="29.75"/><circle class="cls-1" cx="249.33" cy="29.75" r="29.75"/><path class="cls-2" d="M239.49,26.12l9,10.65a.57.57,0,0,0,.87,0l9-10.65a.57.57,0,0,0-.43-.94H239.93A.57.57,0,0,0,239.49,26.12Z"/><rect class="cls-2" x="28.21" y="18.92" width="3.07" height="21.85"/><rect class="cls-2" x="28.21" y="18.92" width="3.07" height="21.85" transform="translate(59.59 0.1) rotate(90)"/><path class="cls-2" d="M168.16,23c0,1.35-.09,7.54-.09,7.54a2.21,2.21,0,0,1-.68,1.6c-.82.8-2,2.33-1.53,4,.73,2.4,3.87,1.86,4,1.86s12.92-2.15,15.21-2.54a2.92,2.92,0,0,0,.75-.22c.95-.42,3.29-1.69,3-3.8A3.31,3.31,0,0,0,186,28.78a2.24,2.24,0,0,1-1.56-1.4L182,20.7c-.41-1.06-2.2-4.07-7.59-3.12S168.16,21.59,168.16,23Z"/><path class="cls-2" d="M171.15,38.89a2.81,2.81,0,1,0,5.57.5,2.78,2.78,0,0,0-.37-1.37Z"/><path class="cls-2" d="M103.94,17.22a12.29,12.29,0,0,0-9.12,20.54l-.1.06.34,5.87,3.55-3.09a12.3,12.3,0,1,0,5.33-23.38Z"/><line class="cls-3" x1="97.78" y1="26.91" x2="111.24" y2="26.91"/><line class="cls-3" x1="97.78" y1="30.76" x2="107.23" y2="30.76"/></g></svg>