<svg xmlns="http://www.w3.org/2000/svg" xmlns:xlink="http://www.w3.org/1999/xlink" viewBox="0 0 117.83 117.83"><defs><style>.cls-1{fill:#ffce00;}.cls-2{clip-path:url(#clip-path);}.cls-3{fill:#ffef4f;}.cls-4{fill:#ffb300;}.cls-5{fill:#fff;}</style><clipPath id="clip-path"><path class="cls-1" d="M117.83,58.86a58.92,58.92,0,1,0-58.86,59A59.09,59.09,0,0,0,117.83,58.86Z"/></clipPath></defs><g id="TXT"><path class="cls-1" d="M117.83,58.86a58.92,58.92,0,1,0-58.86,59A59.09,59.09,0,0,0,117.83,58.86Z"/><g class="cls-2"><path class="cls-3" d="M7.28,100.43A104.66,104.66,0,0,1,2.14,60.49a28.08,28.08,0,0,1,.94-6.19,30.61,30.61,0,0,1,3.2-6.68A226,226,0,0,1,25.65,19.83a19.84,19.84,0,0,1,4.81-4.65A20.52,20.52,0,0,1,37.1,13q8.84-1.83,17.66-3.62L82,3.81C87.31,2.72,92.78,1.62,98.19,2.3c2.69.33,5.36,1.1,8.06.86.17-4-4.13-6.61-7.84-8.21q-8.73-3.75-17.6-7.17C71.89-15.65,62.46-18.86,53-17.7c-7.66.93-14.72,4.66-21,9.19A122.93,122.93,0,0,0,11.41,11.11C-.82,25.3-11.42,41.28-16.83,59.22a13.53,13.53,0,0,0-.8,5.51c.28,2.32,1.64,4.34,3,6.27l5,7.33a36.19,36.19,0,0,0,4.29,5.55,25.28,25.28,0,0,1,3.18,3.44c1.42,2,2.45,4.32,3.84,6.38A44,44,0,0,0,7.28,100.43Z"/><path class="cls-4" d="M103.22,16c-2.57-1.54-5.47-3-8.43-2.54l5.49,15.27c3.52,9.77,7,19.56,9.67,29.61a14.88,14.88,0,0,1,.66,6.09A15.51,15.51,0,0,1,108,70.06c-5.87,9-11.75,18-18.06,26.76-2.65,3.67-5.44,7.35-9.16,9.92a37,37,0,0,1-10.07,4.5,142,142,0,0,1-19.2,4.64c-4.77.8-9.76,1.42-13.83,4,8,3.57,17.15,3.51,25.91,2.84,9.52-.72,19.05-2.11,28.1-5.16,6.26-2.1,12.36-5.07,17.09-9.68,4.18-4.09,7.1-9.29,9.63-14.56a142.48,142.48,0,0,0,11.41-34.58c.74-3.85,1.32-7.84.49-11.67a25.87,25.87,0,0,0-3.4-7.72c-1.49-2.46-3.15-4.82-4.5-7.36-.9-1.7-1.62-3.47-3.06-4.78a72.56,72.56,0,0,0-6.93-5.3q-4-2.84-8.18-5.39Z"/></g><path class="cls-5" d="M59,50.39H90.34c.6,0,1.21,0,1.81,0,2.24.21,3.16,1.15,3.1,3.42a35,35,0,0,1-4.91,17.41C84.44,81,75.9,87.17,64.57,88.91a35,35,0,0,1-29-8.13A35.66,35.66,0,0,1,23,58.76a34.6,34.6,0,0,1-.44-5.08c0-2.08.86-3,2.92-3.24a18.7,18.7,0,0,1,2,0Zm-.11,5.32c-9.67,0-19.34,0-29,0-1.21,0-2.08.13-1.82,1.7A31.87,31.87,0,0,0,38.23,76.31C39,77,39.4,76.93,40,76c4.92-7.84,11.89-11.78,21.28-10.9,7.27.68,12.6,4.5,16.41,10.53.9,1.42,1.34,1.26,2.37.28a31.63,31.63,0,0,0,9.63-18c.36-2.08.24-2.26-1.92-2.26Zm0,28.3a29.35,29.35,0,0,0,14-3.2c1.07-.52,1.22-1.09.58-2a21.66,21.66,0,0,0-3.22-4.15,16.73,16.73,0,0,0-25.9,4.07c-.62,1-.55,1.6.6,2.16A29.46,29.46,0,0,0,58.94,84Z"/><path class="cls-5" d="M49.43,29a2.56,2.56,0,0,1-2.08,2.44,12.51,12.51,0,0,1-3.61.2c-1.12,0-1.6.39-1.55,1.54.06,1.54,0,3.08,0,4.62,0,2.11-1,3.41-2.52,3.41S37.07,39.8,37,37.82c0-1.43-.1-2.86,0-4.28.14-1.59-.55-2.05-2-1.94a12.87,12.87,0,0,1-2.63-.09A2.65,2.65,0,0,1,29.85,29a2.6,2.6,0,0,1,2.53-2.54,19.11,19.11,0,0,1,3.12-.11c1.12,0,1.6-.4,1.55-1.55-.06-1.64,0-3.29,0-4.94,0-1.87,1-3,2.53-3.08s2.57,1.12,2.61,3.13c0,1.6.06,3.19,0,4.78,0,1.2.39,1.71,1.61,1.66a12.51,12.51,0,0,1,3.61.2A2.46,2.46,0,0,1,49.43,29Z"/><path class="cls-5" d="M88,28.92a2.82,2.82,0,0,1-2.18,2.5,13.59,13.59,0,0,1-3.6.19c-1,0-1.5.38-1.47,1.46,0,1.7,0,3.41,0,5.11a2.84,2.84,0,0,1-2.64,3c-1.39,0-2.44-1.22-2.49-2.94s-.09-3.2,0-4.78-.52-1.95-1.92-1.86a10.49,10.49,0,0,1-3.11-.15A2.48,2.48,0,0,1,68.44,29a2.3,2.3,0,0,1,2.19-2.45,13.83,13.83,0,0,1,2.94-.17c1.55.11,2.23-.38,2.09-2a44.29,44.29,0,0,1,0-4.61c.06-1.8,1-2.89,2.47-2.94s2.61,1.12,2.66,2.94a47.63,47.63,0,0,1,0,4.78c-.1,1.49.52,2,1.92,1.85a10.67,10.67,0,0,1,3.28.2A2.71,2.71,0,0,1,88,28.92Z"/></g></svg>