<svg xmlns="http://www.w3.org/2000/svg" xmlns:xlink="http://www.w3.org/1999/xlink" viewBox="0 0 338.2 383.3"><defs><style>.cls-1{fill:none;}.cls-2{clip-path:url(#clip-path);}.cls-3{fill:#b68969;}.cls-4{fill:#c96119;}.cls-5{fill:#ffdc80;}.cls-6{fill:#c2926c;}.cls-7{fill:#d1aa66;}.cls-8{fill:#262a58;}.cls-9{fill:#fdda80;}.cls-10{fill:#845839;}.cls-11{fill:#94233f;}.cls-12{fill:#f4d07a;}.cls-13{fill:#fff;}</style><clipPath id="clip-path"><rect class="cls-1" width="338.2" height="383.3"/></clipPath></defs><g id="ILUSTRACIONES_2"><g class="cls-2"><path class="cls-3" d="M285.46,423.51c-7.94-.62-15.91-2-23.76.82-2.45.88-4.42-.22-5-2.83a18.76,18.76,0,0,0-2.93-5.82c-5-7.9-11.77-14.78-14.48-24.09a10.19,10.19,0,0,0-1.83-3c-2-2.71-4.37-4.19-7.94-3.52-2.52.47-5.34.87-7.4-1.1-2.52-2.41-5.14-2.06-8.23-1.57-8.34,1.34-16.61,3.34-25.06,3.45a1.9,1.9,0,0,1,.82-2.24c6.19-5,13.55-8.3,19.57-13.82,3.44-3.17,8-5.44,11.47-8.94l2.49-2.52q2.37-2.4,4.75-4.78l4.78-4.76,4.79-4.74,4.8-4.74,4.79-4.74,4.78-4.75q2.38-2.39,4.76-4.78t4.73-4.81l1.18-1.2a2.57,2.57,0,0,0,.66-1,2.43,2.43,0,0,0-.63-2.25,7.35,7.35,0,0,0-2.7-1.52,29,29,0,0,1-4.2-2.12,29.88,29.88,0,0,1-4.75-3.56,3.52,3.52,0,0,0-.51-.43,9.71,9.71,0,0,1-1-.9L248,306c-1.89-1.79-3.68-3.68-5.42-5.61-3.45-3.83-6.67-7.85-10-11.77a4.52,4.52,0,0,1-1.17-3.16c.05-5-.54-10.05-.57-15.1,0-8.14.54-16.26.6-24.4.06-8.53-.12-17.07.33-25.58a381.08,381.08,0,0,1,5.12-46.54c.95-5.35.81-5.29,6.1-6.26,4.36-.8,8.63-2.07,11.55-5.71a59.4,59.4,0,0,0,6.54-10c4.38-8.5,6.39-17.68,8.21-26.93a11.33,11.33,0,0,0-1.14-7.16c-1.38-2.88-2.92-3.53-5.92-2.32-.84.34-1.66.73-2.48,1.12a6.35,6.35,0,0,0-1.86,1c-.57.62-1.31,1.91-1.86.56a20,20,0,0,1-1-3.47,48.25,48.25,0,0,1-.84-7.11c-.63-10.24-.26-20.6-2.07-30.71S246,56.59,237.82,50.33A46.8,46.8,0,0,0,228.48,45a111.07,111.07,0,0,0-10.73-4.22c-1.54-.52-3.1-1-4.66-1.46a15.12,15.12,0,0,0-4.36-1,9.52,9.52,0,0,1-1.51,0,98.65,98.65,0,0,0-11.89-1.15,105.16,105.16,0,0,0-24,2.61c-7.69,1.67-15.4,4.05-21.77,8.67a44.87,44.87,0,0,0-8.14,7.8,85.33,85.33,0,0,0-5.2,7.05c-.82,1.22-1.62,2.44-2.41,3.68-.27.42-1.05,1.25-1,1.77s.67.89.83,1.32c.51,1.35-.27,2.79-.73,4-2.39,6.55-4.71,13.14-7.54,19.51a34.72,34.72,0,0,0-2.77,13.93c-.09,7.06.43,14.22-1.88,21.11-1.9,5.64-3.29,11.42-5.1,17.09a20.51,20.51,0,0,0-1.27,7.21c.68,14.31,1.09,28.62,1.5,42.94.19,6.63-.16,13.47,2.53,19.84a15.65,15.65,0,0,0,5.55,3.41,91.57,91.57,0,0,0,14.17,5c3.37.82,5.85,2.32,7.26,5.5a8.17,8.17,0,0,1,2.32,3.06c3.75,8.21,7.91,16.27,10.31,25,.75,2.72,1.92,5.43,1.62,8.32a167.69,167.69,0,0,1-3.93,20.93,5.1,5.1,0,0,1-3.06,3.7c-12.33,5.61-24.59,11.37-36.55,17.73a7.42,7.42,0,0,1-5.58.62,2.38,2.38,0,0,0-1.15.41c-1.37,1.12-1.85,2.76-2.45,4.31-3,7.69-5.69,15.5-8.71,23.18-1.52,3.83-3.27,7.57-3.81,11.73a161.78,161.78,0,0,0-1.82,26.2c.28,8.92,3.07,17.11,10,22.65,9.11,7.26,20,11.25,31.73,9.65a93.33,93.33,0,0,0,35-11.66A18.38,18.38,0,0,0,172.2,392c1.13-1.44,2.59-3.3,4.37-2,1.52,1.06-.19,2.78-.81,4.09-4.14,8.78-9.92,16.62-14.44,25.17l-.18.34q-3,5.69-6.51,11.11-1.73,2.7-3.57,5.33l-1.85,2.61c-.5.69-1.1,1.19-1.63,1.83a8.76,8.76,0,0,1-2.25,2.29c-.48.26-1,.54-1.41.83a30.39,30.39,0,0,0-2.78,2,5.54,5.54,0,0,0-2,2.41,2.12,2.12,0,0,0,1.06,2.65,3.12,3.12,0,0,0,1.36,0c1.12-.12,2.24-.26,3.36-.35.76-.07,1.47.16,2.23.13,2.28-.08,4.56-.28,6.83-.4q6.84-.37,13.67-.63,13.68-.52,27.37-.67t27.39-.08c9.13,0,18.26.15,27.38.27,2.42,0,4.84.1,7.26.1,4.19.06,8.38.12,12.56-.13,3.18-.19,6.77-.22,9.09-2.73a13.73,13.73,0,0,0,1.73-3c3.17-5.67,6.14-11.48,9.15-17.24C289.25,423.44,287.06,423.63,285.46,423.51Z"/><path class="cls-4" d="M289.61,426a4.68,4.68,0,0,0-3.46-1.48c-6.78,0-13.54-2.09-20.32-.14-1.36.4-2.72.77-4.08,1.14-3,.82-5.7-.48-6.09-3.53-.28-2.09-1.4-3.46-2.33-5.12-2.85-5.07-6.91-9.25-10-14.14a50.55,50.55,0,0,1-4.15-9.12,19.77,19.77,0,0,0-3.15-5.28A5.71,5.71,0,0,0,230,386c-3.43.64-7.22,1.27-9.85-2.43-.76-1.07-2.1-1.15-3.52-.74-7.18,2-14.71,2.07-21.93,3.95-1.88.48-4-.65-5.93.56-.69.43-1.38-.49-1.8-1.13a1.34,1.34,0,0,1,.32-1.74,11.79,11.79,0,0,1,2.22-2.14c3-1.74,6.1-3.33,8.36-6.1.61-.75,1.61-.68,2.51-.82,2.26-.36,4.14-1.21,4.88-3.72a4.45,4.45,0,0,1,3.19-3.13c4.06-1,6.93-3.82,9.74-6.61q15.66-15.54,31.21-31.2a46.82,46.82,0,0,1,5.79-5.07c2.53-1.8,4.2-4.52,6.14-6.91,2.52-3.09,5.65-5.57,8.24-8.58a27.48,27.48,0,0,1,11.58,6.67,15,15,0,0,0,7.38,3.93c9.54,2.05,16.35,7.8,22.27,15.49,4.57,5.92,6.11,11.92,6,19.21A160,160,0,0,1,311.05,396c-2.36,8.3-4,16.8-6.77,25a26.8,26.8,0,0,1-1.9,4.63c-1.06,1.89-2.89,2.68-4.57,1.55C295.15,425.34,292.39,426,289.61,426Z"/><path class="cls-5" d="M19.25,400.25a8.13,8.13,0,0,0-6.42,3.82,9.75,9.75,0,0,1-6.75,4c-3.48.61-6.46,2.5-9.67,3.8A20.61,20.61,0,0,1-13,413.31c-4.19-.26-8.43.31-12.65.54a10.28,10.28,0,0,1-2.28.3c-4.33-.77-6.38,1.7-7.7,5.28-.17.49-.43.94-.58,1.43a2.9,2.9,0,0,0,.05.89c2.08.34,4.21.65,6.33,1.05a8.46,8.46,0,0,1,2.54.8,3.62,3.62,0,0,1,2.12,4.14,3.4,3.4,0,0,1-3.36,2.72,14.77,14.77,0,0,1-5-.19c-1.91-.62-3.22,0-4.61,1A19.7,19.7,0,0,0-41,433.84a24.13,24.13,0,0,0-3.2,4.43c-.22.4-.44.8-.65,1.21a2.8,2.8,0,0,0-.28.61,5.09,5.09,0,0,1,0,.55,2.79,2.79,0,0,1-1.49,1.92,5.57,5.57,0,0,1-3,.46,1.86,1.86,0,0,1-.91-.23,1.06,1.06,0,0,1-.16-1.5,9.47,9.47,0,0,0,2-6.51c-.2-1.78,1.6-3.4,2.36-5.18,2.39-5.57,5-11,7.62-16.51,1.16-2.43,2.63-4.49,5.79-4.24,1.09.08,1.52-.57,1.77-1.61,1.17-5,4.93-6.89,9.54-7.71a50.46,50.46,0,0,1,10.77-.69c1.88.07,3.36-.22,4.58-2s3.09-2.17,5.19-1.6c1.74.48,3.52.77,5.24,1.3a2.64,2.64,0,0,0,3.27-1.2c4.41-5.87,8.88-11.7,13.35-17.52a44.44,44.44,0,0,1,4.13-5.1,13.36,13.36,0,0,0,3.85-7c2.09-9.38,6-18.07,9.9-26.79,1.2-2.71,2.27-5.48,3.35-8.24.82-2.09,2-3.55,4.54-3.45a4.61,4.61,0,0,0,2.18-.71c14.68-7.72,30.48-12.49,46.1-17.76,4-1.36,8.22-2.2,12-4.21,1.43-.76,3-.52,4.56-.45a.76.76,0,0,1,0,1.05q-30.86,15.64-61.87,31a15.44,15.44,0,0,0-8,8.29C36.63,355.91,31.32,367.19,28,379.34c-1.91,6.9-8.08,10.74-14,14.36-.74.45-1.78.43-2.33,1.61,1.15,1.77,3.28,1.54,5,2.21C17.87,398,20.06,397.76,19.25,400.25Z"/><path class="cls-5" d="M132.32,68.58c3.25,0,3.6.31,2.64,3.09-2.59,7.55-5.38,15-8.54,22.35a28.2,28.2,0,0,0-2.59,12.73c.14,3.07-.79,6.31-.44,9.18.72,5.94-1.18,11.15-2.69,16.55q-2.4,8.55-5,17a6.75,6.75,0,0,0-.35,3.42c1,4.21.58,8.48.64,12.71.13,10.82.94,21.61.92,32.44,0,5.88.91,11.77,1.41,17.66-2.29-1.08-2.87-3.08-3-5.41-.77-10.53-1.6-21.05-3-31.54-1.06-8.17-1.71-16.39-2.57-24.59-.11-1-.41-2-.58-3a8.07,8.07,0,0,1,.33-4.55c3.25-8.14,5.34-16.74,9.78-24.4a6.32,6.32,0,0,0,.57-3.37c0-5.3.11-10.6.13-15.9a13.22,13.22,0,0,1,.5-3.42,116.57,116.57,0,0,1,10-26C131.33,72,132.58,70.56,132.32,68.58Z"/><path class="cls-5" d="M145.35,229.7a3.31,3.31,0,0,1,3.2,2.37c3.83,9.12,8.43,17.89,11.1,27.54,1.46,5.27.59,10.15-.32,15.16-.81,4.55-2,9-2.91,13.56a3.91,3.91,0,0,1-2.58,3c-9,4.14-18,8.25-26.95,12.51-4.18,2-8.26,4.19-12.3,6.44-1.67.93-2.88.76-4-.74a1.33,1.33,0,0,1-.33-1.45,2.77,2.77,0,0,1,.66-.82,20.21,20.21,0,0,1,5.9-3.19,9,9,0,0,0,4.44-1.08,202.67,202.67,0,0,1,26.91-13.42,6,6,0,0,0,4.17-5.36c1-8.69,2-17.36,3-26a11.46,11.46,0,0,0-.88-6c-2.75-6.24-5.33-12.56-8-18.84A9.85,9.85,0,0,1,145.35,229.7Z"/><path class="cls-6" d="M116.85,304.12a19.57,19.57,0,0,1-6.19,3.95c-1.07-1.37,0-2.3.69-3.29,0-.23.05-.45.07-.67A19.37,19.37,0,0,1,116.85,304.12Z"/><path class="cls-4" d="M111.35,304.78l-.69,3.29,0-.05c-.57.37-.3,1.16-.8,1.56-2.2,4.11-3.57,8.57-5.17,12.92-2.49,6.77-5,13.53-7.79,20.19-1.71,4.08-2,8.55-2.38,12.85-.35,4.48-1,8.95-1,13.48a71,71,0,0,0,1.73,16.08,12.4,12.4,0,0,0,1,2.51c.15.34.51.59.68.93,5.33,10.92,15.53,14.37,26.17,17.17,6.86,1.81,13.6.63,20.15-1.26,8.77-2.53,17.65-4.88,25.62-9.59,0,4.61-3.22,7.44-5.82,10.62-5.35,3.37-7.67,9-10.75,14.14-4.35,5.51-7.73,11.68-11.33,17.68a21,21,0,0,0-2.31,4.52,6.83,6.83,0,0,1-1.52,3c-2.62,2.73-6.61,4.33-10.22,5.23a64.21,64.21,0,0,1-14.05,1.38c-23.73.6-47.75,1-70.89-4.3-.77-.17-2.11-.74-2.16-1.68,0-.24.12-.37.16-.58a9.31,9.31,0,0,0,0-2.3,50.3,50.3,0,0,0-1.14-8.9,6.65,6.65,0,0,1-.14-2.31c.49-3.84-1.08-6.71-4-9.09a38.72,38.72,0,0,0-6.19-4.56A29.75,29.75,0,0,1,24.75,415a3.77,3.77,0,0,1-1.58-4.09c.68-2.64-.23-5-.64-7.53a3.44,3.44,0,0,0-3.28-3.15c-.35-2.27-2.48-1.81-3.71-2a9.17,9.17,0,0,1-5.84-3.09,2.32,2.32,0,0,1,1.64-1.68c6.35-1.71,10.37-6.55,14.38-11.19,2.21-2.55,2.37-6.23,3.21-9.44,1.71-6.54,4.46-12.63,7.24-18.72,2-4.34,4.12-8.61,5.76-13.1A7.07,7.07,0,0,1,45.76,337q31-15.42,62-30.94A9.4,9.4,0,0,1,111.35,304.78Z"/><path class="cls-6" d="M109.88,309.58a1.55,1.55,0,0,1,.8-1.56l-.06,1.56Z"/><polygon class="cls-7" points="139.64 185.27 139.57 185.05 139.77 185.08 139.64 185.27"/><path class="cls-8" d="M238.61,101.87c-2.17-1.59-4-3-5.89-4.34a5,5,0,0,1-2.19-4.28q0-7.36-.13-14.72c-.09-5-.16-10.08-.49-15.1a7.31,7.31,0,0,0-1.69-3.75c-8.77-11.08-20-17-34.38-17.1a99.5,99.5,0,0,0-37,7.08c-5.93,2.28-11.32,6.16-16.61,9.8-2,1.36-3.08,4-4.41,6.24-2,3.27-2.74,3.42-5.43.71-5.24-5.3-9-11.59-12.42-18.16-1.1-2.15-.84-3.85.52-4.91s2.87-.83,4.82.72,2.41,1.67,6.11,1.57c-.9-1.35-1.63-2.52-2.42-3.64a67.52,67.52,0,0,1-10.26-20.73c-1.51-5.38.78-8.62,6.33-8.7,5.29-.08,10.18,1.62,15,3.57,4.18,1.7,8.24,3.68,12.61,5.65,2.94-4.62,5.83-9.54,12.55-7.32.89-2.82,1.52-5.46,2.57-7.91s2.94-3.54,6-3.92c10.76-1.33,19.4,3.11,27.55,9.15,3.72,2.77,7.15,5.93,10.73,8.91,1.27,1.06,2.56,2.1,4,3.29a57.89,57.89,0,0,1,2.81-5.78c1.93-3.06,3.31-3.13,6.73-2,13.25,4.37,21.48,13.94,26.93,26.16,2.71,6.06,6.64,11.7,7.42,18.51.39,3.31.38,6.67.46,10a3.24,3.24,0,0,1-.61,2.19c-2.09,2-1.65,4.48-1.48,6.88.28,4,.61,8,1.05,12a102.88,102.88,0,0,1-.72,24.36,6,6,0,0,1-1.92,3.1c-2.79,2.67-5.86,5.06-8.53,7.83a5,5,0,0,1-5.27,1.34c-2.09-.5-2.26-2.36-2.27-4C238.58,117,238.61,109.53,238.61,101.87Z"/><path class="cls-8" d="M181.74,395.1a5,5,0,0,1,6.14-2.41c4.77,1.51,9.1.11,13.62-1,7.76-1.91,15.61-3.46,23.42-5.16l2.15-.5c.49-14.6,14.43-35.46,25.24-37.12a12.63,12.63,0,0,1-1.27,2.74c-2.55,3.08-5.21,6.07-7.81,9.11-1.07,1.25-2.11,2.54-3.16,3.81l.56.58c1.88-1.74,3.72-3.53,5.66-5.2s4.15-3.5,6.35-5.07a69.18,69.18,0,0,1,6.86-4.37c2.24-1.23,4.19-3.16,6.76-3.7l.55.92c-1.42,1-2.77,2-4.26,2.85a82,82,0,0,0-30.83,29.26c-.89,1.42-1.7,2.9-2.51,4.37a4.11,4.11,0,0,0-.23,1.18c.36.18.71.54,1,.48,3.46-.8,5.58.72,7.07,3.76s3.27,5.86,4.72,8.88a56.39,56.39,0,0,0,5.77,10c3.9,5.11,8.16,10.05,9.67,16.88,11.18-1.7,22.13-2.8,33.16-.74L279,445.49a60,60,0,0,0-21.53-15.4c-1.26,4-2.41,7.7-3.56,11.39l-.82-.16a10.22,10.22,0,0,1,0-2.35c.48-2,1-4,1.67-6,1.9-5.51.46-10.49-2.51-15.11s-6.29-9.12-9.37-13.73c-1-1.49-1.7-3.18-2.56-4.76-1.79-3.28-3.64-6.54-5.39-9.84a3.45,3.45,0,0,0-4.11-2c-8,1.45-16,2.8-24,4.31a57.24,57.24,0,0,0-7.47,2,19.44,19.44,0,0,1-11,.51C186.43,393.93,184.1,394.81,181.74,395.1Z"/><path class="cls-8" d="M119.91,304.67a33,33,0,0,1-7.17,5.38A13,13,0,0,0,107,317c-6.52,15.57-11.26,31.61-12.49,48.51a66.24,66.24,0,0,0,.62,13.85C97,392.72,108.9,404.7,125.63,405c8.36.13,16.35-1.88,24.29-4.15a102.25,102.25,0,0,1,11.64-3,11.36,11.36,0,0,1-1.63,1c-8.29,3.31-16.78,6-25.64,7.14a50.12,50.12,0,0,1-13.84,0c-15.66-2.48-26-14-27.52-30-.94-10.14.59-20.08,3-29.9,3.14-12.95,7-25.65,13.66-37.31C112.61,303.38,113,303.21,119.91,304.67Z"/><path class="cls-8" d="M190.72,381.46c2.44-1.86,4.76-3.89,7.32-5.54,14.1-9.11,26.27-20.42,37.73-32.58,3.18-3.38,6.68-6.47,10-9.73,5.05-4.95,10.06-9.94,15.57-15.4l-7.92-7.71h16.25a58.49,58.49,0,0,1-3.68,4.68q-10.11,10.43-20.33,20.73c-6.64,6.69-13.37,13.29-20,20-9.9,9.95-21.34,17.91-33,25.63a9.85,9.85,0,0,1-1.35.65Z"/><path class="cls-8" d="M153.51,348.9a12.92,12.92,0,0,1,6.93-5.15,8.59,8.59,0,0,0,4.87-5.05c9.5-21.05,18.76-42.19,24.38-64.7a10.88,10.88,0,0,1,1.64-3.73,162.68,162.68,0,0,1-10.72,36.8c-4.86,11.78-9.89,23.48-15,35.62l8.65-1c-2.16,2.51-4.7,1.68-6.64,2.52-2.2,1-4.39,2-6.66,2.75C158.83,347.71,156.61,348.13,153.51,348.9Z"/><path class="cls-8" d="M93.06,331.28c-4.58,15.2-6.93,30.83-9.69,46.55a7.52,7.52,0,0,1-.46-2.22c.45-4,1-7.92,1.54-11.88a178.31,178.31,0,0,1,6.23-29.09c.37-1.2.87-2.35,1.31-3.53Z"/><path class="cls-8" d="M262.85,134.47c-3.3-1.5-5.1.6-6.93,2.52a32.68,32.68,0,0,0-7.35,12.24c2.27-.57,3.41-3.67,6.12-2.23-1.45,1.28-2.78,2.36-4,3.56s-1.15,3.63-4.08,3.27a14.45,14.45,0,0,1,0-3.54,31.16,31.16,0,0,1,10.59-16.7,8,8,0,0,1,3.46-1.48C261.94,131.88,262.89,132.5,262.85,134.47Z"/><path class="cls-8" d="M192.1,218.18c9.33-5.76,17.26-13.25,26-21.06C215.66,203.14,198.41,216.91,192.1,218.18Z"/><path class="cls-8" d="M143.74,224.94c10.72,1.73,20.58,1.11,30.44-.09C168.8,228.33,149.4,228.57,143.74,224.94Z"/><path class="cls-8" d="M153.4,287.57c-1.11,9.54-1.84,18.43-5.28,26.64-.57.06-.72.12-.79.07a.43.43,0,0,1-.16-.34q2.39-12.66,4.8-25.33C152,288.45,152.33,288.34,153.4,287.57Z"/><path class="cls-8" d="M26.89,371.85a104.59,104.59,0,0,1-2.81,17.41C23.05,386.26,24.84,375.15,26.89,371.85Z"/><path class="cls-8" d="M144.64,346.06l-8.45-10.47C140,337,144.39,342.21,144.64,346.06Z"/><path class="cls-8" d="M138.16,442.86c.61-.92,1.21-1.87,1.8-2.82,7.62-12.29,15.55-24.39,23.48-36.48,2.73-4.16,5.73-8.15,8.83-12a9.23,9.23,0,0,1,4.07-2.65,12.6,12.6,0,0,1,5-.61c6.64.5,13.09-1.11,19.64-1.48,7-.39,13.7-3.57,21-1.88a5.88,5.88,0,0,0-3.22-1.68,30.85,30.85,0,0,0-6.15.19q-10,1.27-19.92,2.77c-5.59.85-11.3-.17-16.88,1.31a7.82,7.82,0,0,0-4.77,2.95c-5.93,8.45-12,16.79-17.72,25.4-5.87,8.88-11.53,17.91-17.05,27Z"/><path class="cls-9" d="M148.94,116.23c-.05.12-.11.24-.16.35a10.73,10.73,0,0,1-.56,1c-.17.26-.43.41-.6.66-1,1.38-2,2.77-3,4.13l-.06.09a6.93,6.93,0,0,0-1.63,5c.43,2.55-.57,4.49-1.56,6.57a15.23,15.23,0,0,0-1.43,7.13,2,2,0,0,1-.92,2c-.84.42-1.49-.14-2.06-.65-2.49-2.25-4.19-4.66-1.88-8.45.24-.4.48-.81.7-1.22a1.63,1.63,0,0,1,.21-.34,3.12,3.12,0,0,0,.29-.45c.21-.34.41-.68.61-1,.4-.68.8-1.37,1.16-2.08a22.92,22.92,0,0,0,1.64-3.81,17.13,17.13,0,0,1,.84-2.44,10.39,10.39,0,0,1,1.17-1.79,50.06,50.06,0,0,1,5.06-5.64,9.91,9.91,0,0,1,2.08-1.63.63.63,0,0,1,.35-.09c.35,0,.4.53.32.88A9.49,9.49,0,0,1,148.94,116.23Z"/><path class="cls-8" d="M142.54,152.45c-3.53.92-6.56,1.54-8.8-1.3a17.53,17.53,0,0,1-1.62-2.15c-1.22-2.21-.93-2.94,1.64-4.38-.24-1.35-.55-2.72-.74-4.11a9.57,9.57,0,0,1,1.47-6.25,47,47,0,0,0,3.92-8.34c2-5.74,4.91-10.51,10.84-12.81a6.41,6.41,0,0,0,3.68-4.22c1.19-3.27,2.34-6.55,3.79-9.74-.65,4.67-1.4,9.34-4,13.41a6.68,6.68,0,0,1-3.11,2.16c-4.82,1.94-7.52,5.74-9.16,10.4A48.08,48.08,0,0,1,135.57,136c-.93,1.4-1,3.73-.7,5.52a14.05,14.05,0,0,0,5.2,9.22C140.86,151.35,141.71,151.88,142.54,152.45Z"/><path class="cls-8" d="M169.32,146.49c-.17,2-1.9,2.54-3.25,3.43-2.09,1.39-4.86,1.56-6.4,4-.57.89-3.85.2-4.54-.81-.85-1.24-.12-2.25.78-3a19,19,0,0,1,11.12-4.7,3.27,3.27,0,0,1,1.47.28C168.82,145.79,169,146.17,169.32,146.49Z"/><path class="cls-8" d="M173.9,149.86c2-3.5,3.71-6.92,1.65-11.23,2.29,1.45,2.68,1.94,2.49,4.19C177.79,145.76,177.21,148.61,173.9,149.86Z"/><path class="cls-8" d="M130.79,151.52c-5.18-2-6.63-5.62-4.37-10.4.27,2.13.16,4.06.82,5.68S129.31,149.62,130.79,151.52Z"/><path class="cls-8" d="M214.71,103.3c-9.47-8.26-20.2-11.25-32.84-7.93a8,8,0,0,1-.93-2.56,18.27,18.27,0,0,1,.57-4.59,6,6,0,0,1,5.47-5,43.88,43.88,0,0,1,18,.71,7.91,7.91,0,0,1,3.55,2,86.06,86.06,0,0,1,7.9,9C218.91,98.33,218.51,99.55,214.71,103.3Z"/><path class="cls-8" d="M121.11,98.9a16.41,16.41,0,0,1,2.69-7.59,21,21,0,0,1,13.48-9c5.05-1,10.05-1.94,15.44-.67-.57,2.47-1,4.61-1.58,6.68-.86,2.9-1.25,3.14-4.38,3.21A48.71,48.71,0,0,0,129,95c-1.89.79-3.63,1.92-5.45,2.87C122.93,98.14,122.27,98.39,121.11,98.9Z"/><path class="cls-10" d="M159.78,202.2c-7.93,1.72-15.76.8-23.4-1.83a19.17,19.17,0,0,1-2.42-.93,7.23,7.23,0,0,1-2.08-1.6,5.51,5.51,0,0,1-.75-1.06,3.47,3.47,0,0,1-.27-.59,1.3,1.3,0,0,1-.14-.58,1.92,1.92,0,0,0,0-.22,3.64,3.64,0,0,0,0-.74,19.12,19.12,0,0,1,0-3.21,9.23,9.23,0,0,1,.74-3,7.58,7.58,0,0,1,.81-1.41c.18-.24.37-.48.57-.7l.29-.3,0-.06a.47.47,0,0,1,.07-.12c.08-.08.16-.17.24-.24a4.43,4.43,0,0,1,.54-.43,3.94,3.94,0,0,1,1.27-.53l.3-.06s.08,0,.11,0,0,.14,0,.2a3.3,3.3,0,0,0-.57,1.06,2,2,0,0,0-.06.72,1.77,1.77,0,0,0,.24.64,8.27,8.27,0,0,0,.62,1,7.35,7.35,0,0,0,.75.92,5.79,5.79,0,0,0,.88.76,5.55,5.55,0,0,0,1.06.6,6.51,6.51,0,0,0,1.05.36c17.64,5.83,35.23.54,46.8-14.1.14-.17.26-.34.41-.5L187,176c.16-.18.31-.37.46-.57a12.38,12.38,0,0,0,.82-1.22c.25-.42.49-.86.71-1.3s.43-.89.64-1.34.32-.73.49-1.09a1,1,0,0,1,.25.55,10.42,10.42,0,0,1,.24,2,.74.74,0,0,0,0,.21v.07l0,.21c0,.28-.07.55-.12.83-.09.55-.2,1.1-.32,1.64,0,.14-.08.27-.11.41a.49.49,0,0,1,0,.12l-.06.15-.25.58c-.17.39-.34.77-.52,1.15s-.35.75-.54,1.12-.36.74-.55,1.1l-.58,1.08-.6,1c-.2.34-.41.68-.62,1l-.64,1c-.22.32-.44.65-.67,1s-.45.64-.68,1-.46.63-.7.93-.48.61-.73.9-.49.59-.75.88-.51.57-.77.85-.52.56-.79.83-.53.54-.81.8l-.83.77c-.28.26-.57.51-.86.75l-.87.73c-.3.23-.6.47-.9.69s-.61.46-.93.68l-.94.64-1,.62-1,.59c-.34.2-.67.39-1,.57l-1,.54c-.35.18-.7.35-1.06.51l-1.08.49-1.1.46-1.12.43-1.14.4-1.17.38-1.19.35-1.22.32c-.41.11-.82.2-1.23.3Z"/><path class="cls-11" d="M142,185.93c3.08-6.89,9.58-9.33,15.86-11.87a43.52,43.52,0,0,1,29.41-1.34c.91,1.72-.14,2.95-1.06,4.22-4.49,6.2-10.07,10.58-18.08,11a26,26,0,0,0-4,.71c-5.12.41-10.22,1.13-15.37.54-1.47-.48-3.06-.5-4.5-1.1C143.29,187.63,142,187.48,142,185.93Z"/><path class="cls-12" d="M132.94,196.27a1.29,1.29,0,0,1-.27-.45,2.78,2.78,0,0,1-.1-1c0-.07,0-.13,0-.2a3.41,3.41,0,0,1,.1-.9,5.43,5.43,0,0,1,.8-2,1.45,1.45,0,0,1,1.84-.75c.71.33.51,1.08.21,1.63a7.34,7.34,0,0,0-.53,2.17,3.78,3.78,0,0,1-.17.6c-.07.18-.19.34-.27.51a1.13,1.13,0,0,1-1.06.64A.93.93,0,0,1,132.94,196.27Z"/><path class="cls-8" d="M169.7,190.69a49.18,49.18,0,0,0,6-3.05,38.67,38.67,0,0,0,5.33-3.83,36.33,36.33,0,0,0,4.58-4.7c.7-.88,1.36-1.78,2-2.72.2-.3.38-.6.58-.9l.22-.33.42-.68c.14-.22.28-.45.41-.68l.4-.69.38-.7.37-.71.35-.72c.12-.24.23-.48.34-.72s.22-.49.32-.73l.17-.39a.64.64,0,0,0,.06-.18,1.27,1.27,0,0,1,.06-.18c.1-.27.19-.53.28-.8l.1-.3c.13-.39.25-.79.37-1.19.18-.64.33-1.29.53-1.93.06-.18.12-.36.19-.53s.07-.18.11-.27a1.36,1.36,0,0,0,.11-.25l.56,1a.16.16,0,0,0,.09.09s.09,0,.12-.06a3.17,3.17,0,0,0,.54-.9c.26-.57.5-1.16.71-1.76a1.81,1.81,0,0,0,.16-1,1.5,1.5,0,0,0-.8-.91,5.32,5.32,0,0,0-1.79-.59,12,12,0,0,0-3.17-.12c-.15,0-.33.07-.34.22a.28.28,0,0,0,.09.2,3,3,0,0,1,.8,1.14.41.41,0,0,1,0,.29c-.07.16-.27.23-.44.28a16.53,16.53,0,0,1-1.69.39c-.41.08-.82.14-1.24.18l-.44.07-1.57.29-3.15.57c-13,2.45-26,5.07-39.34,5.55-3.18.11-6.35.52-9.75.8,3.75,3.27,3.53,7.46,3.65,11.55-.6.79-.75,1.78-1.73,2.45a9.86,9.86,0,0,0-4.45,8.39c-.8,5.6.22,7.32,5.54,9.31.29.11.61.15.91.25,19,6.39,37.14.92,49.17-14.91l.81-1.06.85-1.16c.28-.39.55-.78.81-1.18s.5-.81.73-1.22.45-.84.64-1.28.36-.88.51-1.34.25-.94.35-1.42c0,0,0-.08,0-.13a1.52,1.52,0,0,0,0-.21l0-.43c0-.28.06-.56.08-.85,0-.57.08-1.13.09-1.7a16.28,16.28,0,0,0-.05-1.71.85.85,0,0,0-.14-.49,3.14,3.14,0,0,0-.18,1c0,.34-.06.67-.1,1a11.31,11.31,0,0,1-.31,1.65,7,7,0,0,1-.5,1.05l-.42.86c-.58,1.14-1.19,2.26-1.84,3.35a49.43,49.43,0,0,1-4.39,6.28c-10.56,12.82-24,17.08-40,14.08l-.31-.06c-1-.17-1.91-.33-2.86-.53a20.36,20.36,0,0,1-2.78-.75,11.39,11.39,0,0,1-2.58-1.31c-.17-.12-.36-.17-.52-.29s-.39-.3-.58-.47a6.43,6.43,0,0,1-1-1.1,4.88,4.88,0,0,1-.74-1.72c0-.21-.05-.42-.11-.63a.8.8,0,0,1,0-.26c0-.27,0-.53,0-.79,0-.54,0-1.09,0-1.62a10,10,0,0,1,.66-3.11,7.27,7.27,0,0,1,.77-1.46,7.61,7.61,0,0,1,.55-.72,3.47,3.47,0,0,0,.31-.36.58.58,0,0,1,.13-.14l.3-.27q.32-.27.63-.51l.05,0a1.09,1.09,0,0,1,.51-.24s-.09.12-.1.15l-.1.15c-.06.11-.12.22-.17.33l-.12.35a1.53,1.53,0,0,0-.07.36.47.47,0,0,1-.12.3c0,3,2.22,3.9,4.38,4.94C149.28,195.09,159.53,195.05,169.7,190.69ZM142.63,186a.55.55,0,0,1,.22-.46.53.53,0,0,0,.1-.06,1.53,1.53,0,0,0,.19-.3l.24-.34c.32-.47.67-.92,1-1.36a20.5,20.5,0,0,1,2.33-2.42,24.73,24.73,0,0,1,5.61-3.66,64.37,64.37,0,0,1,7.5-3.22c8.75-2.89,17.58-3.61,26.51-.74a2.15,2.15,0,0,1,.63.39l-.15.4a14,14,0,0,1-1.06,2.08,20.17,20.17,0,0,1-1.5,2.07,23.19,23.19,0,0,1-1.84,2c-.67.65-1.37,1.26-2.1,1.84a24,24,0,0,1-2.28,1.61,21.84,21.84,0,0,1-2.36,1.32c-.39.18-.79.36-1.19.52s-1,.31-1.45.45c-1.05.3-2.11.54-3.18.74s-2.16.36-3.24.49-2.16.23-3.25.32a71.89,71.89,0,0,1-19.44-.63,1.92,1.92,0,0,1-1.12-.49A.83.83,0,0,1,142.63,186Zm-6.2.63c1.5-.51,3-.77,4.45.17,1.11,1.84,3,2.12,4.92,2.27,1.23.7,2.61.54,3.94.66,5.4.47,10.75-.35,16.11-.68l.39.07c1-.16,2,.19,2.84-.52.08-.07.44.28,0,.35-.71.16-1.43.09-2.14.18a42,42,0,0,1-14.14,2.25c-4.21,0-8.28-1.11-12.46-1.15-.25.07-.52.13-.75.22C138,189.68,135.82,189.42,136.43,186.64Z"/><path class="cls-13" d="M166.78,188.38c-6.75.19-13.53,1.14-20.19.13a12.15,12.15,0,0,1-5.14-1.75c-.57-.4-1.09-.88-1.69-1.23a2.66,2.66,0,0,0-2-.41,2.27,2.27,0,0,0-1.46,1.39,3.48,3.48,0,0,0-.24,1,5.21,5.21,0,0,0,0,.79,2.48,2.48,0,0,0,.17.59,2,2,0,0,0,1.2,1.17,9.09,9.09,0,0,0,1.24.43,15.43,15.43,0,0,0,1.66.4c.92.15,1.84.28,2.76.45,8.38,1.56,16.68,1.8,24.73-1.69a3.3,3.3,0,0,0,.63-.2,5.28,5.28,0,0,0,.69-.29c.22-.11.44-.24.65-.37l.31-.21.15-.12s.1-.1.13-.1C169.18,188.33,168,188.34,166.78,188.38Z"/><path class="cls-8" d="M190.3,112.54a15.75,15.75,0,0,0-2.13,1.95c-.4.43-.79.87-1.18,1.31l-.64.73c-.1.11-.21.22-.31.34l-.15.17a1.14,1.14,0,0,0-.11.11c.27-1.4.19-2.19.54-2.57a20.34,20.34,0,0,1,4.12-4,13.15,13.15,0,0,1,2.8-1.29,10.25,10.25,0,0,1,1.33-.31,1.55,1.55,0,0,0,.36-.08,2.77,2.77,0,0,1,1-.2,8,8,0,0,1,2.61.43,9.3,9.3,0,0,1,4.79,3.17,5.68,5.68,0,0,1,.8,5.52,9.66,9.66,0,0,0-10.2-6.66,7.19,7.19,0,0,0-2,.41,8.91,8.91,0,0,0-1.35.75Z"/><path class="cls-8" d="M134.62,106.53a5.27,5.27,0,0,0-.51-.19,6.25,6.25,0,0,0-1.4-.3,1.77,1.77,0,0,0-1.14.12c-.23.13-.46.25-.68.39a6,6,0,0,0-1.17,1.08c-1.35,1.5-2.51,3.19-3.7,4.81,0-3.38,2.68-7.23,5.63-7.93a6.43,6.43,0,0,1,3,.07A6.56,6.56,0,0,1,137.8,107a14.52,14.52,0,0,1,1.58,2.51c.21.41.47.78.66,1.21a6.3,6.3,0,0,1,.44,1.46,1.22,1.22,0,0,1,0,.6.47.47,0,0,1-.46.31.48.48,0,0,1-.29-.19,2.41,2.41,0,0,1-.38-.81,9.68,9.68,0,0,0-2.81-4.41A7.19,7.19,0,0,0,134.62,106.53Z"/><path class="cls-8" d="M192,116.19a8,8,0,0,1,.42-1.8,5.43,5.43,0,0,1,.42-1,1.47,1.47,0,0,1,.3-.31c.32-.31.58-.68.91-1a6.74,6.74,0,0,1,2.3-1.41,6.15,6.15,0,0,1,.81-.23,5.36,5.36,0,0,1,4.73,1.28,7.65,7.65,0,0,1,1.75,3,11.29,11.29,0,0,1,.63,3,7,7,0,0,1-.09,1.51c-.07.45-.24.88-.31,1.33a5,5,0,0,1-.13.85,3,3,0,0,1-.58,1,6,6,0,0,1-2,1.59,7.31,7.31,0,0,1-1.72.6c-3.2.67-6.24-.81-7.16-3.73A7.78,7.78,0,0,1,192,119c0-.51-.07-1-.09-1.54A2.16,2.16,0,0,1,192,117C192,116.72,192,116.45,192,116.19Z"/><circle class="cls-5" cx="195.09" cy="114.49" r="1.2"/><path class="cls-8" d="M133.59,106.75a3.78,3.78,0,0,1,3.57.44,5.43,5.43,0,0,1,1.46,2,10.81,10.81,0,0,1,1.1,3.71,6.52,6.52,0,0,1-.48,3c-.12.3-.17.62-.28.92a2.23,2.23,0,0,1-.7.88,5,5,0,0,1-3.16,1.32,4.64,4.64,0,0,1-3-.88,1.05,1.05,0,0,1-.3-.36c-.18-.36-.42-.68-.63-1a7.94,7.94,0,0,1-.71-6.56A5.81,5.81,0,0,1,133.1,107,4.31,4.31,0,0,1,133.59,106.75Z"/><circle class="cls-5" cx="133.07" cy="110.31" r="1.2"/></g></g></svg>