<svg xmlns="http://www.w3.org/2000/svg" xmlns:xlink="http://www.w3.org/1999/xlink" viewBox="0 0 117.83 117.83"><defs><style>.cls-1{fill:#a44cc1;}.cls-2{clip-path:url(#clip-path);}.cls-3{fill:#bf8af9;}.cls-4{fill:#7e42a8;}.cls-5{fill:#fff;}</style><clipPath id="clip-path"><path class="cls-1" d="M117.83,58.88a58.92,58.92,0,1,0-58.87,59A59.1,59.1,0,0,0,117.83,58.88Z"/></clipPath></defs><g id="TXT"><path class="cls-1" d="M117.83,58.88a58.92,58.92,0,1,0-58.87,59A59.1,59.1,0,0,0,117.83,58.88Z"/><g class="cls-2"><path class="cls-3" d="M8.66,99.33A104.94,104.94,0,0,1,3.52,59.38a28.78,28.78,0,0,1,.94-6.19,30.61,30.61,0,0,1,3.2-6.68A226,226,0,0,1,27,18.72a19.84,19.84,0,0,1,4.81-4.65,20.74,20.74,0,0,1,6.65-2.19q8.82-1.83,17.65-3.62L83.35,2.71C88.69,1.61,94.16.52,99.58,1.19c2.68.33,5.36,1.1,8,.86.17-4-4.13-6.61-7.84-8.2q-8.73-3.76-17.6-7.18C73.27-16.76,63.84-20,54.35-18.81c-7.66.93-14.72,4.66-21,9.19A122.61,122.61,0,0,0,12.79,10C.56,24.19-10,40.18-15.45,58.11a13.53,13.53,0,0,0-.8,5.51c.28,2.32,1.64,4.34,3,6.27l5,7.34A36.6,36.6,0,0,0-4,82.77,25.89,25.89,0,0,1-.79,86.21c1.42,2,2.45,4.32,3.84,6.38A44.6,44.6,0,0,0,8.66,99.33Z"/><path class="cls-4" d="M104.6,14.87c-2.57-1.54-5.47-3-8.43-2.54l5.49,15.27c3.52,9.77,7,19.56,9.67,29.61A14.72,14.72,0,0,1,112,63.3,15.35,15.35,0,0,1,109.33,69c-5.87,9-11.75,18-18,26.77-2.65,3.66-5.45,7.34-9.17,9.91A37,37,0,0,1,72,110.13a140.55,140.55,0,0,1-19.2,4.64c-4.77.8-9.76,1.42-13.83,4,8,3.57,17.15,3.51,25.91,2.85,9.52-.73,19-2.12,28.1-5.17,6.26-2.1,12.37-5.07,17.09-9.68,4.18-4.09,7.1-9.29,9.63-14.56a142.48,142.48,0,0,0,11.41-34.58c.74-3.85,1.32-7.84.49-11.67a25.62,25.62,0,0,0-3.4-7.72c-1.49-2.46-3.15-4.82-4.5-7.36-.9-1.69-1.62-3.46-3.06-4.78a71.32,71.32,0,0,0-6.93-5.3q-4-2.84-8.18-5.38Z"/></g><path class="cls-5" d="M40.79,50a4.77,4.77,0,1,1,5.31-4.19A4.61,4.61,0,0,1,40.79,50Z"/><path class="cls-5" d="M83.1,49.83a4.77,4.77,0,1,1-4.27-5.25A4.59,4.59,0,0,1,83.1,49.83Z"/><path class="cls-5" d="M33.46,52.61a1.08,1.08,0,0,1-.77-.31A9,9,0,0,1,31,41.61a1.08,1.08,0,1,1,1.87,1.07,6.83,6.83,0,0,0,1.37,8.1,1.07,1.07,0,0,1-.76,1.83Z"/><path class="cls-5" d="M35.27,36.39A23.2,23.2,0,0,1,27,34.81a2.16,2.16,0,1,1,1.54-4A18.24,18.24,0,0,0,37.07,32a13.28,13.28,0,0,0,7.49-3.34,2.16,2.16,0,1,1,2.95,3.15,17.49,17.49,0,0,1-9.93,4.47A19.62,19.62,0,0,1,35.27,36.39Z"/><path class="cls-5" d="M84.71,58.27a1.1,1.1,0,0,1-.91-.5,1.08,1.08,0,0,1,.33-1.49,6.8,6.8,0,0,0,3.1-7.61A1.08,1.08,0,1,1,89.3,48a9,9,0,0,1-4,10.06A1.12,1.12,0,0,1,84.71,58.27Z"/><path class="cls-5" d="M91.08,42.53A21.55,21.55,0,0,1,84,41.38a17.62,17.62,0,0,1-8.72-6.54,2.16,2.16,0,1,1,3.57-2.43,13.2,13.2,0,0,0,6.58,4.89A18.14,18.14,0,0,0,94,38a2.16,2.16,0,0,1,.62,4.27A25.16,25.16,0,0,1,91.08,42.53Z"/><path class="cls-5" d="M71.34,97.11a8.68,8.68,0,0,1-1-.06h0a9.31,9.31,0,0,1-6.85-4.25c-1.76-2.76-5.18-4.66-9.14-5.1s-7.74.68-10.06,3a9.3,9.3,0,0,1-6.59,2.71h0a9.35,9.35,0,0,1-6.56-16c6.39-6.34,15.61-9.36,25.29-8.29s18,6,22.83,13.6a9.35,9.35,0,0,1-7.88,14.39Zm-.54-4.35A5,5,0,0,0,74.06,92a5,5,0,0,0,1.53-7c-4.14-6.47-11.31-10.71-19.67-11.63S39.6,75.06,34.14,80.47a5,5,0,0,0,3.53,8.61h0a5,5,0,0,0,3.55-1.46c3.23-3.22,8.31-4.79,13.57-4.21s9.84,3.22,12.3,7.06a5,5,0,0,0,3.69,2.29Z"/></g></svg>