<svg xmlns="http://www.w3.org/2000/svg" viewBox="0 0 117.83 117.83"><defs><style>.cls-1{fill:#262a58;}.cls-2{fill:#fff;}</style></defs><g id="TXT"><path class="cls-1" d="M117.83,58.86a58.92,58.92,0,1,0-58.86,59A59.09,59.09,0,0,0,117.83,58.86Z"/><path class="cls-2" d="M58.74,76.51c12.54.52,22.39,6.71,28.64,18.65.1.2.19.4.28.6.87,2,.52,3.55-.93,4.16s-2.86-.18-3.73-2.1A26.77,26.77,0,0,0,70,84.39,27.64,27.64,0,0,0,32.6,97.82a4,4,0,0,1-1.37,1.84,2.31,2.31,0,0,1-2.92-.12,2.54,2.54,0,0,1-.59-3.18,27.25,27.25,0,0,1,3.87-6.75C38.23,81.08,47,76.74,58.74,76.51Z"/><path class="cls-2" d="M82.1,74.77c-4,0-6.5-3.7-5.06-7.62a24,24,0,0,1,3.39-6.09,1.9,1.9,0,0,1,3.19-.19A19.9,19.9,0,0,1,87.4,68,5.3,5.3,0,0,1,82.1,74.77Zm1.54-5.5a6.42,6.42,0,0,0-1.2-2.9c-.22-.36-.48-.32-.69,0a6.18,6.18,0,0,0-1.16,2.83,1.32,1.32,0,0,0,1.47,1.55A1.37,1.37,0,0,0,83.64,69.27Z"/><path class="cls-2" d="M39.14,58.23A4.77,4.77,0,1,1,44,53.48,4.59,4.59,0,0,1,39.14,58.23Z"/><path class="cls-2" d="M81.18,53.45a4.77,4.77,0,1,1-4.83-4.75A4.59,4.59,0,0,1,81.18,53.45Z"/><path class="cls-2" d="M27.36,56.44a2.16,2.16,0,0,1-.6-4.23C31.24,50.89,37.85,45,39.33,39.66a2.16,2.16,0,1,1,4.16,1.15C41.59,47.65,33.73,54.66,28,56.35A2.15,2.15,0,0,1,27.36,56.44Z"/><path class="cls-2" d="M87,56.44a2.08,2.08,0,0,1-.6-.09c-5.76-1.69-13.63-8.7-15.52-15.54a2.16,2.16,0,1,1,4.16-1.15C76.55,45,83.16,50.89,87.64,52.21A2.16,2.16,0,0,1,87,56.44Z"/></g></svg>