<svg xmlns="http://www.w3.org/2000/svg" xmlns:xlink="http://www.w3.org/1999/xlink" viewBox="0 0 117.83 117.83"><defs><style>.cls-1{fill:#1e8e30;}.cls-2{clip-path:url(#clip-path);}.cls-3{fill:#23d638;}.cls-4{fill:#18733d;}.cls-5{fill:#fff;}</style><clipPath id="clip-path"><path class="cls-1" d="M58.9,0a58.92,58.92,0,1,0,58.93,58.9A59.1,59.1,0,0,0,58.9,0Z"/></clipPath></defs><g id="TXT"><path class="cls-1" d="M58.9,0a58.92,58.92,0,1,0,58.93,58.9A59.1,59.1,0,0,0,58.9,0Z"/><g class="cls-2"><path class="cls-3" d="M9.58,100.92A104.74,104.74,0,0,1,4.44,61a28.17,28.17,0,0,1,.94-6.19,30.61,30.61,0,0,1,3.2-6.68A226,226,0,0,1,28,20.31a19.84,19.84,0,0,1,4.81-4.65,20.68,20.68,0,0,1,6.64-2.19q8.84-1.83,17.66-3.62L84.26,4.3c5.35-1.1,10.82-2.19,16.23-1.52,2.69.33,5.36,1.1,8.06.86.17-4-4.13-6.61-7.84-8.2Q92-8.33,83.11-11.74c-8.92-3.43-18.35-6.63-27.84-5.48-7.66.93-14.72,4.66-21,9.19A123.79,123.79,0,0,0,13.7,11.59C1.47,25.78-9.12,41.77-14.53,59.7a13.53,13.53,0,0,0-.8,5.51c.28,2.32,1.64,4.35,3,6.27l5,7.34A36.6,36.6,0,0,0-3,84.36,25.89,25.89,0,0,1,.13,87.8c1.42,2,2.45,4.32,3.84,6.38A44.6,44.6,0,0,0,9.58,100.92Z"/><path class="cls-4" d="M105.52,16.46c-2.58-1.53-5.47-3-8.43-2.54l5.49,15.27c3.52,9.77,7,19.56,9.66,29.61a14.72,14.72,0,0,1,.67,6.09,15.51,15.51,0,0,1-2.66,5.65c-5.87,9-11.75,18-18.06,26.77-2.65,3.66-5.44,7.34-9.16,9.92A36.92,36.92,0,0,1,73,111.72a139.09,139.09,0,0,1-19.2,4.64c-4.77.8-9.76,1.42-13.84,4,8,3.56,17.16,3.5,25.92,2.84,9.52-.73,19-2.12,28.1-5.16C100.2,116,106.3,113,111,108.4c4.18-4.09,7.1-9.29,9.63-14.56a142.34,142.34,0,0,0,11.41-34.58c.74-3.85,1.32-7.84.49-11.67a25.87,25.87,0,0,0-3.4-7.72c-1.49-2.46-3.15-4.81-4.5-7.36-.9-1.69-1.62-3.46-3.06-4.78a72.56,72.56,0,0,0-6.93-5.3q-4-2.84-8.18-5.38Z"/></g><path class="cls-5" d="M83.83,92.41a10.44,10.44,0,0,1-1.37,0c-3.59-.53-6.17.46-8.45,3.68-2.66,3.75-7.05,5.24-11.57,5.77-6.43.75-12.49-.18-17.61-4.59A11.07,11.07,0,0,1,42,94a2.67,2.67,0,0,0-2.85-1.63c-3.62.08-7.24,0-10.86,0-2.75,0-3.81-1.33-3-4,3.89-13.31,12.86-21.51,26.21-24.37,13.86-3,25.64,1.39,34.88,12.16a28.85,28.85,0,0,1,6.22,12.36c.58,2.49-.39,3.79-2.92,3.83C87.74,92.44,85.79,92.41,83.83,92.41Zm-1.36-5.07h1.9c2.55,0,2.55,0,1.44-2.24A29.88,29.88,0,0,0,40.65,74.67,28.62,28.62,0,0,0,31.7,85.85c-.5,1.12-.35,1.55,1,1.5q2.67-.1,5.34,0a1.52,1.52,0,0,0,1.82-1.54,6.77,6.77,0,0,1,2.32-4.3,14.38,14.38,0,0,1,15.09-2.89,4.54,4.54,0,0,0,3.47,0,14.19,14.19,0,0,1,12.3.89,9.06,9.06,0,0,1,4.81,5.17c.84,2.64.8,2.66,3.63,2.66Zm-23.64,9.6a19.62,19.62,0,0,0,8.49-2,10.39,10.39,0,0,0,5.5-7.12,2.44,2.44,0,0,0-.94-2.75,10.38,10.38,0,0,0-5.33-2.24,7,7,0,0,0-4.63,1c-1,.72-.3,2.15-.46,3.26,0,.23,0,.46,0,.69a2.52,2.52,0,0,1-5,0,12,12,0,0,1,0-2.24,1.74,1.74,0,0,0-1.39-2,9.06,9.06,0,0,0-8.79,1.35,2.62,2.62,0,0,0-1.19,3A10.76,10.76,0,0,0,49,93.93C51.9,96.17,55.32,96.7,58.83,96.94Z"/><path class="cls-5" d="M31.74,49.66a1.88,1.88,0,0,1-1.66-1.21A2.18,2.18,0,0,1,30.45,46a4.69,4.69,0,0,1,1.59-1l14.38-7.19.66-.32c1.55-.69,2.9-.36,3.47.82s0,2.48-1.46,3.25q-7,3.52-14,7A7.34,7.34,0,0,1,31.74,49.66Z"/><path class="cls-5" d="M69.65,37a4.44,4.44,0,0,1,1.44.54l15,7.52a3.51,3.51,0,0,1,1.31.94,2.2,2.2,0,0,1,.27,2.49,2.06,2.06,0,0,1-2.22,1.1A5.13,5.13,0,0,1,83.7,49L69.2,41.72a4.36,4.36,0,0,1-1.58-1.06,2.2,2.2,0,0,1-.35-2.36C67.64,37.46,68.36,37.07,69.65,37Z"/><path class="cls-5" d="M31.74,28.84a1.86,1.86,0,0,0-1.66,1.21,2.18,2.18,0,0,0,.37,2.47,4.52,4.52,0,0,0,1.59,1l14.38,7.2.66.32c1.55.68,2.9.36,3.47-.83s0-2.48-1.46-3.24q-7-3.52-14-7A7.46,7.46,0,0,0,31.74,28.84Z"/><path class="cls-5" d="M69.65,41.46a4.29,4.29,0,0,0,1.44-.55l15-7.51a3.63,3.63,0,0,0,1.31-.94A2.2,2.2,0,0,0,87.71,30a2,2,0,0,0-2.22-1.1,4.94,4.94,0,0,0-1.79.65L69.2,36.77a4.38,4.38,0,0,0-1.58,1.07,2.19,2.19,0,0,0-.35,2.35C67.64,41,68.36,41.43,69.65,41.46Z"/></g></svg>