<svg xmlns="http://www.w3.org/2000/svg" xmlns:xlink="http://www.w3.org/1999/xlink" viewBox="0 0 153.84 117.83"><defs><style>.cls-1{fill:#a44cc1;}.cls-2{clip-path:url(#clip-path);}.cls-3{fill:#bf8af9;}.cls-4{fill:#7e42a8;}.cls-5{fill:#fff;}</style><clipPath id="clip-path"><path class="cls-1" d="M136.75,58.88a58.92,58.92,0,1,0-58.88,59A59.11,59.11,0,0,0,136.75,58.88Z"/></clipPath></defs><g id="TXT"><path class="cls-1" d="M136.75,58.88a58.92,58.92,0,1,0-58.88,59A59.11,59.11,0,0,0,136.75,58.88Z"/><g class="cls-2"><path class="cls-3" d="M27.57,99.33a104.94,104.94,0,0,1-5.14-39.95,28.78,28.78,0,0,1,.94-6.19,30.61,30.61,0,0,1,3.2-6.68A228.18,228.18,0,0,1,45.94,18.72a19.7,19.7,0,0,1,4.82-4.65,20.6,20.6,0,0,1,6.64-2.19q8.82-1.83,17.65-3.62l27.21-5.55c5.35-1.1,10.81-2.19,16.23-1.52,2.68.33,5.36,1.1,8.05.86.17-4-4.13-6.61-7.84-8.2Q110-9.91,101.1-13.33C92.18-16.76,82.75-20,73.26-18.81c-7.65.93-14.72,4.66-21,9.19A122.61,122.61,0,0,0,31.7,10C19.47,24.19,8.87,40.18,3.47,58.11a13.54,13.54,0,0,0-.81,5.51c.28,2.32,1.64,4.34,3,6.27l5,7.34a35.91,35.91,0,0,0,4.28,5.54,25.23,25.23,0,0,1,3.18,3.44c1.42,2,2.45,4.32,3.84,6.38A45.2,45.2,0,0,0,27.57,99.33Z"/><path class="cls-4" d="M123.52,14.87c-2.58-1.54-5.48-3-8.44-2.54l5.5,15.27c3.51,9.77,7,19.56,9.66,29.61a14.72,14.72,0,0,1,.66,6.09A15.19,15.19,0,0,1,128.24,69c-5.87,9-11.75,18-18.05,26.77-2.65,3.66-5.45,7.34-9.16,9.91A37.22,37.22,0,0,1,91,110.13a140.9,140.9,0,0,1-19.2,4.64c-4.78.8-9.77,1.42-13.84,4,8,3.57,17.15,3.51,25.91,2.85,9.52-.73,19-2.12,28.1-5.17,6.26-2.1,12.37-5.07,17.09-9.68,4.18-4.09,7.1-9.29,9.63-14.56a142.05,142.05,0,0,0,11.41-34.58c.75-3.85,1.33-7.84.49-11.67a25.62,25.62,0,0,0-3.4-7.72c-1.49-2.46-3.15-4.82-4.5-7.36a16.33,16.33,0,0,0-3.06-4.78,71.19,71.19,0,0,0-6.92-5.3q-4-2.84-8.19-5.38Z"/></g><path class="cls-5" d="M59.7,50A4.77,4.77,0,1,1,65,45.79,4.61,4.61,0,0,1,59.7,50Z"/><path class="cls-5" d="M102,49.83a4.77,4.77,0,1,1-4.27-5.25A4.59,4.59,0,0,1,102,49.83Z"/><path class="cls-5" d="M52.37,52.61a1.08,1.08,0,0,1-.77-.31,9,9,0,0,1-1.71-10.69,1.08,1.08,0,1,1,1.87,1.07,6.83,6.83,0,0,0,1.37,8.1,1.07,1.07,0,0,1-.76,1.83Z"/><path class="cls-5" d="M54.18,36.39a23.24,23.24,0,0,1-8.24-1.58,2.16,2.16,0,1,1,1.54-4A18.24,18.24,0,0,0,56,32a13.25,13.25,0,0,0,7.49-3.34,2.16,2.16,0,0,1,3,3.15,17.49,17.49,0,0,1-9.93,4.47A19.62,19.62,0,0,1,54.18,36.39Z"/><path class="cls-5" d="M103.62,58.27a1.1,1.1,0,0,1-.91-.5,1.08,1.08,0,0,1,.33-1.49,6.82,6.82,0,0,0,3.11-7.61,1.08,1.08,0,0,1,.71-1.35,1.09,1.09,0,0,1,1.35.72,9,9,0,0,1-4,10.06A1.12,1.12,0,0,1,103.62,58.27Z"/><path class="cls-5" d="M110,42.53a21.55,21.55,0,0,1-7.06-1.15,17.62,17.62,0,0,1-8.72-6.54,2.16,2.16,0,1,1,3.57-2.43,13.2,13.2,0,0,0,6.58,4.89,18.15,18.15,0,0,0,8.56.7,2.16,2.16,0,1,1,.62,4.27A25.16,25.16,0,0,1,110,42.53Z"/><path class="cls-5" d="M90.26,97.11a8.72,8.72,0,0,1-1-.06h0a9.31,9.31,0,0,1-6.85-4.25c-1.76-2.76-5.18-4.66-9.14-5.1s-7.74.68-10.06,3a9.3,9.3,0,0,1-6.59,2.71h0a9.35,9.35,0,0,1-6.55-16c6.38-6.34,15.6-9.36,25.28-8.29s18,6,22.84,13.6a9.36,9.36,0,0,1-7.88,14.39Zm-.55-4.35A5,5,0,0,0,94.5,85c-4.14-6.47-11.31-10.71-19.67-11.63s-16.32,1.65-21.77,7.06a5,5,0,0,0,3.52,8.61h0a5,5,0,0,0,3.55-1.46c3.23-3.22,8.31-4.79,13.57-4.21s9.84,3.22,12.3,7.06a5,5,0,0,0,3.69,2.29Z"/><path class="cls-4" d="M15.89,103a3.58,3.58,0,0,1-3-1.6,76.4,76.4,0,0,1,0-84.95,3.59,3.59,0,0,1,6,4,69.22,69.22,0,0,0,0,77,3.61,3.61,0,0,1-1,5A3.54,3.54,0,0,1,15.89,103Z"/><path class="cls-4" d="M138,103a3.59,3.59,0,0,1-3-5.59,69.22,69.22,0,0,0,0-77,3.6,3.6,0,0,1,6-4,76.43,76.43,0,0,1,0,85A3.58,3.58,0,0,1,138,103Z"/></g></svg>