<?xml version="1.0" encoding="utf-8"?>
<!-- Generator: Adobe Illustrator 25.2.0, SVG Export Plug-In . SVG Version: 6.00 Build 0)  -->
<svg version="1.1" id="Capa_1" xmlns="http://www.w3.org/2000/svg" xmlns:xlink="http://www.w3.org/1999/xlink" x="0px" y="0px"
	 viewBox="0 0 81.9 81.9" style="enable-background:new 0 0 81.9 81.9;" xml:space="preserve">
<style type="text/css">
	.st0{fill:#262A58;}
	.st1{fill:#FFFFFF;}
</style>
<g id="TXT">
	<path class="st0" d="M81.9,40.9c0-22.6-18.3-41-41-41c-22.6,0-41,18.3-41,41c0,22.6,18.3,41,41,41c0,0,0.1,0,0.1,0
		C63.6,81.8,81.9,63.5,81.9,40.9z"/>
	<path class="st1" d="M40.9,59.6H26.3c-0.5,0-1,0-1.5-0.1c-1-0.2-1.6-1-1.6-2c0-1,0.7-1.9,1.7-2c0.4-0.1,0.9-0.1,1.3-0.1h29.9
		c1.6,0,2.6,0.9,2.5,2.2s-1,2-2.5,2C51.1,59.6,46,59.6,40.9,59.6z"/>
	<path class="st1" d="M28,38.8c-1.8,0-3.3-1.5-3.3-3.3c0-1.8,1.5-3.3,3.3-3.3c1.8,0,3.3,1.5,3.3,3.3c0.1,1.8-1.3,3.2-3.1,3.3
		C28.2,38.8,28.1,38.8,28,38.8z"/>
	<path class="st1" d="M57.2,35.5c0,1.8-1.5,3.3-3.3,3.3s-3.3-1.5-3.3-3.3c0-1.8,1.5-3.3,3.3-3.3c1.8-0.1,3.3,1.3,3.3,3
		C57.2,35.3,57.2,35.4,57.2,35.5z"/>
	<path class="st1" d="M32.9,36.6c-0.5,0-1-0.2-1.4-0.6L20,24.6c-0.8-0.8-0.8-2,0-2.8s2-0.8,2.8,0l11.5,11.5c0.8,0.8,0.8,2,0,2.8
		C33.9,36.4,33.4,36.6,32.9,36.6z"/>
	<path class="st1" d="M49,36.6c0.5,0,1-0.2,1.4-0.6l11.5-11.4c0.8-0.8,0.8-2,0-2.8c-0.8-0.8-2-0.8-2.8,0L47.6,33.2
		c-0.8,0.8-0.8,2,0,2.8C48,36.4,48.5,36.6,49,36.6z"/>
</g>
</svg>
