<svg xmlns="http://www.w3.org/2000/svg" xmlns:xlink="http://www.w3.org/1999/xlink" viewBox="0 0 106.97 81.93"><defs><style>.cls-1{fill:#e6333e;}.cls-2{clip-path:url(#clip-path);}.cls-3{fill:#ff968c;}.cls-4{fill:#b32830;}.cls-5{fill:#fff;}</style><clipPath id="clip-path"><path class="cls-1" d="M94.45,40.94a41,41,0,1,0-40.94,41A41.09,41.09,0,0,0,94.45,40.94Z"/></clipPath></defs><g id="TXT"><path class="cls-1" d="M94.45,40.94a41,41,0,1,0-40.94,41A41.09,41.09,0,0,0,94.45,40.94Z"/><g class="cls-2"><path class="cls-3" d="M18.33,69a72.49,72.49,0,0,1-3.57-27.77,19,19,0,0,1,.65-4.31,21.57,21.57,0,0,1,2.22-4.65A158.16,158.16,0,0,1,31.1,12.93,13.87,13.87,0,0,1,34.45,9.7a14.2,14.2,0,0,1,4.62-1.52q6.13-1.27,12.27-2.52L70.26,1.8C74,1,77.78.27,81.54.74a26.68,26.68,0,0,0,5.61.6c.11-2.8-2.88-4.59-5.46-5.7Q75.63-7,69.45-9.35C63.25-11.74,56.69-14,50.1-13.17c-5.33.65-10.24,3.25-14.58,6.39A85.65,85.65,0,0,0,21.2,6.87c-8.51,9.87-15.88,21-19.63,33.45A9.32,9.32,0,0,0,1,44.15a10.14,10.14,0,0,0,2.06,4.36l3.49,5.1a26.11,26.11,0,0,0,3,3.86,16.73,16.73,0,0,1,2.22,2.39c1,1.41,1.7,3,2.67,4.43A30.73,30.73,0,0,0,18.33,69Z"/><path class="cls-4" d="M85,10.26c-1.79-1.07-3.81-2.12-5.87-1.77L83,19.11c2.44,6.79,4.89,13.6,6.71,20.59a10.35,10.35,0,0,1,.47,4.23,10.82,10.82,0,0,1-1.85,3.93c-4.09,6.27-8.17,12.54-12.56,18.61a27.93,27.93,0,0,1-6.37,6.9,25.61,25.61,0,0,1-7,3.12,97.23,97.23,0,0,1-13.35,3.23c-3.32.56-6.79,1-9.62,2.81C45,85,51.36,85,57.44,84.5A80.44,80.44,0,0,0,77,80.92a30.92,30.92,0,0,0,11.88-6.74,35,35,0,0,0,6.69-10.12,98.9,98.9,0,0,0,7.94-24,20.25,20.25,0,0,0,.34-8.12,18.28,18.28,0,0,0-2.36-5.37c-1-1.71-2.2-3.35-3.13-5.12a11.7,11.7,0,0,0-2.13-3.32,50.69,50.69,0,0,0-4.82-3.68q-2.78-2-5.69-3.75Z"/></g><path class="cls-5" d="M53.42,59.6H38.82a5.92,5.92,0,0,1-1.46-.12,1.94,1.94,0,0,1-1.6-2,2,2,0,0,1,1.71-2,6.56,6.56,0,0,1,1.33-.07H68.68c1.59.05,2.59.91,2.55,2.16s-1,2-2.53,2C63.61,59.62,58.52,59.6,53.42,59.6Z"/><path class="cls-5" d="M40.5,38.81a3.32,3.32,0,1,1,3.36-3.3A3.19,3.19,0,0,1,40.5,38.81Z"/><path class="cls-5" d="M69.74,35.48a3.32,3.32,0,1,1-3.36-3.3A3.2,3.2,0,0,1,69.74,35.48Z"/><path class="cls-5" d="M45.42,36.63A2,2,0,0,1,44,36.05L32.56,24.6a2,2,0,0,1,2.83-2.83L46.84,33.22a2,2,0,0,1-1.42,3.41Z"/><path class="cls-5" d="M61.55,36.63A2,2,0,0,0,63,36.05L74.41,24.6a2,2,0,1,0-2.83-2.83L60.13,33.22a2,2,0,0,0,1.42,3.41Z"/><path class="cls-4" d="M11.05,71.61A2.49,2.49,0,0,1,9,70.5,53.13,53.13,0,0,1,9,11.43a2.5,2.5,0,0,1,4.16,2.78,48.13,48.13,0,0,0,0,53.52,2.5,2.5,0,0,1-.7,3.46A2.41,2.41,0,0,1,11.05,71.61Z"/><path class="cls-4" d="M95.93,71.61a2.46,2.46,0,0,1-1.39-.42,2.5,2.5,0,0,1-.69-3.47,48.11,48.11,0,0,0,0-53.51A2.5,2.5,0,0,1,98,11.43,53.13,53.13,0,0,1,98,70.5,2.5,2.5,0,0,1,95.93,71.61Z"/></g></svg>