<?xml version="1.0" encoding="utf-8"?>
<!-- Generator: Adobe Illustrator 25.2.0, SVG Export Plug-In . SVG Version: 6.00 Build 0)  -->
<svg version="1.1" id="Capa_1" xmlns="http://www.w3.org/2000/svg" xmlns:xlink="http://www.w3.org/1999/xlink" x="0px" y="0px"
	 viewBox="0 0 90 90" style="enable-background:new 0 0 90 90;" xml:space="preserve">
<style type="text/css">
	.st0{fill:#FFFFFF;}
	.st1{fill:#262A58;}
</style>
<g id="GLOBOS_PERSONAJES">
	<path class="st0" d="M90,45C90,20.1,69.9,0,45,0S0,20.1,0,45s20.1,45,45,45C69.8,89.9,89.9,69.8,90,45z"/>
	<path class="st1" d="M82.5,45C82.5,24.3,65.7,7.5,45,7.5C24.3,7.5,7.5,24.3,7.5,45c0,20.7,16.8,37.5,37.5,37.5l0,0
		C65.7,82.4,82.4,65.7,82.5,45z"/>
	<path class="st0" d="M36,71H25.5c-1.8,0-2.5-0.8-2.5-2.6V49.7c0-2.8,0.9-6.4,2.8-11.4L32,22.2c0.6-1.6,1.7-2.4,3.6-2.4h19.1
		c1.6-0.2,3.1,0.8,3.6,2.4l6.2,16.1c1.9,5,2.8,8.5,2.8,11.4v18.8c0,1.8-0.8,2.6-2.6,2.6H53.9c-1.9,0-2.8-0.8-2.8-2.6v-10H38.5v10
		C38.5,70.2,37.8,71,36,71z M39.3,45.5h11.1l-3.3-10.8c-0.4-0.8-0.8-1.2-1.3-1.2h-1.8c-0.6,0-1,0.4-1.3,1.2L39.3,45.5z"/>
</g>
</svg>
