<svg xmlns="http://www.w3.org/2000/svg" xmlns:xlink="http://www.w3.org/1999/xlink" viewBox="0 0 106.97 81.93"><defs><style>.cls-1{fill:#ffce00;}.cls-2{clip-path:url(#clip-path);}.cls-3{fill:#ffef4f;}.cls-4{fill:#ffb300;}.cls-5{fill:#fff;}</style><clipPath id="clip-path"><path class="cls-1" d="M94.45,40.93a41,41,0,1,0-40.93,41A41.1,41.1,0,0,0,94.45,40.93Z"/></clipPath></defs><g id="TXT"><path class="cls-1" d="M94.45,40.93a41,41,0,1,0-40.93,41A41.1,41.1,0,0,0,94.45,40.93Z"/><g class="cls-2"><path class="cls-3" d="M17.58,69.84A73,73,0,0,1,14,42.06a19.44,19.44,0,0,1,.65-4.3,20.93,20.93,0,0,1,2.23-4.65A157,157,0,0,1,30.35,13.79a13.92,13.92,0,0,1,3.35-3.24A14.44,14.44,0,0,1,38.32,9c4.09-.85,8.18-1.68,12.27-2.52L69.51,2.65c3.72-.76,7.52-1.52,11.29-1a27.19,27.19,0,0,0,5.6.6c.11-2.81-2.88-4.6-5.46-5.71q-6.06-2.61-12.24-5C62.5-10.88,56-13.11,49.35-12.31,44-11.66,39.11-9.07,34.77-5.92A85.25,85.25,0,0,0,20.45,7.73C11.94,17.59,4.58,28.71.82,41.18A9.32,9.32,0,0,0,.26,45a10.14,10.14,0,0,0,2.06,4.36l3.5,5.1a25.22,25.22,0,0,0,3,3.85A17.84,17.84,0,0,1,11,60.71c1,1.42,1.7,3,2.67,4.44A31.22,31.22,0,0,0,17.58,69.84Z"/><path class="cls-4" d="M84.29,11.11C82.5,10,80.48,9,78.43,9.35L82.25,20c2.44,6.8,4.89,13.6,6.72,20.59a10.19,10.19,0,0,1,.46,4.23,10.75,10.75,0,0,1-1.85,3.93C83.5,55,79.41,61.26,75,67.32a27.76,27.76,0,0,1-6.37,6.9,25.81,25.81,0,0,1-7,3.13A98.31,98.31,0,0,1,48.3,80.57c-3.32.56-6.79,1-9.62,2.82,5.58,2.47,11.93,2.44,18,2a80,80,0,0,0,19.54-3.59A30.7,30.7,0,0,0,88.12,75a35,35,0,0,0,6.7-10.13,98.87,98.87,0,0,0,7.93-24,20.2,20.2,0,0,0,.34-8.11,17.66,17.66,0,0,0-2.36-5.37c-1-1.71-2.2-3.35-3.13-5.12A11.43,11.43,0,0,0,95.47,19a48,48,0,0,0-4.82-3.69q-2.78-2-5.69-3.74Z"/></g><path class="cls-5" d="M53.54,35H75.33c.42,0,.84,0,1.26,0,1.56.14,2.2.8,2.16,2.38a24.28,24.28,0,0,1-3.42,12.1c-4.1,6.8-10,11.07-17.91,12.28a24.29,24.29,0,0,1-20.19-5.65,25.11,25.11,0,0,1-9-18.85c0-1.44.6-2.09,2-2.25a12.48,12.48,0,0,1,1.37,0Zm-.08,3.69q-10.08,0-20.17,0c-.84,0-1.44.09-1.26,1.17A22.18,22.18,0,0,0,39.1,53.06c.55.51.81.43,1.2-.19,3.43-5.45,8.27-8.19,14.8-7.58,5,.47,8.76,3.13,11.41,7.32.62,1,.93.88,1.65.19a22,22,0,0,0,6.7-12.49c.25-1.45.16-1.57-1.34-1.58Zm0,19.68a20.37,20.37,0,0,0,9.72-2.22c.74-.36.85-.76.4-1.42a14.55,14.55,0,0,0-2.24-2.88,11.64,11.64,0,0,0-18,2.83c-.42.72-.37,1.11.42,1.5A20.38,20.38,0,0,0,53.5,58.41Z"/><path class="cls-5" d="M46.89,20.14a1.78,1.78,0,0,1-1.45,1.7,8.82,8.82,0,0,1-2.51.14c-.78,0-1.11.27-1.08,1.07,0,1.07,0,2.14,0,3.21,0,1.47-.69,2.37-1.76,2.38s-1.81-1-1.82-2.34a29.62,29.62,0,0,1,0-3c.1-1.1-.38-1.42-1.4-1.34a10.08,10.08,0,0,1-1.82-.07,1.84,1.84,0,0,1-1.79-1.76A1.79,1.79,0,0,1,35,18.38a14.32,14.32,0,0,1,2.17-.08c.78,0,1.11-.27,1.08-1.08,0-1.14,0-2.29,0-3.43,0-1.3.71-2.12,1.76-2.15s1.79.79,1.81,2.19c0,1.1,0,2.21,0,3.32,0,.83.27,1.18,1.12,1.15a8.84,8.84,0,0,1,2.51.14A1.72,1.72,0,0,1,46.89,20.14Z"/><path class="cls-5" d="M73.73,20.11a2,2,0,0,1-1.51,1.74,9.6,9.6,0,0,1-2.51.13c-.72,0-1,.26-1,1,0,1.19,0,2.37,0,3.56a2,2,0,0,1-1.84,2.08,1.88,1.88,0,0,1-1.73-2c0-1.11-.07-2.22,0-3.33s-.36-1.35-1.34-1.29a7.12,7.12,0,0,1-2.16-.1,1.73,1.73,0,0,1-1.53-1.74,1.6,1.6,0,0,1,1.53-1.7,9.38,9.38,0,0,1,2-.12c1.07.08,1.54-.27,1.45-1.41a28.64,28.64,0,0,1,0-3.21c0-1.25.7-2,1.72-2s1.81.78,1.85,2,.07,2.22,0,3.32S69,18.37,70,18.3a7.32,7.32,0,0,1,2.28.14A1.89,1.89,0,0,1,73.73,20.11Z"/><path class="cls-4" d="M11.05,71.61A2.49,2.49,0,0,1,9,70.5,53.13,53.13,0,0,1,9,11.43a2.5,2.5,0,0,1,4.16,2.78,48.13,48.13,0,0,0,0,53.52,2.5,2.5,0,0,1-.7,3.46A2.41,2.41,0,0,1,11.05,71.61Z"/><path class="cls-4" d="M95.93,71.61a2.46,2.46,0,0,1-1.39-.42,2.5,2.5,0,0,1-.69-3.47,48.11,48.11,0,0,0,0-53.51A2.5,2.5,0,0,1,98,11.43,53.13,53.13,0,0,1,98,70.5,2.5,2.5,0,0,1,95.93,71.61Z"/></g></svg>