<?xml version="1.0" encoding="utf-8"?>
<!-- Generator: Adobe Illustrator 25.2.0, SVG Export Plug-In . SVG Version: 6.00 Build 0)  -->
<svg version="1.1" id="Capa_1" xmlns="http://www.w3.org/2000/svg" xmlns:xlink="http://www.w3.org/1999/xlink" x="0px" y="0px"
	 viewBox="0 0 81.9 81.9" style="enable-background:new 0 0 81.9 81.9;" xml:space="preserve">
<style type="text/css">
	.st0{fill:#3BC7ED;}
	.st1{clip-path:url(#SVGID_2_);}
	.st2{fill:#2FDDFA;}
	.st3{fill:#3493BF;}
	.st4{fill:#FFFFFF;}
</style>
<g id="TXT">
	<path class="st0" d="M81.9,40.9c0-22.6-18.4-41-41-41c-22.6,0-41,18.4-41,41s18.4,41,41,41c0,0,0,0,0.1,0
		C63.6,81.8,81.9,63.5,81.9,40.9z"/>
	<g>
		<defs>
			<path id="SVGID_1_" d="M81.9,40.9c0-22.6-18.4-41-41-41c-22.6,0-41,18.4-41,41s18.4,41,41,41c0,0,0,0,0.1,0
				C63.6,81.8,81.9,63.5,81.9,40.9z"/>
		</defs>
		<clipPath id="SVGID_2_">
			<use xlink:href="#SVGID_1_"  style="overflow:visible;"/>
		</clipPath>
		<g class="st1">
			<path class="st2" d="M7.2,70.3C4.2,61.4,3,52,3.6,42.6c0.1-1.5,0.3-2.9,0.7-4.3c0.5-1.6,1.3-3.2,2.2-4.6
				c4-6.8,8.5-13.2,13.5-19.3c0.9-1.3,2.1-2.3,3.3-3.2c1.4-0.8,3-1.3,4.6-1.5c4-0.8,8.1-1.7,12.2-2.5l18.9-3.8
				c3.7-0.8,7.5-1.5,11.3-1.1c1.8,0.4,3.7,0.6,5.6,0.6c0.1-2.8-2.9-4.6-5.4-5.7c-4.1-1.7-8.1-3.4-12.2-5c-6.2-2.4-12.8-4.6-19.4-3.8
				c-5.3,0.6-10.2,3.2-14.6,6.4C19.1-1.4,14.2,3.1,10,8.2c-8.5,9.9-15.9,21-19.6,33.5c-0.5,1.2-0.6,2.5-0.6,3.8
				c0.3,1.6,1,3.1,2.1,4.4l3.5,5.1c0.9,1.4,1.9,2.7,3,3.9c0.8,0.7,1.6,1.5,2.2,2.4c1,1.4,1.7,3,2.7,4.4C4.4,67.3,5.7,68.9,7.2,70.3z
				"/>
			<path class="st3" d="M73.9,11.6c-1.8-1.1-3.8-2.1-5.9-1.8l3.8,10.6c2.4,6.8,4.9,13.6,6.7,20.6c0.4,1.4,0.6,2.8,0.5,4.2
				c-0.3,1.4-1,2.8-1.8,3.9c-4.1,6.3-8.2,12.5-12.5,18.6c-1.7,2.6-3.9,5-6.4,6.9c-2.2,1.4-4.5,2.4-7,3.1c-4.4,1.4-8.8,2.5-13.4,3.2
				c-3.3,0.6-6.8,1-9.6,2.8c5.6,2.5,11.9,2.4,18,2c6.6-0.4,13.2-1.6,19.5-3.6c4.4-1.3,8.5-3.6,11.9-6.7c2.8-3,5.1-6.4,6.7-10.1
				c3.7-7.6,6.3-15.7,7.9-24c0.7-2.7,0.8-5.4,0.3-8.1c-0.5-1.9-1.3-3.7-2.4-5.4c-1-1.7-2.2-3.3-3.1-5.1c-0.5-1.2-1.2-2.4-2.1-3.3
				c-1.5-1.3-3.1-2.6-4.8-3.7c-1.9-1.3-3.8-2.6-5.7-3.8L73.9,11.6z"/>
		</g>
	</g>
	<path class="st4" d="M40.8,53.2c8.7,0.4,15.6,4.7,19.9,13c0.1,0.1,0.1,0.3,0.2,0.4c0.6,1.4,0.4,2.5-0.7,2.9s-2-0.1-2.6-1.5
		c-1.8-4.1-5-7.4-9-9.3c-9.5-4.7-21-0.8-25.7,8.7c-0.1,0.2-0.2,0.4-0.3,0.6c-0.2,0.5-0.5,1-1,1.3c-0.6,0.4-1.4,0.4-2-0.1
		c-0.7-0.6-0.8-1.5-0.4-2.2c0.7-1.7,1.6-3.3,2.7-4.7C26.6,56.4,32.7,53.4,40.8,53.2z"/>
	<path class="st4" d="M57.1,52c-2.1,0-3.8-1.6-3.8-3.7c0-0.6,0.1-1.1,0.3-1.6c0.6-1.5,1.4-2.9,2.3-4.2c0.4-0.6,1.2-0.9,1.8-0.5
		c0.2,0.1,0.3,0.2,0.4,0.4c1.2,1.5,2.1,3.2,2.6,5c0.5,2-0.6,4-2.6,4.5C57.8,52,57.5,52,57.1,52z M58.2,48.2c-0.1-0.7-0.4-1.4-0.8-2
		c-0.2-0.3-0.3-0.2-0.5,0c-0.4,0.6-0.7,1.3-0.8,2c-0.1,0.5,0.2,1,0.7,1.1c0.1,0,0.2,0,0.3,0c0.5,0.1,1-0.3,1.1-0.9
		C58.2,48.3,58.2,48.2,58.2,48.2L58.2,48.2z"/>
	<path class="st4" d="M27.2,40.5c-1.8,0-3.3-1.5-3.3-3.4c0-1.8,1.5-3.3,3.4-3.3c1.8,0,3.3,1.5,3.3,3.3c0.1,1.8-1.3,3.2-3.1,3.3
		C27.4,40.5,27.3,40.5,27.2,40.5z"/>
	<path class="st4" d="M56.5,37.2c0,1.8-1.5,3.3-3.3,3.3c-1.8,0-3.3-1.5-3.3-3.3c0-1.8,1.5-3.3,3.3-3.3c1.8-0.1,3.3,1.3,3.4,3
		C56.5,37,56.5,37.1,56.5,37.2z"/>
	<path class="st4" d="M19,39.2c-0.8,0-1.5-0.7-1.5-1.5c0-0.7,0.4-1.3,1.1-1.4c3.1-0.9,7.7-5,8.7-8.7c0.2-0.8,1.1-1.2,1.9-1
		c0.8,0.2,1.2,1,1,1.8c-1.3,4.8-6.8,9.6-10.8,10.8C19.3,39.2,19.2,39.2,19,39.2z"/>
	<path class="st4" d="M60.5,39.2c-0.1,0-0.3,0-0.4-0.1c-4-1.2-9.5-6-10.8-10.8c-0.2-0.8,0.4-1.6,1.2-1.8c0.7-0.1,1.5,0.3,1.7,1
		c1,3.7,5.6,7.8,8.7,8.7c0.8,0.2,1.3,1.1,1,1.9C61.8,38.8,61.2,39.2,60.5,39.2z"/>
</g>
</svg>
