<?xml version="1.0" encoding="utf-8"?>
<!-- Generator: Adobe Illustrator 25.2.0, SVG Export Plug-In . SVG Version: 6.00 Build 0)  -->
<svg version="1.1" id="Capa_1" xmlns="http://www.w3.org/2000/svg" xmlns:xlink="http://www.w3.org/1999/xlink" x="0px" y="0px"
	 viewBox="0 0 90 90" style="enable-background:new 0 0 90 90;" xml:space="preserve">
<style type="text/css">
	.st0{fill:#FFFFFF;}
	.st1{fill:#80AE3C;}
</style>
<g id="GLOBOS_PERSONAJES">
	<path class="st0" d="M45,0C20.1,0,0,20.1,0,45s20.1,45,45,45s45-20.1,45-45C89.9,20.2,69.8,0.1,45,0z"/>
	<path class="st1" d="M82.5,45C82.5,24.3,65.7,7.5,45,7.5C24.3,7.5,7.5,24.3,7.5,45c0,20.7,16.8,37.5,37.5,37.5l0,0
		C65.7,82.4,82.4,65.7,82.5,45z"/>
	<path class="st0" d="M28,71c-1.8,0-2.6-0.8-2.6-2.6V22.4c0-1.8,0.8-2.6,2.6-2.6h22.7c9.3,0,13.6,3.4,13.6,10.9v3.4
		c0,4-1.3,6.5-4.2,7.7c6.1,0.6,9,4,9,11v6.5c0,8-4.3,11.7-13.8,11.7L28,71z M41.5,39.6h6c1.8,0,2.7-0.9,2.7-2.8v-2
		c0-1.9-0.8-2.8-2.7-2.8h-6V39.6z M41.5,58.9h9.3c1.8,0,2.7-0.9,2.7-2.8v-2.8c0-1.9-0.8-2.8-2.7-2.8h-9.3V58.9z"/>
</g>
</svg>
