<?xml version="1.0" encoding="utf-8"?>
<!-- Generator: Adobe Illustrator 25.2.0, SVG Export Plug-In . SVG Version: 6.00 Build 0)  -->
<svg version="1.1" id="Capa_1" xmlns="http://www.w3.org/2000/svg" xmlns:xlink="http://www.w3.org/1999/xlink" x="0px" y="0px"
	 viewBox="0 0 81.9 81.9" style="enable-background:new 0 0 81.9 81.9;" xml:space="preserve">
<style type="text/css">
	.st0{fill:#262A58;}
	.st1{fill:#FFFFFF;}
</style>
<g id="TXT">
	<path class="st0" d="M81.9,40.9c0-22.6-18.4-41-41-41c-22.6,0-41,18.4-41,41s18.4,41,41,41c0,0,0,0,0.1,0
		C63.6,81.8,81.9,63.5,81.9,40.9z"/>
	<path class="st1" d="M40.8,53.2c8.7,0.4,15.6,4.7,19.9,13c0.1,0.1,0.1,0.3,0.2,0.4c0.6,1.4,0.4,2.5-0.7,2.9s-2-0.1-2.6-1.5
		c-1.8-4.1-5-7.4-9-9.3c-9.5-4.7-21-0.8-25.7,8.7c-0.1,0.2-0.2,0.4-0.3,0.6c-0.2,0.5-0.5,1-1,1.3c-0.6,0.4-1.4,0.4-2-0.1
		c-0.7-0.6-0.8-1.5-0.4-2.2c0.7-1.7,1.6-3.3,2.7-4.7C26.6,56.4,32.7,53.4,40.8,53.2z"/>
	<path class="st1" d="M57.1,52c-2.1,0-3.8-1.6-3.8-3.7c0-0.6,0.1-1.1,0.3-1.6c0.6-1.5,1.4-2.9,2.3-4.2c0.4-0.6,1.2-0.9,1.8-0.5
		c0.2,0.1,0.3,0.2,0.4,0.4c1.2,1.5,2.1,3.2,2.6,5c0.5,2-0.6,4-2.6,4.5C57.8,52,57.5,52,57.1,52z M58.2,48.2c-0.1-0.7-0.4-1.4-0.8-2
		c-0.2-0.3-0.3-0.2-0.5,0c-0.4,0.6-0.7,1.3-0.8,2c-0.1,0.5,0.2,1,0.7,1.1c0.1,0,0.2,0,0.3,0c0.5,0.1,1-0.3,1.1-0.9
		C58.2,48.3,58.2,48.2,58.2,48.2L58.2,48.2z"/>
	<path class="st1" d="M27.2,40.5c-1.8,0-3.3-1.5-3.3-3.4c0-1.8,1.5-3.3,3.4-3.3c1.8,0,3.3,1.5,3.3,3.3c0.1,1.8-1.3,3.2-3.1,3.3
		C27.4,40.5,27.3,40.5,27.2,40.5z"/>
	<path class="st1" d="M56.5,37.2c0,1.8-1.5,3.3-3.3,3.3c-1.8,0-3.3-1.5-3.3-3.3c0-1.8,1.5-3.3,3.3-3.3c1.8-0.1,3.3,1.3,3.4,3
		C56.5,37,56.5,37.1,56.5,37.2z"/>
	<path class="st1" d="M19,39.2c-0.8,0-1.5-0.7-1.5-1.5c0-0.7,0.4-1.3,1.1-1.4c3.1-0.9,7.7-5,8.7-8.7c0.2-0.8,1.1-1.2,1.9-1
		c0.8,0.2,1.2,1,1,1.8c-1.3,4.8-6.8,9.6-10.8,10.8C19.3,39.2,19.2,39.2,19,39.2z"/>
	<path class="st1" d="M60.5,39.2c-0.1,0-0.3,0-0.4-0.1c-4-1.2-9.5-6-10.8-10.8c-0.2-0.8,0.4-1.6,1.2-1.8c0.7-0.1,1.5,0.3,1.7,1
		c1,3.7,5.6,7.8,8.7,8.7c0.8,0.2,1.3,1.1,1,1.9C61.8,38.8,61.2,39.2,60.5,39.2z"/>
</g>
</svg>
