<?xml version="1.0" encoding="utf-8"?>
<!-- Generator: Adobe Illustrator 25.2.0, SVG Export Plug-In . SVG Version: 6.00 Build 0)  -->
<svg version="1.1" id="Capa_1" xmlns="http://www.w3.org/2000/svg" xmlns:xlink="http://www.w3.org/1999/xlink" x="0px" y="0px"
	 viewBox="0 0 90 90" style="enable-background:new 0 0 90 90;" xml:space="preserve">
<style type="text/css">
	.st0{fill:#FFFFFF;}
	.st1{fill:#262A58;}
</style>
<g id="GLOBOS_PERSONAJES">
	<path class="st0" d="M90,45C90,20.1,69.9,0,45,0S0,20.1,0,45s20.1,45,45,45C69.8,89.9,89.9,69.8,90,45z"/>
	<path class="st1" d="M82.5,45C82.5,24.3,65.7,7.5,45,7.5C24.3,7.5,7.5,24.3,7.5,45c0,20.7,16.8,37.5,37.5,37.5l0,0
		C65.7,82.4,82.4,65.7,82.5,45z"/>
	<path class="st0" d="M43.4,71c-11.9,0-17.5-4.6-17.5-14.5V34.4c0-10,5.6-14.6,17.5-14.6h17.3c1.8,0,2.6,0.8,2.6,2.6V31
		c0,1.8-0.8,2.6-2.6,2.6H46.5c-3,0-4.3,1.1-4.3,3.6V54c0,2.3,1.3,3.4,4.3,3.4h14.3c1.8,0,2.6,0.8,2.6,2.6v8.5c0,1.8-0.8,2.6-2.6,2.6
		L43.4,71z"/>
</g>
</svg>
