<?xml version="1.0" encoding="utf-8"?>
<!-- Generator: Adobe Illustrator 25.2.0, SVG Export Plug-In . SVG Version: 6.00 Build 0)  -->
<svg version="1.1" id="Capa_1" xmlns="http://www.w3.org/2000/svg" xmlns:xlink="http://www.w3.org/1999/xlink" x="0px" y="0px"
	 viewBox="0 0 81.9 81.9" style="enable-background:new 0 0 81.9 81.9;" xml:space="preserve">
<style type="text/css">
	.st0{fill:#262A58;}
	.st1{fill:#FFFFFF;}
</style>
<g id="TXT">
	<path class="st0" d="M41,0C18.4,0,0,18.4,0,41s18.4,41,41,41s41-18.4,41-41C82,18.4,63.6,0,41,0z"/>
	<path class="st1" d="M58.3,64.3c-0.3,0-0.7,0-1,0c-2.3-0.5-4.7,0.5-5.9,2.6c-1.8,2.6-4.9,3.6-8,4c-4.5,0.5-8.7-0.1-12.3-3.2
		c-0.8-0.6-1.5-1.4-1.9-2.3c-0.3-0.8-1.2-1.3-2-1.1c-2.5,0.1-5,0-7.6,0c-1.9,0-2.6-0.9-2.1-2.8c2.7-9.3,9-15,18.2-17
		c9.7-2.1,17.8,1,24.3,8.5c2.1,2.5,3.6,5.4,4.3,8.6c0.4,1.7-0.3,2.6-2,2.7C61,64.3,59.7,64.3,58.3,64.3z M57.3,60.7h1.3
		c1.8,0,1.8,0,1-1.6c-5.1-10.3-17.5-14.6-27.8-9.5c-1.3,0.6-2.5,1.4-3.6,2.2c-2.7,2-4.9,4.7-6.3,7.8c-0.4,0.8-0.2,1.1,0.7,1
		c1.2,0,2.5,0,3.7,0c0.6,0.1,1.1-0.3,1.3-0.9c0-0.1,0-0.1,0-0.2c0.1-1.2,0.7-2.2,1.6-3c2.8-2.6,6.9-3.4,10.5-2
		c0.8,0.3,1.6,0.3,2.4,0c2.8-1.1,5.9-0.9,8.5,0.6c1.6,0.7,2.8,2,3.3,3.6c0.6,1.8,0.6,1.8,2.5,1.8L57.3,60.7z M40.9,67.4
		c2,0,4.1-0.5,5.9-1.4c2-1,3.4-2.8,3.8-5c0.2-0.7,0-1.5-0.7-1.9c-1.1-0.9-2.4-1.4-3.7-1.6c-1.1-0.2-2.3,0.1-3.2,0.7
		c-0.7,0.5-0.2,1.5-0.3,2.3c0,0.2,0,0.3,0,0.5c-0.1,1-1,1.7-1.9,1.6c-0.8-0.1-1.5-0.7-1.6-1.6c-0.1-0.5-0.1-1,0-1.5
		c0.1-0.7-0.3-1.3-1-1.4c0,0,0,0,0,0c-2.1-0.8-4.4-0.4-6.1,0.9c-0.7,0.4-1.1,1.3-0.8,2.1c0.4,1.7,1.3,3.2,2.7,4.3
		C36.1,66.9,38.5,67.2,40.9,67.4z"/>
	<path class="st1" d="M22.1,34.5c-0.5,0-1-0.4-1.1-0.8c-0.3-0.6-0.2-1.2,0.3-1.7c0.3-0.3,0.7-0.6,1.1-0.7l10-5l0.5-0.2
		c1.1-0.5,2-0.3,2.4,0.6c0.4,0.9,0,1.8-0.9,2.2c0,0-0.1,0-0.1,0c-3.2,1.6-6.5,3.3-9.7,4.9C23.7,34.2,22.9,34.5,22.1,34.5z"/>
	<path class="st1" d="M48.4,25.8c0.4,0.1,0.7,0.2,1,0.4l10.5,5.2c0.3,0.1,0.7,0.4,0.9,0.6c0.4,0.5,0.5,1.2,0.2,1.7
		c-0.3,0.6-0.9,0.9-1.5,0.8c-0.4-0.1-0.9-0.2-1.3-0.5L48.1,29c-0.4-0.2-0.8-0.4-1.1-0.7c-0.4-0.5-0.5-1.1-0.2-1.6
		C47,26,47.5,25.8,48.4,25.8z"/>
	<path class="st1" d="M22.1,20c-0.5,0-1,0.4-1.1,0.8c-0.3,0.6-0.2,1.3,0.3,1.7c0.3,0.3,0.7,0.6,1.1,0.7l10,5l0.5,0.2
		c1.1,0.5,2,0.3,2.4-0.6c0.4-0.9,0-1.8-0.9-2.2c0,0-0.1,0-0.1,0c-3.2-1.6-6.5-3.2-9.7-4.9C23.7,20.4,22.9,20.1,22.1,20z"/>
	<path class="st1" d="M48.4,28.8c0.4-0.1,0.7-0.2,1-0.4l10.5-5.2c0.3-0.1,0.7-0.4,0.9-0.6c0.4-0.5,0.5-1.2,0.2-1.7
		c-0.3-0.6-0.9-0.9-1.5-0.8c-0.4,0.1-0.9,0.2-1.3,0.5l-10.1,5c-0.4,0.2-0.8,0.4-1.1,0.7c-0.4,0.5-0.5,1.1-0.2,1.7
		C47,28.5,47.5,28.8,48.4,28.8z"/>
</g>
</svg>
