<?xml version="1.0" encoding="utf-8"?>
<!-- Generator: Adobe Illustrator 25.2.0, SVG Export Plug-In . SVG Version: 6.00 Build 0)  -->
<svg version="1.1" id="Capa_1" xmlns="http://www.w3.org/2000/svg" xmlns:xlink="http://www.w3.org/1999/xlink" x="0px" y="0px"
	 viewBox="0 0 81.9 81.9" style="enable-background:new 0 0 81.9 81.9;" xml:space="preserve">
<style type="text/css">
	.st0{fill:#262A58;}
	.st1{fill:#FFFFFF;}
</style>
<g id="TXT">
	<path class="st0" d="M81.9,40.9c0-22.6-18.4-41-41-41c-22.6,0-41,18.4-41,41s18.4,41,41,41c0,0,0,0,0.1,0
		C63.6,81.8,81.9,63.5,81.9,40.9z"/>
	<path class="st1" d="M41,35h21.8c0.4,0,0.8,0,1.3,0c1.6,0.1,2.2,0.8,2.2,2.4c-0.1,4.3-1.2,8.4-3.4,12.1c-4.1,6.8-10,11.1-17.9,12.3
		c-7.2,1.3-14.7-0.8-20.2-5.7c-5.6-4.7-8.9-11.6-9-18.8c0-1.4,0.6-2.1,2-2.3c0.5,0,0.9,0,1.4,0L41,35z M41,38.7
		c-6.7,0-13.5,0-20.2,0c-0.9,0-1.5,0.1-1.3,1.2c0.8,5.1,3.3,9.7,7.1,13.2c0.5,0.5,0.8,0.4,1.2-0.2c3.4-5.5,8.3-8.2,14.8-7.6
		c5,0.5,8.8,3.1,11.4,7.3c0.6,1,0.9,0.9,1.7,0.2c3.6-3.3,5.9-7.7,6.7-12.5c0.3-1.5,0.2-1.6-1.3-1.6L41,38.7z M41,58.4
		c3.4,0.1,6.7-0.7,9.7-2.2c0.7-0.4,0.8-0.8,0.4-1.4c-0.6-1-1.4-2-2.2-2.9c-4.7-4.4-12.1-4-16.4,0.7c-0.6,0.7-1.1,1.4-1.6,2.2
		c-0.4,0.7-0.4,1.1,0.4,1.5C34.3,57.7,37.6,58.5,41,58.4z"/>
	<path class="st1" d="M34.4,20.1c0,0.8-0.6,1.5-1.5,1.7c-0.8,0.2-1.7,0.2-2.5,0.1c-0.8,0-1.1,0.3-1.1,1.1c0,1.1,0,2.1,0,3.2
		c0,1.5-0.7,2.4-1.8,2.4s-1.8-1-1.8-2.3c0-1-0.1-2,0-3s-0.4-1.4-1.4-1.3c-0.6,0-1.2,0-1.8-0.1c-1,0-1.7-0.8-1.8-1.8
		c0-1,0.8-1.7,1.8-1.8c0.7-0.1,1.4-0.1,2.2-0.1c0.8,0,1.1-0.3,1.1-1.1c0-1.1,0-2.3,0-3.4c0-1.3,0.7-2.1,1.8-2.1s1.8,0.8,1.8,2.2
		c0,1.1,0,2.2,0,3.3c0,0.8,0.3,1.2,1.1,1.1c0.8-0.1,1.7,0,2.5,0.1C33.8,18.6,34.4,19.3,34.4,20.1z"/>
	<path class="st1" d="M61.2,20.1c-0.1,0.8-0.7,1.5-1.5,1.7C58.9,22,58,22,57.2,22c-0.7,0-1,0.3-1,1c0,1.2,0,2.4,0,3.6
		c0,1.1-0.8,2-1.8,2.1c-1-0.1-1.8-1-1.7-2c0-1.1-0.1-2.2,0-3.3s-0.4-1.4-1.3-1.3c-0.7,0.1-1.4,0-2.2-0.1c-0.9-0.1-1.5-0.9-1.5-1.7
		c-0.1-0.9,0.6-1.6,1.5-1.7c0,0,0,0,0,0c0.7-0.1,1.3-0.2,2-0.1c1.1,0.1,1.5-0.3,1.5-1.4c-0.1-1.1-0.1-2.1,0-3.2c0-1.3,0.7-2,1.7-2
		s1.8,0.8,1.8,2s0.1,2.2,0,3.3s0.4,1.4,1.3,1.3c0.8-0.1,1.5,0,2.3,0.1C60.5,18.7,61.1,19.3,61.2,20.1z"/>
</g>
</svg>
