<svg xmlns="http://www.w3.org/2000/svg" xmlns:xlink="http://www.w3.org/1999/xlink" viewBox="0 0 106.97 81.93"><defs><style>.cls-1{fill:#a44cc1;}.cls-2{clip-path:url(#clip-path);}.cls-3{fill:#bf8af9;}.cls-4{fill:#7e42a8;}.cls-5{fill:#fff;}</style><clipPath id="clip-path"><path class="cls-1" d="M95.08,40.94a41,41,0,1,0-40.94,41A41.09,41.09,0,0,0,95.08,40.94Z"/></clipPath></defs><g id="TXT"><path class="cls-1" d="M95.08,40.94a41,41,0,1,0-40.94,41A41.09,41.09,0,0,0,95.08,40.94Z"/><g class="cls-2"><path class="cls-3" d="M19.17,69.06A72.88,72.88,0,0,1,15.6,41.29a20,20,0,0,1,.65-4.3,20.93,20.93,0,0,1,2.23-4.65A156.31,156.31,0,0,1,32,13a13.7,13.7,0,0,1,3.34-3.24,14.44,14.44,0,0,1,4.62-1.52C44,7.41,48.09,6.58,52.19,5.74L71.1,1.88c3.72-.76,7.52-1.52,11.29-1a27.26,27.26,0,0,0,5.6.6c.12-2.81-2.88-4.6-5.45-5.71q-6.08-2.61-12.24-5c-6.21-2.38-12.76-4.61-19.36-3.81-5.32.65-10.23,3.24-14.58,6.39A85.63,85.63,0,0,0,22,7c-8.5,9.86-15.87,21-19.63,33.45a9.3,9.3,0,0,0-.56,3.83A10.26,10.26,0,0,0,3.91,48.6l3.5,5.1a25.22,25.22,0,0,0,3,3.85,17.84,17.84,0,0,1,2.21,2.39c1,1.42,1.7,3,2.67,4.44A30.65,30.65,0,0,0,19.17,69.06Z"/><path class="cls-4" d="M85.88,10.34C84.09,9.27,82.08,8.22,80,8.57l3.82,10.62c2.45,6.8,4.9,13.6,6.72,20.59A10.17,10.17,0,0,1,91,44a10.59,10.59,0,0,1-1.85,3.93C85.09,54.21,81,60.49,76.62,66.55a28.14,28.14,0,0,1-6.37,6.9,26,26,0,0,1-7,3.13A98.31,98.31,0,0,1,49.89,79.8c-3.32.56-6.79,1-9.62,2.82,5.58,2.47,11.93,2.43,18,2A79.9,79.9,0,0,0,77.83,81a30.7,30.7,0,0,0,11.88-6.73,35.1,35.1,0,0,0,6.7-10.13,98.87,98.87,0,0,0,7.93-24,20.2,20.2,0,0,0,.34-8.11,17.66,17.66,0,0,0-2.36-5.37c-1-1.71-2.19-3.35-3.13-5.12a11.4,11.4,0,0,0-2.13-3.33,50.56,50.56,0,0,0-4.81-3.68c-1.86-1.31-3.75-2.56-5.69-3.74Z"/></g><path class="cls-5" d="M41.51,34.75a3.31,3.31,0,1,1,3.7-2.91A3.19,3.19,0,0,1,41.51,34.75Z"/><path class="cls-5" d="M70.93,34.65A3.31,3.31,0,1,1,68,31,3.19,3.19,0,0,1,70.93,34.65Z"/><path class="cls-5" d="M36.41,36.58a.74.74,0,0,1-.53-.22,6.24,6.24,0,0,1-1.19-7.43.75.75,0,0,1,1.3.74,4.75,4.75,0,0,0,1,5.64.75.75,0,0,1,0,1.06A.76.76,0,0,1,36.41,36.58Z"/><path class="cls-5" d="M37.67,25.3a16,16,0,0,1-5.73-1.1A1.5,1.5,0,0,1,33,21.4a12.64,12.64,0,0,0,5.92.83,9.19,9.19,0,0,0,5.2-2.32,1.5,1.5,0,0,1,2,2.19,12.24,12.24,0,0,1-6.9,3.11A14.21,14.21,0,0,1,37.67,25.3Z"/><path class="cls-5" d="M72.05,40.51a.74.74,0,0,1-.63-.34.76.76,0,0,1,.23-1,4.75,4.75,0,0,0,2.16-5.29.74.74,0,0,1,.49-.93.75.75,0,0,1,.94.49,6.25,6.25,0,0,1-2.78,7A.77.77,0,0,1,72.05,40.51Z"/><path class="cls-5" d="M76.48,29.57a15,15,0,0,1-4.91-.8,12.23,12.23,0,0,1-6.06-4.54A1.5,1.5,0,1,1,68,22.54a9.22,9.22,0,0,0,4.57,3.4,12.65,12.65,0,0,0,6,.48,1.5,1.5,0,1,1,.44,3A17.31,17.31,0,0,1,76.48,29.57Z"/><path class="cls-5" d="M62.76,67.52a5.63,5.63,0,0,1-.71,0h0a6.46,6.46,0,0,1-4.76-3A8.59,8.59,0,0,0,50.93,61a8.63,8.63,0,0,0-7,2.07,6.47,6.47,0,0,1-4.58,1.89h0a6.5,6.5,0,0,1-4.55-11.11,21.39,21.39,0,0,1,17.58-5.77,21.37,21.37,0,0,1,15.88,9.46,6.5,6.5,0,0,1-5.48,10Zm-.38-3a3.5,3.5,0,0,0,3.33-5.37A18.38,18.38,0,0,0,52,51,18.4,18.4,0,0,0,36.89,56a3.5,3.5,0,0,0,2.45,6h0a3.45,3.45,0,0,0,2.46-1A11.64,11.64,0,0,1,51.26,58a11.57,11.57,0,0,1,8.55,4.91,3.53,3.53,0,0,0,2.57,1.59Z"/><path class="cls-4" d="M11.05,71.61A2.49,2.49,0,0,1,9,70.5,53.13,53.13,0,0,1,9,11.43a2.5,2.5,0,0,1,4.16,2.78,48.13,48.13,0,0,0,0,53.52,2.5,2.5,0,0,1-.7,3.46A2.41,2.41,0,0,1,11.05,71.61Z"/><path class="cls-4" d="M95.93,71.61a2.46,2.46,0,0,1-1.39-.42,2.5,2.5,0,0,1-.69-3.47,48.11,48.11,0,0,0,0-53.51A2.5,2.5,0,0,1,98,11.43,53.13,53.13,0,0,1,98,70.5,2.5,2.5,0,0,1,95.93,71.61Z"/></g></svg>