<?xml version="1.0" encoding="utf-8"?>
<!-- Generator: Adobe Illustrator 25.2.0, SVG Export Plug-In . SVG Version: 6.00 Build 0)  -->
<svg version="1.1" id="Capa_1" xmlns="http://www.w3.org/2000/svg" xmlns:xlink="http://www.w3.org/1999/xlink" x="0px" y="0px"
	 viewBox="0 0 90 90" style="enable-background:new 0 0 90 90;" xml:space="preserve">
<style type="text/css">
	.st0{fill:#FFFFFF;}
	.st1{fill:#80AE3C;}
</style>
<g id="GLOBOS_PERSONAJES">
	<path class="st0" d="M90,45C90,20.15,69.85,0,45,0S0,20.15,0,45s20.15,45,45,45C69.82,89.92,89.92,69.82,90,45z"/>
	<path class="st1" d="M82.46,45C82.46,24.31,65.69,7.54,45,7.54C24.31,7.54,7.54,24.31,7.54,45c0,20.69,16.77,37.46,37.46,37.46l0,0
		C65.66,82.4,82.4,65.66,82.46,45z"/>
	<path class="st0" d="M43.41,71c-11.94,0-17.49-4.62-17.49-14.5V34.38c0-10,5.55-14.58,17.49-14.58h17.35
		c1.77,0,2.56,0.79,2.56,2.56V31c0,1.78-0.79,2.56-2.56,2.56H46.47c-3,0-4.34,1.14-4.34,3.56V54c0,2.34,1.35,3.41,4.34,3.41h14.29
		c1.77,0,2.56,0.78,2.56,2.56v8.46c0,1.78-0.79,2.56-2.56,2.56L43.41,71z"/>
</g>
</svg>
