<svg xmlns="http://www.w3.org/2000/svg" xmlns:xlink="http://www.w3.org/1999/xlink" viewBox="0 0 106.97 81.93"><defs><style>.cls-1{fill:#1e8e30;}.cls-2{clip-path:url(#clip-path);}.cls-3{fill:#23d638;}.cls-4{fill:#18733d;}.cls-5{fill:#fff;}</style><clipPath id="clip-path"><path class="cls-1" d="M53.47,0a41,41,0,1,0,41,41A41.09,41.09,0,0,0,53.47,0Z"/></clipPath></defs><g id="TXT"><path class="cls-1" d="M53.47,0a41,41,0,1,0,41,41A41.09,41.09,0,0,0,53.47,0Z"/><g class="cls-2"><path class="cls-3" d="M19.18,70.17A72.88,72.88,0,0,1,15.61,42.4a19,19,0,0,1,.65-4.31,20.86,20.86,0,0,1,2.23-4.64A157.1,157.1,0,0,1,32,14.12a14.07,14.07,0,0,1,3.35-3.23,14.2,14.2,0,0,1,4.62-1.52L52.19,6.85,71.11,3c3.72-.76,7.52-1.52,11.28-1.06a26.68,26.68,0,0,0,5.61.6c.11-2.8-2.88-4.59-5.46-5.7q-6.06-2.62-12.24-5C64.1-10.54,57.55-12.78,51-12c-5.33.64-10.24,3.24-14.58,6.39A85.59,85.59,0,0,0,22.05,8.06C13.54,17.93,6.17,29,2.42,41.51a9.35,9.35,0,0,0-.56,3.83A10.14,10.14,0,0,0,3.92,49.7l3.5,5.1a24.82,24.82,0,0,0,3,3.86,17.25,17.25,0,0,1,2.21,2.39c1,1.42,1.7,3,2.67,4.44A31.14,31.14,0,0,0,19.18,70.17Z"/><path class="cls-4" d="M85.89,11.45C84.1,10.38,82.08,9.33,80,9.68L83.85,20.3c2.44,6.79,4.89,13.6,6.71,20.59A10.18,10.18,0,0,1,91,45.12a10.75,10.75,0,0,1-1.85,3.93C85.09,55.32,81,61.6,76.62,67.66a27.76,27.76,0,0,1-6.37,6.9,25.61,25.61,0,0,1-7,3.12A97.23,97.23,0,0,1,49.9,80.91c-3.32.56-6.79,1-9.62,2.81,5.58,2.48,11.93,2.44,18,2a81,81,0,0,0,19.54-3.59,30.92,30.92,0,0,0,11.88-6.74,34.91,34.91,0,0,0,6.7-10.12,98.87,98.87,0,0,0,7.93-24,20.25,20.25,0,0,0,.34-8.12,18,18,0,0,0-2.36-5.37c-1-1.71-2.2-3.35-3.13-5.11a11.61,11.61,0,0,0-2.13-3.33,50.69,50.69,0,0,0-4.82-3.68q-2.77-2-5.69-3.75Z"/></g><path class="cls-5" d="M70.81,64.26a6.15,6.15,0,0,1-1,0A5.5,5.5,0,0,0,64,66.82c-1.85,2.6-4.9,3.64-8,4-4.48.53-8.69-.12-12.25-3.19a7.48,7.48,0,0,1-1.94-2.26,1.86,1.86,0,0,0-2-1.13c-2.52.06-5,0-7.55,0-1.91,0-2.65-.92-2.11-2.77,2.71-9.25,8.94-14.95,18.22-16.95,9.64-2.07,17.83,1,24.26,8.46a20.07,20.07,0,0,1,4.32,8.6c.4,1.73-.27,2.63-2,2.66C73.53,64.28,72.17,64.26,70.81,64.26Zm-1-3.53h1.32c1.77,0,1.77,0,1-1.56a20.79,20.79,0,0,0-31.41-7.25,19.89,19.89,0,0,0-6.22,7.77c-.35.78-.24,1.08.67,1.05,1.23-.05,2.48-.05,3.71,0a1.07,1.07,0,0,0,1.27-1.07,4.66,4.66,0,0,1,1.61-3,10,10,0,0,1,10.49-2,3.24,3.24,0,0,0,2.41,0,9.87,9.87,0,0,1,8.56.61,6.33,6.33,0,0,1,3.34,3.6c.59,1.84.56,1.85,2.52,1.85ZM53.42,67.41A13.73,13.73,0,0,0,59.33,66a7.25,7.25,0,0,0,3.82-5,1.68,1.68,0,0,0-.65-1.9,7.22,7.22,0,0,0-3.71-1.56,4.85,4.85,0,0,0-3.22.69c-.7.5-.2,1.5-.32,2.27,0,.16,0,.32,0,.48a1.75,1.75,0,0,1-3.48,0,7.3,7.3,0,0,1,0-1.55,1.22,1.22,0,0,0-1-1.41,6.28,6.28,0,0,0-6.11.94,1.82,1.82,0,0,0-.83,2.08,7.47,7.47,0,0,0,2.74,4.23A12.18,12.18,0,0,0,53.42,67.41Z"/><path class="cls-5" d="M34.59,34.53a1.3,1.3,0,0,1-1.16-.84A1.53,1.53,0,0,1,33.69,32a3.3,3.3,0,0,1,1.11-.73l10-5,.47-.22c1.07-.48,2-.25,2.41.57a1.68,1.68,0,0,1-1,2.26c-3.23,1.63-6.48,3.25-9.72,4.86A5.22,5.22,0,0,1,34.59,34.53Z"/><path class="cls-5" d="M60.94,25.75a2.93,2.93,0,0,1,1,.38l10.46,5.23a2.57,2.57,0,0,1,.91.65,1.53,1.53,0,0,1,.19,1.73,1.44,1.44,0,0,1-1.55.77,3.7,3.7,0,0,1-1.24-.45L60.63,29a3,3,0,0,1-1.09-.74,1.52,1.52,0,0,1-.25-1.64A1.61,1.61,0,0,1,60.94,25.75Z"/><path class="cls-5" d="M34.59,20.05a1.32,1.32,0,0,0-1.16.84,1.53,1.53,0,0,0,.26,1.72,3.3,3.3,0,0,0,1.11.73l10,5,.47.22c1.07.48,2,.26,2.41-.57a1.68,1.68,0,0,0-1-2.26c-3.23-1.63-6.48-3.25-9.72-4.86A5.22,5.22,0,0,0,34.59,20.05Z"/><path class="cls-5" d="M60.94,28.83a2.93,2.93,0,0,0,1-.38l10.46-5.23a2.57,2.57,0,0,0,.91-.65,1.53,1.53,0,0,0,.19-1.73A1.44,1.44,0,0,0,72,20.07a3.7,3.7,0,0,0-1.24.45L60.63,25.57a3,3,0,0,0-1.09.74A1.52,1.52,0,0,0,59.29,28,1.61,1.61,0,0,0,60.94,28.83Z"/><path class="cls-4" d="M11.05,71.61A2.49,2.49,0,0,1,9,70.5,53.13,53.13,0,0,1,9,11.43a2.5,2.5,0,0,1,4.16,2.78,48.13,48.13,0,0,0,0,53.52,2.5,2.5,0,0,1-.7,3.46A2.41,2.41,0,0,1,11.05,71.61Z"/><path class="cls-4" d="M95.93,71.61a2.46,2.46,0,0,1-1.39-.42,2.5,2.5,0,0,1-.69-3.47,48.11,48.11,0,0,0,0-53.51A2.5,2.5,0,0,1,98,11.43,53.13,53.13,0,0,1,98,70.5,2.5,2.5,0,0,1,95.93,71.61Z"/></g></svg>