<svg xmlns="http://www.w3.org/2000/svg" xmlns:xlink="http://www.w3.org/1999/xlink" viewBox="0 0 106.97 81.93"><defs><style>.cls-1{fill:#3bc7ed;}.cls-2{clip-path:url(#clip-path);}.cls-3{fill:#2fddfa;}.cls-4{fill:#3493bf;}.cls-5{fill:#fff;}</style><clipPath id="clip-path"><path class="cls-1" d="M94.45,40.93a41,41,0,1,0-40.93,41A41.1,41.1,0,0,0,94.45,40.93Z"/></clipPath></defs><g id="TXT"><path class="cls-1" d="M94.45,40.93a41,41,0,1,0-40.93,41A41.1,41.1,0,0,0,94.45,40.93Z"/><g class="cls-2"><path class="cls-3" d="M19.69,70.34a72.88,72.88,0,0,1-3.57-27.77,19,19,0,0,1,.65-4.31A20.86,20.86,0,0,1,19,33.62,157.1,157.1,0,0,1,32.46,14.29a14.07,14.07,0,0,1,3.35-3.23,14.2,14.2,0,0,1,4.62-1.52L52.7,7,71.62,3.16C75.34,2.4,79.14,1.64,82.9,2.1a26,26,0,0,0,5.61.6c.11-2.8-2.88-4.59-5.46-5.7Q77-5.62,70.81-8c-6.2-2.38-12.75-4.62-19.35-3.81-5.33.64-10.24,3.24-14.58,6.39A85.59,85.59,0,0,0,22.56,8.23c-8.51,9.87-15.88,21-19.63,33.45a9.35,9.35,0,0,0-.56,3.83,10.14,10.14,0,0,0,2.06,4.36L7.93,55a24.82,24.82,0,0,0,3,3.86,17.25,17.25,0,0,1,2.21,2.39c1,1.42,1.7,3,2.67,4.44A31.14,31.14,0,0,0,19.69,70.34Z"/><path class="cls-4" d="M86.4,11.62c-1.79-1.07-3.81-2.12-5.86-1.77l3.82,10.62c2.44,6.79,4.89,13.6,6.72,20.59a10.34,10.34,0,0,1,.46,4.23,10.75,10.75,0,0,1-1.85,3.93c-4.09,6.27-8.17,12.55-12.56,18.61a27.76,27.76,0,0,1-6.37,6.9,25.61,25.61,0,0,1-7,3.12,97.23,97.23,0,0,1-13.35,3.23c-3.32.56-6.79,1-9.62,2.81,5.58,2.48,11.93,2.44,18,2a81,81,0,0,0,19.54-3.59,30.92,30.92,0,0,0,11.88-6.74,34.91,34.91,0,0,0,6.7-10.12,98.87,98.87,0,0,0,7.93-24,20.25,20.25,0,0,0,.34-8.12,17.77,17.77,0,0,0-2.36-5.37c-1-1.71-2.2-3.34-3.13-5.11a11.61,11.61,0,0,0-2.13-3.33,50.69,50.69,0,0,0-4.82-3.68Q90,13.79,87.07,12Z"/></g><path class="cls-5" d="M53.36,53.2c8.72.36,15.57,4.67,19.91,13a3.23,3.23,0,0,1,.2.42c.61,1.38.36,2.47-.65,2.89s-2-.13-2.59-1.46a18.58,18.58,0,0,0-9.05-9.34,19.21,19.21,0,0,0-26,9.34,2.79,2.79,0,0,1-1,1.28,1.6,1.6,0,0,1-2-.09A1.77,1.77,0,0,1,31.79,67a19,19,0,0,1,2.69-4.69C39.1,56.38,45.19,53.36,53.36,53.2Z"/><path class="cls-5" d="M69.61,52a3.77,3.77,0,0,1-3.53-5.3,16.72,16.72,0,0,1,2.36-4.23,1.32,1.32,0,0,1,2.22-.13,13.84,13.84,0,0,1,2.63,5A3.69,3.69,0,0,1,69.61,52Zm1.06-3.83a4.43,4.43,0,0,0-.83-2c-.15-.25-.34-.22-.48,0a4.32,4.32,0,0,0-.8,2,.91.91,0,0,0,1,1.07A1,1,0,0,0,70.67,48.16Z"/><path class="cls-5" d="M39.73,40.49a3.32,3.32,0,1,1,3.36-3.3A3.19,3.19,0,0,1,39.73,40.49Z"/><path class="cls-5" d="M69,37.16a3.32,3.32,0,1,1-3.36-3.3A3.2,3.2,0,0,1,69,37.16Z"/><path class="cls-5" d="M31.54,39.24a1.5,1.5,0,0,1-.42-2.94c3.12-.91,7.72-5,8.75-8.73a1.5,1.5,0,0,1,2.89.8C41.44,33.14,36,38,32,39.18A1.59,1.59,0,0,1,31.54,39.24Z"/><path class="cls-5" d="M73,39.24a1.59,1.59,0,0,1-.43-.06c-4-1.17-9.47-6-10.79-10.8a1.5,1.5,0,0,1,2.89-.81c1,3.72,5.63,7.82,8.75,8.73A1.5,1.5,0,0,1,73,39.24Z"/><path class="cls-4" d="M11.05,71.61A2.49,2.49,0,0,1,9,70.5,53.13,53.13,0,0,1,9,11.43a2.5,2.5,0,0,1,4.16,2.78,48.13,48.13,0,0,0,0,53.52,2.5,2.5,0,0,1-.7,3.46A2.41,2.41,0,0,1,11.05,71.61Z"/><path class="cls-4" d="M95.93,71.61a2.46,2.46,0,0,1-1.39-.42,2.5,2.5,0,0,1-.69-3.47,48.11,48.11,0,0,0,0-53.51A2.5,2.5,0,0,1,98,11.43,53.13,53.13,0,0,1,98,70.5,2.5,2.5,0,0,1,95.93,71.61Z"/></g></svg>