<?xml version="1.0" encoding="utf-8"?>
<!-- Generator: Adobe Illustrator 25.2.0, SVG Export Plug-In . SVG Version: 6.00 Build 0)  -->
<svg version="1.1" id="Capa_1" xmlns="http://www.w3.org/2000/svg" xmlns:xlink="http://www.w3.org/1999/xlink" x="0px" y="0px"
	 viewBox="0 0 81.9 81.9" style="enable-background:new 0 0 81.9 81.9;" xml:space="preserve">
<style type="text/css">
	.st0{fill:#E6333E;}
	.st1{clip-path:url(#SVGID_2_);}
	.st2{fill:#FF968C;}
	.st3{fill:#B32830;}
	.st4{fill:#FFFFFF;}
</style>
<g id="TXT">
	<path class="st0" d="M81.9,40.9c0-22.6-18.3-41-41-41c-22.6,0-41,18.3-41,41c0,22.6,18.3,41,41,41c0,0,0.1,0,0.1,0
		C63.6,81.8,81.9,63.5,81.9,40.9z"/>
	<g>
		<defs>
			<path id="SVGID_1_" d="M81.9,40.9c0-22.6-18.3-41-41-41c-22.6,0-41,18.3-41,41c0,22.6,18.3,41,41,41c0,0,0.1,0,0.1,0
				C63.6,81.8,81.9,63.5,81.9,40.9z"/>
		</defs>
		<clipPath id="SVGID_2_">
			<use xlink:href="#SVGID_1_"  style="overflow:visible;"/>
		</clipPath>
		<g class="st1">
			<path class="st2" d="M5.8,69c-3-8.9-4.2-18.4-3.6-27.8c0.1-1.5,0.3-2.9,0.6-4.3c0.6-1.6,1.3-3.2,2.2-4.7
				c4-6.8,8.5-13.2,13.5-19.3c0.9-1.3,2.1-2.3,3.4-3.2c1.4-0.8,3-1.3,4.6-1.5c4.1-0.8,8.2-1.7,12.3-2.5l18.9-3.9
				C61.5,1,65.3,0.3,69,0.7c1.8,0.4,3.7,0.6,5.6,0.6c0.1-2.8-2.9-4.6-5.5-5.7c-4-1.8-8.1-3.4-12.2-5c-6.2-2.4-12.8-4.6-19.3-3.8
				C32.3-12.5,27.3-9.9,23-6.8c-5.3,4-10.1,8.6-14.3,13.6c-8.5,9.9-15.9,21-19.6,33.5c-0.5,1.2-0.6,2.5-0.6,3.8
				c0.3,1.6,1,3.1,2.1,4.4l3.5,5.1c0.9,1.4,1.9,2.7,3,3.9c0.8,0.7,1.5,1.5,2.2,2.4c1,1.4,1.7,3,2.7,4.4C3.1,66,4.4,67.6,5.8,69z"/>
			<path class="st3" d="M72.5,10.3c-1.8-1.1-3.8-2.1-5.9-1.8l3.8,10.6c2.4,6.8,4.9,13.6,6.7,20.6c0.4,1.4,0.6,2.8,0.5,4.2
				c-0.3,1.4-1,2.8-1.8,3.9c-4.1,6.3-8.2,12.5-12.6,18.6c-1.7,2.6-3.9,5-6.4,6.9c-2.2,1.4-4.5,2.4-7,3.1c-4.4,1.4-8.8,2.5-13.3,3.2
				c-3.3,0.6-6.8,1-9.6,2.8c5.6,2.5,11.9,2.4,18,2c6.6-0.4,13.2-1.6,19.5-3.6c4.4-1.3,8.5-3.6,11.9-6.7c2.8-3,5.1-6.4,6.7-10.1
				c3.7-7.7,6.4-15.8,8-24.1c0.7-2.7,0.8-5.4,0.3-8.1c-0.5-1.9-1.3-3.7-2.3-5.4c-1-1.7-2.2-3.4-3.1-5.1c-0.5-1.2-1.2-2.3-2.1-3.3
				c-1.5-1.3-3.1-2.6-4.8-3.7c-1.8-1.3-3.7-2.6-5.7-3.8L72.5,10.3z"/>
		</g>
	</g>
	<path class="st4" d="M40.9,59.6H26.3c-0.5,0-1,0-1.5-0.1c-1-0.2-1.6-1-1.6-2c0-1,0.7-1.9,1.7-2c0.4-0.1,0.9-0.1,1.3-0.1h29.9
		c1.6,0,2.6,0.9,2.5,2.2s-1,2-2.5,2C51.1,59.6,46,59.6,40.9,59.6z"/>
	<path class="st4" d="M28,38.8c-1.8,0-3.3-1.5-3.3-3.3c0-1.8,1.5-3.3,3.3-3.3c1.8,0,3.3,1.5,3.3,3.3c0.1,1.8-1.3,3.2-3.1,3.3
		C28.2,38.8,28.1,38.8,28,38.8z"/>
	<path class="st4" d="M57.2,35.5c0,1.8-1.5,3.3-3.3,3.3s-3.3-1.5-3.3-3.3c0-1.8,1.5-3.3,3.3-3.3c1.8-0.1,3.3,1.3,3.3,3
		C57.2,35.3,57.2,35.4,57.2,35.5z"/>
	<path class="st4" d="M32.9,36.6c-0.5,0-1-0.2-1.4-0.6L20,24.6c-0.8-0.8-0.8-2,0-2.8s2-0.8,2.8,0l11.5,11.5c0.8,0.8,0.8,2,0,2.8
		C33.9,36.4,33.4,36.6,32.9,36.6z"/>
	<path class="st4" d="M49,36.6c0.5,0,1-0.2,1.4-0.6l11.5-11.4c0.8-0.8,0.8-2,0-2.8c-0.8-0.8-2-0.8-2.8,0L47.6,33.2
		c-0.8,0.8-0.8,2,0,2.8C48,36.4,48.5,36.6,49,36.6z"/>
</g>
</svg>
