<?xml version="1.0" encoding="utf-8"?>
<!-- Generator: Adobe Illustrator 25.2.0, SVG Export Plug-In . SVG Version: 6.00 Build 0)  -->
<svg version="1.1" id="Capa_1" xmlns="http://www.w3.org/2000/svg" xmlns:xlink="http://www.w3.org/1999/xlink" x="0px" y="0px"
	 viewBox="0 0 81.9 81.9" style="enable-background:new 0 0 81.9 81.9;" xml:space="preserve">
<style type="text/css">
	.st0{fill:#A44CC1;}
	.st1{clip-path:url(#SVGID_2_);}
	.st2{fill:#BF8AF9;}
	.st3{fill:#7E42A8;}
	.st4{fill:#FFFFFF;}
</style>
<g id="TXT">
	<path class="st0" d="M81.9,40.9c0-22.6-18.3-41-41-41c-22.6,0-41,18.3-41,41c0,22.6,18.3,41,41,41c0,0,0.1,0,0.1,0
		C63.6,81.8,81.9,63.5,81.9,40.9z"/>
	<g>
		<defs>
			<path id="SVGID_1_" d="M81.9,40.9c0-22.6-18.3-41-41-41c-22.6,0-41,18.3-41,41c0,22.6,18.3,41,41,41c0,0,0.1,0,0.1,0
				C63.6,81.8,81.9,63.5,81.9,40.9z"/>
		</defs>
		<clipPath id="SVGID_2_">
			<use xlink:href="#SVGID_1_"  style="overflow:visible;"/>
		</clipPath>
		<g class="st1">
			<path class="st2" d="M6,69.1c-3-8.9-4.2-18.4-3.5-27.8c0.1-1.4,0.3-2.9,0.6-4.3c0.5-1.6,1.3-3.2,2.2-4.7
				c4-6.8,8.5-13.2,13.5-19.3c0.9-1.3,2.1-2.4,3.3-3.2c1.4-0.8,3-1.3,4.6-1.5c4.1-0.8,8.2-1.7,12.2-2.5l19-3.9
				c3.7-0.8,7.5-1.5,11.3-1c1.8,0.4,3.7,0.6,5.6,0.6C75-1.4,72-3.2,69.4-4.3c-4-1.7-8.1-3.4-12.2-5c-6.2-2.4-12.8-4.6-19.4-3.8
				c-5.3,0.6-10.2,3.2-14.6,6.4C17.9-2.7,13.1,1.9,8.9,7C0.4,16.8-7,27.9-10.7,40.4c-0.4,1.2-0.6,2.5-0.6,3.8c0.3,1.6,1,3.1,2.1,4.4
				l3.5,5.1c0.9,1.4,1.9,2.7,3,3.8c0.8,0.7,1.5,1.5,2.2,2.4c1,1.4,1.7,3,2.7,4.4C3.3,66.1,4.6,67.6,6,69.1z"/>
			<path class="st3" d="M72.7,10.3c-1.8-1.1-3.8-2.1-5.9-1.8l3.8,10.6c2.4,6.8,4.9,13.6,6.7,20.6c0.4,1.4,0.6,2.8,0.5,4.2
				c-0.3,1.4-1,2.8-1.9,3.9c-4.1,6.3-8.2,12.5-12.5,18.6c-1.7,2.6-3.9,5-6.4,6.9c-2.2,1.4-4.5,2.4-7,3.1c-4.4,1.4-8.8,2.5-13.3,3.2
				c-3.3,0.6-6.8,1-9.6,2.8c5.6,2.5,11.9,2.4,18,2c6.6-0.4,13.2-1.6,19.6-3.6c4.4-1.3,8.5-3.6,11.9-6.7c2.8-3,5.1-6.4,6.7-10.1
				c3.7-7.6,6.3-15.7,7.9-24c0.7-2.7,0.8-5.4,0.3-8.1c-0.5-1.9-1.3-3.7-2.4-5.4c-1-1.7-2.2-3.4-3.1-5.1c-0.5-1.2-1.2-2.4-2.1-3.3
				c-1.5-1.3-3.1-2.6-4.8-3.7c-1.8-1.3-3.7-2.6-5.7-3.7L72.7,10.3z"/>
		</g>
	</g>
	<path class="st4" d="M28.4,34.8c-1.8-0.2-3.1-1.9-2.9-3.7c0.2-1.8,1.9-3.1,3.7-2.9c1.8,0.2,3.1,1.9,2.9,3.7
		c-0.1,1.8-1.7,3.1-3.4,2.9C28.5,34.8,28.5,34.8,28.4,34.8z"/>
	<path class="st4" d="M57.8,34.7c-0.2,1.8-1.8,3.1-3.6,2.9s-3.1-1.8-2.9-3.6c0.2-1.8,1.8-3.1,3.6-2.9c1.8,0.1,3.1,1.6,3,3.3
		C57.8,34.4,57.8,34.5,57.8,34.7z"/>
	<path class="st4" d="M23.3,36.6c-0.2,0-0.4-0.1-0.5-0.2c-2-1.9-2.5-5-1.2-7.4c0.2-0.3,0.7-0.4,1-0.2c0.3,0.2,0.4,0.6,0.3,0.9
		c-1,1.9-0.6,4.2,1,5.6c0.3,0.3,0.3,0.8,0,1.1C23.7,36.5,23.5,36.6,23.3,36.6L23.3,36.6z"/>
	<path class="st4" d="M24.5,25.3c-2,0-3.9-0.4-5.7-1.1c-0.8-0.3-1.1-1.2-0.8-2c0.3-0.7,1.1-1.1,1.9-0.8c1.9,0.7,3.9,1,5.9,0.8
		c1.9-0.2,3.8-1,5.2-2.3c0.7-0.5,1.6-0.3,2.1,0.4c0.4,0.5,0.3,1.3-0.1,1.8c-1.9,1.7-4.3,2.8-6.9,3.1C25.6,25.3,25.1,25.3,24.5,25.3z
		"/>
	<path class="st4" d="M58.9,40.5c-0.4,0-0.7-0.3-0.7-0.8c0-0.3,0.1-0.5,0.3-0.6c1.8-1.1,2.7-3.2,2.2-5.3c-0.1-0.4,0.1-0.8,0.5-0.9
		c0,0,0,0,0,0c0.4-0.1,0.8,0.1,0.9,0.5c0.7,2.7-0.4,5.5-2.8,7C59.2,40.5,59,40.5,58.9,40.5z"/>
	<path class="st4" d="M63.3,29.6c-1.7,0-3.3-0.3-4.9-0.8c-2.4-0.8-4.6-2.4-6.1-4.5c-0.5-0.7-0.3-1.6,0.4-2.1
		c0.7-0.5,1.6-0.3,2.1,0.4c1.1,1.6,2.7,2.8,4.6,3.4c1.9,0.6,4,0.8,6,0.5c0.8-0.1,1.6,0.5,1.7,1.3c0.1,0.8-0.5,1.6-1.3,1.7
		C65,29.5,64.2,29.6,63.3,29.6z"/>
	<path class="st4" d="M49.6,67.5c-0.2,0-0.5,0-0.7,0l0,0c-2-0.2-3.7-1.3-4.8-3c-1.5-2.1-3.8-3.3-6.4-3.5c-2.5-0.4-5.1,0.4-7,2.1
		c-1.2,1.2-2.9,1.9-4.6,1.9l0,0c-3.6,0-6.5-2.9-6.5-6.5c0-1.7,0.7-3.4,1.9-4.6c4.7-4.5,11.1-6.6,17.6-5.8c6.5,0.6,12.3,4.1,15.9,9.5
		c1.9,3,1,7-2,9C52.1,67.2,50.9,67.5,49.6,67.5L49.6,67.5z M49.2,64.5c1.9,0.2,3.7-1.2,3.9-3.1c0.1-0.8-0.1-1.6-0.5-2.3
		c-3.1-4.7-8.1-7.7-13.7-8.1c-5.5-0.7-11.1,1.1-15.1,5c-1.4,1.4-1.4,3.6-0.1,4.9c0.7,0.7,1.6,1.1,2.5,1.1l0,0c0.9,0,1.8-0.4,2.5-1
		c2.5-2.4,6-3.5,9.5-3c3.4,0.3,6.6,2.1,8.5,4.9C47.2,63.8,48.2,64.4,49.2,64.5L49.2,64.5z"/>
</g>
</svg>
