<?xml version="1.0" encoding="utf-8"?>
<!-- Generator: Adobe Illustrator 25.2.0, SVG Export Plug-In . SVG Version: 6.00 Build 0)  -->
<svg version="1.1" id="Capa_1" xmlns="http://www.w3.org/2000/svg" xmlns:xlink="http://www.w3.org/1999/xlink" x="0px" y="0px"
	 viewBox="0 0 798.4 954.1" style="enable-background:new 0 0 798.4 954.1;" xml:space="preserve">
<style type="text/css">
	.st0{fill:#80AE3C;}
	.st1{fill:#262A58;}
	.st2{clip-path:url(#SVGID_2_);}
	.st3{fill:#4D5999;}
	.st4{fill:#13041E;}
	.st5{fill:#4F3C7A;}
	.st6{fill:#FFFFFF;}
</style>
<g>
	<g id="GRAFICA">
		<path class="st0" d="M794.9,236.6c1.9,0,3.5-1.6,3.5-3.5v-68.5c0-1.9-1.6-3.5-3.5-3.5h-3V41.9C791.9,18.8,773.2,0,750,0
			c0,0,0,0,0,0H41.9C18.8,0,0,18.8,0,41.9c0,0,0,0,0,0v912.2h791.9V319h3c1.9,0,3.5-1.6,3.5-3.5V247c0-1.9-1.6-3.5-3.5-3.5h-3v-7
			L794.9,236.6z M774.9,954.1H17V73c0.1-22,18.1-39.8,40.1-39.7c0,0,0,0,0,0h677.7c22-0.1,40,17.7,40.1,39.7c0,0,0,0,0,0
			L774.9,954.1z"/>
		<circle class="st0" cx="396" cy="33.5" r="26.7"/>
		<circle class="st1" cx="396" cy="33.5" r="16"/>
		<g>
			<defs>
				<circle id="SVGID_1_" cx="396" cy="33.5" r="16"/>
			</defs>
			<clipPath id="SVGID_2_">
				<use xlink:href="#SVGID_1_"  style="overflow:visible;"/>
			</clipPath>
			<g class="st2">
				<polygon class="st3" points="404.8,14.1 375.3,43 380.7,47.5 412,19.8 390.4,51 392.3,52.3 419.2,23.7 410,14.6 				"/>
			</g>
		</g>
		<circle class="st4" cx="396" cy="33.5" r="9.9"/>
		<circle class="st5" cx="396" cy="33.5" r="6.5"/>
		<circle class="st6" cx="393.6" cy="31.7" r="3.3"/>
	</g>
</g>
</svg>
