<?xml version="1.0" encoding="utf-8"?>
<!-- Generator: Adobe Illustrator 25.2.0, SVG Export Plug-In . SVG Version: 6.00 Build 0)  -->
<svg version="1.1" id="Capa_1" xmlns="http://www.w3.org/2000/svg" xmlns:xlink="http://www.w3.org/1999/xlink" x="0px" y="0px"
	 viewBox="0 0 196 41.8" style="enable-background:new 0 0 196 41.8;" xml:space="preserve">
<style type="text/css">
	.st0{fill:#E4E6EB;}
	.st1{fill:#262A58;}
	.st2{fill:none;stroke:#FFFFFF;stroke-linecap:round;stroke-miterlimit:10;}
</style>
<g id="GRAFICA">
	<circle class="st0" cx="20.9" cy="20.9" r="20.9"/>
	<circle class="st0" cx="72.3" cy="20.9" r="20.9"/>
	<circle class="st0" cx="123.7" cy="20.9" r="20.9"/>
	<circle class="st0" cx="175.1" cy="20.9" r="20.9"/>
	<path class="st1" d="M169.6,18.4l6.4,7.5c0.2,0.2,0.4,0.2,0.6,0c0,0,0,0,0,0l6.3-7.5c0.1-0.2,0.1-0.4-0.1-0.6
		c-0.1-0.1-0.2-0.1-0.3-0.1h-12.7c-0.2,0-0.4,0.2-0.4,0.4C169.5,18.2,169.6,18.3,169.6,18.4z"/>
	<rect x="19.8" y="13.3" class="st1" width="2.1" height="15.3"/>
	<rect x="13.2" y="19.9" class="st1" width="15.3" height="2.1"/>
	<path class="st1" d="M118.1,16.1c0,1-0.1,5.3-0.1,5.3c0,0.4-0.2,0.8-0.5,1.1c-0.8,0.7-1.2,1.7-1.1,2.8c0.5,1.7,2.7,1.3,2.8,1.3
		s9.1-1.5,10.7-1.8c0.2,0,0.4-0.1,0.5-0.1c0.7-0.3,2.3-1.2,2.1-2.7c-0.2-1-1-1.7-1.9-1.8c-0.5-0.1-0.9-0.5-1.1-1c0,0-1.5-4-1.8-4.7
		s-1.5-2.9-5.3-2.2S118.1,15.2,118.1,16.1z"/>
	<path class="st1" d="M120.2,27.3c0,0.1,0,0.2,0,0.4c0,1.1,0.9,2,2,2s2-0.9,2-2c0-0.3-0.1-0.7-0.3-1L120.2,27.3z"/>
	<path class="st1" d="M73,12.1c-4.8,0-8.6,3.9-8.6,8.6c0,2.1,0.8,4.2,2.2,5.8h-0.1l0.3,4.1l2.5-2.2c4.3,2.1,9.5,0.4,11.6-3.9
		c2.1-4.3,0.4-9.5-3.9-11.6C75.7,12.4,74.4,12.1,73,12.1z M74.5,24.3l-3.3-3l-4,2.8l3.9-5.9l3.5,2.8l3.5-2.8L74.5,24.3z"/>
	<circle class="st0" cx="20.9" cy="20.9" r="20.9"/>
	<circle class="st0" cx="72.3" cy="20.9" r="20.9"/>
	<circle class="st0" cx="123.7" cy="20.9" r="20.9"/>
	<circle class="st0" cx="175.1" cy="20.9" r="20.9"/>
	<path class="st1" d="M168.2,18.4l6.3,7.5c0.2,0.2,0.4,0.2,0.6,0c0,0,0,0,0,0l6.3-7.5c0.1-0.2,0.1-0.4-0.1-0.6
		c-0.1-0.1-0.2-0.1-0.3-0.1h-12.7c-0.2,0-0.4,0.2-0.4,0.4C168.1,18.2,168.1,18.3,168.2,18.4z"/>
	<rect x="19.8" y="13.3" class="st1" width="2.1" height="15.3"/>
	<rect x="13.2" y="19.9" class="st1" width="15.3" height="2.1"/>
	<path class="st1" d="M118.1,16.1c0,1-0.1,5.3-0.1,5.3c0,0.4-0.2,0.8-0.5,1.1c-0.8,0.7-1.2,1.7-1.1,2.8c0.5,1.7,2.7,1.3,2.8,1.3
		s9.1-1.5,10.7-1.8c0.2,0,0.4-0.1,0.5-0.1c0.7-0.3,2.3-1.2,2.1-2.7c-0.2-1-1-1.7-1.9-1.8c-0.5-0.1-0.9-0.5-1.1-1c0,0-1.5-4-1.8-4.7
		s-1.5-2.9-5.3-2.2S118.1,15.2,118.1,16.1z"/>
	<path class="st1" d="M120.2,27.3c0,0.1,0,0.2,0,0.4c0,1.1,0.9,2,2,2s2-0.9,2-2c0-0.3-0.1-0.7-0.3-1L120.2,27.3z"/>
	<path class="st1" d="M73,12.1c-4.8,0-8.6,3.9-8.6,8.6c0,2.1,0.8,4.2,2.2,5.8h-0.1l0.3,4.1l2.5-2.2c4.3,2.1,9.5,0.4,11.6-3.9
		c2.1-4.3,0.4-9.5-3.9-11.6C75.7,12.4,74.4,12.1,73,12.1z"/>
	<line class="st2" x1="68.7" y1="18.9" x2="78.1" y2="18.9"/>
	<line class="st2" x1="68.7" y1="21.6" x2="75.3" y2="21.6"/>
</g>
</svg>
