<?xml version="1.0" encoding="utf-8"?>
<!-- Generator: Adobe Illustrator 25.2.0, SVG Export Plug-In . SVG Version: 6.00 Build 0)  -->
<svg version="1.1" id="Capa_1" xmlns="http://www.w3.org/2000/svg" xmlns:xlink="http://www.w3.org/1999/xlink" x="0px" y="0px"
	 viewBox="0 0 55.5 57" style="enable-background:new 0 0 55.5 57;" xml:space="preserve">
<style type="text/css">
	.st0{fill:#262A58;}
</style>
<g id="GRAFICA">
	<polygon class="st0" points="27.7,6.9 1.5,31.1 5.9,35.4 8.7,32.7 8.7,57 22.6,57 22.6,39 33.7,39 33.7,57 48.1,57 48.1,33 
		49.6,34.5 53.8,30.3 	"/>
	<path class="st0" d="M28.6,4c0.9-0.9,2-1.7,3.2-2.2L35.2,0c0,2.6-0.9,5-2.6,6.9c-0.6,0.7-1.4,1.2-2.3,1.5c-0.8,0.2-1.7-0.1-2.3-0.8
		c-0.2-0.3-0.3-0.6-0.3-0.9c-0.1-0.5,0-0.9,0.1-1.3C28,4.9,28.3,4.4,28.6,4z"/>
	<path class="st0" d="M15.2,17.5c-1.4-1.2-3.2-1.7-4.9-1.5c-0.1,0.9,0.2,1.8,0.8,2.4c0.6,0.6,1.5,1,2.4,1.1c0.5,0.1,1.1,0,1.6-0.2
		c0.4-0.1,1-0.5,0.8-1C15.7,18,15.5,17.7,15.2,17.5z"/>
	<path class="st0" d="M50,24.3c0.9-0.3,1.8-0.4,2.7-0.5c-0.2,1.1-0.8,2-1.8,2.5c-0.7,0.3-1.4,0.4-2.1,0.1c-0.2-0.1-0.8-0.4-0.8-0.6
		s0.3-0.4,0.4-0.5c0.1-0.1,0.3-0.3,0.5-0.4C49.2,24.7,49.6,24.4,50,24.3z"/>
	<path class="st0" d="M53.7,29.9c0.6,0.2,1.3,0.4,1.8,0.7c-0.5,0.6-1.3,0.9-2.1,0.9c-0.5,0-1-0.3-1.4-0.8c-0.1-0.1-0.4-0.5-0.2-0.7
		s0.3-0.1,0.4-0.1c0.1,0,0.3,0,0.4-0.1C53,29.8,53.3,29.8,53.7,29.9z"/>
	<path class="st0" d="M25.6,4.9c0,0.3,0,0.7,0.1,1c0,0.3,0.1,0.7,0.2,1c0.2,0.5,1.3,2.1,1.9,1.2c0.3-0.7,0.2-1.5-0.3-2.1
		C26.9,5.5,26.3,5.1,25.6,4.9z"/>
	<path class="st0" d="M1.2,31.7c-0.2,0-0.5,0-0.7-0.2C0.3,31.4,0.1,31.2,0,31c0.2,0,0.5-0.1,0.7-0.2c0.2-0.1,0.5-0.1,0.7-0.1
		C1.7,30.7,2,30.8,2,31s-0.2,0.4-0.4,0.5C1.5,31.6,1.3,31.7,1.2,31.7z"/>
	<path class="st0" d="M0.5,30.5c-0.2-0.3-0.3-0.6-0.3-1c0-0.4,0.1-0.7,0.3-1c0.2,0.3,0.4,0.6,0.7,0.8c0.3,0.2,0.5,0.5,0.7,0.8
		c0.2,0.3,0.2,0.7,0,1c-0.3,0.3-0.7,0-1-0.2C0.8,30.9,0.6,30.7,0.5,30.5z"/>
</g>
</svg>
