<?xml version="1.0" encoding="utf-8"?>
<!-- Generator: Adobe Illustrator 25.2.0, SVG Export Plug-In . SVG Version: 6.00 Build 0)  -->
<svg version="1.1" id="Capa_1" xmlns="http://www.w3.org/2000/svg" xmlns:xlink="http://www.w3.org/1999/xlink" x="0px" y="0px"
	 viewBox="0 0 758 837.9" style="enable-background:new 0 0 758 837.9;" xml:space="preserve">
<style type="text/css">
	.st0{clip-path:url(#SVGID_2_);}
	.st1{fill:#FFCE00;}
	.st2{fill:#1E8E30;}
	.st3{fill:#3BC7ED;}
	.st4{fill:#E6333E;}
	.st5{fill:#262A58;}
	.st6{fill:#FFFFFF;}
</style>
<g id="GRAFICA">
	<g>
		<defs>
			<rect id="SVGID_1_" width="758" height="837.9"/>
		</defs>
		<clipPath id="SVGID_2_">
			<use xlink:href="#SVGID_1_"  style="overflow:visible;"/>
		</clipPath>
		<g class="st0">
			<circle class="st1" cx="185.1" cy="658.6" r="102.3"/>
			<path class="st2" d="M645.1,127.9c20.8,0,37.6,16.8,37.6,37.6s-16.8,37.6-37.6,37.6c-20.8,0-37.6-16.8-37.6-37.6c0,0,0,0,0,0
				C607.5,144.7,624.3,127.9,645.1,127.9 M645.1,102.9c-34.6,0-62.6,28-62.6,62.6s28,62.6,62.6,62.6s62.6-28,62.6-62.6l0,0
				C707.7,130.9,679.7,102.9,645.1,102.9z"/>
			<circle class="st3" cx="152.2" cy="102" r="122.2"/>
			<path class="st4" d="M523.1,621c102.6,0,185.8,83.2,185.8,185.8s-83.2,185.8-185.8,185.8c-102.6,0-185.8-83.2-185.8-185.8
				c0-49.3,19.6-96.5,54.4-131.4C426.5,640.5,473.8,620.9,523.1,621 M523.1,596c-116.4,0-210.8,94.4-210.8,210.8
				s94.4,210.8,210.8,210.8s210.8-94.4,210.8-210.8S639.5,596,523.1,596z"/>
			<path class="st5" d="M394.6,71c177.8,0.1,321.8,144.3,321.7,322.1c-0.1,129.2-77.4,245.9-196.5,296.3
				C356,758.2,167.3,681.1,98.4,517.2c-68.6-163.4,7.8-351.6,170.9-420.9C309,79.5,351.6,70.9,394.6,71 M394.6,67
				c-180,0-325.8,145.9-325.8,325.8s145.9,325.8,325.8,325.8s325.8-145.9,325.8-325.8S574.5,67,394.6,67z"/>
			<path class="st6" d="M394.6,67c179.9,0,325.8,145.9,325.8,325.8S574.5,718.7,394.6,718.7S68.8,572.8,68.8,392.8
				S214.6,67,394.6,67 M394.6,63C212.4,63.1,64.8,210.9,64.9,393.1c0.1,132.5,79.4,252,201.3,303.6
				c167.8,70.9,361.4-7.7,432.3-175.5S690.8,159.8,523,88.9C482.4,71.7,438.7,62.9,394.6,63z"/>
		</g>
	</g>
</g>
</svg>
