<?xml version="1.0" encoding="utf-8"?>
<!-- Generator: Adobe Illustrator 25.2.0, SVG Export Plug-In . SVG Version: 6.00 Build 0)  -->
<svg version="1.1" id="Capa_1" xmlns="http://www.w3.org/2000/svg" xmlns:xlink="http://www.w3.org/1999/xlink" x="0px" y="0px"
	 viewBox="0 0 474.8 541.2" style="enable-background:new 0 0 474.8 541.2;" xml:space="preserve">
<style type="text/css">
	.st0{clip-path:url(#SVGID_2_);}
	.st1{fill:#BD4089;}
	.st2{fill:#C4906C;}
	.st3{fill:#FFDC80;}
	.st4{fill:#FEDC81;}
	.st5{fill:#C5926C;}
	.st6{fill:#262A58;}
	.st7{fill:#FFFFFF;}
	.st8{fill:#FEDB80;}
	.st9{fill:#F7D57F;}
	.st10{fill:#B26F40;}
	.st11{fill:#C13615;}
	.st12{fill:#FCFAF9;}
	.st13{fill:#ECC673;}
	.st14{fill:#E6BF6F;}
	.st15{fill:#DFB9A6;}
	.st16{fill:#D19579;}
</style>
<g>
	<g id="ILUSTRACIONES_2">
		<g>
			<defs>
				<rect id="SVGID_1_" width="474.8" height="541.2"/>
			</defs>
			<clipPath id="SVGID_2_">
				<use xlink:href="#SVGID_1_"  style="overflow:visible;"/>
			</clipPath>
			<g class="st0">
				<path class="st1" d="M441.1,553.1c-2.7,0.3-5.4,0.4-8.2,0.6c-32.8,2.1-65.7,1.4-98.5,0.6l-75.8-1.7c-3.2,0.1-6.4-0.6-9.3-2
					c-1.3-0.6-2.3-1.6-3-2.9c-0.3-0.6-0.5-1.3-0.7-2c-1.4-3.9-3.8-7.8-5.7-11.5c-4.9-9.5-9.8-19-16.8-27.2c-0.7-0.7-1.1-1.6-1.1-2.6
					c1.2-3.8,4.2-6.4,6.7-9.1c3.8-4,5.6-9.5,4.8-15c-2.1-17.6-7.3-34-19.2-47.7c-4.4-5-9.9-9-16.1-11.6c3.8-8.8,10.5-15.1,17.9-20.8
					c1.6-1.1,3.3-1.9,5.1-2.5c7.9-3.1,16.1-5.2,24.5-6.2c4-0.5,7.7-1.9,11.5-3.1c2.2-0.7,3.8-2.3,5.2-4c3.4-4,7.5-6.9,12.9-7.5
					c-1.1,5.5,1,9.3,5.7,12.2c24.9,15.2,51.2,20.2,79.4,10.7c2.8-1,5.4-2.3,7.9-4c1.3-0.8,2.5-1.8,3.6-2.7c0.6-0.5,1.1-0.9,1.7-1.4
					c0.2-0.2,0.4-0.3,0.6-0.5c0.5-0.3,1-0.7,1.4-1.2c0.4-0.5,0.8-0.9,1.2-1.4c0.5-0.7,1-1.4,1.5-2.1c0.3-0.4,0.7-1,0.5-1.5
					c-0.1-0.1-0.2-0.3-0.2-0.5c0-0.1,0-0.8,0.2-0.8l2.8,0.1c1.3,0.6,2.5,1.5,3.3,2.7c7,8.6,16.5,12.6,26.9,15.1
					c8.3,2,16.7,3.9,24.1,8.7c7.9,5.1,11.9,13.3,15.8,21.1c4.2,8.3,6.1,17.5,5.4,26.8c-2.9,3.8-6,7.4-11.1,8.2
					c-3.3-2.5-5.1-6-6.3-9.9c-2.3-7.8-5-15.5-8.2-23c-0.6-1.4-0.7-3.1-2.7-4.2c0.5,3.1,1.3,6.1,2.4,9c7,22.4,14,44.8,19.8,67.6
					c2.2,9.2,3.5,18.5,3.9,27.9c0.2,3.2,0.4,6.4,0.6,9.7c0.2,2.5,0.9,4.8,1.1,7.3C451.4,551.9,446.3,552.6,441.1,553.1z"/>
				<path class="st2" d="M374.7,391c-0.2,0.2-0.4,0.4-0.6,0.5c-1.1,0.7-2.1,1.4-3.3,2.1c-2.1,1.3-4.3,2.5-6.6,3.6s-4.5,2.1-6.9,3.1
					s-4.7,1.8-7.1,2.5s-4.8,1.4-7.3,1.9c-1.2,0.3-2.5,0.5-3.7,0.7c-0.2,0-0.5,0.1-0.7,0.2c-0.1,0-0.2,0.1-0.3,0.1
					c-0.7,0.1-1.3,0.1-2,0.1c-3.5,0.1-7,0-10.5-0.1c-6.2-0.2-12.2-2-18.2-3.4c-8.7-2-17-5.5-24.5-10.3c-2.1-1.4-4.3-2.8-6.2-4.4
					c-4.1-3.3-4.4-6.1-1.6-10.7c3.8-6.7,5.1-14.1,5.6-21.6c0.5-7.8,0.2-15.7-1-23.4c-0.8-5.4-2.6-10.6-5.3-15.3
					c-4.3-7.1-8.3-14.4-13.9-20.6c-6.4-7.1-13.6-11.8-23.5-12.1c-4.1-0.3-8.2-1-12.2-2.1c-6.3-1.4-11-5.3-14.6-10.2
					c-5.7-7.4-9.6-16-11.4-25.1c-1.1-5.5-0.4-11.2,1.9-16.3c1.8-3.8,3.4-4.6,7.6-4.1c2,0.4,4,1,5.9,1.7c0-1.9-0.9-3-1.6-4.2
					c-8-13.7-12.3-29.3-12.4-45.2c-0.1-9.6,0.1-19.3,3-28.5c4.8-15.2,11.5-29.5,23.1-40.9c9.1-9,20-16,31.9-20.7
					c14-5.5,28.3-8.9,43.3-9.2c10.4-0.2,20.1,2.9,29.3,7.7c19.4,10.2,32.9,25.9,42.8,45.1c2.9,5.3,5.2,11,6.8,16.8
					c0.2,8.9,3.8,17.1,5.6,25.6c2.9,13.8,4.8,27.6,3.6,41.8c-0.2,2.9-0.3,5.7-0.1,8.6c1.2,22.9-5.2,44.3-13.5,65.1
					c-4.8,11.8-11.1,23-18.8,33.3c-3.2,2.3-4.9,3.2-7,5.1c-0.3,2.8,0.7,6.7-0.4,9.4c-1.8,4.4,0,8.8,0.4,13.2
					c0.7,8.4,3.1,16.6,7.3,24c3,5.5,7.6,9.9,13.2,12.7l0.4,0.2c1,0.3,1.9,0.8,2.7,1.4c0.4,0.4,0.7,0.8,1,1.2
					C375.1,390.5,375,390.8,374.7,391z"/>
				<path class="st2" d="M95.8,553.2c-17.8,0.3-35.7-0.4-53.5-2.1c1.4-1.6,2.8-3.8,4.5-5.1c2.1-1.7,4.5-3,6.6-4.7
					c4.1-3.1,8.2-6.4,12.1-9.7c10.4-8.7,20.5-17.8,30.5-27c17.6-16.3,35.7-32,53.9-47.5c12.6-10.8,25.7-21,40.2-29.3
					c3.1-1.8,5.5-4.4,7.9-6.9c3-0.4,5.7,0.8,8,2.5c4.7,3.5,8.9,7.8,12.4,12.5c9.1,11.8,13.4,25.5,15.5,40c0.6,3,0.8,6,0.7,9
					c-0.5,7.2-5.7,11.4-9.7,16.4c-0.8,1-1.7,1.9-2.6,2.8c-0.8,1.5-2.3,1.6-3.6,2.1c-21,8.2-41.8,16.7-62.2,26.4l-0.9,0.4
					c-5.7,2.7-11.3,5.6-16.8,8.6c-6.2,3.3-11.9,7.2-18.7,9s-13.7,2.2-20.6,2.4L95.8,553.2z"/>
				<path class="st3" d="M456.5,458.4c-0.4-12.4-4-24.5-10.5-35.2c-6-10.1-14.6-15.5-25.5-18.2c-4.1-1.1-8.3-2.2-12.4-3.2
					c-5.3-1.3-10.3-3.5-14.9-6.3c-4.8-2.9-8.8-6.9-11.5-11.8c3-0.6,5.2,0.4,7.2,2.7c3.9,4.4,8.9,7.1,14.4,9c7.9,2.8,15.8,5,24.3,2.9
					c2.3-0.6,3.9,1.1,5.9,1.6c8.6,2.2,15.8,8.2,19.4,16.3c4.6,9.6,7.3,20.1,7.8,30.8c0.7,12.8,0.7,25.5,0.6,38.3
					c-0.2,9.4-1.2,18.8-3,28c-0.4,1.7-0.5,3.4-0.2,5.2c0.3,1.7,0.4,3.5,0.4,5.2c0,5.2,0,10.3,0,15.5c0,2.1-0.3,4.4,0.4,6.4
					c0.3,0.7,0.4,1.5,0.4,2.3c0,0.5-0.2,3-0.7,3.2c-1.5,0.8-3.8,1.2-4.4-0.4c-0.1-0.5-0.1-0.9,0-1.4c0.4-1.6,0.5-3.2,0.5-4.9
					c-0.5-4-0.8-8-1.1-12c-0.3-5.5-1.4-11-2.1-16.5c-2.1-16.6-8.3-32-12.5-47.9c-3.2-12.2-7.3-24.1-10.8-36.1
					c-0.1-0.6-0.3-1.2-0.5-1.8c-0.7-1.6-0.4-3.1,1-3.7c1.6-0.7,2,1.1,2.5,2.2c3.9,8.6,7.2,17.4,9.7,26.5c1.2,4.4,3.7,7.7,6.1,11.2
					c1.5,1.3,2.5,2.9,2.9,4.8c2.3,7.5,6,14.5,7.1,21.6c-0.5-1.4-0.7-2.9-0.6-4.4c-0.3-9.2,0.3-18.4-0.5-27.6
					C455.7,459.8,456,459,456.5,458.4z"/>
				<path class="st4" d="M357.4,323c1.2-4.5,4.4-8.1,6.6-12.1c6.4-11.6,12.6-23.3,16.3-36.1c2.4-8.4,4.9-16.8,6.7-25.4
					c0.8-4.2,1.3-8.5,1.4-12.8c0.2-8.8-0.3-17.5,0.6-26.3c0.5-4.7-0.4-9.5-0.9-14.3c-0.8-9-1.8-18-4.5-26.8
					c-1.5-4.5-2.6-9.2-3.6-13.9c-0.5-2.3-1.1-4.7,0.6-6.9c3.4,7.6,5,15.8,6.7,23.9c2.3,10.4,4.4,20.8,5.1,31.5
					c0.5,7.3,0.9,14.6,0.7,22c-0.8,26.7-7.4,52.9-19.4,76.7c-2.5,4.8-5.7,9.2-9.4,13.2C362.2,318.2,360.5,321.3,357.4,323z"/>
				<path class="st3" d="M375,390.4c-0.3,0-0.5,0-0.8,0c-0.2,0-0.3-0.1-0.5-0.2c-0.7-0.5-1.5-0.9-2.3-1.1c-7-3.2-12.7-8.8-15.9-15.8
					c-3.8-7.4-6-15.5-6.5-23.7c-0.1-3.2-1.3-6.2-0.9-9.5c0.1-1.1-0.3-2.4,0.5-3.2c2.1-2.2,2.1-5.2,3-7.8c0.1,9.8,1.8,19.3,4.1,28.8
					c1.3,5.5,3.3,10.8,6.8,15.2c4.2,5.3,9.1,9.8,16.3,10.6c0.3,0.6,0.8,1.2,1.4,1.6c0.3,0.1,0.8,0.2,1,0.5s-0.3,1-0.5,1.3
					c-0.8,0.9-1.7,1.8-2.7,2.4C377.1,390,376,390.4,375,390.4z"/>
				<path class="st5" d="M456.5,458.4c1.6,7.1,0.8,14.3,0.9,21.4c0.2,5-0.1,10.1-0.7,15.1l-9.9-28.7L456.5,458.4z"/>
				<path class="st6" d="M278.9,323.2c-1.3,1-2.4,2-3.7,2.9c-2.1,1.5-4.4,2.6-6.4,4.2c-6,4.8-6.8,10.9-2.5,17.3
					c0.3,0.5,0.6,1,0.8,1.5c-1.6,1.6-2.8,0.4-4-0.3c-7.1-4.8-9-11.8-7.6-19.8c0.6-3.4,2.1-6.7,3.4-9.9c0.8-1.9,2-3.6,2.9-5.5
					c3.5-7.4,4-12.2-4.1-20.3c-0.7,0.8-1.3,1.6-2,2.5c-3.5,4.4-6.8,8.9-10.4,13.1c-6.2,7.4-8.4,15.6-6.1,25
					c1.3,5.3,3.1,10.5,3.8,15.8c0.5,3.9-0.1,7.9-0.6,11.9c-0.3,2.2-0.6,2.2-3.2,3.4c-0.2-0.2-0.7-0.4-0.7-0.6
					c0.1-5.9-3.3-10-7.6-13.1c-8.1-5.9-12.1-13.7-13.3-23.4c-0.5-4.3-1.3-8.5-1.9-12.8c-0.5,0-1,0.1-1.5,0.3
					c-11.3,7.6-24.2,11.4-37.1,15.1c-12.5,3.6-24.1,9.8-34,18.2c-14.4,12.1-20,28.2-18.1,46.7c0.9,9.3,7.9,15.9,17.4,17.9
					c0.8,0.3,1.7,0.7,2.4,1.2c-1.6,0.7-2.4,1.5-3.2,1.5c-10.4-0.5-19.3-4.2-25.8-12.6c-6.2-8-8.9-17.5-8.9-27.4
					c-0.3-19.9,6.3-39.2,18.7-54.7c6.3-8,13.6-15.3,20.4-22.9c2.2-2.5,4.1-5.3,6.1-8c4.2-5.5,3.2-11.1,0.1-16.5
					c-2.2-3.8-5.5-6.5-9.3-8.8c-4.6-2.6-8.9-5.6-13.1-8.8c-10.5-8.6-14.9-20.1-15.2-33.4c-0.4-15.6,2.1-30.6,9.8-44.4
					c1.2-2.2,2.4-4.5,3.5-6.8c4.1-8,9.8-15,16.9-20.6c3.9-3.1,7.6-6.3,11.2-9.7c5.1-4.9,7.2-10.9,5.5-17.9
					c-0.9-3.9-2.1-7.7-3.3-11.5c-1.5-4.9-3.2-9.7-4.8-14.6c-3.7-11.3-3.5-22.7-0.5-34c3.9-15.3,12.3-29.1,24.2-39.5
					c7.3-6.5,16.4-10.1,25.9-11.6c25.1-3.9,47.8,2.2,68,17.6c2.7,2,5.4,4,8,6.1c6.9,5.2,12.7,11.8,17,19.3c4,7.1,8.8,13.7,11.1,21.7
					c0.5,1.8,1.9,2.3,3.6,2.6c17,3,31,12,42.9,23.9s21.7,25.8,27,41.9c2,6,4.8,12.1,4.8,19.4c-13.1-7.1-18-18.8-22.3-31.4
					c-2.2,1.1-4.1,1.8-5.9,2.8c-13.4,7.2-27.1,13.5-42,17.3c-13.2,3.3-26.9,4.3-40.4,3c-8.2-0.8-16.5-1.7-25.1-2.6
					c0.2-0.2-0.2,0-0.2,0.2c-0.3,8.1-2.9,15.6-5.2,23.3c-1.7,5.6-3.1,11.4-4.2,17.2c-1.6,8.1-0.4,16.5,3.2,23.8
					c2.2,4.4,4.6,8.8,6.8,13.2c3.5,7.2,7.3,14.2,10.2,21.6c4.5,11.5,5.4,23.3,1.5,35.2c-0.3,1.2-0.3,2.4,0.2,3.5
					c0.7,1.8,1.7,3.4,3,4.9c6.9,7.5,13.8,15.1,21.1,22.3c6.6,6.3,14.6,11.1,23.2,14c12.6,4.5,24.8,3.9,36.2-3.5
					c3.7-2.4,11.5-6.9,11.8-6.6l-5.9,5.3c0.1,2.7-0.2,5.5,0.6,8c0.9,3-0.1,5-2.3,6.7c-3.8,2.9-7.4,6.1-11.5,8.5
					c-3.8,2.1-8.2,2.9-12.5,2.3c-12.5-1.1-24.2-6.8-33-15.8C288,333.1,283.4,328,278.9,323.2z M221.3,279.3c0.6-1.9,1-3.1,1.2-4.3
					c1.4-7.5,1.4-15.3,0.2-22.8c-1.3-7.4-3-14.7-6.8-21.3c-1.1-2.2-3.2-3.6-5.6-3.9c-6.6-0.9-10.4,2.2-10.9,8.8
					c-0.1,1-0.1,1.9,0,2.9c0.2,13.3,5.7,24.4,14.2,34.1C215.7,275.2,218.4,277,221.3,279.3z"/>
				<path class="st6" d="M393,230.7c1.1,4.6,3.1,9.9,4.2,14.6c2.3,10,6.4,19.4,12.1,28c10.2,15.5,11.4,32.6,6.9,50.1
					c-2.3,9-8.6,15.5-15.4,21.5c-0.4,0.2-0.9,0.4-1.3,0.4c-0.1,0-0.3-0.1-0.6-0.3c-1-1.4,0.1-2.6,0.8-3.8c4.8-8.6,3.6-18.1-3.5-24.9
					c-2.6-2.5-5.8-4.6-8.2-7.3c-2.9-3.2-5.2-6.8-7.7-10.3c-0.8-1.1-1.6-2.2-2.8-3.8C385.8,274.9,391.4,256.7,393,230.7z"/>
				<path class="st7" d="M413.7,444.7c1.5,2.2,2.9,4.4,4.2,6.7c4.9,10.3,6.5,21.9,4.6,33.2c-2.1,14-8.8,26.9-19,36.8
					c-2,1.7-4.1,3.4-6.2,4.9c-8.4-12.2-11.5-24.8-9.2-38.6C390.6,472.5,399.5,459,413.7,444.7z"/>
				<path class="st7" d="M393.4,550.6c-15.3,6.5-31.5-4.7-37.4-19.5c-1.2-3-2.1-6.5,0.2-9.1c2.4-2.8,6.1-2.3,9.5-1.6
					c4.7,0.9,9.1,3,12.9,6.1c6.2,5.1,11.1,11.7,14,19.1c0.4,1.2,0.8,2.4,1.1,3.7C393.6,549.7,393.5,550.1,393.4,550.6z"/>
				<path class="st6" d="M201.6,421.9c-0.1-0.1-0.2-0.1-0.3-0.2l-1.2-0.8l-0.6-0.4c-0.1-0.1-0.4-0.4-0.5-0.4
					c2.5-0.1,4.9,1.2,6.9,2.6c0.9,0.6,1.7,1.2,2.5,1.8c1.6,1.2,3.1,2.4,4.6,3.7c0.7,0.5,1.3,1.1,1.8,1.9c0.3,0.5,0.6,0.9,1,1.3
					c1.4,1.6,2.8,3.2,4.1,4.8c5.2,6.3,9.2,13.5,12.1,21.2c2.8,7.8,4,16.1,3.6,24.4c-0.4,8.2-3,15.3-9.3,20.8
					c-0.7,0.6-1.6,1.1-2.4,1.7c7.2,6.2,14.1,11.8,20.6,17.7s13.6,11.3,19.2,18.3c-4.8-1.7-7.8-5.7-11.6-8.7s-7.1-6.2-10.9-9
					c9.1,13.4,19.7,25.6,28.7,39l-0.8,0.7c-1-0.9-1.9-1.8-2.8-2.8c-8-10.3-16-20.8-24.1-31.1c-4.6-5.8-9.3-11.4-14.2-16.9
					c-2.3-2.4-4.8-4.6-7.4-6.7c1.6-1.5,3.3-2.9,4.9-4.4c5.1-4.7,7.4-10.7,7.8-17.5c1-15.1-3.4-28.7-11.9-41.1
					c-0.1-0.1-0.2-0.3-0.3-0.4c-1.8-2.4-3.5-4.8-5.4-7.1c-0.5-0.6-1-0.9-1.5-1.5c-0.7-0.7-1.4-1.4-2.1-2c-1.4-1.3-2.8-2.6-4.3-3.8
					c-1.5-1.2-3-2.4-4.5-3.6C203,423,202.3,422.4,201.6,421.9z"/>
				<path class="st6" d="M269.3,378.7c0.7-0.3,1.5-0.6,2.3-0.8c0.9-0.1,1.8-0.2,3.5-0.3c-2.1,3.7,0.1,5.6,2.3,7.5
					c11.2,9.9,24.5,15.6,39.1,17.7c8,1.2,16.1,2.3,24.3,1.1c14.1-2.1,26.4-8,38.2-16.3l-2-3.1c0.5-0.3,1.1-0.5,1.6-0.7
					c1.4-0.1,2.8,0,4.5,0c0,2.4-1.5,3.4-2.8,4.4c-16.3,12.7-34.2,20.1-55.4,17.7c-13.2-1.5-25.8-4.3-37.3-11
					C280.5,390.9,274.2,386,269.3,378.7z"/>
				<path class="st6" d="M430.2,425.8l10,21.8l0.8-0.3l-1.8-7.9c5.3,7.5,5,16.8,8,25.6c5.4-4.5,8.7-9.8,12.4-14.6l0.9,0.5
					c-0.4,1.2-0.6,2.5-1.3,3.5c-2.7,3.5-5.5,7.1-8.6,10.3c-1.9,2-2.2,3.7-1.4,6.4c3.2,10.5,6.1,21.1,8.9,31.8c0.5,2,0.4,4.2-0.3,6.2
					c-0.3-0.5-0.5-1-0.7-1.6c-5.6-24.8-13.8-48.9-24.5-71.9c-1.4-3-2.4-6.1-3.5-9.2L430.2,425.8z"/>
				<path class="st6" d="M387.5,398c-1.8,4.5-5.2,7.8-9,10.8c-10.3,8.1-22.1,12.5-34.9,14.9c-15.3,3-31.2,0.6-45-6.8
					c-7.5-3.9-14.5-8.6-21.6-13.1c-1.9-1.2-3.3-3.1-4.9-4.7l0.7-0.9c1.1,0.8,2.3,1.4,3.3,2.3c8.3,6.7,17.5,12.3,27.4,16.5
					c16,7.1,32.3,7.6,49.1,2.8c13-3.8,24.3-10.2,33.5-20.3C386.5,398.9,387,398.5,387.5,398z"/>
				<path class="st8" d="M200.4,212.8c-3.7-6.6-6.1-13.9-7.1-21.4c-1.2-7.5-1.3-15.2-0.5-22.7c1.7-15.2,7-29.9,15.4-42.7
					c2.1-3.2,4.4-6.3,6.8-9.2c1.2-1.5,2.5-2.9,3.8-4.3s2.6-2.8,4.1-4c5.5-5.3,11.6-9.9,18.1-13.8c6.5-3.9,13.4-7.1,20.6-9.5
					c7.1-2.4,14.5-4.1,22-4.9l0.2,1c-14.3,3.5-28,9.3-40.4,17.3c-6.1,4-11.8,8.5-17,13.6c-1.3,1.3-2.5,2.6-3.8,3.9s-2.4,2.7-3.6,4.1
					c-2.3,2.8-4.5,5.7-6.5,8.7l-1.5,2.3l-1.4,2.4c-0.9,1.5-1.8,3.2-2.6,4.8s-1.6,3.3-2.4,4.9s-1.4,3.4-2.1,5c-4,10.2-6.2,21-6.6,32
					c0,1.8,0,3.7,0,5.5c0.1,1.8,0.1,3.6,0.3,5.5c0.6,7.3,2.3,14.5,5.2,21.3L200.4,212.8z"/>
				<path class="st6" d="M264.1,195.4c0.4-1.8,0.9-3.7,1.5-5.5c2-5.3,5.6-9.8,10.3-12.9c6.6-4.3,13.4-8.1,21.5-8.4
					c7.6-0.2,11.3,4.5,9.6,12c-0.5,2.2-1.6,3.4-3.9,3.4s-4.8-0.1-7.2-0.3c-10.8-1.2-20,2.4-28.3,9.2
					C266.9,193.6,266,194.1,264.1,195.4z"/>
				<path class="st6" d="M381.2,183.5c-4.6-5.9-10.5-5.9-16.6-4.9c-3.4,0.6-6.7,2-10.1,2.9c-4.5,1.3-6.7,0-7.5-4.6
					c-1.4-7.6,2.7-12.9,10.6-13c9.6-0.1,16.8,4.4,21.5,12.6C380.3,178.5,382.2,180.3,381.2,183.5z"/>
				<path class="st6" d="M282.5,210.7c0.6-4.6,3.1-8.8,6.8-11.6c5.6-4.3,12.4-2.9,15.7,3.3c1.1,2.1,2.5,4.3,1.4,7.1
					c-0.7-1.6-1.4-3.3-2.2-5c-3.5-7.5-10.4-8.7-15.9-2.5C286,204.6,284.4,207.8,282.5,210.7z"/>
				<path class="st6" d="M355.3,202.7c0.9-4.7,3.6-7.5,8-7.7c4.2-0.2,7.2,2.2,9.2,5.8c1.1,2,1.8,4.2,2.7,6.3l-1,0.5
					c-0.6-1-1.2-2-1.8-3c-0.7-1.4-1.4-2.9-2.2-4.2c-3.7-5.3-8.9-5.4-13-0.4C356.5,200.9,355.9,201.8,355.3,202.7z"/>
				<path class="st8" d="M358.8,245c-0.1,3.6-1.3,7-3.5,9.9c-0.2,0.3-0.5,0.6-0.8,0.9c-0.3,0.2-0.8,0.2-1.1-0.1
					c-0.1-0.1-0.2-0.2-0.3-0.3c-0.2-0.1-0.3-0.2-0.5-0.4c-0.4-0.5-0.4-1.3-0.1-1.8c0.1-0.3,0.3-0.6,0.5-0.9
					c2.8-5.9,1.9-11.2-1.4-16.7c-4.2-6.8-7-14.3-9.9-21.7c-2.3-5.9-4.4-11.9-6.6-17.9c-0.3-0.9-0.6-1.8-0.9-2.7
					c-0.2-0.8,0.2-1.6,0.9-2c0.8-0.5,1.9-0.4,2.6,0.3c0.6,0.7,1,1.6,1.2,2.6c3.4,8.9,6.7,17.9,10.2,26.8c0.9,2.3,1.9,4.6,3,6.8
					c0.5,1.1,1.1,2.3,1.7,3.4c0.1,0.1,0.2,0.3,0.3,0.4c0.2,0.4,0.4,0.8,0.5,1.2c0.2,0.4,0.4,0.9,0.6,1.3c0.8,1.7,1.6,3.3,2.3,5.1
					c0.7,1.7,1.1,3.5,1.3,5.3c0,0.2,0,0.4,0,0.6C358.8,244.8,358.8,244.9,358.8,245z"/>
				<path class="st9" d="M323.2,252.5c0,1.1-0.9,2-2,2c-0.1,0-0.2,0-0.3,0c-1.2-0.1-2.1-1-2.1-2.2c0-1,0.8-1.9,1.8-1.9
					c0.2,0,0.3,0,0.5,0C322.2,250.4,323.1,251.3,323.2,252.5z"/>
				<path class="st6" d="M319.2,249.6c-0.8,2.6-1.4,5.3-1.8,8c-0.2,2.4,1.2,4.2,3.3,5.4s3.9,1,5.5-0.9c0.5-0.6,0.9-1.3,1.4-2
					c2.8-3.7,5.4-3.5,7.5,0.7c0.3,0.9,0.6,1.8,0.7,2.7c-0.4,0.5-0.7,0.9-1.1,1.1c-0.8,0.4-12.9,1.2-13.7,0.9c-3.2-0.9-5.4-3.7-5.7-7
					c-0.4-3.4-0.2-6.7,3.1-8.9C318.5,249.4,318.9,249.6,319.2,249.6z"/>
				<path class="st6" d="M353.5,262.7c1-2.8,3.1-4.4,6.2-5.5l2.7,3.8c3.2-1.3,2.8-4.8,4.7-7.6c0.4,1.1,1,2,0.8,2.5
					c-0.8,2.1-1.7,4-2.9,5.9c-0.5,0.8-2,1.8-2.7,1.6c-2.7-0.9-5.2,0.6-7.8,0.1C354.2,263.5,354,263.1,353.5,262.7z"/>
				<path class="st6" d="M348.3,218.8c-4.8-7.9-8.1-16.7-9.8-25.8C342.6,201.2,345.6,210.2,348.3,218.8z"/>
				<path class="st6" d="M356.1,236.3c6.3,4.6,5,14.4-2.5,20.4c1.5-3.5,3.8-6.7,4.2-10S356.8,239.7,356.1,236.3z"/>
				<path class="st6" d="M303.2,211.1c0,0.6,0,1.2-0.1,1.8c-0.1,0.9-0.3,1.9-0.5,2.8c-0.2,0.9-0.5,1.8-0.8,2.7
					c-1.8,4-6.6,5.7-10.5,3.8c-0.1-0.1-0.2-0.1-0.4-0.2c-3.8-2.3-5-6.1-4.8-10.3s1.3-8.3,5.8-10.1c4.3-1.8,7.4-1,9.7,3.1
					c0.7,1.2,1.2,2.5,1.4,3.9c0.1,0.5,0.2,0.9,0.2,1.4C303.2,210.3,303.2,210.7,303.2,211.1z"/>
				<circle class="st8" cx="298.9" cy="206.6" r="2"/>
				<path class="st6" d="M369,202.1c0.2,0.2,0.3,0.5,0.5,0.7s0.2,0.4,0.4,0.6s0.2,0.2,0.3,0.4c0.3,0.4,0.5,0.8,0.7,1.3
					c0.4,0.8,0.7,1.6,1,2.5c0.5,1.6,0.6,3.2,0.4,4.9c-0.2,1.5-0.8,3-1.7,4.3c-0.4,0.5-0.8,0.9-1.2,1.4c-2.6,2.8-7.1,3-9.9,0.3
					c-0.2-0.2-0.4-0.4-0.6-0.7c-3.4-3.7-3.9-11.5-1-15.7c0.9-1.5,2.3-2.7,4-3.3c1.7-0.3,3.5,0.2,4.8,1.3c0.5,0.3,0.9,0.6,1.3,1
					c0.1,0.1,0.2,0.2,0.3,0.2c0.2,0.1,0.3,0.2,0.4,0.4L369,202.1z"/>
				<circle class="st8" cx="366.2" cy="204.1" r="2"/>
				<path class="st10" d="M346.3,297.6c1.1-0.6,2.2-1.2,3.4-1.6c0.6-0.3,1.3-0.2,1.7,0.2c0.5,0.6,0.8,1.4,0.8,2.2
					c0,1.3-0.3,2.6-0.8,3.7c-1.6,4.2-4.8,7.6-8.9,9.5c-0.6,0.3-1.1,0.5-1.7,0.7c-2.2,0.9-4.6,1.5-7,1.7c-1.2,0.1-2.3,0.2-3.5,0.1
					c-1.1,0-2.3-0.1-3.4-0.3c-1.1-0.2-2.2-0.4-3.3-0.8c-1.1-0.3-2.1-0.7-3.2-1.2c-1-0.5-2-1-3-1.6c-0.5-0.3-0.9-0.7-1.4-1
					s-1.2-0.7-1.7-1.1c-0.9-0.6-1.8-1.3-2.6-2s-1.6-1.3-2.4-2.1s-1.5-1.5-2.2-2.4s-1.4-1.7-2-2.6s-1.3-1.8-1.8-2.7s-1.1-1.9-1.6-2.9
					s-0.9-2-1.3-3s-0.8-2-1.1-3.1c-0.2-0.5-0.3-1-0.4-1.6c-0.1-0.3-0.1-0.5-0.2-0.8c0-0.1,0-0.2,0-0.3c0-0.3,0.3-1.3,0.9-1.1
					c0.3,0.1,0.5,0.5,0.7,0.7c0.4,0.5,0.9,1.1,1.2,1.7c6.2,9.1,15.9,16.1,26.8,17.3c2.5,0.3,5,0.2,7.5-0.4c1.7-0.5,3.3-1.1,4.8-2
					c1.5-0.8,3-1.8,4.5-2.7L346.3,297.6z"/>
				<path class="st11" d="M312.7,296c-2.6-2-5.6-3.5-7.8-6.1c-0.8-1-1.8-1.8-1.8-3.2c5.8-3.7,12.6-5.4,19.5-4.8
					c5.9,0.4,11.4,3.1,15.4,7.5c0.4,0.4,0.7,0.8,1,1.3c0.1,0.2,0.2,0.3,0.3,0.5c0.1,0.1,0.2,0.2,0.2,0.4c0.1,0.4,0,0.8-0.3,1.2
					c-0.3,0.4-0.6,0.6-1,0.9c-4,2.4-8.6,3.3-13.1,4.1c-1.7,0.3-3.4,0.6-5.1,0.7c-1.3,0.1-2.6-0.1-3.9-0.4c-0.3-0.1-0.6-0.2-0.9-0.3
					c-0.1,0-0.2,0-0.3-0.1c-0.1,0-0.2-0.1-0.4-0.1c-0.5-0.3-1-0.6-1.4-1C312.9,296.2,312.8,296.1,312.7,296z"/>
				<path class="st12" d="M345.3,298.3c-3.3,2.4-7.2,4-11.3,4.5c-4.1,0.5-8.2,0.2-12.2-0.7l-0.5-0.1c-1.1-0.2-2.1-0.6-3-1.2
					c-0.4-0.3-0.8-0.6-1.2-1c-0.2-0.2-0.3-0.4-0.4-0.6c0-0.1,0-0.2,0-0.3c0-0.2,0-0.4,0-0.6c0-0.2,0.2-0.3,0.4-0.3
					c0.2,0,0.3,0,0.5,0.1l0.1,0c0.2,0,0.4,0,0.7,0c0.7,0,1.3,0,2-0.1c1.3-0.1,2.6-0.2,4-0.3s2.6-0.3,3.9-0.5s2.6-0.5,3.8-0.8
					c1.2-0.3,2.4-0.7,3.6-1.2c1.3-0.6,2.6-1.1,4-1.5c1.3-0.4,2.6-0.5,3.9-0.2c0.2,0.1,0.4,0.2,0.5,0.3c0.1,0.1,0.3,0.2,0.4,0.3
					c0.2,0.2,0.3,0.3,0.5,0.5l0.3,0.2c0.2,0.1,0.3,0.3,0.5,0.4c0.2,0.2,0.4,0.5,0.6,0.7c0.1,0.2,0.2,0.3,0.2,0.5
					c0,0.6-0.2,1.1-0.7,1.5L345.3,298.3z"/>
				<path class="st13" d="M345,306.8c-1.1-1.4-0.7-2.7-0.5-3.9c0.1-0.8,0.5-1.5,1.5-1.2c0.6,0.2,1.1,0.8,1,1.5
					C347.2,304.7,346.4,306.1,345,306.8z"/>
				<path class="st14" d="M339.3,308.3c-0.6-0.2-0.8-0.9-0.6-1.4c0,0,0,0,0-0.1c0.2-0.4,0.6-0.8,1-0.6c0.5,0.2,0.8,0.7,0.7,1.2
					c0,0.1-0.1,0.1-0.1,0.2C340.2,308.2,339.7,308.4,339.3,308.3z"/>
				<path class="st15" d="M317.6,298.1l-0.9,0.9l-2-0.9c-0.3-0.2-0.4-0.5-0.3-0.7s0.2-0.4,0.3-0.4
					C315.7,297.2,316.8,297.2,317.6,298.1z"/>
				<path class="st16" d="M314.6,297l0.1,1.1c-1-0.2-1.8-1.1-2-2.1C313.4,296.2,314.2,296.2,314.6,297z"/>
				<path class="st6" d="M355.4,281.8c-2,0.8-3.2,1.5-3.8,3.6c-1.1,3.6-2.4,6.9,0.5,10.4c1.3,1.5,1.5,3.9-0.7,5.8l-1.2-5.1
					c-8.4,6.7-17.5,8.8-27.6,6.6s-16.4-9.2-22.5-16.8c2.2,8.4,7.2,15.8,14.2,21c3.4,2.6,7.3,4.5,11.5,5.5c2.1,0.5,4.2,0.7,6.4,0.7
					c1.1,0,2.2-0.1,3.3-0.2c1.1-0.1,2.3-0.3,3.4-0.6c0.3-0.1,0.6,0,0.9-0.1c1.1-0.3,2.2-0.7,3.3-1.2c-0.7,0.6-1.5,1-2.3,1.4
					c-0.4,0.1-0.7,0.3-1.1,0.4c-0.3,0.1-0.7,0.2-1,0.4c-0.2,0.1-0.4,0.3-0.6,0.4c-0.4,0.1-0.7,0.2-1.1,0.3c-0.8,0.2-1.6,0.4-2.5,0.5
					c-7.7,0.7-15.4-1.5-21.5-6.3c-6.2-4.6-10.9-11-13.5-18.2c-0.3-1-0.8-2-1.4-2.8c-0.3-0.3-0.6-0.5-0.9-0.7
					c-0.1-0.1-0.1-0.1-0.2-0.1c-0.6-0.1-1.2-0.1-1.9-0.1c-0.1,0-0.2,0-0.3-0.1c-0.1-0.1-0.1-0.2,0-0.3c0.2-1.8,1-3.5,2.3-4.9
					c1.2-1.4,2.6-2.5,4.2-3.5c-0.2,0.5-0.3,1.1-0.5,1.7c0,0.2-0.1,0.3-0.1,0.5c0,0.1,0,0.3,0.2,0.4c0.2,0.1,0.4,0,0.6,0l0.8-0.1
					l3.1-0.5c2.1-0.3,4.2-0.6,6.3-0.9s4.2-0.5,6.3-0.8s4.2-0.5,6.3-0.7l1.4-0.1c0.4,0,0.8-0.1,1.2-0.1c8.8-0.5,17.6,0.7,25.9,3.5
					C353.6,280.7,354.6,281.2,355.4,281.8z M338.9,292c-4.4-8.8-23.5-12.7-35.2-5.2C310.1,300.1,328.4,299.5,338.9,292z
					 M318.2,299.3c7.5,4.6,20.1,3.8,26.8-1.6l-3.8-4.1C334,297.7,326.4,298.9,318.2,299.3L318.2,299.3z"/>
			</g>
		</g>
	</g>
</g>
</svg>
