<?xml version="1.0" encoding="utf-8"?>
<!-- Generator: Adobe Illustrator 25.2.0, SVG Export Plug-In . SVG Version: 6.00 Build 0)  -->
<svg version="1.1" id="Capa_1" xmlns="http://www.w3.org/2000/svg" xmlns:xlink="http://www.w3.org/1999/xlink" x="0px" y="0px"
	 viewBox="0 0 541.2 551.7" style="enable-background:new 0 0 541.2 551.7;" xml:space="preserve">
<style type="text/css">
	.st0{clip-path:url(#SVGID_2_);}
	.st1{fill:#B68969;}
	.st2{fill:#C96119;}
	.st3{fill:#FFDC80;}
	.st4{fill:#C2926C;}
	.st5{fill:#C2976D;}
	.st6{fill:#C3986D;}
	.st7{fill:#C18C6A;}
	.st8{fill:#D1AA66;}
	.st9{fill:#262A58;}
	.st10{fill:#FDDA80;}
	.st11{fill:#855839;}
	.st12{fill:#F0CC78;}
</style>
<g id="ILUSTRACIONES_2">
	<g>
		<defs>
			<rect id="SVGID_1_" width="541.2" height="551.7"/>
		</defs>
		<clipPath id="SVGID_2_">
			<use xlink:href="#SVGID_1_"  style="overflow:visible;"/>
		</clipPath>
		<g class="st0">
			<path class="st1" d="M116.4,557.8l1.4-0.2c-0.2-1.2-0.3-2.5-0.3-3.8c0-1.1,0-2.2-0.1-3.3c-0.2-2.5-0.4-5.1-0.5-7.6
				c-0.5-7.6-3.5-12.9-9.6-16.5c-6.4-3.8-10.9-8.1-10.3-16.4c0.3-3.5-1-7.5-5.8-8c-3.8-0.2-6.3,2-8.6,4.5c-1.7,1.8-3.2,3.6-5.7,4.2
				c-5.6,1.3-10.8,4-16.1,6c-2.1,0.9-4.3,1.3-6.5,1.3c-8.1-0.5-16.2,0.3-24.3,1.1c-1.6,0-3.2,0.6-4.4,1.7c-2.1,2.2-4.2,4.9-3.8,8
				c0.5,3.3,4,2.3,6.3,3.1c2.6,0.8,6.7,0.8,6.1,4.6s-4.5,3-7.2,2.6c-3.7-0.8-7.5,0.5-9.9,3.4c-2.3,2.6-4.3,5.4-6.1,8.4
				c-0.5,0.8-0.9,1.5-1.3,2.3c-0.1,0.3-0.3,0.6-0.5,0.8c-0.2,0.2-0.4,0.2-0.5,0.4c-0.4,0.8-0.3,1.9,0.4,2.6c1,0.7,2.2,1.1,3.4,1.1
				C47.1,561.1,81.9,561.5,116.4,557.8z"/>
			<path class="st1" d="M420.6,531.8c-9.8-0.8-19.7-2.5-29.4,1c-3,1.1-5.5-0.3-6.2-3.5c-0.6-2.8-2.2-4.9-3.6-7.2
				c-6.2-9.8-14.6-18.3-17.9-29.8c-0.5-1.3-1.3-2.6-2.3-3.7c-2.4-3.4-5.4-5.2-9.8-4.4c-3.1,0.6-6.6,1.1-9.1-1.4
				c-3.1-3-6.4-2.6-10.2-1.9c-10.3,1.6-20.6,4.1-31,4.3c-0.4-1,0.1-2.2,1-2.8c7.7-6.2,16.8-10.3,24.2-17.1c4.3-3.9,10-6.7,14.2-11.1
				l3.1-3.1c2-2,3.9-4,5.9-5.9l5.9-5.9l5.9-5.9l5.9-5.9l5.9-5.9l5.9-5.9l5.9-5.8c2-2,3.9-4,5.9-6l1.5-1.5c0.4-0.4,0.7-0.8,0.8-1.3
				c0.2-1-0.1-2.1-0.8-2.8c-1-0.9-2.1-1.5-3.3-1.9c-4.1-1.7-7.8-4-11.1-7c-0.2-0.2-0.4-0.4-0.6-0.5c-0.5-0.3-0.9-0.7-1.3-1.1
				c-0.6-0.5-1.1-1-1.7-1.6c-2.3-2.2-4.6-4.5-6.7-6.9c-4.3-4.7-8.3-9.7-12.4-14.6c-1-1.1-1.5-2.5-1.5-3.9c0.1-6.2-0.7-12.4-0.7-18.7
				c0-10.1,0.7-20.1,0.7-30.2c0.1-10.5-0.1-21.1,0.4-31.7c0.9-19.3,3-38.6,6.3-57.6c1.2-6.6,1-6.6,7.5-7.8c5.4-1,10.7-2.6,14.3-7.1
				c3.1-3.9,5.8-8,8.1-12.4c5.4-10.5,7.9-21.9,10.2-33.3c0.5-3,0-6.1-1.4-8.9c-1.7-3.6-3.6-4.4-7.3-2.9c-1,0.4-2.1,0.9-3.1,1.4
				c-0.8,0.3-1.6,0.7-2.3,1.3c-0.7,0.8-1.6,2.4-2.3,0.7c-0.5-1.4-1-2.8-1.2-4.3c-0.6-2.9-0.9-5.9-1-8.8c-0.8-12.7-0.3-25.5-2.6-38
				s-7.6-25.1-17.6-32.8c-3.6-2.6-7.5-4.8-11.6-6.6c-4.3-2-8.8-3.7-13.3-5.2c-1.9-0.7-3.8-1.3-5.8-1.8c-1.7-0.5-3.6-1.3-5.4-1.3
				c-0.6,0.1-1.3,0.1-1.9,0c-4.9-0.8-9.8-1.2-14.7-1.4c-10-0.1-20,1-29.8,3.2c-9.5,2.1-19.1,5-26.9,10.7c-3.7,2.8-7.1,6-10.1,9.7
				c-2.3,2.8-4.4,5.7-6.4,8.7c-1,1.5-2,3-3,4.6c-0.3,0.5-1.3,1.6-1.2,2.2s0.8,1.1,1,1.6c0.6,1.7-0.3,3.5-0.9,5
				c-3,8.1-5.8,16.3-9.3,24.2c-2.3,5.4-3.5,11.3-3.5,17.2c-0.1,8.7,0.5,17.6-2.3,26.1c-2.4,7-4.1,14.1-6.3,21.1
				c-1.1,2.9-1.6,5.9-1.6,8.9c0.9,17.7,1.4,35.4,1.9,53.2c0.2,8.2-0.2,16.7,3.1,24.5c1.9,2,4.4,3.2,6.9,4.2
				c5.7,2.6,11.5,4.7,17.5,6.2c4.2,1,7.2,2.9,9,6.8c1.2,1,2.2,2.3,2.9,3.8c4.6,10.2,9.8,20.1,12.8,31c0.9,3.4,2.4,6.7,2,10.3
				c-1,8.7-2.7,17.4-4.8,25.9c-0.4,2.1-1.8,3.8-3.8,4.6c-15.3,6.9-30.4,14.1-45.2,22c-2.1,1.1-4.6,1.4-6.9,0.8c-0.5,0-1,0.2-1.4,0.5
				c-1.7,1.4-2.3,3.4-3,5.3c-3.7,9.5-7,19.2-10.8,28.7c-1.9,4.8-4,9.4-4.7,14.5c-1.4,10.8-2.6,21.5-2.3,32.4
				c0.3,11,3.8,21.2,12.4,28c11.3,9,24.8,13.9,39.3,12c15.2-2.1,29.9-6.5,43.3-14.4c1.5-1.2,2.5-2.9,3.7-4.4
				c1.4-1.8,3.2-4.1,5.4-2.5c1.9,1.3-0.2,3.4-1,5.1c-5.1,10.9-12.3,20.6-17.9,31.2l-0.2,0.4c-2.5,4.7-5.2,9.3-8.1,13.8
				c-1.4,2.2-2.9,4.4-4.4,6.6c-0.8,1.1-1.5,2.2-2.3,3.2c-0.6,0.8-1.4,1.5-2,2.3c-0.7,1.1-1.7,2.1-2.8,2.8c-0.6,0.3-1.2,0.7-1.8,1
				c-1.2,0.8-2.3,1.6-3.4,2.5c-1.1,0.7-1.9,1.8-2.4,3c-0.5,1.3,0.1,2.7,1.3,3.3c0.6,0.1,1.1,0.2,1.7,0.1c1.4-0.2,2.8-0.3,4.1-0.4
				c0.9-0.1,1.8,0.2,2.8,0.2c2.8-0.1,5.6-0.3,8.5-0.5c5.6-0.3,11.3-0.6,16.9-0.8c11.3-0.4,22.6-0.7,33.9-0.8
				c11.3-0.1,22.6-0.2,33.9-0.1s22.6,0.2,33.9,0.3c3,0,6,0.1,9,0.1c5.2,0.1,10.4,0.2,15.5-0.2c3.9-0.2,8.4-0.3,11.3-3.4
				c0.9-1.1,1.6-2.4,2.1-3.7c3.9-7,7.6-14.2,11.3-21.3C425.3,531.7,422.6,532,420.6,531.8z"/>
			<path class="st2" d="M425.8,534.8c-1.1-1.2-2.7-1.8-4.3-1.8c-8.4,0-16.8-2.6-25.2-0.2c-1.7,0.5-3.4,0.9-5,1.4
				c-3.7,1-7-0.6-7.5-4.4c-0.3-2.6-1.7-4.3-2.9-6.3c-3.5-6.3-8.5-11.5-12.4-17.5c-2.1-3.6-3.8-7.4-5.1-11.3c-1-2.4-2.3-4.6-3.9-6.5
				c-1.7-2.4-4.7-3.5-7.5-2.8c-4.3,0.8-8.9,1.6-12.2-3c-0.9-1.3-2.6-1.4-4.4-0.9c-8.9,2.5-18.2,2.6-27.1,4.9
				c-2.3,0.6-4.9-0.8-7.3,0.7c-0.9,0.5-1.7-0.6-2.2-1.4c-0.4-0.7-0.3-1.6,0.4-2.2c0.8-1,1.7-1.9,2.8-2.6c3.7-2.1,7.5-4.1,10.4-7.6
				c0.8-0.9,2-0.8,3.1-1c2.8-0.4,5.1-1.5,6-4.6c0.5-1.9,2-3.4,4-3.9c5-1.3,8.6-4.7,12.1-8.2c13-12.9,25.8-25.8,38.7-38.7
				c2.2-2.3,4.6-4.4,7.2-6.3c3.1-2.2,5.2-5.6,7.6-8.5c3.1-3.8,7-6.9,10.2-10.6c5.4,1.5,10.3,4.4,14.3,8.3c2.5,2.5,5.7,4.1,9.1,4.9
				c11.8,2.5,20.2,9.7,27.6,19.2c5.7,7.3,7.6,14.8,7.4,23.8c-0.2,16.9-2.5,33.7-7,50.1c-2.9,10.3-5,20.8-8.4,30.9
				c-0.6,2-1.4,3.9-2.4,5.7c-1.3,2.3-3.6,3.3-5.7,1.9C432.6,534.1,429.2,534.9,425.8,534.8z"/>
			<path class="st3" d="M91.1,503c-3.5,0.1-6.1,2.1-7.9,4.7c-2,2.7-5,4.5-8.4,4.9c-4.3,0.8-8,3.1-12,4.7c-3.7,1.5-7.6,2.1-11.6,1.8
				c-5.2-0.3-10.4,0.4-15.7,0.7c-0.9,0.2-1.9,0.3-2.8,0.4c-5.4-1-7.9,2.1-9.5,6.5c-0.2,0.6-0.5,1.2-0.7,1.8c0,0.4,0,0.7,0.1,1.1
				c2.6,0.4,5.2,0.8,7.8,1.3c1.1,0.2,2.2,0.5,3.2,1c2,1.1,3.2,2.8,2.6,5.1c-0.4,2-2.1,3.4-4.1,3.4c-2.1,0.1-4.3,0.4-6.2-0.2
				c-2.4-0.8-4,0-5.7,1.3c-1.3,0.9-2.5,2-3.6,3.2c-1.5,1.7-2.9,3.5-4,5.5c-0.3,0.5-0.6,1-0.8,1.5c-0.2,0.2-0.3,0.5-0.4,0.8
				c0,0.2,0,0.5,0,0.7c-0.2,1-0.9,1.9-1.9,2.4c-1.2,0.5-2.4,0.7-3.7,0.6c-0.4,0-0.8-0.1-1.1-0.3c-0.6-0.5-0.7-1.3-0.2-1.9
				c0,0,0,0,0,0c1.8-2.3,2.7-5.1,2.5-8c-0.3-2.2,2-4.2,2.9-6.4c3-6.9,6.2-13.7,9.4-20.4c1.4-3,3.3-5.6,7.2-5.3
				c1.3,0.1,1.9-0.7,2.2-2c1.5-6.2,6.1-8.5,11.8-9.5c4.4-0.8,8.9-1,13.3-0.9c2.3,0.1,4.2-0.3,5.7-2.5s3.8-2.7,6.4-2
				c2.2,0.6,4.4,1,6.5,1.6c1.8,0.6,2.9,0,4-1.5c5.4-7.3,11-14.5,16.5-21.7c1.6-2.2,3.3-4.3,5.1-6.3c2.4-2.3,4.1-5.3,4.8-8.6
				c2.6-11.6,7.5-22.4,12.3-33.2c1.5-3.4,2.8-6.8,4.2-10.2c1-2.6,2.5-4.4,5.6-4.3c1-0.1,1.9-0.4,2.7-0.9c18.2-9.5,37.7-15.5,57.1-22
				c5-1.7,10.2-2.7,14.9-5.2c1.8-0.9,3.7-0.6,5.6-0.5c0.3,0.4,0.3,0.9,0,1.3c-25.4,12.9-50.9,25.7-76.5,38.3
				c-4.5,2-8.1,5.7-9.9,10.3c-6.1,14.2-12.7,28.2-16.8,43.2c-2.4,8.5-10,13.3-17.3,17.8c-0.9,0.6-2.2,0.5-2.9,2
				c1.4,2.2,4.1,1.9,6.2,2.7C89.4,500.2,92.1,499.9,91.1,503z"/>
			<path class="st3" d="M231.1,92.4c4,0,4.4,0.4,3.3,3.8c-3.2,9.3-6.7,18.6-10.6,27.7c-2.3,4.9-3.4,10.3-3.2,15.8
				c0.2,3.8-1,7.8-0.5,11.4c0.9,7.3-1.5,13.8-3.3,20.5c-2,7-4,14.1-6.1,21.1c-0.5,1.4-0.7,2.8-0.4,4.2c1.2,5.2,0.7,10.5,0.8,15.7
				c0.2,13.4,1.2,26.8,1.1,40.1c0,7.3,1.1,14.6,1.7,21.9c-2.8-1.3-3.6-3.8-3.8-6.7c-0.9-13-2-26.1-3.7-39
				c-1.3-10.1-2.1-20.3-3.2-30.4c-0.1-1.3-0.5-2.5-0.7-3.8c-0.4-1.9-0.3-3.8,0.4-5.6c4-10.1,6.6-20.7,12.1-30.2
				c0.6-1.3,0.9-2.7,0.7-4.2c0-6.6,0.1-13.1,0.2-19.7c0-1.4,0.2-2.9,0.6-4.2c2.8-11.2,7-22,12.3-32.2
				C229.9,96.7,231.4,94.9,231.1,92.4z"/>
			<path class="st3" d="M247.2,291.9c2.1,0,3.3,1.3,4,2.9c4.7,11.3,10.4,22.1,13.7,34.1c1.8,6.5,0.7,12.6-0.4,18.8
				c-1,5.6-2.5,11.2-3.6,16.8c-0.3,1.7-1.5,3.2-3.2,3.8c-11.1,5.1-22.3,10.2-33.4,15.5c-5.2,2.5-10.2,5.2-15.2,8
				c-2.1,1.1-3.6,0.9-4.9-0.9c-0.5-0.5-0.6-1.2-0.4-1.8c0.2-0.4,0.5-0.7,0.8-1c2.2-1.7,4.7-3,7.3-3.9c1.9,0,3.8-0.4,5.5-1.3
				c10.7-6.4,21.8-11.9,33.3-16.6c3.2-1.3,4.8-3.3,5.1-6.6c1.2-10.8,2.5-21.5,3.8-32.2c0.3-2.5-0.1-5.1-1.1-7.5
				c-3.4-7.7-6.6-15.5-9.9-23.3C248.1,294.9,247.2,293.5,247.2,291.9z"/>
			<path class="st4" d="M211.9,384c-2.4,2-4.7,3.9-7.7,4.9c-1.3-1.7,0-2.8,0.9-4.1c0-0.3,0.1-0.5,0.1-0.8
				C207.4,383.7,209.7,383.7,211.9,384z"/>
			<path class="st2" d="M205.1,384.8c-0.3,1.4-0.6,2.7-0.9,4.1v-0.1c-0.7,0.5-0.4,1.4-1,1.9c-2.7,5.1-4.4,10.6-6.4,16
				c-3.1,8.4-6.2,16.8-9.6,25c-2.1,5-2.5,10.6-2.9,15.9c-0.4,5.5-1.2,11.1-1.3,16.7c-0.1,6.7,0.7,13.4,2.1,19.9
				c0.3,1.1,0.7,2.1,1.2,3.1c0.2,0.4,0.6,0.7,0.8,1.2c6.6,13.5,19.2,17.8,32.4,21.3c8.5,2.2,16.8,0.8,25-1.6
				c10.9-3.1,21.8-6,31.7-11.9c0,5.7-4,9.2-7.2,13.2c-6.6,4.2-9.5,11.2-13.3,17.5c-5.4,6.8-9.6,14.5-14,21.9
				c-1.2,1.7-2.1,3.6-2.9,5.6c-0.3,1.4-1,2.7-1.9,3.8c-3.2,3.4-8.2,5.4-12.6,6.5c-5.7,1.4-11.6,1.6-17.4,1.7
				c-29.4,0.7-59.1,1.2-87.8-5.3c-1-0.2-2.6-0.9-2.7-2.1c0-0.3,0.2-0.5,0.2-0.7c0.1-0.9,0.1-1.9,0-2.8c-0.1-3.7-0.6-7.4-1.4-11
				c-0.2-0.9-0.3-1.9-0.2-2.8c0.6-4.8-1.3-8.3-4.9-11.3c-2.4-2.1-4.9-4-7.7-5.6c-1.6-1-3.2-2.1-4.6-3.4c-1.7-1.1-2.5-3.1-2-5.1
				c0.8-3.3-0.3-6.2-0.8-9.3c-0.4-2.5-1.8-3.5-4.1-3.9c-0.4-2.8-3.1-2.2-4.6-2.4c-2.8-0.3-5.4-1.7-7.2-3.8c0.2-1,1-1.8,2-2.1
				c7.9-2.1,12.8-8.1,17.8-13.9c2.7-3.2,2.9-7.7,4-11.7c2.1-8.1,5.5-15.6,9-23.2c2.4-5.4,5.1-10.6,7.1-16.2c0.8-2.3,2.5-4.1,4.7-5.1
				c25.6-12.7,51.2-25.5,76.7-38.3C202,385.6,203.5,385,205.1,384.8z"/>
			<path class="st3" d="M268.7,508.8c2.8-4,5.6-8,7.6-12.5c1.1-1.4,2.1-2.8,3-4.3c1.5-3,4.2-3.6,7-4.2c1.6-0.3,2.5,0.6,2.2,2.2
				c-0.3,1.6-0.9,3.1-1.6,4.5c-5.2,10.3-11.3,20-17.2,29.9c-4.5,7.5-8.4,15.4-13.5,22.6c-0.4,0-2.1,3-2.4,3.4
				c-0.6,0.9-1.4,1.8-2.2,2.5c-1.8,1.5-2.7,3.5-3.8,5.5c-0.4,0.9-1.2,1.6-2.2,1.7c-3.2,0.6-6.4,0.7-9.6,0.4c-0.7,0-1.4-0.3-2-0.7
				c-0.4-0.4-0.5-1.1-0.1-1.6c0.2-0.2,0.4-0.2,0.6-0.3c0.5-0.5,1-1,1.3-1.6c4.5-6.4,8.4-13.1,11.9-20c1.9-3.8,5.4-6.3,7.4-9.9
				C259.5,520.4,263.4,514,268.7,508.8z"/>
			<path class="st4" d="M203.3,390.8c-0.1-0.8,0.3-1.6,1-1.9c0,0.6,0,1.3-0.1,1.9H203.3z"/>
			<path class="st5" d="M53.8,510.5c2.3-0.7,4.7-0.7,7,0.1C58.3,513,56.2,509.4,53.8,510.5z"/>
			<path class="st6" d="M41.1,511.3c2.5-0.7,5.2-0.7,7.8-0.1C46.3,511.8,43.6,511.9,41.1,511.3z"/>
			<path class="st7" d="M268.7,508.8c-0.9,3-3,5.2-5,7.5c-2.8,3.4-5.2,7.2-8.7,10c2.5-5.9,6.4-10.9,10.3-15.8
				C266.1,509.4,267.4,508.8,268.7,508.8z"/>
			<polygon class="st8" points="240.1,236.9 240.1,236.6 240.3,236.6 			"/>
			<path class="st9" d="M362.7,133.6c-2.7-2-5-3.6-7.3-5.4c-1.7-1.2-2.8-3.2-2.7-5.3c0-6.1,0-12.1-0.1-18.2
				c-0.1-6.2-0.2-12.5-0.6-18.7c-0.2-1.7-1-3.3-2.1-4.6c-10.9-13.7-24.7-21-42.6-21.2c-15.7,0-31.2,3-45.8,8.8
				c-7.3,2.8-14,7.6-20.6,12.1c-2.4,1.7-3.8,5-5.5,7.7c-2.4,4-3.4,4.2-6.7,0.9c-6.5-6.6-11.2-14.3-15.4-22.5c-1.4-2.7-1-4.8,0.6-6.1
				s3.6-1,6,0.9s3,2.1,7.6,1.9c-1.1-1.7-2-3.1-3-4.5c-5.7-7.8-10-16.4-12.7-25.7c-1.9-6.6,1-10.7,7.8-10.8c6.6-0.1,12.6,2,18.5,4.4
				c5.2,2.1,10.2,4.6,15.6,7c3.6-5.7,7.2-11.8,15.5-9.1c1.1-3.5,1.9-6.8,3.2-9.8s3.6-4.4,7.4-4.8c13.3-1.6,24,3.9,34.1,11.3
				c4.6,3.4,8.9,7.3,13.3,11c1.6,1.3,3.2,2.6,5,4.1c1-2.4,2.2-4.8,3.5-7.2c2.4-3.8,4.1-3.9,8.3-2.5c16.4,5.4,26.6,17.2,33.3,32.4
				c3.4,7.5,8.2,14.5,9.2,22.9c0.5,4.1,0.5,8.3,0.6,12.4c0.1,1-0.2,1.9-0.8,2.7c-2.6,2.5-2,5.6-1.8,8.5c0.4,5,0.8,9.9,1.3,14.8
				c1.1,10.1,0.4,20.1-0.9,30.1c-0.4,1.5-1.2,2.8-2.4,3.8c-3.5,3.3-7.3,6.3-10.6,9.7c-2,2.1-4.1,2.2-6.5,1.7c-2.6-0.6-2.8-2.9-2.8-5
				C362.6,152.4,362.7,143.1,362.7,133.6z"/>
			<path class="st9" d="M292.3,496.6c1.4-2.8,4.7-4,7.6-3c5.9,1.9,11.3,0.1,16.9-1.2c9.6-2.4,19.3-4.3,29-6.4
				c0.9-0.2,1.8-0.4,2.7-0.6c0.6-18.1,17.9-43.9,31.2-46c-0.4,1.2-0.9,2.3-1.6,3.4c-3.2,3.8-6.5,7.5-9.7,11.3
				c-1.3,1.5-2.6,3.1-3.9,4.7l0.7,0.7c2.3-2.1,4.6-4.4,7-6.4s5.1-4.3,7.9-6.3c2.7-2,5.6-3.8,8.5-5.4c2.8-1.5,5.2-3.9,8.4-4.6
				c0.2,0.4,0.5,0.8,0.7,1.1c-1.8,1.2-3.4,2.5-5.3,3.5c-15.7,8.5-28.8,21-38.2,36.2c-1.1,1.8-2.1,3.6-3.1,5.4
				c-0.2,0.5-0.3,1-0.3,1.5c0.4,0.2,0.9,0.7,1.2,0.6c4.3-1,6.9,0.9,8.8,4.7s4,7.3,5.8,11c2,4.4,4.3,8.5,7.1,12.4
				c4.8,6.3,10.1,12.4,12,20.9c13.8-2.1,27.4-3.5,41.1-0.9c-4.7,8.7-9.3,17.1-14,25.8c-7.4-8.3-16.5-14.8-26.7-19.1
				c-1.6,5-3,9.5-4.4,14.1l-1-0.2c-0.1-1-0.1-1.9,0-2.9c0.6-2.5,1.3-5,2.1-7.4c2.3-6.8,0.6-13-3.1-18.7s-7.8-11.3-11.6-17
				c-1.2-1.8-2.1-3.9-3.2-5.9c-2.2-4.1-4.5-8.1-6.7-12.2c-0.8-2-3-3-5.1-2.5c-9.9,1.8-19.8,3.5-29.7,5.3c-3.1,0.6-6.2,1.5-9.2,2.5
				c-4.4,1.5-9.1,1.7-13.6,0.6C298.1,495.2,295.2,496.3,292.3,496.6z"/>
			<path class="st9" d="M215.7,384.7c-2.6,2.6-5.6,4.9-8.9,6.7c-3.6,2-5.6,4.9-7.1,8.6c-8.1,19.3-13.9,39.1-15.5,60
				c-0.3,5.7-0.1,11.5,0.8,17.1c2.3,16.5,17.1,31.4,37.8,31.7c10.4,0.1,20.2-2.3,30.1-5.1c4.7-1.5,9.5-2.7,14.4-3.7
				c-0.6,0.5-1.3,0.9-2,1.2c-10.3,4.1-20.8,7.5-31.7,8.8c-5.7,0.8-11.4,0.8-17.1,0c-19.4-3-32.3-17.3-34.1-37.2
				c-1.2-12.5,0.7-24.9,3.7-37c3.9-16,8.7-31.8,16.9-46.2C206.7,383.1,207.2,382.9,215.7,384.7z"/>
			<path class="st9" d="M303.4,479.7c3-2.3,5.9-4.8,9.1-6.9c17.5-11.3,32.5-25.3,46.7-40.3c3.9-4.2,8.3-8,12.4-12
				c6.2-6.1,12.5-12.3,19.3-19.1l-9.8-9.6h20.1c-1.4,2-2.9,3.9-4.5,5.8c-8.3,8.6-16.7,17.2-25.2,25.7c-8.2,8.3-16.5,16.5-24.8,24.7
				c-12.3,12.3-26.4,22.2-40.8,31.7c-0.5,0.3-1.1,0.6-1.7,0.8L303.4,479.7z"/>
			<path class="st9" d="M257.3,439.4c2.5-3.8,5.6-5.2,8.6-6.4c3.2-1.2,4.7-3.4,6-6.3c11.8-26.1,23.2-52.2,30.2-80.1
				c0.4-1.6,1.1-3.2,2-4.6c-2.6,15.7-7.1,30.9-13.3,45.5c-6,14.6-12.2,29.1-18.6,44.1l10.8-1.2c-2.7,3.1-5.8,2.1-8.2,3.1
				c-2.7,1.2-5.4,2.5-8.2,3.4C263.9,438,261.1,438.5,257.3,439.4z"/>
			<path class="st9" d="M372.8,541.5c-1.5-1.3-2.9-2.7-4.3-4.2c-4.2-5.2-8.3-10.5-12.3-15.8c-1.5-2-3-3.3-5.8-3.6
				c-7.9-0.8-15.7-2.6-23.2-5.4c-2.5-0.9-5.1-1.3-7.6-2.8c0.6-0.3,1.3-0.4,2-0.5c1.9,0.2,3.8,0.6,5.6,1.1c8.1,2.9,16.5,4.9,25.1,5.9
				c1.7,0.1,3.4,1,4.4,2.4c5.5,7.4,11.1,14.7,16.7,22.1L372.8,541.5z"/>
			<path class="st9" d="M182.5,417.6c-5.7,18.8-8.6,38.2-12,57.6c-0.3-0.9-0.5-1.8-0.6-2.8c0.6-4.9,1.3-9.8,1.9-14.7
				c1.6-12.2,4.2-24.2,7.7-36c0.5-1.5,1.1-2.9,1.6-4.4L182.5,417.6z"/>
			<path class="st9" d="M392.7,174c-4.1-1.9-6.3,0.7-8.6,3.1c-4.1,4.3-7.2,9.5-9.1,15.1c2.8-0.7,4.2-4.6,7.6-2.8
				c-1.8,1.6-3.4,2.9-5,4.4s-1.4,4.5-5,4c-0.2-1.5-0.1-2.9,0-4.4c2-8.1,6.6-15.4,13.1-20.7c1.3-1,2.7-1.6,4.3-1.8
				C391.5,170.8,392.7,171.6,392.7,174z"/>
			<path class="st9" d="M381,506c12-13.7,27.3-19.7,44.4-22.2l0.5,0.9c-0.6,0.5-1.3,0.9-2,1.2c-1.7,0.5-3.4,0.8-5.1,1.1
				c-12.7,2.6-24.5,8.6-34.1,17.4c-0.8,0.7-1.7,1.4-2.6,2C381.9,506.4,381.7,506.3,381,506z"/>
			<path class="st9" d="M305.1,277.6c11.6-7.1,21.4-16.4,32.2-26.1C334.2,259,312.9,276,305.1,277.6z"/>
			<path class="st9" d="M350.7,540.4c-5.6,0.4-25.6-7.2-33.4-12.3c2.5-0.4,2.5-0.4,8,2.1c2.8,1.3,5.5,2.5,8.3,3.6s5.7,2,8.6,3
				S347.9,538.1,350.7,540.4z"/>
			<path class="st9" d="M245.2,286c13.3,2.1,25.5,1.4,37.7-0.1C276.2,290.2,252.2,290.5,245.2,286z"/>
			<path class="st9" d="M257.2,363.5c-1.4,11.8-2.3,22.8-6.5,33c-0.7,0.1-0.9,0.1-1,0.1c-0.1-0.1-0.2-0.3-0.2-0.4
				c2-10.5,3.9-20.9,5.9-31.4C255.4,364.6,255.9,364.5,257.2,363.5z"/>
			<path class="st9" d="M31.7,533.3c-2.5-0.3-5.1-0.6-7.6-1.1c-6.9-1.3-6.9-1.3-10.3,5c-1.1,2.2-2.5,4.3-4.1,6.1
				c0.9-5,3.3-9.7,6.8-13.4c0.6-0.5,1.4-0.8,2.2-0.7c4.4,0.8,8.8,1.8,13.2,2.7L31.7,533.3z"/>
			<path class="st9" d="M379.4,558.9c-0.4,0.1-0.8,0-1-0.3c-0.3-0.4-0.6-0.8-0.7-1.3c-0.3-1.2-0.6-2.4-1-3.6c-0.2-0.3-0.3-0.7-0.5-1
				c-0.2-0.8-0.4-1.6-0.5-2.5c-0.2-1.5-0.4-3-0.5-4.4l1-0.3l2.1,7.2c0.3,1.2,0.6,2.4,1,3.6c0.1,0.4,0.5,0.6,0.6,1s0.2,1.2-0.1,1.5
				C379.6,558.9,379.5,558.9,379.4,558.9z"/>
			<path class="st9" d="M58.7,512.4l-27.2,1.2c8.8-2.5,18.1-3.3,27.2-2.4L58.7,512.4z"/>
			<path class="st9" d="M312.3,507.5c-1.2-0.2-2.4-0.5-3.6-0.6c-2.5-0.4-5.1,0.2-7.1,1.8c-3.1,2.3-6.5,4.2-9.9,6.3l-0.7-0.7
				c0.3-0.7,0.8-1.3,1.4-1.9c3.2-2.4,6.5-4.5,9.9-6.5c3.4-1.9,6.9-1.2,10.1,0.7C312.4,506.8,312.4,507.1,312.3,507.5z"/>
			<path class="st9" d="M100.6,467.8c-0.5,7.3-1.7,14.5-3.5,21.6C95.8,485.7,98,471.9,100.6,467.8z"/>
			<path class="st9" d="M246.3,435.9l-10.5-13C240.6,424.6,246,431.1,246.3,435.9z"/>
			<path class="st9" d="M60.2,501.9c3.6-2,6.8-1.2,9.9,0.2l-0.1,1.1L60.2,501.9z"/>
			<path class="st9" d="M399.8,502.6l-8.2,2.4l-0.3-1l8.1-2.8L399.8,502.6z"/>
			<path class="st9" d="M360.5,555.8h2.9c-3.1-4.2-6.3-8.4-9.4-12.5c-0.1-0.2-0.5-0.1-1.1-0.2c0.1,3,1.9,5.1,3.5,7.2
				C357.7,552.1,359.1,553.9,360.5,555.8z"/>
			<path class="st9" d="M238.3,555.8c0.8-1.2,1.5-2.3,2.2-3.5c9.5-15.3,19.3-30.2,29.1-45.1c3.4-5.1,7.1-10.1,10.9-14.9
				c1.4-1.5,3.1-2.6,5-3.3c2-0.7,4.1-0.9,6.1-0.8c8.2,0.6,16.2-1.4,24.3-1.8c8.6-0.5,17-4.4,26-2.3c-1.1-1.1-2.5-1.8-4-2.1
				c-2.5-0.2-5.1-0.1-7.6,0.2c-8.2,1.1-16.5,2.2-24.6,3.4c-6.9,1-14-0.2-20.9,1.6c-2.5,0.7-4.5,1.6-5.9,3.6
				c-7.3,10.5-14.9,20.8-22,31.5c-7.3,11-14.3,22.1-21.1,33.4L238.3,555.8z"/>
			<path class="st9" d="M83.1,500.7c8.3,1.5,11.4,7.1,12.5,14.7c0.1,0.6,0.3,1.2,0.4,1.9c2.6,13.2,7,25.8,11.2,38.5h2.1
				c-3.2-10.1-6.9-20.2-9.4-31.4c3.6,3,6.2,5.3,8.9,7.4c2.8,2.1,4.6,5.4,4.6,9c0.3,5,0.8,10,1.2,15h11.9c0.9-9.4,1.9-18.7,3-28.1
				c1.4-11.7,3.1-23.4,4.7-35.1c0.4-2.6,0.8-5.2,1.2-7.8l-0.9-0.1c-5.4,17.3-6.2,35.4-8.7,53.3c-0.7-3.1-1.3-6.2-1.5-9.4
				c-0.3-3-0.7-6-1-9.1c-0.4-3.2-0.7-6.4-1.2-9.5c-0.5-2.9,0.5-6.1-1.3-8.8c-0.4,4.3-0.5,8.6-0.2,12.8c1,11.6,2.3,23.2,3.4,34.8
				c0,2-0.1,4.1-0.3,6.1c-4.5-4.4-7.5-10.2-8.5-16.4c-0.5-3.2-2.2-6-4.8-8c-2.5-2-4.9-4.1-7.4-6.1c-3.1-2.5-5.2-5.4-5.7-9.5
				c-0.3-2.7-1.4-5.2-2.1-7.9c-0.6-2.7-2.6-4.9-5.3-5.7c-3.1-1.2-6.2-2.5-9.4-3.6c-0.8-0.2-1.6-0.2-2.4-0.2
				C79.5,499.1,81.2,500.2,83.1,500.7z"/>
			<path class="st10" d="M251.6,151.4c-0.1,0.1-0.1,0.3-0.2,0.4c-0.2,0.4-0.4,0.8-0.7,1.2c-0.2,0.3-0.5,0.5-0.7,0.8
				c-1.2,1.7-2.4,3.4-3.7,5.1l-0.1,0.1c-1.4,1.9-2.4,4.1-2,6.2c0.5,3.1-0.7,5.6-1.9,8.1c-1.3,2.8-1.9,5.8-1.8,8.8
				c0.2,1-0.3,2-1.1,2.5c-1,0.5-1.8-0.2-2.5-0.8c-3.1-2.8-5.2-5.8-2.3-10.5c0.3-0.5,0.6-1,0.9-1.5c0.1-0.1,0.2-0.3,0.3-0.4
				c0.1-0.2,0.2-0.4,0.3-0.6c0.3-0.4,0.5-0.8,0.8-1.3c0.5-0.8,1-1.7,1.4-2.6c0.8-1.5,1.5-3.1,2-4.7c0.3-1,0.6-2,1-3
				c0.4-0.8,0.9-1.5,1.4-2.2c1.9-2.5,4-4.8,6.3-7c0.8-0.8,1.6-1.5,2.6-2c0.1-0.1,0.3-0.1,0.4-0.1c0.4,0,0.5,0.7,0.4,1.1
				C252.2,150,251.9,150.7,251.6,151.4z"/>
			<path class="st9" d="M243.7,196.2c-4.4,1.1-8.1,1.9-10.9-1.6c-0.7-0.8-1.4-1.7-2-2.7c-1.5-2.7-1.1-3.6,2-5.4
				c-0.3-1.7-0.7-3.4-0.9-5.1c-0.3-2.7,0.3-5.4,1.8-7.7c1.9-3.3,3.6-6.7,4.9-10.3c2.4-7.1,6.1-13,13.4-15.9c2.5-1,3.7-2.9,4.6-5.2
				c1.5-4,2.9-8.1,4.7-12c-0.8,5.8-1.7,11.6-4.9,16.6c-1,1.2-2.3,2.2-3.9,2.7c-6,2.4-9.3,7.1-11.3,12.9c-1.6,4.7-3.3,9.2-6.1,13.5
				c-1.1,1.7-1.2,4.6-0.9,6.8c0.6,4.5,2.9,8.6,6.4,11.4C241.6,194.9,242.7,195.5,243.7,196.2z"/>
			<path class="st9" d="M276.9,188.9c-0.2,2.5-2.4,3.1-4,4.3c-2.6,1.7-6,1.9-7.9,4.9c-0.7,1.1-4.8,0.3-5.6-1c-1-1.5-0.1-2.8,1-3.7
				c3.8-3.4,8.6-5.4,13.7-5.8c0.6,0,1.3,0.1,1.8,0.4C276.3,188,276.5,188.5,276.9,188.9z"/>
			<path class="st9" d="M282.5,193c2.5-4.3,4.6-8.6,2-13.9c2.8,1.8,3.3,2.4,3.1,5.2C287.4,188,286.6,191.5,282.5,193z"/>
			<path class="st9" d="M229.2,195.1c-6.4-2.5-8.2-7-5.4-12.9c0.3,2.6,0.2,5,1,7S227.4,192.7,229.2,195.1z"/>
			<path class="st9" d="M333.1,135.4c-11.7-10.2-25-13.9-40.6-9.8c-0.4-1-1.1-2.1-1.2-3.2c0-1.9,0.2-3.8,0.7-5.7
				c0.9-3.5,2.8-5.6,6.8-6.2c7.4-1.3,15-1,22.3,0.9c1.7,0.4,3.2,1.3,4.4,2.5c3.5,3.5,6.8,7.2,9.8,11.1
				C338.3,129.3,337.8,130.8,333.1,135.4z"/>
			<path class="st9" d="M217.2,130c0.6-3.8,1.4-6.7,3.3-9.4c3.9-5.8,9.9-9.8,16.7-11.1c6.2-1.2,12.4-2.4,19.1-0.8
				c-0.7,3-1.2,5.7-2,8.3c-1.1,3.6-1.5,3.9-5.4,4c-7.5,0-15,1.4-22,4.2c-2.3,1-4.5,2.4-6.8,3.5C219.5,129,218.6,129.3,217.2,130z"/>
			<path class="st11" d="M263.2,248.3c-9.1-0.8-17.6-0.4-25.8-2.8c-3.2-0.9-5.7-2.9-8.1-4.9c-1.9-1.6-1.6-4.1-0.6-6.2
				c1.6-3.3,4.6-5.3,7.4-7.3c1.2-0.9,2.5-0.1,3.6,0.5c5.3,3.2,11.5,4.9,17.7,4.8c3.5-0.1,6.9,0.9,10.4,0.9
				c6.4-0.1,12.7-0.9,18.9-2.2c4.3-0.8,8.2-3.1,11-6.4c1.5-1.8,3.3-2.5,5.5-1.7c2.5,0.9,3,3,0.8,4.7c-4,3.1-7.8,6.6-12,9.5
				c-8.7,6-18.5,9.2-28.7,11.2C263.1,248.4,262.8,248.4,263.2,248.3z"/>
			<path class="st12" d="M236,233.4c0.8,0.2,1.3,0.8,1.2,1.4c-0.2,1.6-1,3-2.2,4.1c-0.5,0.4-1.2,0.2-1.6-0.3c0,0-0.1-0.1-0.1-0.1
				c-0.6-1-0.5-2.2,0.2-3.1C234.1,234.3,234.7,233.4,236,233.4z"/>
			<path class="st9" d="M285.3,240c-3.4,4.5-17,8.5-28.8,8.5c-11,0-19.3-2.4-29-8.5c-0.2-5,2-9.1,5.7-12.9c-1.4-1-2.7-2.2-3.9-3.4
				c-0.9-1.3-1.7-2.8-2.3-4.3l0.9-0.6c0.4,0.5,0.9,1,1.4,1.4c1.6,1.5,3,3.4,4.9,4.4c20.9,10.3,42,11.3,63.1,0.6c2-1,3.9-2.2,6-3.4
				c2.2,1,3.2,2.6,2,5.6l-2.4-2.8c-10.1,5.9-21.4,9.4-33.1,10.2c-12,0.8-23.1-2.6-33.7-7c-0.5,0.2-0.9,0.3-1.1,0.4
				c-8.8,9.7-6,12.6,4.3,15.7c14.1,4.2,28.1,3.1,41.7-2.6c1.3-0.6,2.7-1,4-1.5C285,239.7,285.1,239.9,285.3,240z"/>
			<path class="st9" d="M302.9,146.8c-1,0.7-1.8,1.5-2.6,2.4c-0.5,0.5-1,1.1-1.5,1.6l-0.8,0.9l-0.4,0.4c-0.1,0.1-0.1,0.1-0.2,0.2
				s-0.1,0.1-0.1,0.1c0.3-1.7,0.2-2.7,0.7-3.2c1.6-1.8,3.1-3.7,5.1-4.9c1.1-0.7,2.2-1.2,3.5-1.6c0.5-0.2,1.1-0.3,1.6-0.4
				c0.2,0,0.3,0,0.5-0.1c0.4-0.2,0.8-0.2,1.2-0.3c1.1,0,2.2,0.2,3.2,0.5c2.3,0.7,4.4,2,5.9,3.9c1.5,1.9,1.9,4.5,1,6.8
				c-1.7-5.4-7-8.8-12.6-8.2c-0.9,0-1.7,0.2-2.5,0.5c-0.6,0.3-1.1,0.6-1.7,0.9L302.9,146.8z"/>
			<path class="st9" d="M233.9,139.4c-0.2-0.1-0.4-0.2-0.6-0.2c-0.6-0.2-1.1-0.3-1.7-0.4c-0.5-0.1-1-0.1-1.4,0.1
				c-0.3,0.2-0.6,0.3-0.8,0.5c-0.5,0.4-1,0.8-1.5,1.3c-1.7,1.9-3.1,4-4.6,6c0-4.2,3.3-8.9,7-9.8c2.9-0.8,6,0.5,7.6,3.1
				c0.8,1,1.4,2,2,3.1c0.3,0.5,0.6,1,0.8,1.5c0.3,0.6,0.4,1.2,0.5,1.8c0.1,0.2,0.1,0.5,0,0.7c-0.1,0.2-0.3,0.4-0.6,0.4
				c-0.1,0-0.3-0.1-0.4-0.2c-0.2-0.3-0.4-0.6-0.5-1c-0.6-2.1-1.8-4-3.5-5.5C235.6,140.3,234.8,139.8,233.9,139.4z"/>
			<path class="st9" d="M305,151.4c0.1-0.8,0.3-1.5,0.5-2.2c0.1-0.4,0.3-0.9,0.5-1.3c0.1-0.1,0.2-0.3,0.4-0.4
				c0.4-0.4,0.7-0.8,1.1-1.2c0.8-0.8,1.8-1.4,2.9-1.8c0.3-0.1,0.7-0.2,1-0.3c2.1-0.4,4.3,0.1,5.9,1.6c1,1.1,1.8,2.4,2.2,3.8
				c0.4,1.2,0.7,2.4,0.8,3.7c0,0.6,0,1.3-0.1,1.9c-0.1,0.6-0.3,1.1-0.4,1.6c0,0.3-0.1,0.7-0.1,1c-0.2,0.5-0.4,0.9-0.7,1.2
				c-0.7,0.8-1.5,1.5-2.5,2c-0.7,0.3-1.4,0.6-2.1,0.8c-4,0.8-7.7-1-8.9-4.6c-0.2-0.7-0.4-1.5-0.4-2.3c0-0.6-0.1-1.3-0.1-1.9
				c0-0.2,0-0.4,0.1-0.6C305,152,304.9,151.7,305,151.4z"/>
			<circle class="st3" cx="308.8" cy="149.3" r="1.5"/>
			<path class="st9" d="M232.6,139.7c1.5-0.6,3.1-0.4,4.4,0.5c0.8,0.7,1.4,1.6,1.8,2.5c0.7,1.4,1.2,3,1.4,4.6
				c0.1,1.3-0.1,2.6-0.6,3.7c-0.1,0.4-0.2,0.8-0.3,1.1c-0.2,0.4-0.5,0.8-0.9,1.1c-1.1,1-2.5,1.5-3.9,1.6c-1.3,0.1-2.6-0.3-3.7-1.1
				c-0.2-0.1-0.3-0.3-0.4-0.4c-0.2-0.4-0.5-0.8-0.8-1.3c-0.6-1-1-2-1.2-3.2c-0.3-1.7-0.2-3.4,0.3-5c0.5-1.7,1.7-3.2,3.3-4.1
				C232.2,139.8,232.4,139.7,232.6,139.7z"/>
			<circle class="st3" cx="232" cy="144.1" r="1.5"/>
		</g>
	</g>
</g>
</svg>
