<?xml version="1.0" encoding="utf-8"?>
<!-- Generator: Adobe Illustrator 25.1.0, SVG Export Plug-In . SVG Version: 6.00 Build 0)  -->
<svg version="1.1" xmlns="http://www.w3.org/2000/svg" xmlns:xlink="http://www.w3.org/1999/xlink" x="0px" y="0px"
	 viewBox="0 0 317.51 214.03" style="enable-background:new 0 0 317.51 214.03;" xml:space="preserve">
<style type="text/css">
	.st0{fill:#80AE3C;}
	.st1{fill:#24244E;}
	.st2{fill:#4B0F13;}
	.st3{fill:#E6333E;}
	.st4{fill:#4B7312;}
	.st5{fill:#262A58;}
	.st6{fill:#3BC7ED;}
	.st7{fill:#2CBDBD;}
	.st8{fill:#121C33;}
	.st9{opacity:0.3;fill:url(#SVGID_1_);}
	.st10{fill:none;stroke:#121C33;stroke-width:2;stroke-miterlimit:10;}
	.st11{opacity:0.3;fill:url(#SVGID_2_);}
	.st12{opacity:0.3;fill:url(#SVGID_3_);}
	.st13{opacity:0.3;fill:url(#SVGID_4_);}
	.st14{opacity:0.3;fill:url(#SVGID_5_);}
	.st15{opacity:0.3;fill:url(#SVGID_6_);}
	.st16{opacity:0.3;fill:url(#SVGID_7_);}
	.st17{opacity:0.3;fill:url(#SVGID_8_);}
	.st18{opacity:0.3;fill:url(#SVGID_9_);}
	.st19{opacity:0.3;fill:url(#SVGID_10_);}
	.st20{opacity:0.3;fill:url(#SVGID_11_);}
	.st21{opacity:0.3;fill:url(#SVGID_12_);}
	.st22{fill:#ED3D4B;}
	.st23{fill:#80AF3E;}
	.st24{opacity:0.15;clip-path:url(#XMLID_102_);}
	.st25{fill:#1DB4D3;}
	.st26{opacity:0.25;clip-path:url(#XMLID_102_);}
	.st27{opacity:0.15;clip-path:url(#XMLID_103_);}
	.st28{opacity:0.25;clip-path:url(#XMLID_103_);}
	.st29{fill:#FFFFFF;}
	.st30{fill:#F7F7F7;}
	.st31{fill:#A144AF;}
	.st32{fill:none;stroke:#80AF3E;stroke-width:2;stroke-miterlimit:10;}
	.st33{clip-path:url(#XMLID_104_);fill:#80AF3E;}
	.st34{clip-path:url(#XMLID_105_);fill:#80AF3E;}
	.st35{clip-path:url(#XMLID_106_);fill:#4B7312;}
	.st36{clip-path:url(#XMLID_113_);fill:#80AF3E;}
	.st37{clip-path:url(#XMLID_114_);fill:#80AF3E;}
	.st38{clip-path:url(#XMLID_115_);fill:#4B7312;}
	.st39{clip-path:url(#XMLID_116_);fill:#80AF3E;}
	.st40{clip-path:url(#XMLID_117_);fill:#80AF3E;}
	.st41{clip-path:url(#XMLID_118_);fill:#4B7312;}
	.st42{clip-path:url(#XMLID_119_);fill:#80AF3E;}
	.st43{clip-path:url(#XMLID_120_);fill:#80AF3E;}
	.st44{clip-path:url(#XMLID_133_);fill:#4B7312;}
	.st45{clip-path:url(#XMLID_134_);fill:#80AF3E;}
	.st46{clip-path:url(#XMLID_135_);fill:#80AF3E;}
	.st47{clip-path:url(#XMLID_136_);fill:#4B7312;}
	.st48{clip-path:url(#XMLID_137_);fill:#80AF3E;}
	.st49{clip-path:url(#XMLID_138_);fill:#80AF3E;}
	.st50{clip-path:url(#XMLID_139_);fill:#4B7312;}
	.st51{clip-path:url(#XMLID_140_);fill:#80AF3E;}
	.st52{clip-path:url(#XMLID_141_);fill:#80AF3E;}
	.st53{clip-path:url(#XMLID_142_);fill:#4B7312;}
	.st54{clip-path:url(#XMLID_143_);fill:#80AF3E;}
	.st55{clip-path:url(#XMLID_144_);fill:#80AF3E;}
	.st56{clip-path:url(#XMLID_145_);fill:#4B7312;}
	.st57{fill:none;stroke:#FFFFFF;stroke-width:4;stroke-miterlimit:10;}
	.st58{clip-path:url(#XMLID_149_);fill:#E6333E;}
	.st59{clip-path:url(#XMLID_150_);fill:#E6333E;}
	.st60{clip-path:url(#XMLID_151_);fill:#E6333E;}
	.st61{clip-path:url(#XMLID_152_);fill:#80AF3E;}
	.st62{clip-path:url(#XMLID_153_);fill:#80AF3E;}
	.st63{clip-path:url(#XMLID_154_);fill:#4B7312;}
	.st64{clip-path:url(#XMLID_155_);fill:#80AF3E;}
	.st65{clip-path:url(#XMLID_156_);fill:#80AF3E;}
	.st66{clip-path:url(#XMLID_157_);fill:#4B7312;}
	.st67{clip-path:url(#XMLID_158_);fill:#80AF3E;}
	.st68{clip-path:url(#XMLID_159_);fill:#80AF3E;}
	.st69{clip-path:url(#XMLID_160_);fill:#4B7312;}
	.st70{clip-path:url(#XMLID_161_);fill:#ED3D4B;}
	.st71{clip-path:url(#XMLID_162_);fill:#ED3D4B;}
	.st72{clip-path:url(#XMLID_163_);fill:#ED3D4B;}
	.st73{clip-path:url(#XMLID_164_);fill:#FFFFFF;}
	.st74{clip-path:url(#XMLID_165_);fill:#FFFFFF;}
	.st75{clip-path:url(#XMLID_166_);fill:#FFFFFF;}
	.st76{clip-path:url(#XMLID_167_);fill:#80AF3E;}
	.st77{clip-path:url(#XMLID_168_);fill:#80AF3E;}
	.st78{clip-path:url(#XMLID_169_);fill:#4B7312;}
	.st79{clip-path:url(#XMLID_170_);fill:#80AF3E;}
	.st80{clip-path:url(#XMLID_171_);fill:#80AF3E;}
	.st81{clip-path:url(#XMLID_172_);fill:#4B7312;}
	.st82{clip-path:url(#XMLID_173_);fill:#80AF3E;}
	.st83{clip-path:url(#XMLID_174_);fill:#80AF3E;}
	.st84{clip-path:url(#XMLID_175_);fill:#4B7312;}
	.st85{clip-path:url(#XMLID_176_);fill:#80AF3E;}
	.st86{clip-path:url(#XMLID_177_);fill:#80AF3E;}
	.st87{clip-path:url(#XMLID_178_);fill:#4B7312;}
	.st88{clip-path:url(#XMLID_179_);fill:#80AF3E;}
	.st89{clip-path:url(#XMLID_180_);fill:#80AF3E;}
	.st90{clip-path:url(#XMLID_181_);fill:#4B7312;}
	.st91{clip-path:url(#XMLID_182_);fill:#E6333E;}
	.st92{clip-path:url(#XMLID_183_);fill:#E6333E;}
	.st93{clip-path:url(#XMLID_184_);fill:#E6333E;}
	.st94{clip-path:url(#XMLID_185_);fill:#80AF3E;}
	.st95{clip-path:url(#XMLID_186_);fill:#80AF3E;}
	.st96{clip-path:url(#XMLID_187_);fill:#4B7312;}
	.st97{clip-path:url(#XMLID_188_);fill:#80AF3E;}
	.st98{clip-path:url(#XMLID_189_);fill:#80AF3E;}
	.st99{clip-path:url(#XMLID_190_);fill:#4B7312;}
	.st100{opacity:0.15;clip-path:url(#XMLID_191_);}
	.st101{opacity:0.25;clip-path:url(#XMLID_191_);}
	.st102{opacity:0.15;clip-path:url(#XMLID_192_);}
	.st103{opacity:0.25;clip-path:url(#XMLID_192_);}
	.st104{clip-path:url(#XMLID_193_);fill:#E6333E;}
	.st105{clip-path:url(#XMLID_194_);fill:#E6333E;}
	.st106{clip-path:url(#XMLID_195_);fill:#E6333E;}
	.st107{clip-path:url(#XMLID_196_);fill:#80AF3E;}
	.st108{clip-path:url(#XMLID_197_);fill:#80AF3E;}
	.st109{clip-path:url(#XMLID_198_);fill:#4B7312;}
	.st110{clip-path:url(#XMLID_199_);fill:#80AF3E;}
	.st111{clip-path:url(#XMLID_200_);fill:#80AF3E;}
	.st112{clip-path:url(#XMLID_201_);fill:#4B7312;}
	.st113{clip-path:url(#XMLID_202_);fill:#FFFFFF;}
	.st114{clip-path:url(#XMLID_203_);fill:#FFFFFF;}
	.st115{clip-path:url(#XMLID_204_);fill:#FFFFFF;}
	.st116{opacity:0.15;clip-path:url(#XMLID_205_);}
	.st117{fill:#D31E35;}
	.st118{opacity:0.25;clip-path:url(#XMLID_205_);}
	.st119{opacity:0.15;clip-path:url(#XMLID_206_);}
	.st120{opacity:0.25;clip-path:url(#XMLID_206_);}
	.st121{clip-path:url(#XMLID_207_);fill:#E6333E;}
	.st122{clip-path:url(#XMLID_208_);fill:#E6333E;}
	.st123{clip-path:url(#XMLID_209_);fill:#E6333E;}
	.st124{clip-path:url(#XMLID_210_);fill:#80AF3E;}
	.st125{clip-path:url(#XMLID_211_);fill:#80AF3E;}
	.st126{clip-path:url(#XMLID_212_);fill:#4B7312;}
	.st127{clip-path:url(#XMLID_213_);fill:#80AF3E;}
	.st128{clip-path:url(#XMLID_214_);fill:#80AF3E;}
	.st129{clip-path:url(#XMLID_215_);fill:#4B7312;}
	.st130{opacity:0.15;clip-path:url(#XMLID_216_);}
	.st131{opacity:0.25;clip-path:url(#XMLID_216_);}
	.st132{clip-path:url(#XMLID_217_);fill:#80AF3E;}
	.st133{clip-path:url(#XMLID_218_);fill:#80AF3E;}
	.st134{clip-path:url(#XMLID_219_);fill:#4B7312;}
	.st135{opacity:0.15;clip-path:url(#XMLID_223_);}
	.st136{opacity:0.25;clip-path:url(#XMLID_223_);}
	.st137{opacity:0.15;clip-path:url(#XMLID_224_);}
	.st138{opacity:0.25;clip-path:url(#XMLID_224_);}
	.st139{opacity:0.15;clip-path:url(#XMLID_225_);}
	.st140{opacity:0.25;clip-path:url(#XMLID_225_);}
	.st141{opacity:0.15;clip-path:url(#XMLID_226_);}
	.st142{opacity:0.25;clip-path:url(#XMLID_226_);}
	.st143{clip-path:url(#XMLID_227_);fill:#80AF3E;}
	.st144{clip-path:url(#XMLID_228_);fill:#80AF3E;}
	.st145{clip-path:url(#XMLID_229_);fill:#4B7312;}
	.st146{opacity:0.15;clip-path:url(#XMLID_230_);}
	.st147{opacity:0.25;clip-path:url(#XMLID_230_);}
	.st148{opacity:0.15;clip-path:url(#XMLID_231_);}
	.st149{opacity:0.25;clip-path:url(#XMLID_231_);}
	.st150{clip-path:url(#XMLID_232_);fill:#FFFFFF;}
	.st151{clip-path:url(#XMLID_233_);fill:#FFFFFF;}
	.st152{clip-path:url(#XMLID_234_);fill:#FFFFFF;}
	.st153{opacity:0.75;fill:#24244E;}
	.st154{fill:none;stroke:#80AE3C;stroke-width:4;stroke-miterlimit:10;}
	.st155{fill:none;stroke:#24244E;stroke-width:2;stroke-linecap:round;stroke-miterlimit:10;}
</style>
<g id="_x5F_REFE">
</g>
<g id="BG">
</g>
<g id="GRAFICA">
	<g>
		<g>
			<g>
				<polygon class="st22" points="82.7,199.08 35.83,94.64 104.49,3.05 219.95,15.88 266.82,120.31 198.16,211.91 				"/>
				<g>
					<path class="st29" d="M105.4,5.16l113.19,12.58l45.92,102.32l-67.26,89.74L84.06,197.22L38.14,94.9L105.4,5.16 M103.57,0.93
						l-1.37,1.83L34.94,92.5l-1.41,1.89l0.97,2.15l45.92,102.32l0.94,2.09l2.27,0.25l113.19,12.58l2.27,0.25l1.37-1.83l67.26-89.74
						l1.41-1.89l-0.97-2.15L222.24,16.1l-0.94-2.09l-2.27-0.25L105.85,1.18L103.57,0.93L103.57,0.93z"/>
				</g>
			</g>
			<g>
				<g>
					<g>
						<g>
							<defs>
								<path id="XMLID_95_" d="M140.38,97.35c-16.25-6.74-20.55-29.89-8.97-42.82c6.99-8.16,19.09-9.76,29.01-6.92
									c3.2,0.96,2.92,0.33,3.03,3.94c0.12,4.34-1.15,8.35-3.19,12.13c-7,12.06-17.25,14.64-18.75,31.14
									c-0.08,0.84-0.12,1.68-0.13,2.53C141.17,97.38,140.62,97.44,140.38,97.35z"/>
							</defs>
							<use xlink:href="#XMLID_95_"  style="overflow:visible;fill:#FFFFFF;"/>
							<clipPath id="XMLID_102_">
								<use xlink:href="#XMLID_95_"  style="overflow:visible;"/>
							</clipPath>
							<path style="clip-path:url(#XMLID_102_);fill:#FFFFFF;" d="M130.3,50.61c0.05,0.04,0.1,0.08,0.16,0.1
								c0.22,0.11,0.49,0.11,0.74,0.09c1.42-0.12,2.72-0.79,4.02-1.35c6.39-2.75,13.76-3.17,20.43-1.16
								c1.04,0.31,2.07,0.69,2.97,1.3c0.63,0.43,1.18,0.98,1.56,1.65c0.17,0.29,0.28,0.59,0.46,0.88c0.11,0.17,0.15,0.35,0.19,0.55
								c0.21,1.08,0.16,2.2-0.04,3.28c-0.45,2.46-1.63,4.72-2.95,6.84c-5.7,9.12-14.54,16.43-17.95,26.63
								c-0.93,2.79-1.42,5.84-0.64,8.67c0.15,0.54,0.42,1.15,0.97,1.27c0.31,0.07,0.63-0.04,0.92-0.16
								c2.17-0.95,3.64-3.02,4.79-5.09c1.77-3.2,3.06-6.65,4.8-9.86c2.61-4.82,6.19-9.03,9.36-13.49s6.03-9.35,6.86-14.77
								c0.56-3.63,0.04-7.7-2.17-10.73c-0.52-0.72-1.14-1.37-1.85-1.91c-0.33-0.26-0.7-0.46-1.02-0.73
								c-0.22-0.18-0.39-0.41-0.63-0.56c-0.74-0.49-1.82-0.64-2.67-0.79c-1-0.18-2.02-0.27-3.04-0.34
								c-0.24-0.02-0.47-0.03-0.71-0.04c-2.38-0.12-4.76-0.09-7.13,0.14c-2.35,0.23-4.69,0.67-6.96,1.36
								c-0.56,0.17-1.12,0.36-1.67,0.57c-0.47,0.18-0.95,0.26-1.42,0.43c-0.97,0.34-1.91,0.74-2.81,1.23
								c-1.77,0.95-3.4,2.25-4.48,3.96c-0.22,0.34-0.41,0.7-0.45,1.1C129.93,50.03,130.05,50.39,130.3,50.61z"/>
						</g>
						<g>
							<defs>
								<path id="XMLID_94_" d="M166.72,50.49c14.66,9.53,14.48,33.16,0.96,43.6c-6.3,5.62-14.82,5.19-22.75,4.55
									c-0.91-0.03-1.28-0.46-1.39-1.33c-1.62-9.01,4.38-15.9,10.75-21.37C171.89,60.65,161.08,46.44,166.72,50.49z"/>
							</defs>
							<use xlink:href="#XMLID_94_"  style="overflow:visible;fill:#FFFFFF;"/>
							<clipPath id="XMLID_103_">
								<use xlink:href="#XMLID_94_"  style="overflow:visible;"/>
							</clipPath>
							<path style="clip-path:url(#XMLID_103_);fill:#FFFFFF;" d="M163.07,102.79c11.03-4.24,20.84-13.1,23.62-24.59
								c2.65-10.94-1.84-23.27-10.89-29.95c-1.16-0.86-2.4-1.63-3.72-2.22c-0.54-0.24-1.14-0.36-1.61-0.71
								c-0.39-0.29-0.95-0.43-1.42-0.53c-1.02-0.2-2.09-0.11-3.08,0.19c-0.59,0.18-1.16,0.44-1.69,0.76
								c-1.87,1.15-3.22,2.99-4.28,4.92c-2.1,3.8-3.29,8.09-3.45,12.43c-0.06,1.55,0.03,3.17,0.73,4.56
								c0.07,0.14,0.15,0.28,0.29,0.36c0.22,0.12,0.49,0.04,0.72-0.06c2.22-0.94,4-2.75,5.17-4.85c1.17-2.1,1.77-4.49,2.04-6.88
								c0.16-1.38,0.26-2.9,1.22-3.92c0.58-0.62,1.78-1.11,2.61-0.77c0.26,0.11,0.51,0.23,0.75,0.39c0.48,0.32,0.89,0.74,1.23,1.2
								c0.33,0.45,0.6,0.93,0.85,1.42c0.12,0.23,0.26,0.47,0.33,0.72c0.05,0.19,0.06,0.37,0.14,0.55c0.47,1.06,1.01,2.09,1.46,3.16
								c0.31,0.74,0.59,1.49,0.84,2.25c2.69,8.21,1.23,17.63-3.63,24.77c-4.86,7.15-12.97,11.93-21.55,12.99
								c-1.74,0.21-4.1,0.23-5.57,1.32c-1.29,0.96-0.01,2.46,0.9,3.12c1.49,1.1,3.49,1.38,5.29,1.53c2.01,0.17,4.04,0.03,6.03-0.3
								C158.67,104.27,160.91,103.62,163.07,102.79z"/>
						</g>
					</g>
					<g>
						<defs>
							<path id="XMLID_93_" d="M185.04,126.79c-5.96-11.88-17.58-22.89-31.73-21.12c-1.39,0.28-2.69,0.21-3.89,0.01
								c-14.18-1.82-25.83,9.21-31.8,21.11c-2.53,4.52-3.6,9.71-3.03,14.88c0.45,4.28,1.32,8.66,3.88,12.22
								c1.15,0.93,1.03,4.38,3.07,3.36c0.47,1.19,0.85,3.06,2.53,2.79c-0.05-0.4-0.1-0.78-0.15-1.17c0.26,0.18,0.4,0.4,0.49,0.65
								c0.25,0.79,2.04,3.49,2.71,1.96c0.29-0.47,0.5-0.48,0.89-0.08c0.71,0.82,1.67,1.34,2.63,1.81c1.55-0.9,0.01-5.59-0.25-7.18
								c-0.2-0.74-1.03-1-1.62-1.35c0.02-0.05,0.05-0.1,0.07-0.15c0.62,0.05,3.52,1.73,2.82,0.14c-1.02-1.71-2.17-3.36-3.18-5.08
								c0.07-0.05,0.13-0.11,0.2-0.16c0.23,0.16,0.45,0.33,0.75,0.54c-1.06-13.59,4.35-29.34,15.57-37.67
								c-0.51,1.11-1.02,2.22-1.48,3.36c-2.97,7.4-4.99,15.21-6.07,23.11c-1.09,8.01-1.24,16.33,0.57,24.26
								c1.64,7.18,5.09,14.05,10.99,18.63c0.57-1.68-0.25-3.45-0.36-5.17c-0.37-2.84-0.95-5.63-1.31-8.47
								c-0.93-7.15-0.75-14.52,1.42-21.44c1.41-3.76,3.48-6.91,4.6-0.85c0.99,2.63,1.49,5.32,1.39,8.14
								c0.69,5.68,0.59,11.35-0.16,17.01c-0.2,3.65-1.66,7.3-0.9,10.92c-0.01-0.06,0.6-0.5,0.67-0.57c0.22-0.2,0.45-0.39,0.67-0.6
								c0.43-0.4,0.86-0.82,1.26-1.25c1.04-1.09,1.99-2.26,2.85-3.5c0.86-1.24,1.63-2.54,2.31-3.88c0.69-1.36,1.28-2.77,1.8-4.21
								c0.53-1.47,0.96-2.97,1.32-4.49c0.37-1.55,0.66-3.13,0.88-4.71c0.23-1.62,0.38-3.25,0.47-4.88c0.09-1.66,0.12-3.33,0.1-4.99
								c-0.03-1.69-0.11-3.37-0.25-5.05c-0.14-1.69-0.32-3.38-0.56-5.06c-0.23-1.68-0.51-3.35-0.83-5.01
								c-0.32-1.64-0.68-3.28-1.08-4.91c-0.39-1.59-0.82-3.18-1.29-4.75c-0.45-1.52-0.94-3.04-1.47-4.54
								c-0.5-1.44-1.04-2.86-1.61-4.27c-0.39-0.96-0.82-1.91-1.25-2.85c11.21,8.34,16.61,24.07,15.56,37.66
								c0.3-0.21,0.53-0.38,0.75-0.54c0.06,0.05,0.13,0.11,0.2,0.16c-1.02,1.72-2.16,3.36-3.18,5.08c-0.7,1.59,2.2-0.09,2.82-0.14
								c0.02,0.05,0.05,0.1,0.07,0.15c-0.6,0.35-1.43,0.62-1.62,1.35c-0.26,1.59-1.81,6.28-0.25,7.18c0.96-0.48,1.91-1,2.63-1.81
								c0.39-0.4,0.61-0.4,0.89,0.08c0.66,1.53,2.46-1.16,2.71-1.96c0.08-0.24,0.23-0.47,0.49-0.65c-0.05,0.38-0.1,0.77-0.15,1.17
								c1.69,0.27,2.06-1.59,2.53-2.79c2.05,1.02,1.93-2.43,3.07-3.36c2.56-3.56,3.44-7.94,3.88-12.22
								C188.64,136.5,187.57,131.31,185.04,126.79z"/>
						</defs>
						<use xlink:href="#XMLID_93_"  style="overflow:visible;fill:#FFFFFF;"/>
						<clipPath id="XMLID_104_">
							<use xlink:href="#XMLID_93_"  style="overflow:visible;"/>
						</clipPath>
						<path style="clip-path:url(#XMLID_104_);fill:#FFFFFF;" d="M113.14,155.66c-1.14,1.11-1.25,3.19-1.08,4.89
							c0.74,7.63,3.08,15.56,8.8,20.67c2.83,2.52,6.29,4.18,9.84,5.42c1.81,0.64,3.67,1.08,5.49,1.69c0.64,0.21,1.19,0.56,1.79,0.86
							c0.71,0.36,1.48,0.43,2.26,0.48c3.12,0.19,6.25,0.16,9.37,0.03c15.65-0.68,32.18-4.37,43.16-15.55
							c5.13-5.23,8.74-11.82,11.14-18.74c3.64-10.51,4.57-22.09,1.66-32.82c-1.33-4.91-3.69-9.88-8.01-12.56
							c-2.02-1.25-4.41-1.86-6.78-1.86c-0.63,0-1.16,0.15-1.77,0.18c-0.77,0.04-1.55,0.12-2.31,0.25c-1.47,0.25-2.97,0.67-4.22,1.51
							c-0.93,0.62-1.68,1.48-2.09,2.52c-0.53,1.34-0.43,2.84-0.27,4.27c0.74,6.52,2.78,12.86,3.21,19.4s-1.09,13.73-6.13,17.93
							c-1.21,1.01-2.61,1.85-3.43,3.19c-1.32,2.15-0.9,5.25-2.77,6.94c-0.25,0.23-0.57,0.43-0.91,0.4c-0.64-0.06-0.9-0.85-1-1.49
							c-1.25-8.62,0.42-17.43-0.38-26.1c-0.18-1.91-0.55-3.96-1.93-5.3c-0.22-0.21-0.5-0.42-0.81-0.4
							c-0.66,0.04-0.84,0.91-0.84,1.56c0.04,6.76,0.15,13.55-0.75,20.26c-0.65,4.81-1.84,9.58-3.89,14
							c-0.26,0.55-0.58,1.04-0.87,1.58c-0.23,0.45-0.48,0.89-0.73,1.33c-0.5,0.88-1.04,1.74-1.61,2.58
							c-0.52,0.76-1.06,1.5-1.62,2.22c-0.27,0.34-0.54,0.79-0.88,1.07c-0.32,0.27-0.66,0.54-1.01,0.77
							c-0.52,0.34-1.17,0.63-1.75,0.39c-0.37-0.15-0.68-0.48-0.99-0.73c-0.26-0.2-0.45-0.47-0.68-0.7c-0.37-0.37-0.74-0.73-1.11-1.1
							c-0.18-0.18-0.36-0.36-0.54-0.54c-0.06-0.06-0.49-0.56-0.54-0.54c-1.38,0.51-0.43,2.7-1.05,4.04c-0.68,1.45-2.8,1.24-4.3,0.66
							c-3.04-1.18-6.05-3.09-7.34-6.09c-0.7-1.62-0.84-3.41-0.96-5.16c-0.51-7.8-0.67-15.62-0.47-23.43c0.1-4,0.28-8.12-1.14-11.86
							c-0.16-0.42-0.45-0.91-0.9-0.88c-0.35,0.02-0.59,0.35-0.77,0.65c-3.88,6.36-4.84,14.07-5.03,21.52
							c-0.03,1.02-0.15,2.23-1.06,2.7c-0.51,0.27-1.13,0.2-1.7,0.12c-2.28-0.3-4.55-0.61-6.83-0.91c-0.88-0.12-1.81-0.23-2.63,0.11
							C113.65,155.25,113.38,155.44,113.14,155.66z"/>
					</g>
				</g>
			</g>
			<g>
				<polygon class="st29" points="132.28,118.55 100.3,116.39 103.56,114.93 80.04,153.84 79.28,155.11 77.71,155.79 66.73,160.55 
					62.46,150.7 73.44,145.93 71.11,147.88 97.98,111.21 99.34,109.35 101.23,109.75 132.57,116.45 				"/>
			</g>
			<g>
				<polygon class="st29" points="234.98,160.89 221.89,141.28 224.42,142.44 185.24,142.01 185.15,138.61 224.26,136.14 
					225.56,136.05 226.79,137.3 243.32,154.11 				"/>
			</g>
			<g>
				<polygon class="st29" points="166.44,109.68 208.36,82.47 205.8,88.9 193.03,50.6 191.55,46.16 195.75,44.09 224.34,29.96 
					229.1,39.59 200.51,53.72 203.22,47.21 215.99,85.5 217.54,90.17 213.43,91.94 167.52,111.7 				"/>
			</g>
		</g>
		<polygon class="st2" points="0,168.23 7.57,177.58 45.45,159.2 		"/>
		<polygon class="st29" points="32.71,20.87 28.76,29.72 56.46,41.49 		"/>
		<polygon class="st29" points="290.59,59.37 287.65,53.23 269.63,63.38 		"/>
		<polygon class="st2" points="316.29,198.89 317.51,187.97 281.09,171.45 		"/>
		<polygon class="st2" points="296.09,6.94 289.37,0 257.36,31.03 		"/>
	</g>
</g>
<g id="TXT">
</g>
<g id="ILUSTRACIONES">
</g>
<g id="BG_x5F_INST">
</g>
<g id="INSTRUCCIONES">
</g>
<g id="HEADER">
</g>
</svg>
