<?xml version="1.0" encoding="utf-8"?>
<!-- Generator: Adobe Illustrator 25.1.0, SVG Export Plug-In . SVG Version: 6.00 Build 0)  -->
<svg version="1.1" xmlns="http://www.w3.org/2000/svg" xmlns:xlink="http://www.w3.org/1999/xlink" x="0px" y="0px"
	 viewBox="0 0 39.26 61.38" style="enable-background:new 0 0 39.26 61.38;" xml:space="preserve">
<style type="text/css">
	.st0{fill:#80AE3C;}
	.st1{fill:#24244E;}
	.st2{fill:#4B0F13;}
	.st3{fill:#E6333E;}
	.st4{fill:#4B7312;}
	.st5{fill:#262A58;}
	.st6{fill:#3BC7ED;}
	.st7{fill:#2CBDBD;}
	.st8{fill:#121C33;}
	.st9{opacity:0.3;fill:url(#SVGID_1_);}
	.st10{fill:none;stroke:#121C33;stroke-width:2;stroke-miterlimit:10;}
	.st11{opacity:0.3;fill:url(#SVGID_2_);}
	.st12{opacity:0.3;fill:url(#SVGID_3_);}
	.st13{opacity:0.3;fill:url(#SVGID_4_);}
	.st14{opacity:0.3;fill:url(#SVGID_5_);}
	.st15{opacity:0.3;fill:url(#SVGID_6_);}
	.st16{opacity:0.3;fill:url(#SVGID_7_);}
	.st17{opacity:0.3;fill:url(#SVGID_8_);}
	.st18{opacity:0.3;fill:url(#SVGID_9_);}
	.st19{opacity:0.3;fill:url(#SVGID_10_);}
	.st20{opacity:0.3;fill:url(#SVGID_11_);}
	.st21{opacity:0.3;fill:url(#SVGID_12_);}
	.st22{fill:#ED3D4B;}
	.st23{fill:#80AF3E;}
	.st24{opacity:0.15;clip-path:url(#XMLID_102_);}
	.st25{fill:#1DB4D3;}
	.st26{opacity:0.25;clip-path:url(#XMLID_102_);}
	.st27{opacity:0.15;clip-path:url(#XMLID_103_);}
	.st28{opacity:0.25;clip-path:url(#XMLID_103_);}
	.st29{fill:#FFFFFF;}
	.st30{fill:#F7F7F7;}
	.st31{fill:#A144AF;}
	.st32{fill:none;stroke:#80AF3E;stroke-width:2;stroke-miterlimit:10;}
	.st33{clip-path:url(#XMLID_104_);fill:#80AF3E;}
	.st34{clip-path:url(#XMLID_105_);fill:#80AF3E;}
	.st35{clip-path:url(#XMLID_106_);fill:#4B7312;}
	.st36{clip-path:url(#XMLID_113_);fill:#80AF3E;}
	.st37{clip-path:url(#XMLID_114_);fill:#80AF3E;}
	.st38{clip-path:url(#XMLID_115_);fill:#4B7312;}
	.st39{clip-path:url(#XMLID_116_);fill:#80AF3E;}
	.st40{clip-path:url(#XMLID_117_);fill:#80AF3E;}
	.st41{clip-path:url(#XMLID_118_);fill:#4B7312;}
	.st42{clip-path:url(#XMLID_119_);fill:#80AF3E;}
	.st43{clip-path:url(#XMLID_120_);fill:#80AF3E;}
	.st44{clip-path:url(#XMLID_133_);fill:#4B7312;}
	.st45{clip-path:url(#XMLID_134_);fill:#80AF3E;}
	.st46{clip-path:url(#XMLID_135_);fill:#80AF3E;}
	.st47{clip-path:url(#XMLID_136_);fill:#4B7312;}
	.st48{clip-path:url(#XMLID_137_);fill:#80AF3E;}
	.st49{clip-path:url(#XMLID_138_);fill:#80AF3E;}
	.st50{clip-path:url(#XMLID_139_);fill:#4B7312;}
	.st51{clip-path:url(#XMLID_140_);fill:#80AF3E;}
	.st52{clip-path:url(#XMLID_141_);fill:#80AF3E;}
	.st53{clip-path:url(#XMLID_142_);fill:#4B7312;}
	.st54{clip-path:url(#XMLID_143_);fill:#80AF3E;}
	.st55{clip-path:url(#XMLID_144_);fill:#80AF3E;}
	.st56{clip-path:url(#XMLID_145_);fill:#4B7312;}
	.st57{fill:none;stroke:#FFFFFF;stroke-width:4;stroke-miterlimit:10;}
	.st58{clip-path:url(#XMLID_149_);fill:#E6333E;}
	.st59{clip-path:url(#XMLID_150_);fill:#E6333E;}
	.st60{clip-path:url(#XMLID_151_);fill:#E6333E;}
	.st61{clip-path:url(#XMLID_152_);fill:#80AF3E;}
	.st62{clip-path:url(#XMLID_153_);fill:#80AF3E;}
	.st63{clip-path:url(#XMLID_154_);fill:#4B7312;}
	.st64{clip-path:url(#XMLID_155_);fill:#80AF3E;}
	.st65{clip-path:url(#XMLID_156_);fill:#80AF3E;}
	.st66{clip-path:url(#XMLID_157_);fill:#4B7312;}
	.st67{clip-path:url(#XMLID_158_);fill:#80AF3E;}
	.st68{clip-path:url(#XMLID_159_);fill:#80AF3E;}
	.st69{clip-path:url(#XMLID_160_);fill:#4B7312;}
	.st70{clip-path:url(#XMLID_161_);fill:#ED3D4B;}
	.st71{clip-path:url(#XMLID_162_);fill:#ED3D4B;}
	.st72{clip-path:url(#XMLID_163_);fill:#ED3D4B;}
	.st73{clip-path:url(#XMLID_164_);fill:#FFFFFF;}
	.st74{clip-path:url(#XMLID_165_);fill:#FFFFFF;}
	.st75{clip-path:url(#XMLID_166_);fill:#FFFFFF;}
	.st76{clip-path:url(#XMLID_167_);fill:#80AF3E;}
	.st77{clip-path:url(#XMLID_168_);fill:#80AF3E;}
	.st78{clip-path:url(#XMLID_169_);fill:#4B7312;}
	.st79{clip-path:url(#XMLID_170_);fill:#80AF3E;}
	.st80{clip-path:url(#XMLID_171_);fill:#80AF3E;}
	.st81{clip-path:url(#XMLID_172_);fill:#4B7312;}
	.st82{clip-path:url(#XMLID_173_);fill:#80AF3E;}
	.st83{clip-path:url(#XMLID_174_);fill:#80AF3E;}
	.st84{clip-path:url(#XMLID_175_);fill:#4B7312;}
	.st85{clip-path:url(#XMLID_176_);fill:#80AF3E;}
	.st86{clip-path:url(#XMLID_177_);fill:#80AF3E;}
	.st87{clip-path:url(#XMLID_178_);fill:#4B7312;}
	.st88{clip-path:url(#XMLID_179_);fill:#80AF3E;}
	.st89{clip-path:url(#XMLID_180_);fill:#80AF3E;}
	.st90{clip-path:url(#XMLID_181_);fill:#4B7312;}
	.st91{clip-path:url(#XMLID_182_);fill:#E6333E;}
	.st92{clip-path:url(#XMLID_183_);fill:#E6333E;}
	.st93{clip-path:url(#XMLID_184_);fill:#E6333E;}
	.st94{clip-path:url(#XMLID_185_);fill:#80AF3E;}
	.st95{clip-path:url(#XMLID_186_);fill:#80AF3E;}
	.st96{clip-path:url(#XMLID_187_);fill:#4B7312;}
	.st97{clip-path:url(#XMLID_188_);fill:#80AF3E;}
	.st98{clip-path:url(#XMLID_189_);fill:#80AF3E;}
	.st99{clip-path:url(#XMLID_190_);fill:#4B7312;}
	.st100{opacity:0.15;clip-path:url(#XMLID_191_);}
	.st101{opacity:0.25;clip-path:url(#XMLID_191_);}
	.st102{opacity:0.15;clip-path:url(#XMLID_192_);}
	.st103{opacity:0.25;clip-path:url(#XMLID_192_);}
	.st104{clip-path:url(#XMLID_193_);fill:#E6333E;}
	.st105{clip-path:url(#XMLID_194_);fill:#E6333E;}
	.st106{clip-path:url(#XMLID_195_);fill:#E6333E;}
	.st107{clip-path:url(#XMLID_196_);fill:#80AF3E;}
	.st108{clip-path:url(#XMLID_197_);fill:#80AF3E;}
	.st109{clip-path:url(#XMLID_198_);fill:#4B7312;}
	.st110{clip-path:url(#XMLID_199_);fill:#80AF3E;}
	.st111{clip-path:url(#XMLID_200_);fill:#80AF3E;}
	.st112{clip-path:url(#XMLID_201_);fill:#4B7312;}
	.st113{clip-path:url(#XMLID_202_);fill:#FFFFFF;}
	.st114{clip-path:url(#XMLID_203_);fill:#FFFFFF;}
	.st115{clip-path:url(#XMLID_204_);fill:#FFFFFF;}
	.st116{opacity:0.15;clip-path:url(#XMLID_205_);}
	.st117{fill:#D31E35;}
	.st118{opacity:0.25;clip-path:url(#XMLID_205_);}
	.st119{opacity:0.15;clip-path:url(#XMLID_206_);}
	.st120{opacity:0.25;clip-path:url(#XMLID_206_);}
	.st121{clip-path:url(#XMLID_207_);fill:#E6333E;}
	.st122{clip-path:url(#XMLID_208_);fill:#E6333E;}
	.st123{clip-path:url(#XMLID_209_);fill:#E6333E;}
	.st124{clip-path:url(#XMLID_210_);fill:#80AF3E;}
	.st125{clip-path:url(#XMLID_211_);fill:#80AF3E;}
	.st126{clip-path:url(#XMLID_212_);fill:#4B7312;}
	.st127{clip-path:url(#XMLID_213_);fill:#80AF3E;}
	.st128{clip-path:url(#XMLID_214_);fill:#80AF3E;}
	.st129{clip-path:url(#XMLID_215_);fill:#4B7312;}
	.st130{opacity:0.15;clip-path:url(#XMLID_216_);}
	.st131{opacity:0.25;clip-path:url(#XMLID_216_);}
	.st132{clip-path:url(#XMLID_217_);fill:#80AF3E;}
	.st133{clip-path:url(#XMLID_218_);fill:#80AF3E;}
	.st134{clip-path:url(#XMLID_219_);fill:#4B7312;}
	.st135{opacity:0.15;clip-path:url(#XMLID_223_);}
	.st136{opacity:0.25;clip-path:url(#XMLID_223_);}
	.st137{opacity:0.15;clip-path:url(#XMLID_224_);}
	.st138{opacity:0.25;clip-path:url(#XMLID_224_);}
	.st139{opacity:0.15;clip-path:url(#XMLID_225_);}
	.st140{opacity:0.25;clip-path:url(#XMLID_225_);}
	.st141{opacity:0.15;clip-path:url(#XMLID_226_);}
	.st142{opacity:0.25;clip-path:url(#XMLID_226_);}
	.st143{clip-path:url(#XMLID_227_);fill:#80AF3E;}
	.st144{clip-path:url(#XMLID_228_);fill:#80AF3E;}
	.st145{clip-path:url(#XMLID_229_);fill:#4B7312;}
	.st146{opacity:0.15;clip-path:url(#XMLID_230_);}
	.st147{opacity:0.25;clip-path:url(#XMLID_230_);}
	.st148{opacity:0.15;clip-path:url(#XMLID_231_);}
	.st149{opacity:0.25;clip-path:url(#XMLID_231_);}
	.st150{clip-path:url(#XMLID_232_);fill:#FFFFFF;}
	.st151{clip-path:url(#XMLID_233_);fill:#FFFFFF;}
	.st152{clip-path:url(#XMLID_234_);fill:#FFFFFF;}
	.st153{opacity:0.75;fill:#24244E;}
	.st154{fill:none;stroke:#80AE3C;stroke-width:4;stroke-miterlimit:10;}
	.st155{fill:none;stroke:#24244E;stroke-width:2;stroke-linecap:round;stroke-miterlimit:10;}
</style>
<g id="_x5F_REFE">
</g>
<g id="BG">
</g>
<g id="GRAFICA">
	<g>
		<g>
			<g>
				<defs>
					<path id="XMLID_92_" d="M11.69,23.29C5,20.51,3.22,10.97,8,5.65c2.88-3.36,7.86-4.02,11.95-2.85c1.32,0.39,1.21,0.13,1.25,1.62
						c0.05,1.79-0.47,3.44-1.31,5c-2.88,4.97-7.11,6.03-7.73,12.83c-0.03,0.35-0.05,0.69-0.05,1.04
						C12.02,23.3,11.79,23.33,11.69,23.29z"/>
				</defs>
				<use xlink:href="#XMLID_92_"  style="overflow:visible;fill:#FFFFFF;"/>
				<clipPath id="XMLID_102_">
					<use xlink:href="#XMLID_92_"  style="overflow:visible;"/>
				</clipPath>
				<path style="clip-path:url(#XMLID_102_);fill:#80AF3E;" d="M7.54,4.03C7.56,4.05,7.58,4.06,7.6,4.07
					c0.09,0.05,0.2,0.05,0.3,0.04c0.58-0.05,1.12-0.32,1.66-0.56c2.63-1.13,5.67-1.31,8.42-0.48c0.43,0.13,0.85,0.28,1.22,0.54
					c0.26,0.18,0.49,0.41,0.64,0.68c0.07,0.12,0.12,0.25,0.19,0.36c0.05,0.07,0.06,0.15,0.08,0.23c0.09,0.45,0.07,0.91-0.02,1.35
					c-0.19,1.01-0.67,1.95-1.22,2.82c-2.35,3.76-5.99,6.77-7.39,10.97c-0.38,1.15-0.58,2.4-0.26,3.57c0.06,0.22,0.17,0.47,0.4,0.52
					c0.13,0.03,0.26-0.01,0.38-0.07c0.9-0.39,1.5-1.24,1.97-2.1c0.73-1.32,1.26-2.74,1.98-4.06c1.08-1.98,2.55-3.72,3.86-5.56
					c1.31-1.84,2.48-3.85,2.83-6.08c0.23-1.5,0.01-3.17-0.9-4.42c-0.22-0.3-0.47-0.56-0.76-0.79c-0.14-0.11-0.29-0.19-0.42-0.3
					c-0.09-0.07-0.16-0.17-0.26-0.23c-0.3-0.2-0.75-0.26-1.1-0.33c-0.41-0.07-0.83-0.11-1.25-0.14c-0.1-0.01-0.2-0.01-0.29-0.02
					c-0.98-0.05-1.96-0.04-2.94,0.06c-0.97,0.1-1.93,0.28-2.87,0.56c-0.23,0.07-0.46,0.15-0.69,0.23c-0.19,0.07-0.39,0.11-0.59,0.18
					C10.19,1.2,9.8,1.37,9.43,1.57C8.7,1.96,8.03,2.49,7.58,3.2C7.49,3.34,7.41,3.49,7.4,3.65C7.39,3.79,7.44,3.94,7.54,4.03z"/>
			</g>
			<g>
				<defs>
					<path id="XMLID_91_" d="M22.55,3.98c6.04,3.93,5.97,13.66,0.39,17.96c-2.6,2.31-6.11,2.14-9.37,1.88
						c-0.38-0.01-0.53-0.19-0.57-0.55c-0.67-3.71,1.81-6.55,4.43-8.8C24.68,8.17,20.22,2.31,22.55,3.98z"/>
				</defs>
				<use xlink:href="#XMLID_91_"  style="overflow:visible;fill:#FFFFFF;"/>
				<clipPath id="XMLID_103_">
					<use xlink:href="#XMLID_91_"  style="overflow:visible;"/>
				</clipPath>
				<path style="clip-path:url(#XMLID_103_);fill:#80AF3E;" d="M21.04,25.53c4.55-1.75,8.59-5.4,9.73-10.13
					c1.09-4.51-0.76-9.59-4.49-12.34c-0.48-0.35-0.99-0.67-1.53-0.91c-0.22-0.1-0.47-0.15-0.66-0.29c-0.16-0.12-0.39-0.18-0.58-0.22
					c-0.42-0.08-0.86-0.04-1.27,0.08c-0.24,0.07-0.48,0.18-0.7,0.31c-0.77,0.47-1.33,1.23-1.76,2.03c-0.87,1.56-1.36,3.33-1.42,5.12
					c-0.02,0.64,0.01,1.31,0.3,1.88c0.03,0.06,0.06,0.12,0.12,0.15c0.09,0.05,0.2,0.02,0.29-0.02c0.91-0.39,1.65-1.13,2.13-2
					c0.48-0.87,0.73-1.85,0.84-2.84c0.07-0.57,0.11-1.2,0.5-1.61c0.24-0.25,0.73-0.46,1.08-0.32c0.11,0.04,0.21,0.1,0.31,0.16
					c0.2,0.13,0.36,0.31,0.51,0.5c0.14,0.18,0.25,0.38,0.35,0.59c0.05,0.1,0.11,0.19,0.14,0.3c0.02,0.08,0.02,0.15,0.06,0.23
					c0.19,0.44,0.42,0.86,0.6,1.3c0.13,0.3,0.24,0.61,0.35,0.93c1.11,3.38,0.51,7.26-1.5,10.21s-5.34,4.92-8.88,5.35
					c-0.72,0.09-1.69,0.09-2.3,0.54c-0.53,0.39,0,1.01,0.37,1.29c0.61,0.45,1.44,0.57,2.18,0.63c0.83,0.07,1.67,0.01,2.49-0.12
					C19.23,26.14,20.15,25.87,21.04,25.53z"/>
			</g>
		</g>
		<g>
			<defs>
				<path id="XMLID_90_" d="M30.09,35.42c-2.45-4.89-7.24-9.43-13.07-8.7c-0.57,0.12-1.11,0.09-1.6,0c-5.84-0.75-10.64,3.8-13.1,8.7
					c-1.04,1.86-1.48,4-1.25,6.13c0.18,1.76,0.54,3.57,1.6,5.03c0.47,0.38,0.42,1.8,1.27,1.38c0.2,0.49,0.35,1.26,1.04,1.15
					c-0.02-0.17-0.04-0.32-0.06-0.48c0.11,0.07,0.17,0.17,0.2,0.27c0.1,0.33,0.84,1.44,1.12,0.81c0.12-0.19,0.21-0.2,0.37-0.03
					c0.29,0.34,0.69,0.55,1.08,0.75c0.64-0.37,0-2.3-0.1-2.96c-0.08-0.3-0.42-0.41-0.67-0.56c0.01-0.02,0.02-0.04,0.03-0.06
					c0.25,0.02,1.45,0.71,1.16,0.06c-0.42-0.71-0.89-1.38-1.31-2.09c0.03-0.02,0.05-0.04,0.08-0.07c0.09,0.07,0.19,0.13,0.31,0.22
					c-0.44-5.6,1.79-12.09,6.41-15.52c-0.21,0.46-0.42,0.92-0.61,1.38c-1.22,3.05-2.06,6.27-2.5,9.52c-0.45,3.3-0.51,6.73,0.24,9.99
					c0.68,2.96,2.1,5.79,4.53,7.68c0.23-0.69-0.1-1.42-0.15-2.13c-0.15-1.17-0.39-2.32-0.54-3.49c-0.38-2.95-0.31-5.98,0.58-8.83
					c0.58-1.55,1.43-2.85,1.9-0.35c0.41,1.08,0.62,2.19,0.57,3.36c0.28,2.34,0.24,4.67-0.07,7.01c-0.08,1.51-0.69,3.01-0.37,4.5
					c-0.01-0.03,0.25-0.21,0.28-0.23c0.09-0.08,0.18-0.16,0.27-0.25c0.18-0.17,0.35-0.34,0.52-0.51c0.43-0.45,0.82-0.93,1.17-1.44
					c0.35-0.51,0.67-1.05,0.95-1.6c0.28-0.56,0.53-1.14,0.74-1.73c0.22-0.61,0.4-1.22,0.55-1.85c0.15-0.64,0.27-1.29,0.36-1.94
					c0.09-0.67,0.16-1.34,0.2-2.01c0.04-0.68,0.05-1.37,0.04-2.06c-0.01-0.69-0.05-1.39-0.1-2.08c-0.06-0.7-0.13-1.39-0.23-2.08
					c-0.1-0.69-0.21-1.38-0.34-2.06c-0.13-0.68-0.28-1.35-0.44-2.02c-0.16-0.66-0.34-1.31-0.53-1.96c-0.19-0.63-0.39-1.25-0.6-1.87
					c-0.21-0.59-0.43-1.18-0.67-1.76c-0.16-0.4-0.34-0.79-0.51-1.18c4.62,3.43,6.84,9.92,6.41,15.52c0.12-0.09,0.22-0.16,0.31-0.22
					c0.03,0.02,0.05,0.04,0.08,0.07c-0.42,0.71-0.89,1.38-1.31,2.09c-0.29,0.66,0.91-0.04,1.16-0.06c0.01,0.02,0.02,0.04,0.03,0.06
					c-0.25,0.14-0.59,0.25-0.67,0.56c-0.11,0.66-0.74,2.59-0.1,2.96c0.39-0.2,0.79-0.41,1.08-0.75c0.16-0.17,0.25-0.16,0.37,0.03
					c0.27,0.63,1.01-0.48,1.12-0.81c0.03-0.1,0.09-0.19,0.2-0.27c-0.02,0.16-0.04,0.32-0.06,0.48c0.7,0.11,0.85-0.66,1.04-1.15
					c0.84,0.42,0.79-1,1.27-1.38c1.06-1.47,1.42-3.27,1.6-5.03C31.58,39.42,31.14,37.28,30.09,35.42z"/>
			</defs>
			<use xlink:href="#XMLID_90_"  style="overflow:visible;fill:#80AF3E;"/>
			<clipPath id="XMLID_104_">
				<use xlink:href="#XMLID_90_"  style="overflow:visible;"/>
			</clipPath>
			<path style="clip-path:url(#XMLID_104_);fill:#4B7312;" d="M0.47,47.31C0,47.77-0.04,48.63,0.03,49.33
				c0.3,3.14,1.27,6.41,3.63,8.52c1.16,1.04,2.59,1.72,4.05,2.23c0.75,0.26,1.51,0.45,2.26,0.7c0.26,0.09,0.49,0.23,0.74,0.35
				c0.29,0.15,0.61,0.18,0.93,0.2c1.28,0.08,2.57,0.07,3.86,0.01c6.45-0.28,13.26-1.8,17.78-6.41c2.11-2.15,3.6-4.87,4.59-7.72
				c1.5-4.33,1.88-9.1,0.68-13.52c-0.55-2.02-1.52-4.07-3.3-5.17c-0.83-0.52-1.82-0.77-2.79-0.76c-0.26,0-0.48,0.06-0.73,0.07
				c-0.32,0.02-0.64,0.05-0.95,0.1c-0.61,0.1-1.22,0.28-1.74,0.62c-0.38,0.26-0.69,0.61-0.86,1.04c-0.22,0.55-0.18,1.17-0.11,1.76
				c0.31,2.69,1.14,5.3,1.32,8c0.18,2.7-0.45,5.66-2.53,7.39c-0.5,0.41-1.08,0.76-1.41,1.31c-0.54,0.89-0.37,2.16-1.14,2.86
				c-0.1,0.09-0.24,0.18-0.38,0.16c-0.27-0.03-0.37-0.35-0.41-0.62c-0.51-3.55,0.17-7.18-0.16-10.75c-0.07-0.79-0.23-1.63-0.8-2.18
				c-0.09-0.09-0.21-0.17-0.33-0.16c-0.27,0.01-0.35,0.37-0.34,0.64c0.02,2.79,0.06,5.58-0.31,8.35c-0.27,1.98-0.76,3.95-1.6,5.77
				c-0.11,0.23-0.24,0.43-0.36,0.65c-0.1,0.19-0.2,0.37-0.3,0.55c-0.21,0.36-0.43,0.72-0.66,1.06c-0.21,0.31-0.44,0.62-0.67,0.92
				c-0.11,0.14-0.22,0.32-0.36,0.44c-0.13,0.11-0.27,0.22-0.42,0.32c-0.21,0.14-0.48,0.26-0.72,0.16c-0.15-0.06-0.28-0.2-0.41-0.3
				c-0.11-0.08-0.19-0.19-0.28-0.29c-0.15-0.15-0.3-0.3-0.46-0.45c-0.07-0.07-0.15-0.15-0.22-0.22c-0.02-0.02-0.2-0.23-0.22-0.22
				c-0.57,0.21-0.18,1.11-0.43,1.66c-0.28,0.6-1.16,0.51-1.77,0.27c-1.25-0.49-2.49-1.27-3.03-2.51c-0.29-0.67-0.35-1.4-0.39-2.13
				c-0.21-3.21-0.28-6.43-0.19-9.65c0.04-1.65,0.12-3.35-0.47-4.89c-0.07-0.17-0.18-0.37-0.37-0.36c-0.14,0.01-0.24,0.14-0.32,0.27
				c-1.6,2.62-1.99,5.8-2.07,8.87c-0.01,0.42-0.06,0.92-0.43,1.11c-0.21,0.11-0.46,0.08-0.7,0.05c-0.94-0.12-1.88-0.25-2.81-0.37
				c-0.36-0.05-0.75-0.09-1.08,0.05C0.68,47.15,0.57,47.22,0.47,47.31z"/>
		</g>
	</g>
</g>
<g id="TXT">
</g>
<g id="ILUSTRACIONES">
</g>
<g id="BG_x5F_INST">
</g>
<g id="INSTRUCCIONES">
</g>
<g id="HEADER">
</g>
</svg>
