<?xml version="1.0" encoding="utf-8"?>
<!-- Generator: Adobe Illustrator 25.1.0, SVG Export Plug-In . SVG Version: 6.00 Build 0)  -->
<svg version="1.1" xmlns="http://www.w3.org/2000/svg" xmlns:xlink="http://www.w3.org/1999/xlink" x="0px" y="0px"
	 viewBox="0 0 133.45 133.46" style="enable-background:new 0 0 133.45 133.46;" xml:space="preserve">
<style type="text/css">
	.st0{fill:#80AE3C;}
	.st1{fill:#24244E;}
	.st2{fill:#4B0F13;}
	.st3{fill:#E6333E;}
	.st4{fill:#4B7312;}
	.st5{fill:#262A58;}
	.st6{fill:#3BC7ED;}
	.st7{fill:#2CBDBD;}
	.st8{fill:#121C33;}
	.st9{opacity:0.3;fill:url(#SVGID_1_);}
	.st10{fill:none;stroke:#121C33;stroke-width:2;stroke-miterlimit:10;}
	.st11{opacity:0.3;fill:url(#SVGID_2_);}
	.st12{opacity:0.3;fill:url(#SVGID_3_);}
	.st13{opacity:0.3;fill:url(#SVGID_4_);}
	.st14{opacity:0.3;fill:url(#SVGID_5_);}
	.st15{opacity:0.3;fill:url(#SVGID_6_);}
	.st16{opacity:0.3;fill:url(#SVGID_7_);}
	.st17{opacity:0.3;fill:url(#SVGID_8_);}
	.st18{opacity:0.3;fill:url(#SVGID_9_);}
	.st19{opacity:0.3;fill:url(#SVGID_10_);}
	.st20{opacity:0.3;fill:url(#SVGID_11_);}
	.st21{opacity:0.3;fill:url(#SVGID_12_);}
	.st22{fill:#ED3D4B;}
	.st23{fill:#80AF3E;}
	.st24{opacity:0.15;clip-path:url(#XMLID_102_);}
	.st25{fill:#1DB4D3;}
	.st26{opacity:0.25;clip-path:url(#XMLID_102_);}
	.st27{opacity:0.15;clip-path:url(#XMLID_103_);}
	.st28{opacity:0.25;clip-path:url(#XMLID_103_);}
	.st29{fill:#FFFFFF;}
	.st30{fill:#F7F7F7;}
	.st31{fill:#A144AF;}
	.st32{fill:none;stroke:#80AF3E;stroke-width:2;stroke-miterlimit:10;}
	.st33{clip-path:url(#XMLID_104_);fill:#80AF3E;}
	.st34{clip-path:url(#XMLID_105_);fill:#80AF3E;}
	.st35{clip-path:url(#XMLID_106_);fill:#4B7312;}
	.st36{clip-path:url(#XMLID_113_);fill:#80AF3E;}
	.st37{clip-path:url(#XMLID_114_);fill:#80AF3E;}
	.st38{clip-path:url(#XMLID_115_);fill:#4B7312;}
	.st39{clip-path:url(#XMLID_116_);fill:#80AF3E;}
	.st40{clip-path:url(#XMLID_117_);fill:#80AF3E;}
	.st41{clip-path:url(#XMLID_118_);fill:#4B7312;}
	.st42{clip-path:url(#XMLID_119_);fill:#80AF3E;}
	.st43{clip-path:url(#XMLID_120_);fill:#80AF3E;}
	.st44{clip-path:url(#XMLID_133_);fill:#4B7312;}
	.st45{clip-path:url(#XMLID_134_);fill:#80AF3E;}
	.st46{clip-path:url(#XMLID_135_);fill:#80AF3E;}
	.st47{clip-path:url(#XMLID_136_);fill:#4B7312;}
	.st48{clip-path:url(#XMLID_137_);fill:#80AF3E;}
	.st49{clip-path:url(#XMLID_138_);fill:#80AF3E;}
	.st50{clip-path:url(#XMLID_139_);fill:#4B7312;}
	.st51{clip-path:url(#XMLID_140_);fill:#80AF3E;}
	.st52{clip-path:url(#XMLID_141_);fill:#80AF3E;}
	.st53{clip-path:url(#XMLID_142_);fill:#4B7312;}
	.st54{clip-path:url(#XMLID_143_);fill:#80AF3E;}
	.st55{clip-path:url(#XMLID_144_);fill:#80AF3E;}
	.st56{clip-path:url(#XMLID_145_);fill:#4B7312;}
	.st57{fill:none;stroke:#FFFFFF;stroke-width:4;stroke-miterlimit:10;}
	.st58{clip-path:url(#XMLID_149_);fill:#E6333E;}
	.st59{clip-path:url(#XMLID_150_);fill:#E6333E;}
	.st60{clip-path:url(#XMLID_151_);fill:#E6333E;}
	.st61{clip-path:url(#XMLID_152_);fill:#80AF3E;}
	.st62{clip-path:url(#XMLID_153_);fill:#80AF3E;}
	.st63{clip-path:url(#XMLID_154_);fill:#4B7312;}
	.st64{clip-path:url(#XMLID_155_);fill:#80AF3E;}
	.st65{clip-path:url(#XMLID_156_);fill:#80AF3E;}
	.st66{clip-path:url(#XMLID_157_);fill:#4B7312;}
	.st67{clip-path:url(#XMLID_158_);fill:#80AF3E;}
	.st68{clip-path:url(#XMLID_159_);fill:#80AF3E;}
	.st69{clip-path:url(#XMLID_160_);fill:#4B7312;}
	.st70{clip-path:url(#XMLID_161_);fill:#ED3D4B;}
	.st71{clip-path:url(#XMLID_162_);fill:#ED3D4B;}
	.st72{clip-path:url(#XMLID_163_);fill:#ED3D4B;}
	.st73{clip-path:url(#XMLID_164_);fill:#FFFFFF;}
	.st74{clip-path:url(#XMLID_165_);fill:#FFFFFF;}
	.st75{clip-path:url(#XMLID_166_);fill:#FFFFFF;}
	.st76{clip-path:url(#XMLID_167_);fill:#80AF3E;}
	.st77{clip-path:url(#XMLID_168_);fill:#80AF3E;}
	.st78{clip-path:url(#XMLID_169_);fill:#4B7312;}
	.st79{clip-path:url(#XMLID_170_);fill:#80AF3E;}
	.st80{clip-path:url(#XMLID_171_);fill:#80AF3E;}
	.st81{clip-path:url(#XMLID_172_);fill:#4B7312;}
	.st82{clip-path:url(#XMLID_173_);fill:#80AF3E;}
	.st83{clip-path:url(#XMLID_174_);fill:#80AF3E;}
	.st84{clip-path:url(#XMLID_175_);fill:#4B7312;}
	.st85{clip-path:url(#XMLID_176_);fill:#80AF3E;}
	.st86{clip-path:url(#XMLID_177_);fill:#80AF3E;}
	.st87{clip-path:url(#XMLID_178_);fill:#4B7312;}
	.st88{clip-path:url(#XMLID_179_);fill:#80AF3E;}
	.st89{clip-path:url(#XMLID_180_);fill:#80AF3E;}
	.st90{clip-path:url(#XMLID_181_);fill:#4B7312;}
	.st91{clip-path:url(#XMLID_182_);fill:#E6333E;}
	.st92{clip-path:url(#XMLID_183_);fill:#E6333E;}
	.st93{clip-path:url(#XMLID_184_);fill:#E6333E;}
	.st94{clip-path:url(#XMLID_185_);fill:#80AF3E;}
	.st95{clip-path:url(#XMLID_186_);fill:#80AF3E;}
	.st96{clip-path:url(#XMLID_187_);fill:#4B7312;}
	.st97{clip-path:url(#XMLID_188_);fill:#80AF3E;}
	.st98{clip-path:url(#XMLID_189_);fill:#80AF3E;}
	.st99{clip-path:url(#XMLID_190_);fill:#4B7312;}
	.st100{opacity:0.15;clip-path:url(#XMLID_191_);}
	.st101{opacity:0.25;clip-path:url(#XMLID_191_);}
	.st102{opacity:0.15;clip-path:url(#XMLID_192_);}
	.st103{opacity:0.25;clip-path:url(#XMLID_192_);}
	.st104{clip-path:url(#XMLID_193_);fill:#E6333E;}
	.st105{clip-path:url(#XMLID_194_);fill:#E6333E;}
	.st106{clip-path:url(#XMLID_195_);fill:#E6333E;}
	.st107{clip-path:url(#XMLID_196_);fill:#80AF3E;}
	.st108{clip-path:url(#XMLID_197_);fill:#80AF3E;}
	.st109{clip-path:url(#XMLID_198_);fill:#4B7312;}
	.st110{clip-path:url(#XMLID_199_);fill:#80AF3E;}
	.st111{clip-path:url(#XMLID_200_);fill:#80AF3E;}
	.st112{clip-path:url(#XMLID_201_);fill:#4B7312;}
	.st113{clip-path:url(#XMLID_202_);fill:#FFFFFF;}
	.st114{clip-path:url(#XMLID_203_);fill:#FFFFFF;}
	.st115{clip-path:url(#XMLID_204_);fill:#FFFFFF;}
	.st116{opacity:0.15;clip-path:url(#XMLID_205_);}
	.st117{fill:#D31E35;}
	.st118{opacity:0.25;clip-path:url(#XMLID_205_);}
	.st119{opacity:0.15;clip-path:url(#XMLID_206_);}
	.st120{opacity:0.25;clip-path:url(#XMLID_206_);}
	.st121{clip-path:url(#XMLID_207_);fill:#E6333E;}
	.st122{clip-path:url(#XMLID_208_);fill:#E6333E;}
	.st123{clip-path:url(#XMLID_209_);fill:#E6333E;}
	.st124{clip-path:url(#XMLID_210_);fill:#80AF3E;}
	.st125{clip-path:url(#XMLID_211_);fill:#80AF3E;}
	.st126{clip-path:url(#XMLID_212_);fill:#4B7312;}
	.st127{clip-path:url(#XMLID_213_);fill:#80AF3E;}
	.st128{clip-path:url(#XMLID_214_);fill:#80AF3E;}
	.st129{clip-path:url(#XMLID_215_);fill:#4B7312;}
	.st130{opacity:0.15;clip-path:url(#XMLID_216_);}
	.st131{opacity:0.25;clip-path:url(#XMLID_216_);}
	.st132{clip-path:url(#XMLID_217_);fill:#80AF3E;}
	.st133{clip-path:url(#XMLID_218_);fill:#80AF3E;}
	.st134{clip-path:url(#XMLID_219_);fill:#4B7312;}
	.st135{opacity:0.15;clip-path:url(#XMLID_223_);}
	.st136{opacity:0.25;clip-path:url(#XMLID_223_);}
	.st137{opacity:0.15;clip-path:url(#XMLID_224_);}
	.st138{opacity:0.25;clip-path:url(#XMLID_224_);}
	.st139{opacity:0.15;clip-path:url(#XMLID_225_);}
	.st140{opacity:0.25;clip-path:url(#XMLID_225_);}
	.st141{opacity:0.15;clip-path:url(#XMLID_226_);}
	.st142{opacity:0.25;clip-path:url(#XMLID_226_);}
	.st143{clip-path:url(#XMLID_227_);fill:#80AF3E;}
	.st144{clip-path:url(#XMLID_228_);fill:#80AF3E;}
	.st145{clip-path:url(#XMLID_229_);fill:#4B7312;}
	.st146{opacity:0.15;clip-path:url(#XMLID_230_);}
	.st147{opacity:0.25;clip-path:url(#XMLID_230_);}
	.st148{opacity:0.15;clip-path:url(#XMLID_231_);}
	.st149{opacity:0.25;clip-path:url(#XMLID_231_);}
	.st150{clip-path:url(#XMLID_232_);fill:#FFFFFF;}
	.st151{clip-path:url(#XMLID_233_);fill:#FFFFFF;}
	.st152{clip-path:url(#XMLID_234_);fill:#FFFFFF;}
	.st153{opacity:0.75;fill:#24244E;}
	.st154{fill:none;stroke:#80AE3C;stroke-width:4;stroke-miterlimit:10;}
	.st155{fill:none;stroke:#24244E;stroke-width:2;stroke-linecap:round;stroke-miterlimit:10;}
</style>
<g id="_x5F_REFE">
</g>
<g id="BG">
</g>
<g id="GRAFICA">
	<g>
		<path class="st29" d="M18.79,71.18c-1.64-0.24-3.17,0.28-4.72,1.83c-3.45,3.42-8.63,2.87-12.09-0.92
			c-2.93-3.21-2.56-8.3,0.83-11.54c3.3-3.16,8.46-3.05,11.75,0.26c1.23,1.23,6.48,2.12,7.93,1.35c0.64-0.34,0.66-0.97,0.74-1.53
			c1.11-7.61,4.05-14.44,8.67-20.57c0.67-0.89,0.5-1.51-0.25-2.2c-0.78-0.71-1.57-1.43-2.23-2.25c-1.05-1.29-2.31-1.68-3.98-1.65
			c-4.73,0.08-8.35-3.67-8.35-8.42c0-4.76,3.65-8.42,8.4-8.44c4.73-0.02,8.41,3.59,8.5,8.33c0.04,1.99,2.83,6.12,4.6,6.85
			c0.88,0.36,1.36-0.34,1.9-0.73c5.36-3.91,11.27-6.56,17.76-7.9c4.04-0.83,3.99-0.83,4.06-4.86c0.03-1.79-0.3-3.15-1.72-4.53
			c-3.43-3.35-3.08-8.57,0.49-11.97c3.4-3.23,8.44-3.01,11.83,0.53c3.22,3.36,3.06,8.5-0.38,11.89c-1.13,1.12-1.95,6.4-1.22,7.79
			c0.33,0.64,0.97,0.66,1.53,0.74c7.61,1.11,14.44,4.05,20.57,8.66c0.89,0.67,1.51,0.52,2.2-0.24c0.66-0.73,1.35-1.46,2.1-2.09
			c1.29-1.09,1.84-2.33,1.82-4.11c-0.06-4.85,3.76-8.44,8.61-8.36c4.71,0.08,8.29,3.82,8.23,8.6c-0.05,4.72-3.71,8.28-8.51,8.29
			c-1.83,0.01-5.91,2.84-6.66,4.59c-0.38,0.89,0.32,1.36,0.72,1.9c3.91,5.36,6.57,11.26,7.91,17.76c0.84,4.05,0.84,4.01,5.05,4.07
			c1.65,0.02,2.91-0.27,4.19-1.58c3.41-3.5,8.58-3.3,11.99,0.2c3.32,3.42,3.22,8.4-0.24,11.84c-3.32,3.31-8.45,3.27-11.9-0.09
			c-1.28-1.25-6.44-2.13-7.92-1.37c-0.65,0.33-0.68,0.96-0.76,1.52c-1.09,7.61-4.05,14.44-8.65,20.57c-0.66,0.88-0.55,1.5,0.22,2.2
			c0.78,0.71,1.56,1.43,2.23,2.24c1.05,1.28,2.3,1.69,3.97,1.68c4.77-0.04,8.37,3.68,8.37,8.41c0,4.75-3.65,8.42-8.4,8.44
			c-4.74,0.02-8.6-3.57-8.43-8.32c0.12-3.63-2.89-4.74-4.7-6.83c-0.42-0.49-0.99,0.04-1.4,0.35c-6.15,4.58-12.96,7.57-20.58,8.63
			c-1.32,0.18-1.81,0.83-1.71,2.12c0.07,0.92,0.07,1.85,0,2.77c-0.13,1.61,0.37,2.78,1.59,3.98c3.57,3.53,3.26,8.71-0.51,12.27
			c-3.32,3.13-8.41,2.78-11.83-0.82c-3.08-3.24-2.89-8.54,0.56-11.72c0.98-0.9,1.42-1.8,1.34-3.08c-0.07-1.12-0.1-2.25,0.01-3.36
			c0.13-1.44-0.53-2.01-1.87-2.19c-7.49-1.03-14.19-3.97-20.21-8.47c-1.03-0.77-1.72-0.65-2.51,0.26c-0.64,0.75-1.34,1.47-2.1,2.1
			c-1.29,1.05-1.68,2.31-1.67,3.97c0.04,4.75-3.7,8.37-8.42,8.36c-4.75-0.01-8.41-3.66-8.43-8.41c-0.02-4.73,3.59-8.4,8.34-8.49
			c1.98-0.04,6.13-2.86,6.85-4.61c0.26-0.62-0.09-1.02-0.4-1.43c-4.58-6.15-7.56-12.97-8.62-20.58c-0.19-1.33-0.85-1.81-2.13-1.69
			C20.47,71.23,19.8,71.18,18.79,71.18z M70.82,89.25c4.59,0.02,8.05-3.39,8.07-7.96c0.02-4.43-3.65-8.11-8.05-8.07
			c-4.35,0.03-7.94,3.62-7.97,7.96C62.84,85.76,66.25,89.23,70.82,89.25z M59.88,57.46c0.02-3.96-3-7.07-6.91-7.14
			c-3.66-0.06-7.09,3.36-7.1,7.07c0,3.74,3.14,6.88,6.93,6.91C56.87,64.35,59.87,61.45,59.88,57.46z M79.49,54.35
			c0.03,3.31,2.8,5.98,6.12,5.91c3.15-0.07,5.84-2.91,5.78-6.09c-0.06-3.22-2.8-5.94-5.96-5.91C82.12,48.28,79.46,51,79.49,54.35z"
			/>
	</g>
</g>
<g id="TXT">
</g>
<g id="ILUSTRACIONES">
</g>
<g id="BG_x5F_INST">
</g>
<g id="INSTRUCCIONES">
</g>
<g id="HEADER">
</g>
</svg>
