<?xml version="1.0" encoding="utf-8"?>
<!-- Generator: Adobe Illustrator 25.1.0, SVG Export Plug-In . SVG Version: 6.00 Build 0)  -->
<svg version="1.1" xmlns="http://www.w3.org/2000/svg" xmlns:xlink="http://www.w3.org/1999/xlink" x="0px" y="0px"
	 viewBox="0 0 317.51 214.28" style="enable-background:new 0 0 317.51 214.28;" xml:space="preserve">
<style type="text/css">
	.st0{fill:#80AE3C;}
	.st1{fill:#24244E;}
	.st2{fill:#4B0F13;}
	.st3{fill:#E6333E;}
	.st4{fill:#4B7312;}
	.st5{fill:#262A58;}
	.st6{fill:#3BC7ED;}
	.st7{fill:#2CBDBD;}
	.st8{fill:#121C33;}
	.st9{opacity:0.3;fill:url(#SVGID_1_);}
	.st10{fill:none;stroke:#121C33;stroke-width:2;stroke-miterlimit:10;}
	.st11{opacity:0.3;fill:url(#SVGID_2_);}
	.st12{opacity:0.3;fill:url(#SVGID_3_);}
	.st13{opacity:0.3;fill:url(#SVGID_4_);}
	.st14{opacity:0.3;fill:url(#SVGID_5_);}
	.st15{opacity:0.3;fill:url(#SVGID_6_);}
	.st16{opacity:0.3;fill:url(#SVGID_7_);}
	.st17{opacity:0.3;fill:url(#SVGID_8_);}
	.st18{opacity:0.3;fill:url(#SVGID_9_);}
	.st19{opacity:0.3;fill:url(#SVGID_10_);}
	.st20{opacity:0.3;fill:url(#SVGID_11_);}
	.st21{opacity:0.3;fill:url(#SVGID_12_);}
	.st22{fill:#ED3D4B;}
	.st23{fill:#80AF3E;}
	.st24{opacity:0.15;clip-path:url(#XMLID_102_);}
	.st25{fill:#1DB4D3;}
	.st26{opacity:0.25;clip-path:url(#XMLID_102_);}
	.st27{opacity:0.15;clip-path:url(#XMLID_103_);}
	.st28{opacity:0.25;clip-path:url(#XMLID_103_);}
	.st29{fill:#FFFFFF;}
	.st30{fill:#F7F7F7;}
	.st31{fill:#A144AF;}
	.st32{fill:none;stroke:#80AF3E;stroke-width:2;stroke-miterlimit:10;}
	.st33{clip-path:url(#XMLID_104_);fill:#80AF3E;}
	.st34{clip-path:url(#XMLID_105_);fill:#80AF3E;}
	.st35{clip-path:url(#XMLID_106_);fill:#4B7312;}
	.st36{clip-path:url(#XMLID_113_);fill:#80AF3E;}
	.st37{clip-path:url(#XMLID_114_);fill:#80AF3E;}
	.st38{clip-path:url(#XMLID_115_);fill:#4B7312;}
	.st39{clip-path:url(#XMLID_116_);fill:#80AF3E;}
	.st40{clip-path:url(#XMLID_117_);fill:#80AF3E;}
	.st41{clip-path:url(#XMLID_118_);fill:#4B7312;}
	.st42{clip-path:url(#XMLID_119_);fill:#80AF3E;}
	.st43{clip-path:url(#XMLID_120_);fill:#80AF3E;}
	.st44{clip-path:url(#XMLID_133_);fill:#4B7312;}
	.st45{clip-path:url(#XMLID_134_);fill:#80AF3E;}
	.st46{clip-path:url(#XMLID_135_);fill:#80AF3E;}
	.st47{clip-path:url(#XMLID_136_);fill:#4B7312;}
	.st48{clip-path:url(#XMLID_137_);fill:#80AF3E;}
	.st49{clip-path:url(#XMLID_138_);fill:#80AF3E;}
	.st50{clip-path:url(#XMLID_139_);fill:#4B7312;}
	.st51{clip-path:url(#XMLID_140_);fill:#80AF3E;}
	.st52{clip-path:url(#XMLID_141_);fill:#80AF3E;}
	.st53{clip-path:url(#XMLID_142_);fill:#4B7312;}
	.st54{clip-path:url(#XMLID_143_);fill:#80AF3E;}
	.st55{clip-path:url(#XMLID_144_);fill:#80AF3E;}
	.st56{clip-path:url(#XMLID_145_);fill:#4B7312;}
	.st57{fill:none;stroke:#FFFFFF;stroke-width:4;stroke-miterlimit:10;}
	.st58{clip-path:url(#XMLID_149_);fill:#E6333E;}
	.st59{clip-path:url(#XMLID_150_);fill:#E6333E;}
	.st60{clip-path:url(#XMLID_151_);fill:#E6333E;}
	.st61{clip-path:url(#XMLID_152_);fill:#80AF3E;}
	.st62{clip-path:url(#XMLID_153_);fill:#80AF3E;}
	.st63{clip-path:url(#XMLID_154_);fill:#4B7312;}
	.st64{clip-path:url(#XMLID_155_);fill:#80AF3E;}
	.st65{clip-path:url(#XMLID_156_);fill:#80AF3E;}
	.st66{clip-path:url(#XMLID_157_);fill:#4B7312;}
	.st67{clip-path:url(#XMLID_158_);fill:#80AF3E;}
	.st68{clip-path:url(#XMLID_159_);fill:#80AF3E;}
	.st69{clip-path:url(#XMLID_160_);fill:#4B7312;}
	.st70{clip-path:url(#XMLID_161_);fill:#ED3D4B;}
	.st71{clip-path:url(#XMLID_162_);fill:#ED3D4B;}
	.st72{clip-path:url(#XMLID_163_);fill:#ED3D4B;}
	.st73{clip-path:url(#XMLID_164_);fill:#FFFFFF;}
	.st74{clip-path:url(#XMLID_165_);fill:#FFFFFF;}
	.st75{clip-path:url(#XMLID_166_);fill:#FFFFFF;}
	.st76{clip-path:url(#XMLID_167_);fill:#80AF3E;}
	.st77{clip-path:url(#XMLID_168_);fill:#80AF3E;}
	.st78{clip-path:url(#XMLID_169_);fill:#4B7312;}
	.st79{clip-path:url(#XMLID_170_);fill:#80AF3E;}
	.st80{clip-path:url(#XMLID_171_);fill:#80AF3E;}
	.st81{clip-path:url(#XMLID_172_);fill:#4B7312;}
	.st82{clip-path:url(#XMLID_173_);fill:#80AF3E;}
	.st83{clip-path:url(#XMLID_174_);fill:#80AF3E;}
	.st84{clip-path:url(#XMLID_175_);fill:#4B7312;}
	.st85{clip-path:url(#XMLID_176_);fill:#80AF3E;}
	.st86{clip-path:url(#XMLID_177_);fill:#80AF3E;}
	.st87{clip-path:url(#XMLID_178_);fill:#4B7312;}
	.st88{clip-path:url(#XMLID_179_);fill:#80AF3E;}
	.st89{clip-path:url(#XMLID_180_);fill:#80AF3E;}
	.st90{clip-path:url(#XMLID_181_);fill:#4B7312;}
	.st91{clip-path:url(#XMLID_182_);fill:#E6333E;}
	.st92{clip-path:url(#XMLID_183_);fill:#E6333E;}
	.st93{clip-path:url(#XMLID_184_);fill:#E6333E;}
	.st94{clip-path:url(#XMLID_185_);fill:#80AF3E;}
	.st95{clip-path:url(#XMLID_186_);fill:#80AF3E;}
	.st96{clip-path:url(#XMLID_187_);fill:#4B7312;}
	.st97{clip-path:url(#XMLID_188_);fill:#80AF3E;}
	.st98{clip-path:url(#XMLID_189_);fill:#80AF3E;}
	.st99{clip-path:url(#XMLID_190_);fill:#4B7312;}
	.st100{opacity:0.15;clip-path:url(#XMLID_191_);}
	.st101{opacity:0.25;clip-path:url(#XMLID_191_);}
	.st102{opacity:0.15;clip-path:url(#XMLID_192_);}
	.st103{opacity:0.25;clip-path:url(#XMLID_192_);}
	.st104{clip-path:url(#XMLID_193_);fill:#E6333E;}
	.st105{clip-path:url(#XMLID_194_);fill:#E6333E;}
	.st106{clip-path:url(#XMLID_195_);fill:#E6333E;}
	.st107{clip-path:url(#XMLID_196_);fill:#80AF3E;}
	.st108{clip-path:url(#XMLID_197_);fill:#80AF3E;}
	.st109{clip-path:url(#XMLID_198_);fill:#4B7312;}
	.st110{clip-path:url(#XMLID_199_);fill:#80AF3E;}
	.st111{clip-path:url(#XMLID_200_);fill:#80AF3E;}
	.st112{clip-path:url(#XMLID_201_);fill:#4B7312;}
	.st113{clip-path:url(#XMLID_202_);fill:#FFFFFF;}
	.st114{clip-path:url(#XMLID_203_);fill:#FFFFFF;}
	.st115{clip-path:url(#XMLID_204_);fill:#FFFFFF;}
	.st116{opacity:0.15;clip-path:url(#XMLID_205_);}
	.st117{fill:#D31E35;}
	.st118{opacity:0.25;clip-path:url(#XMLID_205_);}
	.st119{opacity:0.15;clip-path:url(#XMLID_206_);}
	.st120{opacity:0.25;clip-path:url(#XMLID_206_);}
	.st121{clip-path:url(#XMLID_207_);fill:#E6333E;}
	.st122{clip-path:url(#XMLID_208_);fill:#E6333E;}
	.st123{clip-path:url(#XMLID_209_);fill:#E6333E;}
	.st124{clip-path:url(#XMLID_210_);fill:#80AF3E;}
	.st125{clip-path:url(#XMLID_211_);fill:#80AF3E;}
	.st126{clip-path:url(#XMLID_212_);fill:#4B7312;}
	.st127{clip-path:url(#XMLID_213_);fill:#80AF3E;}
	.st128{clip-path:url(#XMLID_214_);fill:#80AF3E;}
	.st129{clip-path:url(#XMLID_215_);fill:#4B7312;}
	.st130{opacity:0.15;clip-path:url(#XMLID_216_);}
	.st131{opacity:0.25;clip-path:url(#XMLID_216_);}
	.st132{clip-path:url(#XMLID_217_);fill:#80AF3E;}
	.st133{clip-path:url(#XMLID_218_);fill:#80AF3E;}
	.st134{clip-path:url(#XMLID_219_);fill:#4B7312;}
	.st135{opacity:0.15;clip-path:url(#XMLID_223_);}
	.st136{opacity:0.25;clip-path:url(#XMLID_223_);}
	.st137{opacity:0.15;clip-path:url(#XMLID_224_);}
	.st138{opacity:0.25;clip-path:url(#XMLID_224_);}
	.st139{opacity:0.15;clip-path:url(#XMLID_225_);}
	.st140{opacity:0.25;clip-path:url(#XMLID_225_);}
	.st141{opacity:0.15;clip-path:url(#XMLID_226_);}
	.st142{opacity:0.25;clip-path:url(#XMLID_226_);}
	.st143{clip-path:url(#XMLID_227_);fill:#80AF3E;}
	.st144{clip-path:url(#XMLID_228_);fill:#80AF3E;}
	.st145{clip-path:url(#XMLID_229_);fill:#4B7312;}
	.st146{opacity:0.15;clip-path:url(#XMLID_230_);}
	.st147{opacity:0.25;clip-path:url(#XMLID_230_);}
	.st148{opacity:0.15;clip-path:url(#XMLID_231_);}
	.st149{opacity:0.25;clip-path:url(#XMLID_231_);}
	.st150{clip-path:url(#XMLID_232_);fill:#FFFFFF;}
	.st151{clip-path:url(#XMLID_233_);fill:#FFFFFF;}
	.st152{clip-path:url(#XMLID_234_);fill:#FFFFFF;}
	.st153{opacity:0.75;fill:#24244E;}
	.st154{fill:none;stroke:#80AE3C;stroke-width:4;stroke-miterlimit:10;}
	.st155{fill:none;stroke:#24244E;stroke-width:2;stroke-linecap:round;stroke-miterlimit:10;}
</style>
<g id="_x5F_REFE">
</g>
<g id="BG">
</g>
<g id="GRAFICA">
	<g>
		<g>
			<polygon class="st7" points="201.68,9.45 87.81,17.04 37.45,119.46 100.96,214.28 214.84,206.68 265.2,104.27 			"/>
			<g>
				<g>
					<g>
						<defs>
							<path id="XMLID_98_" d="M140.38,97.35c-16.25-6.74-20.55-29.89-8.97-42.82c6.99-8.16,19.09-9.76,29.01-6.92
								c3.2,0.96,2.92,0.33,3.03,3.94c0.12,4.34-1.15,8.35-3.19,12.13c-7,12.06-17.25,14.64-18.75,31.14
								c-0.08,0.84-0.12,1.68-0.13,2.53C141.17,97.38,140.62,97.44,140.38,97.35z"/>
						</defs>
						<use xlink:href="#XMLID_98_"  style="overflow:visible;fill:#FFFFFF;"/>
						<clipPath id="XMLID_102_">
							<use xlink:href="#XMLID_98_"  style="overflow:visible;"/>
						</clipPath>
					</g>
					<g>
						<defs>
							<path id="XMLID_97_" d="M166.72,50.49c14.66,9.53,14.48,33.16,0.96,43.6c-6.3,5.62-14.82,5.19-22.75,4.55
								c-0.91-0.03-1.28-0.46-1.39-1.33c-1.62-9.01,4.38-15.9,10.75-21.37C171.89,60.65,161.08,46.44,166.72,50.49z"/>
						</defs>
						<use xlink:href="#XMLID_97_"  style="overflow:visible;fill:#FFFFFF;"/>
						<clipPath id="XMLID_103_">
							<use xlink:href="#XMLID_97_"  style="overflow:visible;"/>
						</clipPath>
					</g>
				</g>
				<g>
					<defs>
						<path id="XMLID_96_" d="M185.04,126.79c-5.96-11.88-17.58-22.89-31.73-21.12c-1.39,0.28-2.69,0.21-3.89,0.01
							c-14.18-1.82-25.83,9.21-31.8,21.11c-2.53,4.52-3.6,9.71-3.03,14.88c0.45,4.28,1.32,8.66,3.88,12.22
							c1.15,0.93,1.03,4.38,3.07,3.36c0.47,1.19,0.85,3.06,2.53,2.79c-0.05-0.4-0.1-0.78-0.15-1.17c0.26,0.18,0.4,0.4,0.49,0.65
							c0.25,0.79,2.04,3.49,2.71,1.96c0.29-0.47,0.5-0.48,0.89-0.08c0.71,0.82,1.67,1.34,2.63,1.81c1.55-0.9,0.01-5.59-0.25-7.18
							c-0.2-0.74-1.03-1-1.62-1.35c0.02-0.05,0.05-0.1,0.07-0.15c0.62,0.05,3.52,1.73,2.82,0.14c-1.02-1.71-2.17-3.36-3.18-5.08
							c0.07-0.05,0.13-0.11,0.2-0.16c0.23,0.16,0.45,0.33,0.75,0.54c-1.06-13.6,4.35-29.34,15.57-37.67
							c-0.51,1.11-1.02,2.22-1.48,3.36c-2.97,7.4-4.99,15.21-6.07,23.11c-1.09,8.01-1.24,16.33,0.57,24.26
							c1.64,7.18,5.09,14.05,10.99,18.63c0.57-1.68-0.25-3.45-0.36-5.17c-0.37-2.84-0.95-5.63-1.31-8.47
							c-0.93-7.15-0.75-14.52,1.42-21.44c1.41-3.76,3.48-6.91,4.6-0.85c0.99,2.63,1.49,5.32,1.39,8.14
							c0.69,5.68,0.59,11.35-0.16,17.01c-0.2,3.65-1.66,7.3-0.9,10.92c-0.01-0.06,0.6-0.5,0.67-0.57c0.22-0.2,0.45-0.39,0.67-0.6
							c0.43-0.4,0.86-0.82,1.26-1.25c1.04-1.09,1.99-2.26,2.85-3.5c0.86-1.24,1.63-2.54,2.31-3.88c0.69-1.36,1.28-2.77,1.8-4.21
							c0.53-1.47,0.96-2.97,1.32-4.49c0.37-1.55,0.66-3.13,0.88-4.71c0.23-1.62,0.38-3.25,0.47-4.88c0.09-1.66,0.12-3.33,0.1-4.99
							c-0.03-1.69-0.11-3.37-0.25-5.05c-0.14-1.69-0.32-3.38-0.56-5.06c-0.23-1.68-0.51-3.35-0.83-5.01
							c-0.32-1.64-0.68-3.28-1.08-4.91c-0.39-1.59-0.82-3.18-1.29-4.75c-0.45-1.52-0.94-3.04-1.47-4.54
							c-0.5-1.44-1.04-2.86-1.61-4.27c-0.39-0.96-0.82-1.91-1.25-2.85c11.21,8.34,16.61,24.07,15.56,37.66
							c0.3-0.21,0.53-0.38,0.75-0.54c0.06,0.05,0.13,0.11,0.2,0.16c-1.02,1.72-2.16,3.36-3.18,5.08c-0.7,1.59,2.2-0.09,2.82-0.14
							c0.02,0.05,0.05,0.1,0.07,0.15c-0.6,0.35-1.43,0.62-1.62,1.35c-0.26,1.59-1.81,6.28-0.25,7.18c0.96-0.48,1.91-1,2.63-1.81
							c0.39-0.4,0.61-0.4,0.89,0.08c0.66,1.53,2.46-1.16,2.71-1.96c0.08-0.24,0.23-0.47,0.49-0.65c-0.05,0.38-0.1,0.77-0.15,1.17
							c1.69,0.27,2.06-1.59,2.53-2.79c2.05,1.02,1.93-2.43,3.07-3.36c2.56-3.56,3.44-7.94,3.88-12.22
							C188.64,136.5,187.57,131.31,185.04,126.79z"/>
					</defs>
					<use xlink:href="#XMLID_96_"  style="overflow:visible;fill:#FFFFFF;"/>
					<clipPath id="XMLID_104_">
						<use xlink:href="#XMLID_96_"  style="overflow:visible;"/>
					</clipPath>
				</g>
			</g>
		</g>
		<polygon class="st4" points="0,168.23 7.57,177.58 45.45,159.2 		"/>
		<polygon class="st29" points="32.71,20.87 28.76,29.72 56.46,41.49 		"/>
		<polygon class="st29" points="290.59,59.37 287.65,53.23 269.63,63.38 		"/>
		<polygon class="st4" points="316.29,198.89 317.51,187.97 281.09,171.45 		"/>
		<polygon class="st4" points="296.09,6.94 289.37,0 257.36,31.03 		"/>
	</g>
</g>
<g id="TXT">
</g>
<g id="ILUSTRACIONES">
</g>
<g id="BG_x5F_INST">
</g>
<g id="INSTRUCCIONES">
</g>
<g id="HEADER">
</g>
</svg>
