<?xml version="1.0" encoding="utf-8"?>
<!-- Generator: Adobe Illustrator 25.1.0, SVG Export Plug-In . SVG Version: 6.00 Build 0)  -->
<svg version="1.1" xmlns="http://www.w3.org/2000/svg" xmlns:xlink="http://www.w3.org/1999/xlink" x="0px" y="0px"
	 viewBox="0 0 55.51 57.04" style="enable-background:new 0 0 55.51 57.04;" xml:space="preserve">
<style type="text/css">
	.st0{fill:#80AE3C;}
	.st1{fill:#24244E;}
	.st2{fill:#4B0F13;}
	.st3{fill:#E6333E;}
	.st4{fill:#4B7312;}
	.st5{fill:#262A58;}
	.st6{fill:#3BC7ED;}
	.st7{fill:#2CBDBD;}
	.st8{fill:#121C33;}
	.st9{opacity:0.3;fill:url(#SVGID_1_);}
	.st10{fill:none;stroke:#121C33;stroke-width:2;stroke-miterlimit:10;}
	.st11{opacity:0.3;fill:url(#SVGID_2_);}
	.st12{opacity:0.3;fill:url(#SVGID_3_);}
	.st13{opacity:0.3;fill:url(#SVGID_4_);}
	.st14{opacity:0.3;fill:url(#SVGID_5_);}
	.st15{opacity:0.3;fill:url(#SVGID_6_);}
	.st16{opacity:0.3;fill:url(#SVGID_7_);}
	.st17{opacity:0.3;fill:url(#SVGID_8_);}
	.st18{opacity:0.3;fill:url(#SVGID_9_);}
	.st19{opacity:0.3;fill:url(#SVGID_10_);}
	.st20{opacity:0.3;fill:url(#SVGID_11_);}
	.st21{opacity:0.3;fill:url(#SVGID_12_);}
	.st22{fill:#ED3D4B;}
	.st23{fill:#80AF3E;}
	.st24{opacity:0.15;clip-path:url(#XMLID_102_);}
	.st25{fill:#1DB4D3;}
	.st26{opacity:0.25;clip-path:url(#XMLID_102_);}
	.st27{opacity:0.15;clip-path:url(#XMLID_103_);}
	.st28{opacity:0.25;clip-path:url(#XMLID_103_);}
	.st29{fill:#FFFFFF;}
	.st30{fill:#F7F7F7;}
	.st31{fill:#A144AF;}
	.st32{fill:none;stroke:#80AF3E;stroke-width:2;stroke-miterlimit:10;}
	.st33{clip-path:url(#XMLID_104_);fill:#80AF3E;}
	.st34{clip-path:url(#XMLID_105_);fill:#80AF3E;}
	.st35{clip-path:url(#XMLID_106_);fill:#4B7312;}
	.st36{clip-path:url(#XMLID_113_);fill:#80AF3E;}
	.st37{clip-path:url(#XMLID_114_);fill:#80AF3E;}
	.st38{clip-path:url(#XMLID_115_);fill:#4B7312;}
	.st39{clip-path:url(#XMLID_116_);fill:#80AF3E;}
	.st40{clip-path:url(#XMLID_117_);fill:#80AF3E;}
	.st41{clip-path:url(#XMLID_118_);fill:#4B7312;}
	.st42{clip-path:url(#XMLID_119_);fill:#80AF3E;}
	.st43{clip-path:url(#XMLID_120_);fill:#80AF3E;}
	.st44{clip-path:url(#XMLID_133_);fill:#4B7312;}
	.st45{clip-path:url(#XMLID_134_);fill:#80AF3E;}
	.st46{clip-path:url(#XMLID_135_);fill:#80AF3E;}
	.st47{clip-path:url(#XMLID_136_);fill:#4B7312;}
	.st48{clip-path:url(#XMLID_137_);fill:#80AF3E;}
	.st49{clip-path:url(#XMLID_138_);fill:#80AF3E;}
	.st50{clip-path:url(#XMLID_139_);fill:#4B7312;}
	.st51{clip-path:url(#XMLID_140_);fill:#80AF3E;}
	.st52{clip-path:url(#XMLID_141_);fill:#80AF3E;}
	.st53{clip-path:url(#XMLID_142_);fill:#4B7312;}
	.st54{clip-path:url(#XMLID_143_);fill:#80AF3E;}
	.st55{clip-path:url(#XMLID_144_);fill:#80AF3E;}
	.st56{clip-path:url(#XMLID_145_);fill:#4B7312;}
	.st57{fill:none;stroke:#FFFFFF;stroke-width:4;stroke-miterlimit:10;}
	.st58{clip-path:url(#XMLID_149_);fill:#E6333E;}
	.st59{clip-path:url(#XMLID_150_);fill:#E6333E;}
	.st60{clip-path:url(#XMLID_151_);fill:#E6333E;}
	.st61{clip-path:url(#XMLID_152_);fill:#80AF3E;}
	.st62{clip-path:url(#XMLID_153_);fill:#80AF3E;}
	.st63{clip-path:url(#XMLID_154_);fill:#4B7312;}
	.st64{clip-path:url(#XMLID_155_);fill:#80AF3E;}
	.st65{clip-path:url(#XMLID_156_);fill:#80AF3E;}
	.st66{clip-path:url(#XMLID_157_);fill:#4B7312;}
	.st67{clip-path:url(#XMLID_158_);fill:#80AF3E;}
	.st68{clip-path:url(#XMLID_159_);fill:#80AF3E;}
	.st69{clip-path:url(#XMLID_160_);fill:#4B7312;}
	.st70{clip-path:url(#XMLID_161_);fill:#ED3D4B;}
	.st71{clip-path:url(#XMLID_162_);fill:#ED3D4B;}
	.st72{clip-path:url(#XMLID_163_);fill:#ED3D4B;}
	.st73{clip-path:url(#XMLID_164_);fill:#FFFFFF;}
	.st74{clip-path:url(#XMLID_165_);fill:#FFFFFF;}
	.st75{clip-path:url(#XMLID_166_);fill:#FFFFFF;}
	.st76{clip-path:url(#XMLID_167_);fill:#80AF3E;}
	.st77{clip-path:url(#XMLID_168_);fill:#80AF3E;}
	.st78{clip-path:url(#XMLID_169_);fill:#4B7312;}
	.st79{clip-path:url(#XMLID_170_);fill:#80AF3E;}
	.st80{clip-path:url(#XMLID_171_);fill:#80AF3E;}
	.st81{clip-path:url(#XMLID_172_);fill:#4B7312;}
	.st82{clip-path:url(#XMLID_173_);fill:#80AF3E;}
	.st83{clip-path:url(#XMLID_174_);fill:#80AF3E;}
	.st84{clip-path:url(#XMLID_175_);fill:#4B7312;}
	.st85{clip-path:url(#XMLID_176_);fill:#80AF3E;}
	.st86{clip-path:url(#XMLID_177_);fill:#80AF3E;}
	.st87{clip-path:url(#XMLID_178_);fill:#4B7312;}
	.st88{clip-path:url(#XMLID_179_);fill:#80AF3E;}
	.st89{clip-path:url(#XMLID_180_);fill:#80AF3E;}
	.st90{clip-path:url(#XMLID_181_);fill:#4B7312;}
	.st91{clip-path:url(#XMLID_182_);fill:#E6333E;}
	.st92{clip-path:url(#XMLID_183_);fill:#E6333E;}
	.st93{clip-path:url(#XMLID_184_);fill:#E6333E;}
	.st94{clip-path:url(#XMLID_185_);fill:#80AF3E;}
	.st95{clip-path:url(#XMLID_186_);fill:#80AF3E;}
	.st96{clip-path:url(#XMLID_187_);fill:#4B7312;}
	.st97{clip-path:url(#XMLID_188_);fill:#80AF3E;}
	.st98{clip-path:url(#XMLID_189_);fill:#80AF3E;}
	.st99{clip-path:url(#XMLID_190_);fill:#4B7312;}
	.st100{opacity:0.15;clip-path:url(#XMLID_191_);}
	.st101{opacity:0.25;clip-path:url(#XMLID_191_);}
	.st102{opacity:0.15;clip-path:url(#XMLID_192_);}
	.st103{opacity:0.25;clip-path:url(#XMLID_192_);}
	.st104{clip-path:url(#XMLID_193_);fill:#E6333E;}
	.st105{clip-path:url(#XMLID_194_);fill:#E6333E;}
	.st106{clip-path:url(#XMLID_195_);fill:#E6333E;}
	.st107{clip-path:url(#XMLID_196_);fill:#80AF3E;}
	.st108{clip-path:url(#XMLID_197_);fill:#80AF3E;}
	.st109{clip-path:url(#XMLID_198_);fill:#4B7312;}
	.st110{clip-path:url(#XMLID_199_);fill:#80AF3E;}
	.st111{clip-path:url(#XMLID_200_);fill:#80AF3E;}
	.st112{clip-path:url(#XMLID_201_);fill:#4B7312;}
	.st113{clip-path:url(#XMLID_202_);fill:#FFFFFF;}
	.st114{clip-path:url(#XMLID_203_);fill:#FFFFFF;}
	.st115{clip-path:url(#XMLID_204_);fill:#FFFFFF;}
	.st116{opacity:0.15;clip-path:url(#XMLID_205_);}
	.st117{fill:#D31E35;}
	.st118{opacity:0.25;clip-path:url(#XMLID_205_);}
	.st119{opacity:0.15;clip-path:url(#XMLID_206_);}
	.st120{opacity:0.25;clip-path:url(#XMLID_206_);}
	.st121{clip-path:url(#XMLID_207_);fill:#E6333E;}
	.st122{clip-path:url(#XMLID_208_);fill:#E6333E;}
	.st123{clip-path:url(#XMLID_209_);fill:#E6333E;}
	.st124{clip-path:url(#XMLID_210_);fill:#80AF3E;}
	.st125{clip-path:url(#XMLID_211_);fill:#80AF3E;}
	.st126{clip-path:url(#XMLID_212_);fill:#4B7312;}
	.st127{clip-path:url(#XMLID_213_);fill:#80AF3E;}
	.st128{clip-path:url(#XMLID_214_);fill:#80AF3E;}
	.st129{clip-path:url(#XMLID_215_);fill:#4B7312;}
	.st130{opacity:0.15;clip-path:url(#XMLID_216_);}
	.st131{opacity:0.25;clip-path:url(#XMLID_216_);}
	.st132{clip-path:url(#XMLID_217_);fill:#80AF3E;}
	.st133{clip-path:url(#XMLID_218_);fill:#80AF3E;}
	.st134{clip-path:url(#XMLID_219_);fill:#4B7312;}
	.st135{opacity:0.15;clip-path:url(#XMLID_223_);}
	.st136{opacity:0.25;clip-path:url(#XMLID_223_);}
	.st137{opacity:0.15;clip-path:url(#XMLID_224_);}
	.st138{opacity:0.25;clip-path:url(#XMLID_224_);}
	.st139{opacity:0.15;clip-path:url(#XMLID_225_);}
	.st140{opacity:0.25;clip-path:url(#XMLID_225_);}
	.st141{opacity:0.15;clip-path:url(#XMLID_226_);}
	.st142{opacity:0.25;clip-path:url(#XMLID_226_);}
	.st143{clip-path:url(#XMLID_227_);fill:#80AF3E;}
	.st144{clip-path:url(#XMLID_228_);fill:#80AF3E;}
	.st145{clip-path:url(#XMLID_229_);fill:#4B7312;}
	.st146{opacity:0.15;clip-path:url(#XMLID_230_);}
	.st147{opacity:0.25;clip-path:url(#XMLID_230_);}
	.st148{opacity:0.15;clip-path:url(#XMLID_231_);}
	.st149{opacity:0.25;clip-path:url(#XMLID_231_);}
	.st150{clip-path:url(#XMLID_232_);fill:#FFFFFF;}
	.st151{clip-path:url(#XMLID_233_);fill:#FFFFFF;}
	.st152{clip-path:url(#XMLID_234_);fill:#FFFFFF;}
	.st153{opacity:0.75;fill:#24244E;}
	.st154{fill:none;stroke:#80AE3C;stroke-width:4;stroke-miterlimit:10;}
	.st155{fill:none;stroke:#24244E;stroke-width:2;stroke-linecap:round;stroke-miterlimit:10;}
</style>
<g id="_x5F_REFE">
</g>
<g id="BG">
</g>
<g id="GRAFICA">
	<g>
		<polygon class="st23" points="27.72,6.92 1.51,31.09 5.94,35.43 8.7,32.67 8.7,57.04 22.61,57.04 22.61,39 33.68,39 33.68,56.96 
			48.06,56.96 48.06,33.01 49.57,34.52 53.76,30.32 		"/>
		<path class="st23" d="M28.6,4.04c0.82-1.01,2.01-1.63,3.16-2.23c1.16-0.6,2.31-1.2,3.47-1.81c0.05,2.53-0.9,5.07-2.6,6.94
			c-0.62,0.68-1.37,1.3-2.28,1.48c-0.83,0.17-1.71-0.12-2.28-0.75c-0.22-0.24-0.28-0.6-0.33-0.91c-0.06-0.45-0.01-0.91,0.12-1.34
			C28.02,4.92,28.27,4.45,28.6,4.04z"/>
		<path class="st23" d="M15.19,17.53c-1.33-1.19-3.18-1.77-4.95-1.55c-0.12,0.87,0.23,1.78,0.84,2.4c0.62,0.63,1.48,0.98,2.36,1.06
			c0.55,0.05,1.11-0.02,1.62-0.22c0.37-0.15,1.02-0.45,0.78-0.95C15.7,17.98,15.42,17.74,15.19,17.53z"/>
		<path class="st23" d="M49.97,24.3c0.85-0.3,1.76-0.41,2.66-0.52c-0.19,1.05-0.81,2.06-1.76,2.54c-0.65,0.33-1.46,0.37-2.14,0.1
			c-0.22-0.09-0.82-0.36-0.79-0.65c0.02-0.16,0.25-0.36,0.36-0.47c0.14-0.14,0.29-0.27,0.45-0.38
			C49.12,24.66,49.54,24.45,49.97,24.3z"/>
		<path class="st23" d="M53.67,29.91c0.64,0.14,1.25,0.42,1.84,0.7c-0.52,0.58-1.29,0.96-2.06,0.9c-0.53-0.04-1.04-0.33-1.36-0.76
			c-0.1-0.14-0.37-0.53-0.24-0.7c0.07-0.09,0.29-0.13,0.4-0.15c0.14-0.03,0.28-0.05,0.42-0.06C53,29.8,53.34,29.84,53.67,29.91z"/>
		<path class="st23" d="M25.59,4.9c0,0.32,0.02,0.64,0.06,0.96c0.05,0.34,0.12,0.66,0.25,0.98c0.2,0.5,1.28,2.08,1.86,1.15
			c0.37-0.6,0.18-1.6-0.27-2.11C27.03,5.37,26.2,5.13,25.59,4.9z"/>
		<path class="st23" d="M1.18,31.71c-0.24,0.04-0.49-0.03-0.69-0.16S0.12,31.23,0,31.02c0.25,0,0.49-0.08,0.72-0.16
			c0.23-0.08,0.47-0.16,0.72-0.16c0.21,0,0.51,0.09,0.58,0.32c0.08,0.25-0.22,0.41-0.39,0.51C1.49,31.61,1.34,31.68,1.18,31.71z"/>
		<path class="st23" d="M0.5,30.5c-0.22-0.29-0.31-0.66-0.29-1.02s0.15-0.71,0.34-1.02c0.17,0.33,0.45,0.58,0.72,0.83
			s0.55,0.5,0.72,0.83c0.15,0.28,0.25,0.73,0,0.99c-0.27,0.28-0.69,0-0.95-0.15C0.84,30.83,0.65,30.69,0.5,30.5z"/>
	</g>
</g>
<g id="TXT">
</g>
<g id="ILUSTRACIONES">
</g>
<g id="BG_x5F_INST">
</g>
<g id="INSTRUCCIONES">
</g>
<g id="HEADER">
</g>
</svg>
